<?xml version="1.0" encoding="utf-8"?>
<!-- Generator: Adobe Illustrator 16.0.0, SVG Export Plug-In . SVG Version: 6.00 Build 0)  -->
<!DOCTYPE svg PUBLIC "-//W3C//DTD SVG 1.1//EN" "http://www.w3.org/Graphics/SVG/1.1/DTD/svg11.dtd">
<svg version="1.1" id="Layer_1" xmlns="http://www.w3.org/2000/svg" xmlns:xlink="http://www.w3.org/1999/xlink" x="0px" y="0px"
	 width="180px" height="180px" viewBox="0 0 180 180" enable-background="new 0 0 180 180" xml:space="preserve">
<g>
	<path d="M52.789,43.935l55.471,55.471c2.334,2.334,4.367,4.615,6.1,6.842c1.732,2.229,3.023,4.332,3.871,6.311
		c1.344,3.184,2.157,6.508,2.439,9.971c0.283,3.465,0.019,6.912-0.796,10.342c-0.812,3.43-2.139,6.807-3.977,10.129
		c-1.84,3.324-4.173,6.4-7,9.229c-8.558,8.557-19.447,11.598-32.668,9.121l-0.318-27.471c2.759,2.051,5.445,3.184,8.062,3.395
		c2.616,0.213,4.808-0.566,6.575-2.334c3.888-3.889,2.757-8.91-3.393-15.061L32.001,64.723L52.789,43.935z"/>
	<path d="M106.599,97.746l-20.787,20.789L32,64.724L65.094,31.63c8.978-8.978,18.189-13.522,27.628-13.628
		c9.439-0.106,18.402,4.083,26.888,12.568c8.484,8.485,12.674,17.448,12.568,26.888c-0.106,9.44-4.65,18.651-13.629,27.629
		l-12.304,12.305L106.599,97.746z M89.487,80.633l6.894-6.895c7.636-7.636,8.132-14.777,1.484-21.424
		c-6.645-6.646-13.787-6.152-21.423,1.484l-6.895,6.894L89.487,80.633z"/>
</g>
</svg>
