<?xml version="1.0" encoding="utf-8"?>
<!-- Generator: Adobe Illustrator 19.2.0, SVG Export Plug-In . SVG Version: 6.00 Build 0)  -->
<svg version="1.1" id="Ebene_1" xmlns="http://www.w3.org/2000/svg" xmlns:xlink="http://www.w3.org/1999/xlink" x="0px" y="0px"
	 viewBox="0 0 500 500" enable-background="new 0 0 500 500" xml:space="preserve">
<g>
	<circle fill="none" stroke="#121212" stroke-width="8" stroke-miterlimit="10" cx="375.9" cy="81.9" r="37.8"/>
	<path fill="#121212" d="M403.5,223.2c-15.9-30.9-37.6-69.5-63.8-114.6l10.4-6.2c2.4-1.5,3.2-4.6,1.8-7c-1.5-2.4-4.6-3.2-7-1.8
		l-10.4,6.2c-2.7-4.5,2.6,3.9,0,0c-15.4-23.1-17.6-32.1-51-32.1h-77.6v75.9H293h0.1h15.4c18,0,23.1,5.1,30.8,18
		c7.7,12.8,51.3,79,53.9,84.1c2.6,5.1,5.8,15.1,5.8,22.8c0,7.7-1.9,105.5-1.9,105.5l8.9,5.8c0,0,7.7-112.9,7.7-123.2
		C413.7,246.3,407.7,231.4,403.5,223.2"/>
	<path fill="#FFFFFF" d="M283.5,67.7c33.4,0,35.6,9,51,32.1l10.4-6.2c0.8-0.5,1.7-0.7,2.6-0.7c1.7,0,3.4,0.9,4.4,2.5
		c1.5,2.4,0.7,5.6-1.8,7l-10.4,6.2c26.2,45.1,47.9,83.7,63.8,114.6c4.2,8.2,10.3,23.1,10.3,33.4c0,10.3-7.7,123.2-7.7,123.2
		l-8.9-5.8c0,0,1.9-97.8,1.9-105.5c0-7.7-3.3-17.6-5.8-22.8c-2.6-5.1-46.2-71.3-53.9-84.1c-7.7-12.8-12.8-18-30.8-18h-15.4H293
		h-87.1V67.7H283.5 M333.3,97.7L333.3,97.7L333.3,97.7 M333.3,97.7c0,0,0.3,0.5,1.2,2C334.5,99.7,333.3,97.7,333.3,97.7 M283.5,63.7
		h-77.6h-4v4v75.9v4h4H293h0.1h15.4c16.3,0,20.2,4.2,27.4,16c3.7,6.2,15.7,24.6,27.2,42.4c11.9,18.2,25.3,38.9,26.5,41.4
		c2.6,5.3,5.4,14.4,5.4,21c0,7.6-1.9,104.4-1.9,105.4l0,2.2l1.9,1.2l8.9,5.8l5.7,3.7l0.5-6.8c0.3-4.6,7.7-113.2,7.7-123.5
		c0-10.6-5.8-25.6-10.7-35.2c-14.3-27.8-34-63.3-61.9-111.4l7-4.2c4.3-2.6,5.7-8.2,3.1-12.5c-1.6-2.7-4.6-4.4-7.8-4.4
		c-1.6,0-3.3,0.4-4.7,1.3l-7.1,4.2c-0.7-1.1-1.4-2.1-2-3.1C321.4,72.3,315.8,63.7,283.5,63.7L283.5,63.7z"/>
	<path fill="#121212" d="M333.6,169.2c-3.4-10-13-23.1-40.2-23.1h-43.9v0h-43.9c-27.2,0-36.8,13.1-40.2,23.1
		c-12.3,36.4-30.2,123.3-21.6,176.4c8.7,53.1,47.6,93,105.7,93v0c58.1,0,97-39.8,105.7-93C363.8,292.5,345.9,205.6,333.6,169.2"/>
	<path fill="none" stroke="#FFFFFF" stroke-width="5" stroke-miterlimit="10" d="M333.6,169.2c-3.4-10-13-23.1-40.2-23.1h-43.9v0
		h-43.9c-27.2,0-36.8,13.1-40.2,23.1c-12.3,36.4-30.2,123.3-21.6,176.4c8.7,53.1,47.6,93,105.7,93v0c58.1,0,97-39.8,105.7-93
		C363.8,292.5,345.9,205.6,333.6,169.2z"/>
	<path fill="#121212" d="M249.7,269.3V146.1h-43.9c-27.2,0-36.8,13.1-40.2,23.1c-7.3,21.5-16.5,60.7-21.1,100.1L249.7,269.3
		L249.7,269.3z"/>
	<path fill="none" stroke="#FFFFFF" stroke-width="5" stroke-miterlimit="10" d="M249.7,269.3V146.1h-43.9
		c-27.2,0-36.8,13.1-40.2,23.1c-7.3,21.5-16.5,60.7-21.1,100.1L249.7,269.3L249.7,269.3z"/>
	<path fill="#121212" d="M249.3,269.3V146.1h43.9c27.2,0,36.8,13.1,40.2,23.1c7.3,21.5,16.5,60.7,21.1,100.1L249.3,269.3
		L249.3,269.3z"/>
	<path fill="none" stroke="#FFFFFF" stroke-width="5" stroke-miterlimit="10" d="M249.3,269.3V146.1h43.9
		c27.2,0,36.8,13.1,40.2,23.1c7.3,21.5,16.5,60.7,21.1,100.1L249.3,269.3L249.3,269.3z"/>
	<path fill="#121212" d="M249.5,176.9c-7.1,0-12.8,5.7-12.8,12.8v35.9c0,7.1,5.7,12.8,12.8,12.8s12.8-5.7,12.8-12.8v-35.9
		C262.3,182.7,256.6,176.9,249.5,176.9"/>
	<path fill="none" stroke="#FFFFFF" stroke-width="5" stroke-miterlimit="10" d="M249.5,176.9c-7.1,0-12.8,5.7-12.8,12.8v35.9
		c0,7.1,5.7,12.8,12.8,12.8s12.8-5.7,12.8-12.8v-35.9C262.3,182.7,256.6,176.9,249.5,176.9z"/>
</g>
</svg>
