<?xml version="1.0" encoding="utf-8"?>
<!-- Generator: Adobe Illustrator 19.2.0, SVG Export Plug-In . SVG Version: 6.00 Build 0)  -->
<svg version="1.1" id="Tablet" xmlns="http://www.w3.org/2000/svg" xmlns:xlink="http://www.w3.org/1999/xlink" x="0px" y="0px"
	 viewBox="0 0 416 416" enable-background="new 0 0 416 416" xml:space="preserve">
<g>
	
		<line fill="none" stroke="#000000" stroke-width="1.7155" stroke-linecap="round" stroke-linejoin="round" stroke-miterlimit="10" x1="45.2" y1="77.8" x2="57.2" y2="77.8"/>
	
		<line fill="none" stroke="#000000" stroke-width="1.7155" stroke-linecap="round" stroke-linejoin="round" stroke-miterlimit="10" x1="45.2" y1="82.1" x2="52" y2="82.1"/>
	
		<path fill="none" stroke="#000000" stroke-width="1.7155" stroke-linecap="round" stroke-linejoin="round" stroke-miterlimit="10" d="
		M70.5,66.6H32.7c-2.4,0-4.4,2-4.4,4.4v27.5c0,2.4,2,4.4,4.4,4.4h37.7c2.4,0,4.4-2,4.4-4.4V71.1C74.9,68.6,72.9,66.6,70.5,66.6z"/>
	
		<path fill="none" stroke="#000000" stroke-width="1.7155" stroke-linecap="round" stroke-linejoin="round" stroke-miterlimit="10" d="
		M40.9,66.6l0-16.1c0-5.9,4.6-11,10.5-11.1c5.9-0.1,10.8,4.6,10.9,10.5c0,0.1,0.1,0.3,0.2,0.3H66c0,0-3.7,3.3-3.6,3.5
		c0.2,2.8,2,5.2,4.4,6.3c1.5,0.7,3.3-0.4,3.3-2.1l0-4.9v-2.4c0-10-7.8-18.5-17.8-18.9c-10.5-0.4-19.1,8-19.1,18.4v16.4H40.9z"/>
</g>
<g>
	
		<path fill="none" stroke="#000000" stroke-width="1.9168" stroke-linecap="round" stroke-linejoin="round" stroke-miterlimit="10" d="
		M192.5,81.3h-24.4c-2.4,0-4.3-1.9-4.3-4.3V39.1c0-2.4,1.9-4.3,4.3-4.3h24.4c2.4,0,4.3,1.9,4.3,4.3V77
		C196.8,79.4,194.9,81.3,192.5,81.3z"/>
	
		<circle fill="none" stroke="#000000" stroke-width="1.9168" stroke-linecap="round" stroke-linejoin="round" stroke-miterlimit="10" cx="180.3" cy="50.7" r="9.9"/>
	
		<circle fill="none" stroke="#000000" stroke-width="1.9168" stroke-linecap="round" stroke-linejoin="round" stroke-miterlimit="10" cx="180.3" cy="70.8" r="4.5"/>
	
		<circle fill="none" stroke="#000000" stroke-width="1.9168" stroke-linecap="round" stroke-linejoin="round" stroke-miterlimit="10" cx="180.3" cy="50.7" r="2.8"/>
	
		<rect x="176.3" y="81.3" fill="none" stroke="#000000" stroke-width="1.9168" stroke-linecap="round" stroke-linejoin="round" stroke-miterlimit="10" width="8.1" height="18.6"/>
	<g>
		<g>
			<g>
				
					<polygon fill="none" stroke="#000000" stroke-width="1.9168" stroke-linecap="round" stroke-linejoin="round" stroke-miterlimit="10" points="
					210.7,91.8 205.9,88.6 203.2,93.1 207.7,96 				"/>
				
					<polygon fill="none" stroke="#000000" stroke-width="1.9168" stroke-linecap="round" stroke-linejoin="round" stroke-miterlimit="10" points="
					239.9,58.2 225.2,48.6 203.9,87.2 212.8,93.1 				"/>
			</g>
			
				<path fill="none" stroke="#000000" stroke-width="1.9168" stroke-linecap="round" stroke-linejoin="round" stroke-miterlimit="10" d="
				M239.9,58.3c1.8-0.8,3.3-2.1,4.5-3.8c3.2-4.8,1.8-11.3-3-14.5c-4.8-3.2-11.3-1.8-14.5,3c-1.1,1.7-1.7,3.7-1.7,5.6"/>
		</g>
		
			<line fill="none" stroke="#000000" stroke-width="1.9168" stroke-linecap="round" stroke-linejoin="round" stroke-miterlimit="10" x1="226.8" y1="42.9" x2="244.4" y2="54.5"/>
	</g>
</g>
<g>
	
		<ellipse transform="matrix(0.8592 -0.5117 0.5117 0.8592 -67.5698 202.7712)" fill="none" stroke="#000000" stroke-width="1.9168" stroke-linecap="round" stroke-linejoin="bevel" stroke-miterlimit="10" cx="334.6" cy="224.1" rx="3.7" ry="3.7"/>
	
		<path fill="none" stroke="#000000" stroke-width="1.9168" stroke-linecap="round" stroke-linejoin="round" stroke-miterlimit="10" d="
		M352.4,205.5c-1.1-1.8-3-2.9-5.1-2.9l-14.4,0.2c-2.1,0-4,1.2-5,3l-7,12.6c-1,1.8-1,4.1,0.1,5.9l7.4,12.4c1.1,1.8,3,2.9,5.1,2.9
		l14.4-0.2c2.1,0,4-1.2,5-3l7-12.6c1-1.8,1-4.1-0.1-5.9l-0.5-0.9l7-4.1l0.9-0.5l4.1-5.7l3.7,1l4.2-5.7l3.8,1l4.1-5.7l3.9,0.9l4-5.6
		l3,1.4c4.8-2.8,6.3-9,3.5-13.8l0,0c-0.8-1.3-2.5-1.8-3.8-1l-44.9,26.8L352.4,205.5z"/>
	
		<line fill="none" stroke="#000000" stroke-width="1.9168" stroke-linecap="round" stroke-linejoin="round" stroke-miterlimit="10" x1="396.3" y1="184.2" x2="358.4" y2="206.8"/>
	
		<line fill="none" stroke="#000000" stroke-width="1.9168" stroke-linecap="round" stroke-linejoin="round" stroke-miterlimit="10" x1="346.3" y1="209.7" x2="352.9" y2="220.7"/>
	
		<line fill="none" stroke="#000000" stroke-width="1.9168" stroke-linecap="round" stroke-linejoin="round" stroke-miterlimit="10" x1="342.4" y1="212.1" x2="346.1" y2="218.4"/>
</g>
<g>
	
		<path fill="#FFFFFF" stroke="#000000" stroke-width="1.9168" stroke-linecap="round" stroke-linejoin="round" stroke-miterlimit="10" d="
		M152.2,190.3l92.1-5.3l7.8,33.6c0.5,2.2-1.4,3.9-4.2,3.8l-87.2-2.6c-1.8-0.1-3.4-1.5-3.7-3.2L152.2,190.3z"/>
	
		<path fill="#FFFFFF" stroke="#000000" stroke-width="1.9168" stroke-linecap="round" stroke-linejoin="round" stroke-miterlimit="10" d="
		M243.9,185l-92,5.3l-4.6,34.4c-0.3,2.1,0.8,4,2.5,4.1l81.1,4.7c2.6,0.1,5.1-1.9,5.6-4.6L243.9,185z"/>
	
		<line fill="#FFFFFF" stroke="#000000" stroke-width="1.9168" stroke-linecap="round" stroke-linejoin="round" stroke-miterlimit="10" x1="158.6" y1="201.6" x2="209.2" y2="200.5"/>
	
		<line fill="#FFFFFF" stroke="#000000" stroke-width="1.9168" stroke-linecap="round" stroke-linejoin="round" stroke-miterlimit="10" x1="157.1" y1="212.7" x2="183.9" y2="213.3"/>
</g>
<g>
	
		<circle fill="none" stroke="#000000" stroke-width="1.9168" stroke-linecap="round" stroke-linejoin="round" stroke-miterlimit="10" cx="354.7" cy="76.2" r="10.7"/>
	<g>
		
			<polyline fill="none" stroke="#000000" stroke-width="1.9168" stroke-linecap="round" stroke-linejoin="round" stroke-miterlimit="10" points="
			358.4,66.2 358.4,60 351,60 351,66.2 		"/>
		
			<path fill="none" stroke="#000000" stroke-width="1.9168" stroke-linecap="round" stroke-linejoin="round" stroke-miterlimit="10" d="
			M358.6,30.8h-5.9c-1.9,0-3.5,1.6-3.4,3.5l0.6,25.7h9.7l2.4-25.5C362.1,32.5,360.6,30.8,358.6,30.8z"/>
	</g>
	<g>
		
			<polyline fill="none" stroke="#000000" stroke-width="1.9168" stroke-linecap="round" stroke-linejoin="round" stroke-miterlimit="10" points="
			344.2,77.9 338.8,81.1 342.6,87.5 347.9,84.4 		"/>
		
			<path fill="none" stroke="#000000" stroke-width="1.9168" stroke-linecap="round" stroke-linejoin="round" stroke-miterlimit="10" d="
			M313.5,95.6l2.9,5.1c1,1.7,3.1,2.2,4.7,1.2l22-13.4l-4.8-8.4L315,90.8C313.2,91.6,312.5,93.8,313.5,95.6z"/>
	</g>
	<g>
		
			<polyline fill="none" stroke="#000000" stroke-width="1.9168" stroke-linecap="round" stroke-linejoin="round" stroke-miterlimit="10" points="
			361.5,84.4 366.9,87.5 370.6,81 365.2,77.9 		"/>
		
			<path fill="none" stroke="#000000" stroke-width="1.9168" stroke-linecap="round" stroke-linejoin="round" stroke-miterlimit="10" d="
			M392.1,102.2l2.9-5.1c1-1.7,0.4-3.8-1.3-4.7l-22.6-12.3l-4.8,8.4l20.9,14.8C388.8,104.5,391.1,103.9,392.1,102.2z"/>
	</g>
</g>
<g>
	<g>
		
			<line fill="none" stroke="#000000" stroke-width="1.9168" stroke-linecap="round" stroke-linejoin="round" stroke-miterlimit="10" x1="69.2" y1="190.6" x2="46.6" y2="185.8"/>
		
			<line fill="none" stroke="#000000" stroke-width="1.9168" stroke-linecap="round" stroke-linejoin="round" stroke-miterlimit="10" x1="74.2" y1="189.8" x2="85.3" y2="183.4"/>
		
			<line fill="none" stroke="#000000" stroke-width="1.9168" stroke-linecap="round" stroke-linejoin="round" stroke-miterlimit="10" x1="71.9" y1="216.9" x2="71.9" y2="194.9"/>
		
			<path fill="none" stroke="#000000" stroke-width="1.9168" stroke-linecap="round" stroke-linejoin="round" stroke-miterlimit="10" d="
			M73.1,217l11.4-6.6c0.9-0.5,1.5-1.5,1.5-2.6v-22.5c0-1.4-1-2.6-2.3-2.9l-22.7-4.8c-0.7-0.2-1.5,0-2.1,0.3l-11.4,6.6
			c-0.9,0.5-1.5,1.5-1.5,2.6v22.5c0,1.4,1,2.6,2.3,2.9l22.7,4.8C71.7,217.5,72.5,217.3,73.1,217z"/>
	</g>
	
		<path fill="#FFFFFF" stroke="#000000" stroke-width="1.9168" stroke-linecap="round" stroke-linejoin="round" stroke-miterlimit="10" d="
		M40.7,227l11.4-6.6c0.9-0.5,1.5-1.5,1.5-2.6v-22.5c0-1.4-1-2.6-2.3-2.9l-22.7-4.8c-0.7-0.2-1.5,0-2.1,0.3l-11.4,6.6
		c-0.9,0.5-1.5,1.5-1.5,2.6v22.5c0,1.4,1,2.6,2.3,2.9l22.7,4.8C39.3,227.5,40.1,227.4,40.7,227z"/>
	
		<line fill="none" stroke="#000000" stroke-width="1.9168" stroke-linecap="round" stroke-linejoin="round" stroke-miterlimit="10" x1="36.9" y1="200.6" x2="14.2" y2="195.8"/>
	
		<line fill="none" stroke="#000000" stroke-width="1.9168" stroke-linecap="round" stroke-linejoin="round" stroke-miterlimit="10" x1="41.8" y1="199.9" x2="52.9" y2="193.5"/>
	
		<line fill="none" stroke="#000000" stroke-width="1.9168" stroke-linecap="round" stroke-linejoin="round" stroke-miterlimit="10" x1="39.5" y1="226.9" x2="39.5" y2="204.9"/>
	
		<path fill="#FFFFFF" stroke="#000000" stroke-width="1.9168" stroke-linecap="round" stroke-linejoin="round" stroke-miterlimit="10" d="
		M76.8,240.4l11.4-6.6c0.9-0.5,1.5-1.5,1.5-2.6v-22.5c0-1.4-1-2.6-2.3-2.9l-22.7-4.8c-0.7-0.2-1.5,0-2.1,0.3L51.1,208
		c-0.9,0.5-1.5,1.5-1.5,2.6V233c0,1.4,1,2.6,2.3,2.9l22.7,4.8C75.4,240.9,76.1,240.8,76.8,240.4z"/>
	
		<line fill="none" stroke="#000000" stroke-width="1.9168" stroke-linecap="round" stroke-linejoin="round" stroke-miterlimit="10" x1="72.9" y1="214" x2="50.3" y2="209.2"/>
	
		<line fill="none" stroke="#000000" stroke-width="1.9168" stroke-linecap="round" stroke-linejoin="round" stroke-miterlimit="10" x1="77.9" y1="213.3" x2="89" y2="206.9"/>
	
		<line fill="none" stroke="#000000" stroke-width="1.9168" stroke-linecap="round" stroke-linejoin="round" stroke-miterlimit="10" x1="75.6" y1="240.3" x2="75.6" y2="218.3"/>
</g>
<g>
	
		<ellipse fill="none" stroke="#000000" stroke-width="1.9168" stroke-linecap="round" stroke-linejoin="round" stroke-miterlimit="10" cx="357.8" cy="351.6" rx="36.8" ry="9.4"/>
	
		<path fill="none" stroke="#000000" stroke-width="1.9168" stroke-linecap="round" stroke-linejoin="round" stroke-miterlimit="10" d="
		M393.9,353.6c-3.4-4.3-18.3-7.5-36.1-7.5c-17.8,0-32.6,3.2-36.1,7.5"/>
	
		<path fill="none" stroke="#000000" stroke-width="1.9168" stroke-linecap="round" stroke-linejoin="round" stroke-miterlimit="10" d="
		M321,351.6v24c0,5.2,16.5,9.4,36.8,9.4c20.3,0,36.8-4.2,36.8-9.4v-24"/>
	
		<path fill="none" stroke="#000000" stroke-width="1.9168" stroke-linecap="round" stroke-linejoin="round" stroke-miterlimit="10" d="
		M357.8,350.7c0-6.7,2.5-10.9,5.1-13"/>
	
		<path fill="none" stroke="#000000" stroke-width="1.9168" stroke-linecap="round" stroke-linejoin="round" stroke-miterlimit="10" d="
		M366.8,338.7c1.9-1.3,3.2-3.5,3.2-6c0-4-0.1-18.6-4-18.6c-2.2,8.3-10.3,14.7-10.3,18.6c0,2,0.8,3.8,2.1,5.1"/>
</g>
<g>
	<g>
		
			<path fill="#FFFFFF" stroke="#000000" stroke-width="1.9168" stroke-linecap="round" stroke-linejoin="round" stroke-miterlimit="10" d="
			M160.6,360.8v6.9c0,5.9,18.7,10.6,41.7,10.6s41.7-4.8,41.7-10.6v-6.9"/>
		
			<ellipse fill="#FFFFFF" stroke="#000000" stroke-width="1.9168" stroke-linecap="round" stroke-linejoin="round" stroke-miterlimit="10" cx="202.3" cy="360.8" rx="41.7" ry="10.6"/>
	</g>
	<g>
		
			<path fill="#FFFFFF" stroke="#000000" stroke-width="1.9168" stroke-linecap="round" stroke-linejoin="round" stroke-miterlimit="10" d="
			M157.6,349.6v6.9c0,5.9,18.7,10.6,41.7,10.6s41.7-4.8,41.7-10.6v-6.9"/>
		
			<ellipse fill="#FFFFFF" stroke="#000000" stroke-width="1.9168" stroke-linecap="round" stroke-linejoin="round" stroke-miterlimit="10" cx="199.3" cy="349.6" rx="41.7" ry="10.6"/>
	</g>
	<g>
		
			<path fill="#FFFFFF" stroke="#000000" stroke-width="1.9168" stroke-linecap="round" stroke-linejoin="round" stroke-miterlimit="10" d="
			M158.6,338.5v6.9c0,5.9,18.7,10.6,41.7,10.6s41.7-4.8,41.7-10.6v-6.9"/>
		
			<ellipse fill="#FFFFFF" stroke="#000000" stroke-width="1.9168" stroke-linecap="round" stroke-linejoin="round" stroke-miterlimit="10" cx="200.3" cy="338.5" rx="41.7" ry="10.6"/>
	</g>
	<g>
		
			<path fill="#FFFFFF" stroke="#000000" stroke-width="1.9168" stroke-linecap="round" stroke-linejoin="round" stroke-miterlimit="10" d="
			M163.6,331.4v6.9c0,5.9,18.7,10.6,41.7,10.6s41.7-4.8,41.7-10.6v-6.9"/>
		
			<ellipse fill="#FFFFFF" stroke="#000000" stroke-width="1.9168" stroke-linecap="round" stroke-linejoin="round" stroke-miterlimit="10" cx="205.4" cy="331.4" rx="41.7" ry="10.6"/>
	</g>
	<g>
		<path d="M209.2,332.3c-0.8,0.6-1.8,1.1-3.2,1.5c-1.4,0.4-3,0.6-4.7,0.7l-0.9,1.8c-0.1,0.2-0.3,0.4-0.6,0.6c-0.3,0.2-0.7,0.2-1,0.2
			c-0.4,0-0.6-0.1-0.7-0.2c-0.1-0.2-0.1-0.4,0-0.6l1-1.8c-2.6-0.1-4.8-0.5-6.5-1.1c-0.2-0.1-0.4-0.2-0.4-0.4c0-0.2,0-0.3,0.2-0.5
			c0.2-0.2,0.5-0.4,0.9-0.6c0.4-0.2,0.8-0.2,1.2-0.2c0.2,0,0.4,0,0.6,0.1c1.4,0.5,3.2,0.7,5.2,0.8l2.2-4c-1.2-0.2-2.1-0.4-2.9-0.5
			c-0.7-0.2-1.2-0.5-1.5-0.8c-0.3-0.3-0.2-0.7,0.2-1.2c0.3-0.4,0.8-0.7,1.5-1c0.6-0.3,1.4-0.5,2.3-0.7c0.9-0.2,1.9-0.3,2.9-0.3
			l0.3-0.6c0-0.1,0.1-0.1,0.3-0.2c0.1,0,0.3-0.1,0.5-0.1c0.2,0,0.3,0,0.4,0.1c0.1,0,0.1,0.1,0.1,0.2l-0.3,0.6c1.4,0,2.7,0.1,3.8,0.3
			c0.4,0.1,0.6,0.2,0.6,0.4c0,0.1-0.1,0.2-0.3,0.3c-0.2,0.1-0.4,0.1-0.7,0.1c-0.1,0-0.2,0-0.4,0c-1-0.2-2.1-0.2-3.3-0.3l-1.3,2.7
			c1.2,0.1,2.3,0.3,3.1,0.5c0.8,0.2,1.5,0.5,2,0.8c0.6,0.4,0.8,0.9,0.7,1.7C210.4,331.1,210,331.7,209.2,332.3z M200.8,326.8
			c0.5,0.2,1.2,0.4,2.3,0.5l1.4-2.4c-1,0.1-1.8,0.2-2.5,0.4c-0.7,0.2-1.2,0.5-1.5,0.8C200.3,326.3,200.4,326.6,200.8,326.8z
			 M207.7,330.4c0.1-0.4-0.1-0.8-0.8-1c-0.6-0.2-1.6-0.4-2.9-0.6l-1.8,3.8C205.5,332.4,207.3,331.6,207.7,330.4z"/>
	</g>
</g>
<g>
	
		<circle fill="none" stroke="#000000" stroke-width="1.9168" stroke-linecap="round" stroke-linejoin="round" stroke-miterlimit="10" cx="63.6" cy="349.6" r="27.3"/>
	
		<circle fill="none" stroke="#000000" stroke-width="1.9168" stroke-linecap="round" stroke-linejoin="round" stroke-miterlimit="10" cx="63.6" cy="349.6" r="9"/>
	
		<circle fill="none" stroke="#000000" stroke-width="1.9168" stroke-linecap="round" stroke-linejoin="round" stroke-miterlimit="10" cx="63.6" cy="349.6" r="0.9"/>
	
		<path fill="#FFFFFF" stroke="#000000" stroke-width="1.9168" stroke-linecap="round" stroke-linejoin="round" stroke-miterlimit="10" d="
		M17.3,377.7h46.6c2.7,0,4.9-2.2,4.9-4.9v-46.6c0-2.7-2.2-4.9-4.9-4.9H17.3c-2.7,0-4.9,2.2-4.9,4.9v46.6
		C12.4,375.6,14.6,377.7,17.3,377.7z"/>
	
		<line fill="none" stroke="#000000" stroke-width="1.9168" stroke-linecap="round" stroke-linejoin="round" stroke-miterlimit="10" x1="24.5" y1="335.2" x2="43" y2="335.2"/>
	
		<line fill="none" stroke="#000000" stroke-width="1.9168" stroke-linecap="round" stroke-linejoin="round" stroke-miterlimit="10" x1="24.5" y1="341.8" x2="35.1" y2="341.8"/>
</g>
</svg>
