<?xml version="1.0" encoding="utf-8"?>
<!-- Generator: Adobe Illustrator 16.0.0, SVG Export Plug-In . SVG Version: 6.00 Build 0)  -->
<!DOCTYPE svg PUBLIC "-//W3C//DTD SVG 1.1//EN" "http://www.w3.org/Graphics/SVG/1.1/DTD/svg11.dtd">
<svg version="1.1" id="Ebene_1" xmlns="http://www.w3.org/2000/svg" xmlns:xlink="http://www.w3.org/1999/xlink" x="0px" y="0px"
	 width="500px" height="500px" viewBox="0 0 500 500" enable-background="new 0 0 500 500" xml:space="preserve">
<rect fill="#FFFFFF" width="500" height="500"/>
<g>
	<circle fill="none" stroke="#121212" stroke-width="8" stroke-miterlimit="10" cx="375.945" cy="81.878" r="37.763"/>
	<path fill="#121212" d="M403.476,223.167c-15.882-30.945-37.57-69.52-63.77-114.609l10.396-6.237
		c2.43-1.459,3.22-4.611,1.761-7.044c-1.459-2.428-4.611-3.217-7.043-1.759l-10.355,6.213c-2.714-4.468,2.6,3.898,0,0
		c-15.397-23.098-17.649-32.062-51.013-32.062h-77.593v75.938h87.133h0.126h15.401c17.965,0,23.098,5.133,30.796,17.965
		c7.699,12.833,51.329,78.953,53.896,84.086c2.565,5.135,5.845,15.059,5.845,22.76c0,7.697-1.918,105.477-1.918,105.477l8.905,5.826
		c0,0,7.698-112.926,7.698-123.189C413.742,246.265,407.703,231.398,403.476,223.167"/>
	<path fill="#FFFFFF" d="M283.452,67.669c33.364,0,35.616,8.964,51.013,32.062l10.355-6.213c0.827-0.495,1.737-0.731,2.636-0.731
		c1.744,0,3.444,0.889,4.407,2.49c1.459,2.433,0.669,5.585-1.761,7.044l-10.396,6.237c26.2,45.09,47.888,83.664,63.77,114.609
		c4.227,8.231,10.266,23.098,10.266,33.363c0,10.264-7.698,123.189-7.698,123.189l-8.905-5.826c0,0,1.918-97.779,1.918-105.477
		c0-7.701-3.279-17.625-5.845-22.76c-2.567-5.133-46.197-71.253-53.896-84.086c-7.698-12.832-12.831-17.965-30.796-17.965h-15.401
		h-0.126h-87.133V67.669H283.452 M333.258,97.745L333.258,97.745L333.258,97.745 M333.258,97.745
		c0.001,0.002,0.304,0.499,1.207,1.985C334.465,99.73,333.26,97.747,333.258,97.745 M283.452,63.669h-77.593h-4v4v75.938v4h4h87.133
		h0.126h15.401c16.299,0,20.245,4.153,27.366,16.021c3.705,6.176,15.661,24.59,27.223,42.396
		c11.851,18.25,25.282,38.936,26.526,41.422c2.628,5.262,5.422,14.4,5.422,20.971c0,7.57-1.898,104.42-1.917,105.398l-0.044,2.213
		l1.854,1.213l8.904,5.826l5.717,3.738l0.465-6.814c0.314-4.617,7.707-113.18,7.707-123.461c0-10.584-5.768-25.572-10.707-35.191
		c-14.279-27.821-33.981-63.28-61.889-111.381l7.014-4.207c4.319-2.594,5.724-8.215,3.133-12.532
		c-1.643-2.735-4.645-4.433-7.836-4.433c-1.65,0-3.273,0.449-4.693,1.301l-7.071,4.242c-0.691-1.055-1.358-2.082-2.015-3.092
		C321.374,72.308,315.758,63.669,283.452,63.669L283.452,63.669z"/>
	<path fill="#121212" d="M333.612,169.231c-3.398-10.048-13.049-23.098-40.201-23.098h-43.925v0.008h-43.921
		c-27.152,0-36.803,13.051-40.201,23.098c-12.3,36.372-30.229,123.289-21.574,176.404c8.655,53.117,47.559,92.955,105.703,92.955
		v-0.008c58.138-0.004,97.038-39.84,105.694-92.953C363.841,292.519,345.912,205.603,333.612,169.231"/>
	<path fill="none" stroke="#FFFFFF" stroke-width="5" stroke-miterlimit="10" d="M333.612,169.231
		c-3.398-10.048-13.049-23.098-40.201-23.098h-43.925v0.008h-43.921c-27.152,0-36.803,13.051-40.201,23.098
		c-12.3,36.372-30.229,123.289-21.574,176.404c8.655,53.117,47.559,92.955,105.703,92.955v-0.008
		c58.138-0.004,97.038-39.84,105.694-92.953C363.841,292.519,345.912,205.603,333.612,169.231z"/>
	<path fill="#121212" d="M249.677,269.323V146.134h-43.926c-27.151,0-36.803,13.05-40.201,23.098
		c-7.272,21.506-16.511,60.682-21.061,100.092H249.677z"/>
	<path fill="none" stroke="#FFFFFF" stroke-width="5" stroke-miterlimit="10" d="M249.677,269.323V146.134h-43.926
		c-27.151,0-36.803,13.05-40.201,23.098c-7.272,21.506-16.511,60.682-21.061,100.092H249.677z"/>
	<path fill="#121212" d="M249.305,269.323V146.134h43.927c27.151,0,36.803,13.05,40.201,23.098
		c7.272,21.506,16.512,60.682,21.062,100.092H249.305z"/>
	<path fill="none" stroke="#FFFFFF" stroke-width="5" stroke-miterlimit="10" d="M249.305,269.323V146.134h43.927
		c27.151,0,36.803,13.05,40.201,23.098c7.272,21.506,16.512,60.682,21.062,100.092H249.305z"/>
	<path fill="#121212" d="M249.489,176.931c-7.087,0-12.831,5.746-12.831,12.832v35.932c0,7.084,5.744,12.831,12.831,12.831
		s12.832-5.747,12.832-12.831v-35.932C262.321,182.677,256.576,176.931,249.489,176.931"/>
	<path fill="none" stroke="#FFFFFF" stroke-width="5" stroke-miterlimit="10" d="M249.489,176.931
		c-7.087,0-12.831,5.746-12.831,12.832v35.932c0,7.084,5.744,12.831,12.831,12.831s12.832-5.747,12.832-12.831v-35.932
		C262.321,182.677,256.576,176.931,249.489,176.931z"/>
</g>
</svg>
