<?xml version="1.0" encoding="utf-8"?>
<!-- Generator: Adobe Illustrator 16.0.0, SVG Export Plug-In . SVG Version: 6.00 Build 0)  -->
<!DOCTYPE svg PUBLIC "-//W3C//DTD SVG 1.1//EN" "http://www.w3.org/Graphics/SVG/1.1/DTD/svg11.dtd">
<svg version="1.1" id="Layer_1" xmlns="http://www.w3.org/2000/svg" xmlns:xlink="http://www.w3.org/1999/xlink" x="0px" y="0px"
	 width="500px" height="500px" viewBox="0 0 500 500" enable-background="new 0 0 500 500" xml:space="preserve">
<line fill="none" stroke="#121212" stroke-miterlimit="10" x1="0" y1="498.355" x2="500.031" y2="498.355"/>
<g>
	<path fill="#121212" d="M153.964,498.355c17.42,0,32.177-3.093,42.663-20.735c9.989-16.778,9.914-35.435,8.234-54.897
		c-1.499-18.785,6.279-30.817,11.16-41.337c1.068-2.302-4.537-6.419-7.01-6.918c-4.012-0.816-3.837,5.997-10.102,15.494
		c-5.581,8.511-8.53,18.577-7.283,37.79c1.012,15.635-1.735,30.416-8.169,44.786c-4.533,10.123-16.107,13.879-24.479,14.008
		c-13.395,0.207-27.347-2.816-32.933,1.812c-5.065,4.198-0.795,9.999,4.741,9.999C138.275,498.355,134.504,498.355,153.964,498.355z
		"/>
</g>
<g>
	
		<rect x="86.546" y="479.428" fill="#ED0000" stroke="#121212" stroke-linejoin="bevel" stroke-miterlimit="10" width="19.02" height="17.857"/>
	
		<rect x="82.12" y="486.751" fill="#ED0000" stroke="#121212" stroke-linejoin="bevel" stroke-miterlimit="10" width="27.872" height="11.604"/>
	<g>
		
			<line fill="#ED0000" stroke="#121212" stroke-linejoin="bevel" stroke-miterlimit="10" x1="83.547" y1="486.751" x2="83.547" y2="498.355"/>
		
			<line fill="#ED0000" stroke="#121212" stroke-linejoin="bevel" stroke-miterlimit="10" x1="85.632" y1="486.751" x2="85.632" y2="498.355"/>
		
			<line fill="#ED0000" stroke="#121212" stroke-linejoin="bevel" stroke-miterlimit="10" x1="89.801" y1="486.751" x2="89.801" y2="498.355"/>
		
			<line fill="#ED0000" stroke="#121212" stroke-linejoin="bevel" stroke-miterlimit="10" x1="96.056" y1="486.751" x2="96.056" y2="498.355"/>
		
			<line fill="#ED0000" stroke="#121212" stroke-linejoin="bevel" stroke-miterlimit="10" x1="102.311" y1="486.751" x2="102.311" y2="498.355"/>
		
			<line fill="#ED0000" stroke="#121212" stroke-linejoin="bevel" stroke-miterlimit="10" x1="106.481" y1="486.751" x2="106.481" y2="498.355"/>
		
			<line fill="#ED0000" stroke="#121212" stroke-linejoin="bevel" stroke-miterlimit="10" x1="108.566" y1="486.751" x2="108.566" y2="498.355"/>
	</g>
</g>
<g>
	<defs>
		<polygon id="SVGID_1_" points="276.382,13.449 418.031,70.838 286.664,361.154 168.624,313.33 		"/>
	</defs>
	<use xlink:href="#SVGID_1_"  overflow="visible" fill="#121212"/>
	<clipPath id="SVGID_2_">
		<use xlink:href="#SVGID_1_"  overflow="visible"/>
	</clipPath>
	
		<rect x="181.663" y="158.284" transform="matrix(0.9958 0.0916 -0.0916 0.9958 19.1915 -25.3449)" clip-path="url(#SVGID_2_)" fill="#FFFFFF" stroke="#121212" stroke-miterlimit="10" width="208.323" height="76.415"/>
	
		<rect x="181.662" y="161.853" transform="matrix(0.9958 0.0916 -0.0916 0.9958 19.1909 -25.3442)" clip-path="url(#SVGID_2_)" fill="#FFFFFF" stroke="#121212" stroke-miterlimit="10" width="208.324" height="69.275"/>
</g>
<rect x="203.186" y="372.079" transform="matrix(0.9268 0.3755 -0.3755 0.9268 157.8327 -51.2656)" fill="#FFFFFF" stroke="#121212" stroke-linejoin="bevel" stroke-miterlimit="10" width="14.548" height="14.549"/>
<line fill="none" stroke="#121212" stroke-miterlimit="10" x1="276.382" y1="13.449" x2="277.886" y2="16.999"/>
<line fill="none" stroke="#121212" stroke-miterlimit="10" x1="279.275" y1="14.621" x2="280.778" y2="18.171"/>
<line fill="none" stroke="#121212" stroke-miterlimit="10" x1="282.168" y1="15.792" x2="283.671" y2="19.343"/>
<line fill="none" stroke="#121212" stroke-miterlimit="10" x1="285.061" y1="16.965" x2="286.564" y2="20.515"/>
<line fill="none" stroke="#121212" stroke-miterlimit="10" x1="287.955" y1="18.137" x2="289.457" y2="21.687"/>
<line fill="none" stroke="#121212" stroke-miterlimit="10" x1="290.847" y1="19.309" x2="292.35" y2="22.859"/>
<line fill="none" stroke="#121212" stroke-miterlimit="10" x1="293.74" y1="20.481" x2="295.242" y2="24.031"/>
<line fill="none" stroke="#121212" stroke-miterlimit="10" x1="296.632" y1="21.653" x2="298.136" y2="25.204"/>
<line fill="none" stroke="#121212" stroke-miterlimit="10" x1="299.525" y1="22.825" x2="301.029" y2="26.376"/>
<line fill="none" stroke="#121212" stroke-miterlimit="10" x1="302.419" y1="23.998" x2="303.921" y2="27.548"/>
<line fill="none" stroke="#121212" stroke-miterlimit="10" x1="305.311" y1="25.169" x2="306.814" y2="28.72"/>
<line fill="none" stroke="#121212" stroke-miterlimit="10" x1="308.205" y1="26.341" x2="309.707" y2="29.892"/>
<line fill="none" stroke="#121212" stroke-miterlimit="10" x1="311.097" y1="27.514" x2="312.6" y2="31.064"/>
<line fill="none" stroke="#121212" stroke-miterlimit="10" x1="313.99" y1="28.686" x2="315.493" y2="32.236"/>
<line fill="none" stroke="#121212" stroke-miterlimit="10" x1="316.883" y1="29.857" x2="318.386" y2="33.408"/>
<line fill="none" stroke="#121212" stroke-miterlimit="10" x1="319.775" y1="31.03" x2="321.278" y2="34.58"/>
<line fill="none" stroke="#121212" stroke-miterlimit="10" x1="322.669" y1="32.202" x2="324.171" y2="35.752"/>
<line fill="none" stroke="#121212" stroke-miterlimit="10" x1="325.561" y1="33.374" x2="327.064" y2="36.924"/>
<line fill="none" stroke="#121212" stroke-miterlimit="10" x1="328.454" y1="34.546" x2="329.957" y2="38.097"/>
<line fill="none" stroke="#121212" stroke-miterlimit="10" x1="331.347" y1="35.719" x2="332.85" y2="39.269"/>
<line fill="none" stroke="#121212" stroke-miterlimit="10" x1="334.24" y1="36.891" x2="335.743" y2="40.44"/>
<line fill="none" stroke="#121212" stroke-miterlimit="10" x1="337.133" y1="38.062" x2="338.636" y2="41.613"/>
<line fill="none" stroke="#121212" stroke-miterlimit="10" x1="340.026" y1="39.234" x2="341.528" y2="42.785"/>
<line fill="none" stroke="#121212" stroke-miterlimit="10" x1="342.919" y1="40.406" x2="344.422" y2="43.957"/>
<line fill="none" stroke="#121212" stroke-miterlimit="10" x1="345.812" y1="41.579" x2="347.314" y2="45.129"/>
<line fill="none" stroke="#121212" stroke-miterlimit="10" x1="348.705" y1="42.75" x2="350.207" y2="46.301"/>
<line fill="none" stroke="#121212" stroke-miterlimit="10" x1="351.598" y1="43.923" x2="353.1" y2="47.473"/>
<line fill="none" stroke="#121212" stroke-miterlimit="10" x1="354.489" y1="45.095" x2="355.993" y2="48.645"/>
<line fill="none" stroke="#121212" stroke-miterlimit="10" x1="357.382" y1="46.267" x2="358.886" y2="49.818"/>
<line fill="none" stroke="#121212" stroke-miterlimit="10" x1="360.276" y1="47.439" x2="361.779" y2="50.99"/>
<line fill="none" stroke="#121212" stroke-miterlimit="10" x1="363.169" y1="48.611" x2="364.672" y2="52.162"/>
<line fill="none" stroke="#121212" stroke-miterlimit="10" x1="366.062" y1="49.783" x2="367.564" y2="53.333"/>
<line fill="none" stroke="#121212" stroke-miterlimit="10" x1="368.955" y1="50.955" x2="370.458" y2="54.505"/>
<line fill="none" stroke="#121212" stroke-miterlimit="10" x1="371.847" y1="52.127" x2="373.351" y2="55.678"/>
<line fill="none" stroke="#121212" stroke-miterlimit="10" x1="374.741" y1="53.299" x2="376.243" y2="56.85"/>
<line fill="none" stroke="#121212" stroke-miterlimit="10" x1="377.634" y1="54.471" x2="379.136" y2="58.021"/>
<line fill="none" stroke="#121212" stroke-miterlimit="10" x1="380.526" y1="55.644" x2="382.029" y2="59.193"/>
<line fill="none" stroke="#121212" stroke-miterlimit="10" x1="383.419" y1="56.815" x2="384.922" y2="60.366"/>
<line fill="none" stroke="#121212" stroke-miterlimit="10" x1="386.312" y1="57.988" x2="387.814" y2="61.539"/>
<line fill="none" stroke="#121212" stroke-miterlimit="10" x1="389.206" y1="59.16" x2="390.708" y2="62.71"/>
<line fill="none" stroke="#121212" stroke-miterlimit="10" x1="392.098" y1="60.333" x2="393.601" y2="63.882"/>
<line fill="none" stroke="#121212" stroke-miterlimit="10" x1="394.991" y1="61.504" x2="396.493" y2="65.054"/>
<line fill="none" stroke="#121212" stroke-miterlimit="10" x1="397.884" y1="62.676" x2="399.387" y2="66.227"/>
<line fill="none" stroke="#121212" stroke-miterlimit="10" x1="400.776" y1="63.848" x2="402.279" y2="67.398"/>
<line fill="none" stroke="#121212" stroke-miterlimit="10" x1="403.669" y1="65.02" x2="405.171" y2="68.571"/>
<line fill="none" stroke="#121212" stroke-miterlimit="10" x1="406.562" y1="66.192" x2="408.064" y2="69.743"/>
<line fill="none" stroke="#121212" stroke-miterlimit="10" x1="409.455" y1="67.365" x2="410.958" y2="70.915"/>
<line fill="none" stroke="#121212" stroke-miterlimit="10" x1="412.347" y1="68.536" x2="413.851" y2="72.087"/>
<line fill="none" stroke="#121212" stroke-miterlimit="10" x1="415.24" y1="69.708" x2="416.744" y2="73.259"/>
<g>
	<path fill="#121212" stroke="#121212" stroke-linejoin="round" stroke-miterlimit="10" d="M240.944,202.552
		c18.569,0.629,23.652-4.742,23.649-5.574c-0.007-2.652-13.972-4.261-16.42-4.904c-4.489-1.18-7.051-4.377-5.345-8.587
		c2.98-7.355,12.185-10.514,23.574-10.542c2.186-0.006,7.79-0.254,7.914,2.425c0.178,3.844-3.531,4.033-7.479,4.491l0,0l0,0
		c-13.417,0.503-19.041,2.568-18.918,5.528c0.086,2.061,8.286,3.669,13.846,4.437c5.348,0.738,7.399,5.008,7.406,7.557
		c0.027,10.35-18.12,12.062-25.61,12.082c-2.028,0.004-8.374,0.022-8.381-2.995c-0.003-1.093,0.765-3.333,1.82-3.766
		C237.941,202.317,239.125,202.508,240.944,202.552z"/>
	<path fill="#121212" stroke="#121212" stroke-linejoin="round" stroke-miterlimit="10" d="M290.386,199.913
		c-3.163,3.701-8.871,8.604-14.021,8.618c-3.796,0.009-5.573-3.366-5.687-6.798c-0.224-6.813,7.298-13.801,14.06-13.767
		c1.664-0.004,3.747,0.407,3.751,2.487c0.007,2.548-2.532,6.404-12.509,9.706l-0.101,1.145c-0.151,1.977,1.567,2.648,3.232,2.645
		c3.693-0.01,8.051-3.818,10.802-6.01L290.386,199.913z M283.915,191.556c-0.001-0.364-0.263-0.675-0.625-0.57
		c-2.599,0.683-5.609,3.187-7.005,6.624C280.857,196.036,283.97,192.44,283.915,191.556z"/>
	<path fill="#121212" stroke="#121212" stroke-linejoin="round" stroke-miterlimit="10" d="M313.61,198.259l0.803,1.332
		c-2.75,2.451-8.09,8.862-11.888,8.871c-1.977,0.006-2.917-1.655-2.922-3.424c-0.007-3.121,2.792-6.561,4.45-8.958l-0.104-0.103
		c-3.011,2.244-5.656,4.955-7.99,7.978c-0.777,0.99-2.694,3.544-4.099,3.547c-2.289,0.005-2.869-3.269-2.925-5.037
		c-0.166-3.588,3.098-8.85,6.108-11.406c0.674-0.575,1.142-0.627,2.025-0.63c3.122,0.098,2.863,0.826,2.864,1.138
		c0.005,2.027-6.534,7.298-6.53,8.546c0,0.312,0.262,0.572,0.573,0.571c0.364-0.002,0.831-0.47,1.039-0.731
		c4.147-5.315,13.699-11.737,15.208-11.742c0.208,0,0.52,0.259,0.834,0.986c0.313,0.78,0.629,1.715,0.789,2.807
		c0.004,2.028-6.383,5.998-6.374,9.586c0.001,0.468,0.418,0.936,0.938,0.935c1.25-0.003,4.966-3.165,5.901-3.948L313.61,198.259z"/>
	<path fill="#121212" stroke="#121212" stroke-linejoin="round" stroke-miterlimit="10" d="M320.023,198.587
		c1.511,0.88,2.035,2.595,2.715,4.102c0,0,6.559-4.898,7.586-2.464c1.028,2.433-4.15,3.704-6.695,4.959
		c0.21,0.987,0.109,1.924,0.06,2.86c-0.4,6.189-7.667,11.931-11.462,12.511c-2.392,0.371-3.081-4.464-3.085-6.181
		c-0.008-3.38,2.217-7.496,3.614-10.462c-0.834-0.882-1.514-1.661-1.517-2.961c-0.006-2.08,1.398-2.657,2.904-3.492
		c3.063-1.672,4.722-4.122,6.325-7.091c1.347-2.55,8.023-14.947,10.676-14.954c1.145-0.003,1.253,1.453,1.255,2.285
		c0.005,2.028-1.545,5.672-2.685,7.289L320.023,198.587z M319.835,206.182c-1.665,0.109-2.498,0.059-3.746-0.407
		c-1.346,2.292-2.669,3.966-2.874,5.683c-0.203,1.665-0.491,4.149,1.053,4.626C315.813,216.562,320.313,210.081,319.835,206.182z"/>
</g>
<text transform="matrix(0.9952 0.0974 -0.0974 0.9952 240.1543 142.8662)" fill="#FFFFFF" font-family="'Lobster-Regular'" font-size="17.7692">Gib deinen ...</text>
<text transform="matrix(0.9952 0.0974 -0.0974 0.9952 269.8032 253.0869)" fill="#FFFFFF" font-family="'Lobster-Regular'" font-size="17.7692">... dazu!</text>
<line fill="none" stroke="#121212" stroke-linejoin="bevel" stroke-miterlimit="10" x1="199.25" y1="381.761" x2="218.327" y2="385.935"/>
<line fill="none" stroke="#121212" stroke-linejoin="bevel" stroke-miterlimit="10" x1="200.284" y1="378.551" x2="219.36" y2="382.725"/>
<line fill="none" stroke="#121212" stroke-linejoin="bevel" stroke-miterlimit="10" x1="201.864" y1="375.342" x2="220.939" y2="379.516"/>
<line fill="none" stroke="#121212" stroke-linejoin="bevel" stroke-miterlimit="10" x1="202.91" y1="372.133" x2="219.371" y2="375.771"/>
<path fill="#FFFFFF" d="M276.382,13.449l141.648,57.39L286.664,361.154l-118.04-47.825L276.382,13.449 M270.491,0.272l-3.52,9.794
	L159.213,309.948l-3.25,9.042l8.905,3.608l118.04,47.825l8.905,3.608l3.961-8.753L427.142,74.961l4.291-9.482l-9.647-3.908
	L280.137,4.181L270.491,0.272L270.491,0.272z"/>
<polygon fill="none" stroke="#121212" stroke-miterlimit="10" points="276.382,13.449 418.031,70.838 286.664,361.154 
	168.624,313.33 "/>
<rect x="273.181" y="29.874" transform="matrix(0.9268 0.3755 -0.3755 0.9268 39.1931 -128.6249)" fill="none" stroke="#121212" stroke-miterlimit="10" width="152.831" height="12.736"/>
<text transform="matrix(0.9268 0.3755 -0.3755 0.9268 315.375 26.7227)" fill="#121212" font-family="'Courier'" font-size="11.7673">15/03/2016</text>
<line fill="none" stroke="#121212" stroke-miterlimit="10" x1="292.969" y1="6.426" x2="288.187" y2="18.231"/>
<line fill="none" stroke="#121212" stroke-miterlimit="10" x1="304.773" y1="11.209" x2="299.99" y2="23.014"/>
<line fill="none" stroke="#121212" stroke-miterlimit="10" x1="316.577" y1="15.992" x2="311.794" y2="27.796"/>
<line fill="none" stroke="#121212" stroke-miterlimit="10" x1="387.4" y1="44.687" x2="382.618" y2="56.491"/>
<line fill="none" stroke="#121212" stroke-miterlimit="10" x1="411.009" y1="54.252" x2="406.226" y2="66.056"/>
<line fill="none" stroke="#121212" stroke-miterlimit="10" x1="399.205" y1="49.47" x2="394.422" y2="61.273"/>
<polygon fill="none" stroke="#121212" stroke-linejoin="bevel" stroke-miterlimit="10" points="168.61,313.329 286.641,361.15 
	219.932,375.342 206.657,369.964 "/>
<line fill="none" stroke="#121212" stroke-linejoin="bevel" stroke-miterlimit="10" x1="263.031" y1="351.585" x2="217.277" y2="374.267"/>
<line fill="none" stroke="#121212" stroke-linejoin="bevel" stroke-miterlimit="10" x1="251.242" y1="346.808" x2="215.95" y2="373.729"/>
</svg>
