<svg version="1.1" id="Layer_1" xmlns="http://www.w3.org/2000/svg" xmlns:xlink="http://www.w3.org/1999/xlink" x="0px" y="0px"
	 viewBox="0 0 500 500" enable-background="new 0 0 500 500" xml:space="preserve">
		<g>
			<rect y="497.9" fill="#121212" width="500" height="1"/>
		</g>
		<g>
			<g>
				<path fill="#121212" d="M154,498.4c17.4,0,32.2-3.1,42.7-20.7c10-16.8,9.9-35.4,8.2-54.9c-1.5-18.8,6.3-30.8,11.2-41.3
					c1.1-2.3-4.5-6.4-7-6.9c-4-0.8-3.8,6-10.1,15.5c-5.6,8.5-8.5,18.6-7.3,37.8c1,15.6-1.7,30.4-8.2,44.8c-4.5,10.1-16.1,13.9-24.5,14
					c-13.4,0.2-27.3-2.8-32.9,1.8c-5.1,4.2-0.8,10,4.7,10C138.3,498.4,134.5,498.4,154,498.4z"/>
			</g>
		</g>
		<g>
			<g>
				<rect x="86.5" y="479.4" fill="hsl(152, 89%, 61%)" class="akzentsvg" width="19" height="17.9"/>
				<path fill="#121212" d="M105.6,497.8h-19l-0.5-0.5v-17.9l0.5-0.5h19l0.5,0.5v17.9L105.6,497.8z M87,496.8h18v-16.9H87V496.8z"/>
			</g>
			<g>
				<rect x="82.1" y="486.8" fill="hsl(152, 89%, 61%)" class="akzentsvg" width="27.9" height="11.6"/>
				<path fill="#121212" d="M110,498.9H82.1l-0.5-0.5v-11.6l0.5-0.5H110l0.5,0.5v11.6L110,498.9z M82.6,497.9h26.9v-10.6H82.6V497.9z"
					/>
			</g>
			<g>
				<g>
					<rect x="83" y="486.8" fill="#121212" width="1" height="11.6"/>
				</g>
				<g>
					<rect x="85.1" y="486.8" fill="#121212" width="1" height="11.6"/>
				</g>
				<g>
					<rect x="89.3" y="486.8" fill="#121212" width="1" height="11.6"/>
				</g>
				<g>
					<rect x="95.6" y="486.8" fill="#121212" width="1" height="11.6"/>
				</g>
				<g>
					<rect x="101.8" y="486.8" fill="#121212" width="1" height="11.6"/>
				</g>
				<g>
					<rect x="106" y="486.8" fill="#121212" width="1" height="11.6"/>
				</g>
				<g>
					<rect x="108.1" y="486.8" fill="#121212" width="1" height="11.6"/>
				</g>
			</g>
		</g>
		<g>
			<g id="SVGID_1_">
				<polygon fill="#121212" points="276.4,13.4 418,70.8 286.7,361.2 168.6,313.3 		"/>
			</g>
		</g>
		<g>
			<polygon fill="none" points="293.2,13.4 429,83.5 271.6,360.6 158.4,302.1 	"/>
		</g>
		<g>
			<polygon fill="none" points="293.2,13.4 429,83.5 271.6,360.6 158.4,302.1 	"/>
		</g>
		<g>
			<g>

					<rect x="247.6" y="92.3" transform="matrix(9.159962e-02 -0.9958 0.9958 9.159962e-02 63.9595 463.1186)" fill="#FFFFFF" width="76.4" height="208.3"/>
				<path fill="#121212" d="M386.5,244.6l-0.5,0L178,225.5l0-0.5l7-76.6l208.4,19.2L386.5,244.6z M179.1,224.6l206.5,19l6.9-75.1
					l-206.5-19L179.1,224.6z"/>
			</g>
			<g>

					<rect x="251.2" y="92.3" transform="matrix(9.159962e-02 -0.9958 0.9958 9.159962e-02 63.9589 463.1172)" fill="#FFFFFF" width="69.3" height="208.3"/>
				<path fill="#121212" d="M386.8,241.1l-0.5,0l-207.9-19.1l0-0.5l6.4-69.5l0.5,0l207.9,19.1L386.8,241.1z M179.5,221l206.5,19
					l6.3-68l-206.5-19L179.5,221z"/>
			</g>
		</g>
		<g>

				<rect x="203.2" y="372.1" transform="matrix(0.3755 -0.9268 0.9268 0.3755 -220.168 431.9388)" fill="#FFFFFF" width="14.5" height="14.5"/>
			<path fill="#121212" d="M214.3,389.3l-13.5-5.5l-0.3-0.7l5.5-13.5l0.7-0.3l13.5,5.5l0.3,0.7l-5.5,13.5L214.3,389.3z M201.6,383.1
				l12.6,5.1l5.1-12.6l-12.6-5.1L201.6,383.1z"/>
		</g>
		<g>

				<rect x="276.6" y="13.3" transform="matrix(0.9208 -0.3901 0.3901 0.9208 16.0172 109.3145)" fill="#121212" width="1" height="3.9"/>
		</g>
		<g>

				<rect x="279.5" y="14.5" transform="matrix(0.9209 -0.3898 0.3898 0.9209 15.7626 110.4612)" fill="#121212" width="1" height="3.9"/>
		</g>
		<g>

				<rect x="282.4" y="15.6" transform="matrix(0.9209 -0.3898 0.3898 0.9209 15.5301 111.6683)" fill="#121212" width="1" height="3.9"/>
		</g>
		<g>

				<rect x="285.3" y="16.8" transform="matrix(0.9208 -0.3901 0.3901 0.9208 15.3332 112.9785)" fill="#121212" width="1" height="3.9"/>
		</g>
		<g>
			<rect x="288.2" y="18" transform="matrix(0.921 -0.3897 0.3897 0.921 15.0613 114.0725)" fill="#121212" width="1" height="3.9"/>
		</g>
		<g>

				<rect x="291.1" y="19.2" transform="matrix(0.9209 -0.3898 0.3898 0.9209 14.8505 115.343)" fill="#121212" width="1" height="3.9"/>
		</g>
		<g>
			<rect x="294" y="20.3" transform="matrix(0.921 -0.3897 0.3897 0.921 14.6051 116.512)" fill="#121212" width="1" height="3.9"/>
		</g>
		<g>
			<rect x="296.9" y="21.5" transform="matrix(0.9208 -0.39 0.39 0.9208 14.4117 117.8359)" fill="#121212" width="1" height="3.9"/>
		</g>
		<g>
			<rect x="299.8" y="22.7" transform="matrix(0.9208 -0.39 0.39 0.9208 14.179 119.0431)" fill="#121212" width="1" height="3.9"/>
		</g>
		<g>

				<rect x="302.7" y="23.8" transform="matrix(0.921 -0.3896 0.3896 0.921 13.9161 120.1575)" fill="#121212" width="1" height="3.9"/>
		</g>
		<g>
			<rect x="305.6" y="25" transform="matrix(0.9208 -0.39 0.39 0.9208 13.7276 121.4991)" fill="#121212" width="1" height="3.9"/>
		</g>
		<g>

				<rect x="308.5" y="26.2" transform="matrix(0.921 -0.3896 0.3896 0.921 13.4556 122.5825)" fill="#121212" width="1" height="3.9"/>
		</g>
		<g>

				<rect x="311.3" y="27.4" transform="matrix(0.9209 -0.3898 0.3898 0.9209 13.254 123.8863)" fill="#121212" width="1" height="3.9"/>
		</g>
		<g>

				<rect x="314.2" y="28.5" transform="matrix(0.9209 -0.3898 0.3898 0.9209 13.0261 125.107)" fill="#121212" width="1" height="3.9"/>
		</g>
		<g>

				<rect x="317.1" y="29.7" transform="matrix(0.9209 -0.3898 0.3898 0.9209 12.7935 126.3122)" fill="#121212" width="1" height="3.9"/>
		</g>
		<g>

				<rect x="320" y="30.9" transform="matrix(0.9209 -0.3899 0.3899 0.9209 12.5747 127.5629)" fill="#121212" width="1" height="3.9"/>
		</g>
		<g>
			<rect x="322.9" y="32" transform="matrix(0.921 -0.3896 0.3896 0.921 12.3198 128.6956)" fill="#121212" width="1" height="3.9"/>
		</g>
		<g>
			<rect x="325.8" y="33.2" transform="matrix(0.9208 -0.39 0.39 0.9208 12.1361 130.0618)" fill="#121212" width="1" height="3.9"/>
		</g>
		<g>

				<rect x="328.7" y="34.4" transform="matrix(0.9209 -0.3898 0.3898 0.9209 11.881 131.1935)" fill="#121212" width="1" height="3.9"/>
		</g>
		<g>

				<rect x="331.6" y="35.6" transform="matrix(0.9209 -0.3899 0.3899 0.9209 11.6622 132.4454)" fill="#121212" width="1" height="3.9"/>
		</g>
		<g>

				<rect x="334.5" y="36.7" transform="matrix(0.9208 -0.3899 0.3899 0.9208 11.4391 133.6822)" fill="#121212" width="1" height="3.9"/>
		</g>
		<g>

				<rect x="337.4" y="37.9" transform="matrix(0.9209 -0.3897 0.3897 0.9209 11.1923 134.8383)" fill="#121212" width="1" height="3.9"/>
		</g>
		<g>

				<rect x="340.3" y="39.1" transform="matrix(0.921 -0.3896 0.3896 0.921 10.9468 135.9979)" fill="#121212" width="1" height="3.9"/>
		</g>
		<g>

				<rect x="343.2" y="40.3" transform="matrix(0.9209 -0.3898 0.3898 0.9209 10.741 137.2952)" fill="#121212" width="1" height="3.9"/>
		</g>
		<g>

				<rect x="346.1" y="41.4" transform="matrix(0.921 -0.3896 0.3896 0.921 10.4953 138.4538)" fill="#121212" width="1" height="3.9"/>
		</g>
		<g>
			<rect x="349" y="42.6" transform="matrix(0.921 -0.3896 0.3896 0.921 10.2627 139.6567)" fill="#121212" width="1" height="3.9"/>
		</g>
		<g>
			<rect x="351.8" y="43.8" transform="matrix(0.921 -0.3897 0.3897 0.921 10.0439 140.91)" fill="#121212" width="1" height="3.9"/>
		</g>
		<g>

				<rect x="354.7" y="44.9" transform="matrix(0.9208 -0.3901 0.3901 0.9208 9.8604 142.2909)" fill="#121212" width="1" height="3.9"/>
		</g>
		<g>
			<rect x="357.6" y="46.1" transform="matrix(0.9208 -0.39 0.39 0.9208 9.618 143.4605)" fill="#121212" width="1" height="3.9"/>
		</g>
		<g>

				<rect x="360.5" y="47.3" transform="matrix(0.9209 -0.3898 0.3898 0.9209 9.3725 144.6172)" fill="#121212" width="1" height="3.9"/>
		</g>
		<g>

				<rect x="363.4" y="48.5" transform="matrix(0.9209 -0.3898 0.3898 0.9209 9.1445 145.8374)" fill="#121212" width="1" height="3.9"/>
		</g>
		<g>
			<rect x="366.3" y="49.6" transform="matrix(0.921 -0.3897 0.3897 0.921 8.9039 147.0096)" fill="#121212" width="1" height="3.9"/>
		</g>
		<g>

				<rect x="369.2" y="50.8" transform="matrix(0.9209 -0.3898 0.3898 0.9209 8.6934 148.296)" fill="#121212" width="1" height="3.9"/>
		</g>
		<g>
			<rect x="372.1" y="52" transform="matrix(0.9208 -0.39 0.39 0.9208 8.4826 149.5831)" fill="#121212" width="1" height="3.9"/>
		</g>
		<g>
			<rect x="375" y="53.1" transform="matrix(0.921 -0.3896 0.3896 0.921 8.2101 150.6331)" fill="#121212" width="1" height="3.9"/>
		</g>
		<g>
			<rect x="377.9" y="54.3" transform="matrix(0.921 -0.3896 0.3896 0.921 7.9869 151.8708)" fill="#121212" width="1" height="3.9"/>
		</g>
		<g>

				<rect x="380.8" y="55.5" transform="matrix(0.9208 -0.3899 0.3899 0.9208 7.7906 153.2147)" fill="#121212" width="1" height="3.9"/>
		</g>
		<g>

				<rect x="383.7" y="56.7" transform="matrix(0.9209 -0.3898 0.3898 0.9209 7.5483 154.3795)" fill="#121212" width="1" height="3.9"/>
		</g>
		<g>
			<rect x="386.6" y="57.8" transform="matrix(0.921 -0.3896 0.3896 0.921 7.2976 155.5114)" fill="#121212" width="1" height="3.9"/>
		</g>
		<g>
			<rect x="389.5" y="59" transform="matrix(0.921 -0.3896 0.3896 0.921 7.0745 156.7501)" fill="#121212" width="1" height="3.9"/>
		</g>
		<g>

				<rect x="392.3" y="60.2" transform="matrix(0.9208 -0.3899 0.3899 0.9208 6.8781 158.0977)" fill="#121212" width="1" height="3.9"/>
		</g>
		<g>
			<rect x="395.2" y="61.4" transform="matrix(0.921 -0.3897 0.3897 0.921 6.6231 159.2086)" fill="#121212" width="1" height="3.9"/>
		</g>
		<g>

				<rect x="398.1" y="62.5" transform="matrix(0.9209 -0.3898 0.3898 0.9209 6.4079 160.4813)" fill="#121212" width="1" height="3.9"/>
		</g>
		<g>
			<rect x="401" y="63.7" transform="matrix(0.9209 -0.3898 0.3898 0.9209 6.1848 161.721)" fill="#121212" width="1" height="3.9"/>
		</g>
		<g>
			<rect x="403.9" y="64.9" transform="matrix(0.921 -0.3895 0.3895 0.921 5.9246 162.8089)" fill="#121212" width="1" height="3.9"/>
		</g>
		<g>
			<rect x="406.8" y="66" transform="matrix(0.921 -0.3896 0.3896 0.921 5.7014 164.0484)" fill="#121212" width="1" height="3.9"/>
		</g>
		<g>

				<rect x="409.7" y="67.2" transform="matrix(0.9209 -0.3899 0.3899 0.9209 5.5051 165.4025)" fill="#121212" width="1" height="3.9"/>
		</g>
		<g>
			<rect x="412.6" y="68.4" transform="matrix(0.9208 -0.39 0.39 0.9208 5.2854 166.6575)" fill="#121212" width="1" height="3.9"/>
		</g>
		<g>
			<rect x="415.5" y="69.6" transform="matrix(0.9208 -0.39 0.39 0.9208 5.0575 167.8786)" fill="#121212" width="1" height="3.9"/>
		</g>
		<g>
			<g>
				<path fill="#121212" d="M240.9,202.6c18.6,0.6,23.7-4.7,23.6-5.6c0-2.7-14-4.3-16.4-4.9c-4.5-1.2-7.1-4.4-5.3-8.6
					c3-7.4,12.2-10.5,23.6-10.5c2.2,0,7.8-0.3,7.9,2.4c0.2,3.8-3.5,4-7.5,4.5l0,0l0,0c-13.4,0.5-19,2.6-18.9,5.5
					c0.1,2.1,8.3,3.7,13.8,4.4c5.3,0.7,7.4,5,7.4,7.6c0,10.4-18.1,12.1-25.6,12.1c-2,0-8.4,0-8.4-3c0-1.1,0.8-3.3,1.8-3.8
					C237.9,202.3,239.1,202.5,240.9,202.6z"/>
				<path fill="#121212" d="M243.3,210c-2.4,0-8.6-0.1-8.6-3.5c0-1.2,0.8-3.7,2.1-4.2c0.8-0.3,1.8-0.3,3-0.2c0.4,0,0.8,0,1.2,0
					c0,0,0,0,0,0c17.5,0.6,22.9-4.2,23.1-5.1c0-1.6-9.4-3.2-12.9-3.8c-1.5-0.2-2.6-0.4-3.2-0.6c-2.7-0.7-4.7-2.1-5.7-4
					c-0.8-1.6-0.8-3.4,0-5.3c2.8-7,11.4-10.8,24-10.9l0.5,0c2.7,0,7.8-0.1,7.9,2.9c0.2,4.1-3.6,4.5-7.3,4.9l-0.7,0.1
					c-12.5,0.5-16.6,2.2-17.9,3.6c-0.4,0.4-0.6,0.9-0.6,1.4c0,1,4.3,2.7,13.4,4c5.7,0.8,7.8,5.4,7.8,8.1c0,12.2-23.4,12.6-26.1,12.6
					C243.5,210,243.4,210,243.3,210z M238.6,203c-0.5,0-1,0-1.4,0.2c-0.8,0.3-1.5,2.3-1.5,3.3c0,1.7,2.6,2.5,7.8,2.5c0,0,0.1,0,0.1,0
					c2.6,0,25.2-0.4,25.1-11.6c0-2.4-1.9-6.4-7-7.1c-6.5-0.9-14.2-2.5-14.3-4.9c0-0.8,0.2-1.5,0.8-2.1c2.1-2.2,8.3-3.6,18.6-4l0.6-0.1
					c4-0.5,6.5-0.9,6.4-3.9c-0.1-2-4.9-2-6.9-2l-0.5,0c-12.2,0-20.5,3.7-23.1,10.2c-0.7,1.6-0.7,3.1,0,4.4c0.8,1.6,2.6,2.8,5,3.5
					c0.5,0.1,1.7,0.3,3.1,0.6c8.9,1.5,13.7,2.7,13.7,4.8c0,0.3-0.3,0.8-0.8,1.3c-1.3,1.3-6.9,5.4-23.4,4.8c-0.4,0-0.8,0-1.2,0
					C239.3,203,238.9,203,238.6,203z"/>
			</g>
			<g>
				<path fill="#121212" d="M290.4,199.9c-3.2,3.7-8.9,8.6-14,8.6c-3.8,0-5.6-3.4-5.7-6.8c-0.2-6.8,7.3-13.8,14.1-13.8
					c1.7,0,3.7,0.4,3.8,2.5c0,2.5-2.5,6.4-12.5,9.7l-0.1,1.1c-0.2,2,1.6,2.6,3.2,2.6c3.7,0,8.1-3.8,10.8-6L290.4,199.9z M283.9,191.6
					c0-0.4-0.3-0.7-0.6-0.6c-2.6,0.7-5.6,3.2-7,6.6C280.9,196,284,192.4,283.9,191.6z"/>
				<path fill="#121212" d="M276.4,209c-4.1,0-6.1-3.7-6.2-7.3c-0.1-3.2,1.4-6.6,4.1-9.4c3-3.1,6.8-4.9,10.4-4.9c0,0,0.1,0,0.1,0
					c1.1,0,2,0.2,2.7,0.5c1,0.5,1.5,1.4,1.5,2.5c0,2.2-1.6,6.4-12.5,10.1l-0.1,0.8c0,0.6,0.1,1,0.4,1.3c0.4,0.5,1.3,0.8,2.3,0.8
					c0,0,0,0,0,0c3.2,0,7.1-3.2,9.7-5.3l0.8-0.6c0.1-0.1,0.3-0.1,0.5-0.1c0.2,0.1,0.3,0.2,0.3,0.4l0.5,2c0,0.2,0,0.3-0.1,0.4
					C287.1,204.5,281.5,209,276.4,209C276.4,209,276.4,209,276.4,209z M284.7,188.5c-3.3,0-6.9,1.7-9.7,4.6c-2.6,2.6-4,5.8-3.9,8.7
					c0.1,2.9,1.5,6.3,5.2,6.3c0,0,0,0,0,0c4.7,0,10.1-4.4,13.5-8.3l-0.2-1l-0.2,0.1c-2.9,2.3-6.8,5.5-10.3,5.5c0,0,0,0,0,0
					c-1.3,0-2.4-0.4-3.1-1.1c-0.5-0.5-0.7-1.3-0.7-2.1l0.1-1.2c0-0.2,0.2-0.4,0.3-0.4c11-3.6,12.2-7.7,12.2-9.2c0-0.7-0.3-1.2-1-1.6
					C286.5,188.6,285.6,188.5,284.7,188.5C284.7,188.5,284.7,188.5,284.7,188.5z M276.3,198.1c-0.1,0-0.3-0.1-0.4-0.2
					c-0.1-0.1-0.2-0.4-0.1-0.5c1.3-3.3,4.4-6.1,7.3-6.9c0.3-0.1,0.6,0,0.8,0.1c0.3,0.2,0.4,0.5,0.4,0.9c0,1.3-3.3,4.9-8,6.5
					C276.4,198.1,276.3,198.1,276.3,198.1z M283.4,191.4c-1.9,0.5-4.6,2.4-6.1,5.2c3.8-1.7,6.1-4.5,6.1-5.1c0,0,0,0,0,0
					C283.4,191.5,283.4,191.5,283.4,191.4z"/>
			</g>
			<g>
				<path fill="#121212" d="M313.6,198.3l0.8,1.3c-2.8,2.5-8.1,8.9-11.9,8.9c-2,0-2.9-1.7-2.9-3.4c0-3.1,2.8-6.6,4.5-9l-0.1-0.1
					c-3,2.2-5.7,5-8,8c-0.8,1-2.7,3.5-4.1,3.5c-2.3,0-2.9-3.3-2.9-5c-0.2-3.6,3.1-8.9,6.1-11.4c0.7-0.6,1.1-0.6,2-0.6
					c3.1,0.1,2.9,0.8,2.9,1.1c0,2-6.5,7.3-6.5,8.5c0,0.3,0.3,0.6,0.6,0.6c0.4,0,0.8-0.5,1-0.7c4.1-5.3,13.7-11.7,15.2-11.7
					c0.2,0,0.5,0.3,0.8,1c0.3,0.8,0.6,1.7,0.8,2.8c0,2-6.4,6-6.4,9.6c0,0.5,0.4,0.9,0.9,0.9c1.2,0,5-3.2,5.9-3.9L313.6,198.3z"/>
				<path fill="#121212" d="M302.5,209c-2.3,0-3.4-2-3.4-3.9c0-2.3,1.3-4.6,2.8-6.7c-1.9,1.7-3.8,3.7-5.5,5.9l-0.1,0.2
					c-1.4,1.9-3,3.6-4.4,3.6c0,0,0,0,0,0c-2.4,0-3.3-2.9-3.4-5.5c-0.2-3.7,3.1-9.1,6.3-11.8c0.8-0.7,1.4-0.7,2.3-0.7
					c1.7,0.1,2.7,0.3,3.1,0.8c0.3,0.3,0.3,0.7,0.3,0.8c0,1.3-1.7,3.1-4,5.6c-1,1.1-2.5,2.6-2.5,3c0.2,0.1,0.5-0.2,0.7-0.5
					c4.1-5.3,13.9-11.9,15.6-11.9c0.3,0,0.8,0.2,1.3,1.3c0.3,0.7,0.6,1.7,0.8,2.9c0,1.1-1.2,2.4-2.6,3.9c-1.7,1.7-3.7,3.9-3.7,5.7
					c0,0.2,0.2,0.4,0.4,0.4c0,0,0,0,0,0c0.4,0,1.6-0.5,5.5-3.7l0.1-0.1c0.1,0,0.1-0.1,0.2-0.1l1.3-0.3c0.2-0.1,0.4,0,0.5,0.2l0.8,1.3
					c0.1,0.2,0.1,0.5-0.1,0.6c-0.6,0.5-1.3,1.2-2.1,2.1C309.7,204.9,305.7,209,302.5,209C302.5,209,302.5,209,302.5,209z M303.9,195.5
					c0.1,0,0.3,0,0.4,0.1l0.1,0.1c0.2,0.2,0.2,0.4,0.1,0.6c-0.2,0.3-0.5,0.7-0.7,1c-1.6,2.3-3.6,5.1-3.6,7.7c0,1.4,0.6,2.9,2.4,2.9
					c0,0,0,0,0,0c2.8,0,6.6-3.8,9.4-6.6c0.7-0.7,1.3-1.3,1.9-1.8l-0.4-0.7l-0.9,0.2c-3.3,2.7-5.1,4-6.1,4c0,0,0,0,0,0
					c-0.8,0-1.4-0.7-1.4-1.4c0-2.2,2.1-4.5,4-6.4c1.2-1.2,2.4-2.5,2.4-3.2c-0.2-1.1-0.5-2-0.8-2.6c-0.2-0.5-0.4-0.7-0.4-0.7
					c-1.1,0-10.5,6.2-14.7,11.6c-0.2,0.2-0.8,0.9-1.4,0.9c0,0,0,0,0,0c-0.3,0-0.6-0.1-0.8-0.3c-0.2-0.2-0.3-0.5-0.3-0.8
					c0-0.7,1-1.8,2.8-3.7c1.6-1.6,3.7-3.9,3.7-4.8l0-0.2c0,0-0.2-0.4-2.4-0.4c-0.8,0-1.1,0-1.7,0.5c-2.9,2.5-6.1,7.6-5.9,11
					c0,0.5,0.2,4.6,2.4,4.6c0,0,0,0,0,0c1.1,0,2.9-2.3,3.6-3.2l0.1-0.2c2.5-3.2,5.2-5.9,8.1-8.1C303.7,195.5,303.8,195.5,303.9,195.5z
					"/>
			</g>
			<g>
				<path fill="#121212" d="M320,198.6c1.5,0.9,2,2.6,2.7,4.1c0,0,6.6-4.9,7.6-2.5c1,2.4-4.1,3.7-6.7,5c0.2,1,0.1,1.9,0.1,2.9
					c-0.4,6.2-7.7,11.9-11.5,12.5c-2.4,0.4-3.1-4.5-3.1-6.2c0-3.4,2.2-7.5,3.6-10.5c-0.8-0.9-1.5-1.7-1.5-3c0-2.1,1.4-2.7,2.9-3.5
					c3.1-1.7,4.7-4.1,6.3-7.1c1.3-2.6,8-14.9,10.7-15c1.1,0,1.3,1.5,1.3,2.3c0,2-1.5,5.7-2.7,7.3L320,198.6z M319.8,206.2
					c-1.7,0.1-2.5,0.1-3.7-0.4c-1.3,2.3-2.7,4-2.9,5.7c-0.2,1.7-0.5,4.1,1.1,4.6C315.8,216.6,320.3,210.1,319.8,206.2z"/>
				<path fill="#121212" d="M312,221.1c-0.5,0-1-0.2-1.4-0.5c-1.6-1.4-2-5-2-6.2c0-3.1,1.7-6.6,3.1-9.5c0.1-0.3,0.3-0.6,0.4-0.9
					c-0.7-0.8-1.4-1.7-1.4-3.1c0-2.2,1.4-3,2.8-3.7l0.4-0.2c2.8-1.6,4.5-3.8,6.1-6.9c3-5.7,8.4-15.2,11.1-15.2c0,0,0,0,0,0
					c0.7,0,1.3,0.4,1.5,1.2c0.2,0.4,0.2,1,0.2,1.6c0,2.2-1.6,6-2.8,7.6l-9.4,13.2c1.1,0.8,1.6,2.1,2.2,3.3c0,0,0,0.1,0.1,0.1
					c1.4-1,5-3.3,6.8-2.8c0.5,0.1,0.8,0.4,1,0.9c0.2,0.5,0.2,1.1,0,1.6c-0.6,1.4-2.8,2.3-5,3.2c-0.6,0.2-1.1,0.5-1.6,0.7
					c0.1,0.8,0.1,1.5,0,2.2l0,0.4c-0.4,6.5-8.1,12.4-11.9,13C312.2,221.1,312.1,221.1,312,221.1z M331.1,175.9
					C331.1,175.9,331.1,175.9,331.1,175.9c-1.5,0-5.7,6-10.2,14.7c-1.8,3.3-3.5,5.6-6.5,7.3l-0.4,0.2c-1.3,0.7-2.3,1.2-2.3,2.9
					c0,1.1,0.5,1.7,1.4,2.6c0.1,0.1,0.2,0.4,0.1,0.6c-0.2,0.4-0.4,0.8-0.6,1.2c-1.3,2.8-3,6.2-3,9.1c0,1.3,0.4,4.4,1.6,5.4
					c0.3,0.2,0.6,0.3,0.9,0.3c3.5-0.5,10.7-6,11-12l0-0.4c0-0.8,0.1-1.5-0.1-2.3c0-0.2,0.1-0.5,0.3-0.6c0.6-0.3,1.3-0.6,2-0.9
					c1.8-0.7,4-1.6,4.5-2.7c0.1-0.3,0.1-0.5,0-0.8c-0.1-0.2-0.2-0.3-0.4-0.3c-1.3-0.3-4.6,1.7-6.4,3c-0.1,0.1-0.3,0.1-0.4,0.1
					c-0.1,0-0.3-0.1-0.3-0.3c-0.1-0.2-0.2-0.5-0.3-0.7c-0.5-1.3-1.1-2.5-2.2-3.2c-0.1-0.1-0.2-0.2-0.2-0.3c0-0.1,0-0.3,0.1-0.4
					l9.7-13.6c1.2-1.7,2.6-5.2,2.6-7c0-0.6-0.1-1-0.2-1.3C331.6,176,331.4,175.9,331.1,175.9z M314.4,216.6c-0.1,0-0.2,0-0.3,0
					c-2-0.6-1.6-3.5-1.4-5.2c0.2-1.4,1-2.8,2-4.3c0.3-0.5,0.6-1,0.9-1.5c0.1-0.2,0.4-0.3,0.6-0.2c1.2,0.4,1.9,0.5,3.5,0.4
					c0.3,0,0.5,0.2,0.5,0.4c0.4,3.2-2.4,8.1-4.4,9.8C315.3,216.4,314.9,216.6,314.4,216.6z M316.3,206.4c-0.3,0.4-0.5,0.8-0.8,1.2
					c-1,1.5-1.7,2.7-1.8,3.9c-0.2,1.4-0.5,3.7,0.7,4.1c0.1,0,0.3,0,0.8-0.4c1.8-1.5,4.2-5.6,4.1-8.4
					C318.2,206.8,317.3,206.7,316.3,206.4z"/>
			</g>
		</g>
		<g enable-background="new    ">
			<path fill="#FFFFFF" d="M250.5,136.4l-1.9,5.8c-0.3,0.9-0.6,1.6-0.9,2.2c-0.3,0.6-0.7,1.1-1.1,1.5c-0.4,0.4-0.8,0.7-1.3,0.8
				c-0.5,0.2-1,0.2-1.5,0.2c-0.4,0-0.8-0.1-1.2-0.3c-0.3-0.1-0.6-0.3-0.9-0.6c-0.2-0.2-0.4-0.5-0.5-0.8c-0.1-0.3-0.1-0.6-0.1-1
				c0-0.3,0.1-0.7,0.3-0.9c0.2-0.3,0.3-0.5,0.6-0.7c0.2-0.2,0.5-0.4,0.8-0.4c0.3-0.1,0.6-0.1,1-0.1c0.5,0,0.8,0.2,1.1,0.4
				c0.3,0.2,0.4,0.6,0.3,0.9c0,0.3-0.1,0.5-0.3,0.7c-0.1-0.2-0.2-0.3-0.4-0.4c-0.2-0.1-0.4-0.2-0.6-0.2c-0.2,0-0.3,0-0.5,0
				c-0.2,0-0.3,0.1-0.4,0.2c-0.1,0.1-0.2,0.2-0.3,0.4c-0.1,0.1-0.1,0.3-0.1,0.5c0,0.2,0,0.4,0,0.5c0,0.2,0.1,0.3,0.2,0.4
				c0.1,0.1,0.2,0.2,0.3,0.3c0.1,0.1,0.3,0.1,0.5,0.1c0.4,0,0.8-0.1,1.1-0.4c0.3-0.3,0.6-0.9,0.8-1.6l1.3-3.8l-0.1,0
				c-0.4,0.4-0.8,0.7-1.3,0.9c-0.5,0.2-1,0.3-1.5,0.2c-0.5-0.1-1-0.2-1.4-0.5c-0.4-0.3-0.7-0.6-1-1c-0.3-0.4-0.4-0.9-0.5-1.5
				c-0.1-0.6-0.1-1.2-0.1-1.9c0.1-0.7,0.2-1.3,0.4-1.9c0.2-0.6,0.5-1.1,0.8-1.6c0.3-0.5,0.7-0.9,1.1-1.3s0.9-0.7,1.4-1
				c0.5-0.3,1-0.4,1.6-0.5c0.6-0.1,1.2-0.1,1.8-0.1c0.5,0,0.9,0.1,1.3,0.3c0.4,0.2,0.7,0.3,1,0.6c0.3,0.2,0.5,0.5,0.6,0.8
				c0.1,0.3,0.2,0.7,0.1,1c0,0.3-0.1,0.5-0.2,0.7c-0.1,0.2-0.2,0.4-0.3,0.5c-0.1,0.1-0.3,0.2-0.5,0.3c-0.2,0.1-0.4,0.1-0.6,0.1
				c-0.2,0-0.4-0.1-0.6-0.2c-0.2-0.1-0.3-0.3-0.5-0.5c0.1-0.1,0.2-0.1,0.3-0.3s0.2-0.2,0.3-0.4c0.1-0.1,0.2-0.3,0.2-0.4
				c0.1-0.2,0.1-0.3,0.1-0.5c0-0.4,0-0.6-0.2-0.9c-0.2-0.2-0.5-0.3-0.8-0.4c-0.4,0-0.7,0-1.1,0.1c-0.4,0.1-0.7,0.3-1,0.6
				c-0.3,0.3-0.6,0.6-0.9,0.9c-0.3,0.4-0.6,0.8-0.8,1.2c-0.2,0.5-0.4,0.9-0.6,1.5c-0.2,0.5-0.3,1-0.3,1.6c-0.1,0.9,0,1.6,0.2,2.1
				c0.2,0.5,0.6,0.8,1.2,0.8c0.6,0.1,1.2-0.2,1.8-0.8c0.5-0.6,1-1.6,1.5-2.8L250.5,136.4z"/>
			<path fill="#FFFFFF" d="M256.2,141.2c-0.2,0.5-0.4,0.9-0.7,1.2c-0.2,0.3-0.5,0.6-0.7,0.8c-0.2,0.2-0.5,0.4-0.7,0.5
				c-0.2,0.1-0.5,0.2-0.7,0.3c-0.2,0.1-0.4,0.1-0.6,0.1c-0.2,0-0.4,0-0.5,0c-0.3,0-0.5-0.1-0.7-0.2c-0.2-0.1-0.4-0.2-0.6-0.4
				c-0.2-0.2-0.3-0.4-0.3-0.7c-0.1-0.3-0.1-0.6-0.1-1c0-0.2,0-0.3,0.1-0.5c0-0.2,0.1-0.4,0.2-0.6l1.8-5.6l2.5,0.2l-1.9,5.9
				c0,0.1-0.1,0.2-0.1,0.3c0,0.1,0,0.2,0,0.3c0,0.2,0,0.4,0.1,0.5c0.1,0.1,0.3,0.2,0.5,0.2c0.2,0,0.3,0,0.5-0.1
				c0.2-0.1,0.3-0.2,0.5-0.3c0.2-0.1,0.3-0.3,0.4-0.5s0.2-0.4,0.3-0.6L256.2,141.2z M255.8,133.1c0,0.2-0.1,0.4-0.2,0.5
				c-0.1,0.2-0.2,0.3-0.4,0.4s-0.3,0.2-0.5,0.2c-0.2,0.1-0.4,0.1-0.6,0.1c-0.2,0-0.4-0.1-0.5-0.2c-0.2-0.1-0.3-0.2-0.4-0.3
				c-0.1-0.1-0.2-0.3-0.3-0.5c-0.1-0.2-0.1-0.4-0.1-0.6c0-0.2,0.1-0.4,0.2-0.5s0.2-0.3,0.3-0.4c0.1-0.1,0.3-0.2,0.5-0.3
				c0.2-0.1,0.4-0.1,0.6-0.1c0.2,0,0.4,0.1,0.5,0.2c0.2,0.1,0.3,0.2,0.4,0.4s0.2,0.3,0.3,0.5C255.8,132.7,255.9,132.9,255.8,133.1z"/>
			<path fill="#FFFFFF" d="M258.2,132.5l2.7-0.1l-1.2,3.9c0.2-0.1,0.4-0.2,0.5-0.2c0.1-0.1,0.3-0.1,0.4-0.1c0.1,0,0.2,0,0.3,0
				c0.1,0,0.2,0,0.3,0c0.3,0,0.6,0.1,0.8,0.2c0.2,0.1,0.4,0.3,0.6,0.6c0.2,0.3,0.3,0.6,0.3,1c0.1,0.4,0.1,0.9,0,1.4
				c0,0.3-0.1,0.7-0.2,1.2c-0.1,0.4-0.3,0.8-0.5,1.3c-0.2,0.4-0.4,0.8-0.7,1.2c-0.3,0.4-0.6,0.7-1,1c-0.4,0.3-0.8,0.5-1.3,0.7
				c-0.5,0.2-1.1,0.2-1.7,0.1c-0.8-0.1-1.4-0.3-1.8-0.8c-0.4-0.4-0.5-1-0.5-1.7c0-0.2,0-0.3,0.1-0.5c0-0.2,0.1-0.3,0.1-0.5
				L258.2,132.5z M257.8,141.7c-0.1,0.1-0.1,0.3-0.1,0.4c-0.1,0.5,0.2,0.9,0.9,0.9c0.2,0,0.4,0,0.6-0.1c0.2-0.1,0.4-0.3,0.5-0.5
				c0.2-0.2,0.3-0.4,0.5-0.7c0.2-0.3,0.3-0.6,0.4-0.9s0.2-0.6,0.3-1c0.1-0.3,0.1-0.6,0.2-1c0-0.2,0-0.4,0-0.6c0-0.2-0.1-0.4-0.1-0.6
				c-0.1-0.2-0.1-0.3-0.3-0.4c-0.1-0.1-0.2-0.2-0.4-0.2c-0.1,0-0.1,0-0.2,0c-0.1,0-0.2,0-0.3,0c-0.1,0-0.2,0-0.3,0.1
				c-0.1,0-0.2,0.1-0.2,0.1L257.8,141.7z"/>
			<path fill="#FFFFFF" d="M277.1,143.3c-0.2,0.5-0.4,0.9-0.7,1.2c-0.2,0.3-0.5,0.6-0.7,0.8c-0.2,0.2-0.5,0.4-0.7,0.5
				c-0.2,0.1-0.5,0.2-0.7,0.3c-0.2,0.1-0.4,0.1-0.6,0.1c-0.2,0-0.4,0-0.5,0c-0.5,0-0.9-0.2-1.1-0.5c-0.3-0.3-0.4-0.7-0.4-1.2
				c-0.2,0.2-0.3,0.4-0.5,0.5c-0.2,0.2-0.4,0.3-0.6,0.5c-0.2,0.1-0.5,0.2-0.8,0.3c-0.3,0.1-0.6,0.1-0.9,0.1c-0.3,0-0.6-0.1-0.9-0.2
				c-0.3-0.1-0.5-0.3-0.7-0.6c-0.2-0.2-0.3-0.6-0.4-0.9c-0.1-0.4-0.1-0.8-0.1-1.3c0-0.4,0.1-0.8,0.2-1.3c0.1-0.5,0.3-0.9,0.5-1.3
				c0.2-0.4,0.5-0.9,0.8-1.3c0.3-0.4,0.6-0.7,1-1c0.4-0.3,0.8-0.5,1.2-0.7c0.4-0.2,0.9-0.2,1.4-0.2c0.5,0,0.9,0.2,1.1,0.4
				c0.2,0.2,0.3,0.4,0.3,0.7l0,0.1l1.3-4l2.7-0.1l-3,9.4c0,0.1-0.1,0.2-0.1,0.3c0,0.1,0,0.2,0,0.3c0,0.2,0,0.4,0.1,0.5
				c0.1,0.1,0.3,0.2,0.5,0.2c0.2,0,0.3,0,0.5-0.1c0.2-0.1,0.3-0.2,0.4-0.3c0.1-0.1,0.3-0.3,0.4-0.5c0.1-0.2,0.2-0.4,0.3-0.6
				L277.1,143.3z M271.8,142.8l1.3-4c0-0.1,0-0.1,0-0.2c0-0.1-0.1-0.1-0.1-0.2c0-0.1-0.1-0.1-0.2-0.2c-0.1-0.1-0.2-0.1-0.3-0.1
				c-0.2,0-0.5,0-0.7,0.2c-0.2,0.1-0.5,0.3-0.7,0.6c-0.2,0.2-0.4,0.5-0.6,0.9c-0.2,0.3-0.3,0.7-0.5,1c-0.1,0.3-0.2,0.7-0.3,1
				c-0.1,0.3-0.1,0.7-0.2,0.9c0,0.3,0,0.6,0,0.8c0,0.2,0.1,0.3,0.2,0.4s0.2,0.2,0.3,0.2c0.1,0,0.2,0,0.3,0.1c0.1,0,0.3,0,0.4-0.1
				c0.2,0,0.3-0.1,0.5-0.2c0.1-0.1,0.3-0.2,0.4-0.4C271.6,143.3,271.7,143.1,271.8,142.8L271.8,142.8z"/>
			<path fill="#FFFFFF" d="M283.8,143.9c-0.3,0.4-0.6,0.8-1,1.1c-0.4,0.4-0.8,0.7-1.2,0.9c-0.4,0.3-0.9,0.5-1.4,0.6
				c-0.5,0.1-1,0.2-1.6,0.1c-0.4,0-0.8-0.1-1.1-0.3c-0.3-0.1-0.6-0.3-0.8-0.6c-0.2-0.2-0.4-0.6-0.5-0.9c-0.1-0.4-0.1-0.8-0.1-1.3
				c0-0.3,0.1-0.7,0.2-1.2s0.3-0.9,0.5-1.3s0.4-0.9,0.7-1.3c0.3-0.4,0.6-0.8,1-1.1c0.4-0.3,0.8-0.6,1.3-0.7c0.5-0.2,1-0.2,1.6-0.2
				c0.4,0,0.7,0.1,1,0.2c0.2,0.1,0.4,0.3,0.6,0.4c0.1,0.2,0.2,0.4,0.2,0.6c0,0.2,0,0.4,0,0.6c0,0.5-0.2,1-0.5,1.4
				c-0.3,0.4-0.6,0.8-1,1.1c-0.4,0.3-0.9,0.5-1.4,0.7c-0.5,0.2-1,0.2-1.6,0.2c0,0.1,0,0.3-0.1,0.4c0,0.1,0,0.2,0,0.3
				c0,0.3,0,0.5,0,0.7s0.1,0.4,0.2,0.5c0.1,0.1,0.2,0.2,0.4,0.3c0.2,0.1,0.3,0.1,0.6,0.1c0.3,0,0.7,0,1,0c0.3-0.1,0.6-0.2,0.8-0.3
				c0.3-0.1,0.5-0.3,0.8-0.5c0.2-0.2,0.5-0.4,0.7-0.6L283.8,143.9z M279.1,142.2c0.3,0,0.7-0.1,1-0.2c0.3-0.1,0.6-0.3,0.9-0.6
				c0.3-0.2,0.5-0.5,0.7-0.9c0.2-0.3,0.3-0.7,0.3-1c0-0.2,0-0.4,0-0.5c-0.1-0.1-0.2-0.2-0.3-0.2c-0.2,0-0.5,0.1-0.7,0.3
				c-0.2,0.2-0.5,0.5-0.7,0.8c-0.2,0.3-0.4,0.7-0.6,1.1C279.4,141.4,279.2,141.8,279.1,142.2z"/>
			<path fill="#FFFFFF" d="M288.6,144.4c-0.2,0.5-0.4,0.9-0.7,1.2c-0.2,0.3-0.5,0.6-0.7,0.8c-0.2,0.2-0.5,0.4-0.7,0.5
				c-0.2,0.1-0.5,0.2-0.7,0.3c-0.2,0.1-0.4,0.1-0.6,0.1c-0.2,0-0.4,0-0.5,0c-0.3,0-0.5-0.1-0.7-0.2c-0.2-0.1-0.4-0.2-0.6-0.4
				c-0.2-0.2-0.3-0.4-0.3-0.7c-0.1-0.3-0.1-0.6-0.1-1c0-0.2,0-0.3,0.1-0.5c0-0.2,0.1-0.4,0.2-0.6l1.8-5.6l2.5,0.2l-1.9,5.9
				c0,0.1-0.1,0.2-0.1,0.3c0,0.1,0,0.2,0,0.3c0,0.2,0,0.4,0.1,0.5s0.3,0.2,0.5,0.2c0.2,0,0.3,0,0.5-0.1c0.2-0.1,0.3-0.2,0.5-0.3
				c0.2-0.1,0.3-0.3,0.4-0.5s0.2-0.4,0.3-0.6L288.6,144.4z M288.3,136.3c0,0.2-0.1,0.4-0.2,0.5c-0.1,0.2-0.2,0.3-0.4,0.4
				s-0.3,0.2-0.5,0.2c-0.2,0.1-0.4,0.1-0.6,0.1c-0.2,0-0.4-0.1-0.5-0.2s-0.3-0.2-0.4-0.3c-0.1-0.1-0.2-0.3-0.3-0.5
				c-0.1-0.2-0.1-0.4-0.1-0.6c0-0.2,0.1-0.4,0.2-0.5c0.1-0.2,0.2-0.3,0.3-0.4c0.1-0.1,0.3-0.2,0.5-0.3c0.2-0.1,0.4-0.1,0.6-0.1
				c0.2,0,0.4,0.1,0.5,0.2c0.2,0.1,0.3,0.2,0.4,0.4s0.2,0.3,0.3,0.5C288.3,135.9,288.3,136.1,288.3,136.3z"/>
			<path fill="#FFFFFF" d="M297.6,145.3c-0.3,0.7-0.6,1.3-1,1.7c-0.3,0.4-0.6,0.7-1,0.9c-0.3,0.2-0.6,0.3-0.9,0.4s-0.5,0.1-0.8,0
				c-0.4,0-0.7-0.1-1-0.3c-0.3-0.1-0.5-0.3-0.6-0.5c-0.1-0.2-0.2-0.4-0.3-0.7c0-0.2-0.1-0.5,0-0.7c0-0.3,0.1-0.6,0.2-1
				c0.1-0.4,0.3-0.8,0.4-1.2c0.1-0.4,0.3-0.8,0.4-1.2c0.1-0.4,0.2-0.7,0.2-1c0.1-0.6-0.1-0.9-0.5-1c-0.2,0-0.3,0-0.5,0.1
				s-0.3,0.2-0.4,0.3c-0.1,0.1-0.2,0.3-0.4,0.5c-0.1,0.2-0.2,0.4-0.3,0.6l-1.8,5.6l-2.5-0.2l2.7-8.7l2.5,0.2l-0.3,0.9
				c0.2-0.2,0.4-0.3,0.6-0.5c0.2-0.1,0.4-0.2,0.6-0.2s0.4-0.1,0.5-0.1c0.2,0,0.3,0,0.4,0c0.3,0,0.5,0.1,0.8,0.2
				c0.2,0.1,0.4,0.2,0.6,0.4c0.2,0.2,0.3,0.4,0.3,0.7c0.1,0.3,0.1,0.6,0.1,0.9c0,0.2-0.1,0.5-0.1,0.8c-0.1,0.3-0.2,0.5-0.2,0.8
				c-0.1,0.3-0.2,0.6-0.3,0.8c-0.1,0.3-0.2,0.5-0.3,0.8c-0.1,0.3-0.2,0.5-0.2,0.7c-0.1,0.2-0.1,0.4-0.1,0.6c0,0.2,0,0.4,0.1,0.6
				c0.1,0.1,0.3,0.2,0.5,0.3c0.2,0,0.4,0,0.5-0.1s0.3-0.2,0.4-0.3c0.1-0.1,0.3-0.3,0.4-0.5s0.2-0.4,0.3-0.6L297.6,145.3z"/>
			<path fill="#FFFFFF" d="M304.2,145.9c-0.3,0.4-0.6,0.8-1,1.1c-0.4,0.4-0.8,0.7-1.2,0.9c-0.4,0.3-0.9,0.5-1.4,0.6
				c-0.5,0.1-1,0.2-1.6,0.1c-0.4,0-0.8-0.1-1.1-0.3c-0.3-0.1-0.6-0.3-0.8-0.6c-0.2-0.2-0.4-0.6-0.5-0.9s-0.1-0.8-0.1-1.3
				c0-0.3,0.1-0.7,0.2-1.2c0.1-0.4,0.3-0.9,0.5-1.3c0.2-0.5,0.4-0.9,0.7-1.3c0.3-0.4,0.6-0.8,1-1.1c0.4-0.3,0.8-0.6,1.3-0.7
				c0.5-0.2,1-0.2,1.6-0.2c0.4,0,0.7,0.1,1,0.2c0.2,0.1,0.4,0.3,0.6,0.4c0.1,0.2,0.2,0.4,0.2,0.6c0,0.2,0,0.4,0,0.6
				c-0.1,0.5-0.2,1-0.5,1.4c-0.3,0.4-0.6,0.8-1,1.1c-0.4,0.3-0.9,0.5-1.4,0.7c-0.5,0.2-1,0.2-1.6,0.2c0,0.1,0,0.3-0.1,0.4
				c0,0.1,0,0.2,0,0.3c0,0.3,0,0.5,0,0.7c0,0.2,0.1,0.4,0.2,0.5c0.1,0.1,0.2,0.2,0.4,0.3c0.2,0.1,0.3,0.1,0.5,0.1c0.4,0,0.7,0,1,0
				c0.3-0.1,0.6-0.2,0.8-0.3c0.3-0.1,0.5-0.3,0.8-0.5c0.2-0.2,0.5-0.4,0.7-0.6L304.2,145.9z M299.5,144.2c0.3,0,0.7-0.1,1-0.2
				c0.3-0.1,0.6-0.3,0.9-0.6s0.5-0.5,0.7-0.9c0.2-0.3,0.3-0.7,0.3-1c0-0.2,0-0.4,0-0.5c0-0.1-0.2-0.2-0.3-0.2c-0.2,0-0.5,0.1-0.7,0.3
				c-0.2,0.2-0.5,0.5-0.7,0.8c-0.2,0.3-0.4,0.7-0.6,1.1S299.6,143.8,299.5,144.2z"/>
			<path fill="#FFFFFF" d="M302.6,149l2.7-8.7l2.5,0.2l-0.3,0.9c0.2-0.2,0.4-0.3,0.6-0.5c0.2-0.1,0.4-0.2,0.6-0.2s0.4-0.1,0.5-0.1
				c0.2,0,0.3,0,0.4,0c0.3,0,0.5,0.1,0.8,0.2c0.2,0.1,0.4,0.2,0.6,0.4c0.2,0.2,0.3,0.4,0.3,0.7c0.1,0.3,0.1,0.6,0.1,0.9
				c0,0.2-0.1,0.5-0.1,0.8c-0.1,0.3-0.2,0.5-0.2,0.8c-0.1,0.3-0.2,0.6-0.3,0.8c-0.1,0.3-0.2,0.5-0.3,0.8c-0.1,0.3-0.2,0.5-0.2,0.7
				c-0.1,0.2-0.1,0.4-0.1,0.6c0,0.2,0,0.4,0.1,0.6c0.1,0.1,0.3,0.2,0.5,0.3c0.3,0,0.5,0,0.6-0.1c-0.1,0.3-0.2,0.6-0.3,0.8
				c-0.1,0.2-0.3,0.4-0.5,0.5c-0.2,0.1-0.4,0.2-0.6,0.3c-0.2,0-0.5,0.1-0.7,0c-0.3,0-0.6-0.1-0.8-0.3c-0.2-0.1-0.4-0.3-0.5-0.5
				c-0.1-0.2-0.2-0.4-0.2-0.7c0-0.2,0-0.5,0-0.7c0-0.3,0.1-0.6,0.2-1c0.1-0.4,0.3-0.8,0.4-1.2c0.1-0.4,0.3-0.8,0.4-1.2
				c0.1-0.4,0.2-0.7,0.2-1c0.1-0.6-0.1-0.9-0.6-1c-0.2,0-0.3,0-0.5,0.1s-0.3,0.2-0.4,0.3c-0.1,0.1-0.2,0.3-0.4,0.5
				c-0.1,0.2-0.2,0.4-0.3,0.6l-1.8,5.6L302.6,149z"/>
			<path fill="#FFFFFF" d="M318.6,149.2c0,0.2-0.1,0.4-0.2,0.5c-0.1,0.2-0.2,0.3-0.3,0.4c-0.1,0.1-0.3,0.2-0.5,0.3
				c-0.2,0.1-0.4,0.1-0.6,0.1s-0.4-0.1-0.5-0.2c-0.2-0.1-0.3-0.2-0.4-0.3c-0.1-0.1-0.2-0.3-0.3-0.5c-0.1-0.2-0.1-0.4-0.1-0.6
				s0.1-0.4,0.2-0.5c0.1-0.2,0.2-0.3,0.3-0.4c0.1-0.1,0.3-0.2,0.5-0.3c0.2-0.1,0.4-0.1,0.6-0.1s0.4,0.1,0.5,0.2s0.3,0.2,0.4,0.3
				c0.1,0.1,0.2,0.3,0.3,0.5C318.6,148.8,318.7,149,318.6,149.2z"/>
			<path fill="#FFFFFF" d="M323.3,149.7c0,0.2-0.1,0.4-0.2,0.5c-0.1,0.2-0.2,0.3-0.3,0.4c-0.1,0.1-0.3,0.2-0.5,0.3
				c-0.2,0.1-0.4,0.1-0.6,0.1s-0.4-0.1-0.5-0.2c-0.2-0.1-0.3-0.2-0.4-0.3c-0.1-0.1-0.2-0.3-0.3-0.5c-0.1-0.2-0.1-0.4-0.1-0.6
				s0.1-0.4,0.2-0.5c0.1-0.2,0.2-0.3,0.3-0.4c0.1-0.1,0.3-0.2,0.5-0.3s0.4-0.1,0.6-0.1s0.4,0.1,0.5,0.2c0.2,0.1,0.3,0.2,0.4,0.3
				c0.1,0.1,0.2,0.3,0.3,0.5C323.3,149.3,323.3,149.5,323.3,149.7z"/>
			<path fill="#FFFFFF" d="M328,150.1c0,0.2-0.1,0.4-0.2,0.5c-0.1,0.2-0.2,0.3-0.3,0.4c-0.1,0.1-0.3,0.2-0.5,0.3
				c-0.2,0.1-0.4,0.1-0.6,0.1s-0.4-0.1-0.5-0.2c-0.2-0.1-0.3-0.2-0.4-0.3c-0.1-0.1-0.2-0.3-0.3-0.5c-0.1-0.2-0.1-0.4-0.1-0.6
				c0-0.2,0.1-0.4,0.2-0.5c0.1-0.2,0.2-0.3,0.3-0.4s0.3-0.2,0.5-0.3c0.2-0.1,0.4-0.1,0.6-0.1c0.2,0,0.4,0.1,0.5,0.2
				c0.2,0.1,0.3,0.2,0.4,0.3s0.2,0.3,0.3,0.5C328,149.7,328,149.9,328,150.1z"/>
		</g>
		<g enable-background="new    ">
			<path fill="#FFFFFF" d="M273.3,252.1c0,0.2-0.1,0.4-0.2,0.5c-0.1,0.2-0.2,0.3-0.4,0.4c-0.1,0.1-0.3,0.2-0.5,0.3
				c-0.2,0.1-0.4,0.1-0.6,0.1s-0.4-0.1-0.5-0.2c-0.2-0.1-0.3-0.2-0.4-0.3c-0.1-0.1-0.2-0.3-0.3-0.5c-0.1-0.2-0.1-0.4-0.1-0.6
				c0-0.2,0.1-0.4,0.2-0.5c0.1-0.2,0.2-0.3,0.3-0.4c0.1-0.1,0.3-0.2,0.5-0.3c0.2-0.1,0.4-0.1,0.6-0.1s0.4,0.1,0.5,0.2
				c0.2,0.1,0.3,0.2,0.4,0.3c0.1,0.1,0.2,0.3,0.3,0.5C273.3,251.7,273.3,251.9,273.3,252.1z"/>
			<path fill="#FFFFFF" d="M277.9,252.5c0,0.2-0.1,0.4-0.2,0.5c-0.1,0.2-0.2,0.3-0.4,0.4c-0.1,0.1-0.3,0.2-0.5,0.3
				c-0.2,0.1-0.4,0.1-0.6,0.1c-0.2,0-0.4-0.1-0.5-0.2c-0.2-0.1-0.3-0.2-0.4-0.3c-0.1-0.1-0.2-0.3-0.3-0.5c-0.1-0.2-0.1-0.4-0.1-0.6
				c0-0.2,0.1-0.4,0.2-0.5c0.1-0.2,0.2-0.3,0.3-0.4c0.1-0.1,0.3-0.2,0.5-0.3c0.2-0.1,0.4-0.1,0.6-0.1s0.4,0.1,0.5,0.2s0.3,0.2,0.4,0.3
				c0.1,0.1,0.2,0.3,0.3,0.5C277.9,252.2,278,252.3,277.9,252.5z"/>
			<path fill="#FFFFFF" d="M282.6,253c0,0.2-0.1,0.4-0.2,0.5s-0.2,0.3-0.3,0.4c-0.1,0.1-0.3,0.2-0.5,0.3c-0.2,0.1-0.4,0.1-0.6,0.1
				s-0.4-0.1-0.5-0.2c-0.2-0.1-0.3-0.2-0.4-0.3c-0.1-0.1-0.2-0.3-0.3-0.5c-0.1-0.2-0.1-0.4-0.1-0.6c0-0.2,0.1-0.4,0.2-0.5
				c0.1-0.2,0.2-0.3,0.3-0.4c0.1-0.1,0.3-0.2,0.5-0.3c0.2-0.1,0.4-0.1,0.6-0.1s0.4,0.1,0.5,0.2c0.2,0.1,0.3,0.2,0.4,0.3
				c0.1,0.1,0.2,0.3,0.3,0.5C282.6,252.6,282.6,252.8,282.6,253z"/>
			<path fill="#FFFFFF" d="M297.9,252.6c-0.2,0.5-0.4,0.9-0.7,1.2c-0.2,0.3-0.5,0.6-0.7,0.8c-0.2,0.2-0.5,0.4-0.7,0.5
				c-0.2,0.1-0.5,0.2-0.7,0.3c-0.2,0.1-0.4,0.1-0.6,0.1c-0.2,0-0.4,0-0.5,0c-0.5,0-0.9-0.2-1.1-0.5c-0.3-0.3-0.4-0.7-0.4-1.2
				c-0.2,0.2-0.3,0.4-0.5,0.5c-0.2,0.2-0.4,0.3-0.6,0.5c-0.2,0.1-0.5,0.2-0.8,0.3c-0.3,0.1-0.6,0.1-0.9,0.1c-0.3,0-0.6-0.1-0.9-0.2
				c-0.3-0.1-0.5-0.3-0.7-0.6c-0.2-0.2-0.3-0.6-0.4-0.9c-0.1-0.4-0.1-0.8-0.1-1.3c0-0.4,0.1-0.8,0.2-1.3c0.1-0.5,0.3-0.9,0.5-1.3
				c0.2-0.4,0.5-0.9,0.8-1.3c0.3-0.4,0.6-0.7,1-1c0.4-0.3,0.8-0.5,1.2-0.7c0.4-0.2,0.9-0.2,1.4-0.2c0.5,0,0.9,0.2,1.1,0.4
				c0.2,0.2,0.3,0.4,0.3,0.7l0,0.1l1.3-4l2.7-0.1l-3,9.4c0,0.1-0.1,0.2-0.1,0.3s0,0.2,0,0.3c0,0.2,0,0.4,0.1,0.5
				c0.1,0.1,0.3,0.2,0.5,0.2c0.2,0,0.3,0,0.5-0.1c0.2-0.1,0.3-0.2,0.4-0.3c0.1-0.1,0.3-0.3,0.4-0.5c0.1-0.2,0.2-0.4,0.3-0.6
				L297.9,252.6z M292.6,252.1l1.3-4c0-0.1,0-0.1,0-0.2c0-0.1,0-0.1-0.1-0.2c0-0.1-0.1-0.1-0.2-0.2c-0.1-0.1-0.2-0.1-0.3-0.1
				c-0.2,0-0.5,0-0.7,0.2c-0.2,0.1-0.5,0.3-0.7,0.6s-0.4,0.5-0.6,0.9s-0.3,0.7-0.5,1c-0.1,0.3-0.2,0.7-0.3,1c-0.1,0.3-0.1,0.7-0.2,0.9
				c0,0.3,0,0.6,0,0.8c0,0.2,0.1,0.3,0.2,0.4c0.1,0.1,0.2,0.2,0.3,0.2c0.1,0,0.2,0,0.3,0.1c0.1,0,0.3,0,0.4-0.1c0.2,0,0.3-0.1,0.5-0.2
				s0.3-0.2,0.4-0.4C292.4,252.7,292.5,252.5,292.6,252.1L292.6,252.1z"/>
			<path fill="#FFFFFF" d="M304.4,253.6c0,0.1-0.1,0.2-0.1,0.3c0,0.1,0,0.2,0,0.3c0,0.2,0,0.4,0.1,0.5c0.1,0.1,0.3,0.2,0.5,0.2
				c0.1,0,0.2,0,0.2,0c0.1,0,0.1,0,0.2,0c-0.2,0.3-0.3,0.5-0.4,0.8c-0.1,0.2-0.3,0.4-0.4,0.5c-0.1,0.1-0.3,0.2-0.5,0.3
				c-0.2,0.1-0.4,0.1-0.6,0c-0.5,0-0.9-0.2-1.1-0.5c-0.3-0.3-0.4-0.7-0.4-1.3c-0.2,0.2-0.3,0.4-0.5,0.6c-0.2,0.2-0.4,0.3-0.6,0.5
				c-0.2,0.1-0.5,0.2-0.8,0.3c-0.3,0.1-0.6,0.1-0.9,0.1c-0.3,0-0.6-0.1-0.9-0.2c-0.3-0.1-0.5-0.3-0.7-0.6c-0.2-0.2-0.3-0.6-0.4-0.9
				s-0.1-0.8-0.1-1.3c0-0.4,0.1-0.8,0.2-1.3c0.1-0.5,0.3-0.9,0.5-1.3c0.2-0.4,0.5-0.9,0.8-1.3c0.3-0.4,0.6-0.7,1-1
				c0.4-0.3,0.8-0.5,1.2-0.7c0.4-0.2,0.9-0.2,1.4-0.2c0.5,0,0.9,0.2,1.1,0.4c0.2,0.2,0.3,0.4,0.3,0.7l0,0.1l0.3-0.9l2.5,0.2
				L304.4,253.6z M303.2,249.1c0-0.1,0-0.1,0-0.2c0-0.1,0-0.2-0.1-0.2c0-0.1-0.1-0.1-0.2-0.2c-0.1-0.1-0.2-0.1-0.3-0.1
				c-0.2,0-0.5,0-0.7,0.2c-0.2,0.1-0.5,0.3-0.7,0.6s-0.4,0.5-0.6,0.9c-0.2,0.3-0.3,0.7-0.5,1c-0.1,0.3-0.2,0.7-0.3,1
				c-0.1,0.3-0.1,0.7-0.2,0.9c0,0.3,0,0.6,0,0.8s0.1,0.3,0.2,0.4c0.1,0.1,0.2,0.2,0.3,0.2c0.1,0,0.2,0,0.3,0.1c0.1,0,0.3,0,0.4-0.1
				c0.2-0.1,0.3-0.1,0.5-0.3s0.3-0.3,0.4-0.5c0.1-0.2,0.2-0.4,0.3-0.7L303.2,249.1z M305.3,256.6l5.3-7.4l-1-0.1c-0.1,0-0.3,0-0.4,0
				s-0.2,0-0.3,0c-0.1,0-0.2,0-0.2,0.1c-0.1,0-0.1,0.1-0.1,0.1c0,0,0,0,0,0.1c0,0,0,0,0.1,0s0,0.1,0.1,0.1c0,0,0,0.1,0,0.2
				c0,0.2-0.1,0.3-0.1,0.4c-0.1,0.1-0.1,0.2-0.2,0.3c-0.1,0.1-0.2,0.1-0.3,0.1c-0.1,0-0.2,0-0.4,0c-0.1,0-0.2,0-0.3-0.1
				c-0.1,0-0.2-0.1-0.2-0.2c-0.1-0.1-0.1-0.2-0.2-0.3c0-0.1,0-0.2,0-0.3c0-0.2,0.1-0.4,0.2-0.6c0.1-0.2,0.3-0.4,0.5-0.5
				c0.2-0.2,0.4-0.3,0.7-0.4c0.3-0.1,0.6-0.1,0.9-0.1l4.5,0.4l-5.1,7.1c0.1,0,0.2,0,0.3,0.1c0.1,0,0.2,0,0.3,0.1c0.1,0,0.2,0,0.4,0.1
				s0.2,0,0.4,0c0.2,0,0.4,0,0.6,0c0.2,0,0.3-0.1,0.3-0.3c-0.1,0-0.2-0.1-0.2-0.1c0-0.1-0.1-0.2-0.1-0.3c0-0.1,0-0.2,0.1-0.3
				c0.1-0.1,0.1-0.2,0.2-0.2c0.1-0.1,0.2-0.1,0.3-0.2c0.1,0,0.3,0,0.4,0c0.3,0,0.5,0.1,0.6,0.3s0.2,0.4,0.1,0.6c0,0.2-0.1,0.4-0.2,0.6
				c-0.1,0.2-0.3,0.4-0.5,0.6c-0.2,0.2-0.4,0.3-0.7,0.4c-0.3,0.1-0.6,0.1-0.9,0.1L305.3,256.6z"/>
			<path fill="#FFFFFF" d="M319.3,249l2.5,0.2l-1.9,5.9c0,0.1-0.1,0.2-0.1,0.3c0,0.1,0,0.2,0,0.3c0,0.2,0,0.4,0.1,0.5s0.3,0.2,0.5,0.2
				c0.1,0,0.2,0,0.2,0c0.1,0,0.1,0,0.1,0c0,0,0.1,0,0.1,0c0,0,0.1,0,0.1,0c-0.1,0.3-0.2,0.6-0.3,0.8c-0.1,0.2-0.3,0.4-0.5,0.5
				s-0.4,0.2-0.6,0.3c-0.2,0-0.5,0.1-0.7,0c-0.5,0-0.9-0.2-1.2-0.6c-0.3-0.3-0.4-0.8-0.4-1.3c-0.3,0.3-0.5,0.6-0.8,0.8
				c-0.3,0.2-0.5,0.3-0.7,0.4c-0.2,0.1-0.5,0.2-0.7,0.2s-0.4,0-0.6,0c-0.3,0-0.5-0.1-0.7-0.2c-0.2-0.1-0.4-0.2-0.6-0.4
				c-0.2-0.2-0.3-0.4-0.3-0.7c-0.1-0.3-0.1-0.6-0.1-1c0-0.2,0-0.3,0.1-0.5c0-0.2,0.1-0.4,0.2-0.6l1.8-5.6l2.5,0.2l-1.9,5.9
				c0,0.1-0.1,0.3-0.1,0.4c0,0.1,0,0.2,0,0.3c0,0.1,0,0.2,0.1,0.3c0,0.1,0.1,0.1,0.1,0.2c0.1,0,0.1,0.1,0.2,0.1c0.2,0,0.3,0,0.5-0.1
				c0.2-0.1,0.3-0.2,0.4-0.3c0.1-0.1,0.3-0.3,0.4-0.5s0.2-0.4,0.3-0.6L319.3,249z"/>
			<path fill="#FFFFFF" d="M324.5,257.1c0,0.2-0.1,0.4-0.2,0.5c-0.1,0.2-0.2,0.3-0.3,0.4c-0.1,0.1-0.3,0.2-0.5,0.3
				c-0.2,0.1-0.4,0.1-0.6,0.1c-0.2,0-0.4-0.1-0.5-0.2c-0.2-0.1-0.3-0.2-0.4-0.3c-0.1-0.1-0.2-0.3-0.3-0.5c-0.1-0.2-0.1-0.4-0.1-0.6
				c0-0.2,0.1-0.4,0.2-0.5c0.1-0.2,0.2-0.3,0.3-0.4c0.1-0.1,0.3-0.2,0.5-0.3c0.2-0.1,0.4-0.1,0.6-0.1c0.2,0,0.4,0.1,0.5,0.2
				c0.2,0.1,0.3,0.2,0.4,0.3c0.1,0.1,0.2,0.3,0.3,0.5C324.5,256.7,324.5,256.9,324.5,257.1z M323.2,254.2l2.2-8.7l2.8-0.1l-3.5,9
				L323.2,254.2z"/>
		</g>
		<g>

				<rect x="208.3" y="374.1" transform="matrix(0.2137 -0.9769 0.9769 0.2137 -210.8141 505.7716)" fill="#121212" width="1" height="19.5"/>
		</g>
		<g>

				<rect x="209.3" y="370.9" transform="matrix(0.2137 -0.9769 0.9769 0.2137 -206.8678 504.2506)" fill="#121212" width="1" height="19.5"/>
		</g>
		<g>

				<rect x="210.9" y="367.7" transform="matrix(0.2138 -0.9769 0.9769 0.2138 -202.4919 503.2682)" fill="#121212" width="1" height="19.5"/>
		</g>
		<g>

				<rect x="210.6" y="365.5" transform="matrix(0.2158 -0.9764 0.9764 0.2158 -199.562 499.4257)" fill="#121212" width="1" height="16.9"/>
		</g>
		<g>
			<path fill="#121212" d="M286.9,361.8l-0.4-0.2l-118.5-48l0.2-0.5L276.1,12.8l142.6,57.8l-0.2,0.5L286.9,361.8z M169.3,313
				l117.1,47.5l131-289.4l-140.7-57L169.3,313z"/>
		</g>
		<g>
			<path fill="#121212" d="M418.3,71.5l-0.5-0.2L275.7,13.7L280.9,1l0.5,0.2l142.1,57.6L418.3,71.5z M277,13.2l140.7,57l4.4-10.9
				l-140.7-57L277,13.2z"/>
		</g>
		<g enable-background="new    ">
			<path fill="#121212" d="M319.7,21.8c0,0-0.1,0-0.1,0c0,0,0,0-0.1,0c-0.1,0-0.2-0.1-0.2-0.2c0-0.1,0-0.2,0-0.3
				c0-0.1,0.1-0.1,0.2-0.2c0.1,0,0.2-0.1,0.3,0l1.8,0.2c0,0,0.1,0,0.1,0c0,0,0.1,0,0.1,0c0.1,0,0.1,0.1,0.1,0.2c0,0.1,0,0.2,0,0.3
				l-2.3,5.8l0.9,0.3c0.3,0.1,0.5,0.2,0.6,0.3s0.1,0.2,0,0.3c-0.1,0.1-0.1,0.2-0.2,0.2c-0.1,0-0.2,0-0.4,0l-3.2-1.3
				c-0.1-0.1-0.2-0.1-0.3-0.2c0-0.1,0-0.2,0-0.3c0.1-0.1,0.1-0.2,0.2-0.2c0.1,0,0.3,0,0.6,0.2l0.9,0.4l2.1-5.2L319.7,21.8z"/>
			<path fill="#121212" d="M325.7,26c0.3,0,0.5,0,0.7,0.1c0.2,0,0.4,0.1,0.6,0.2c0.6,0.3,1.1,0.7,1.3,1.3c0.2,0.6,0.2,1.2,0,1.9
				c-0.3,0.7-0.7,1.1-1.4,1.4c-0.6,0.3-1.3,0.2-2-0.1c-0.6-0.2-1.1-0.5-1.4-0.8s-0.5-0.6-0.4-0.8c0-0.1,0.1-0.2,0.2-0.2
				c0.1,0,0.2,0,0.3,0c0,0,0.2,0.2,0.5,0.5c0.3,0.3,0.6,0.5,1,0.6c0.5,0.2,0.9,0.2,1.3,0c0.4-0.2,0.7-0.5,0.9-0.9
				c0.2-0.4,0.2-0.9,0-1.3c-0.2-0.4-0.5-0.7-0.9-0.9c-0.3-0.1-0.7-0.2-1-0.1c-0.4,0-0.6,0-0.7,0c-0.1,0-0.2-0.1-0.2-0.2
				c0-0.1,0-0.2,0.1-0.5l1.1-2.7c0-0.1,0.1-0.2,0.2-0.2c0.1,0,0.2,0,0.4,0.1l2.7,1.1c0.2,0.1,0.3,0.2,0.3,0.3c0.1,0.1,0.1,0.2,0,0.4
				c-0.1,0.1-0.1,0.2-0.3,0.3c-0.1,0-0.3,0-0.4,0l-2.4-1L325.7,26z"/>
			<path fill="#121212" d="M330.5,33c-0.1,0.1-0.3,0.2-0.4,0.3c-0.1,0-0.2,0-0.3,0c-0.1,0-0.2-0.1-0.2-0.2c0-0.1,0-0.2,0-0.3
				c0,0,0-0.1,0.1-0.1c0,0,0.1-0.1,0.1-0.1l6.2-5.8c0.2-0.1,0.3-0.2,0.4-0.3c0.1,0,0.2,0,0.3,0c0.1,0,0.2,0.1,0.2,0.2
				c0,0.1,0,0.2,0,0.3c0,0,0,0.1-0.1,0.1s0,0.1-0.1,0.1L330.5,33z"/>
			<path fill="#121212" d="M338.2,36.2c-0.7-0.3-1.1-0.8-1.2-1.6c-0.1-0.8,0-1.7,0.5-2.8c0.4-1.1,1-1.9,1.6-2.3s1.3-0.6,2-0.3
				c0.7,0.3,1.1,0.8,1.2,1.6c0.1,0.8,0,1.7-0.5,2.8c-0.4,1.1-1,1.9-1.6,2.3C339.5,36.3,338.9,36.4,338.2,36.2z M340.8,29.9
				c-0.4-0.2-0.8-0.1-1.2,0.3c-0.4,0.4-0.8,1-1.2,1.9c-0.4,0.9-0.5,1.6-0.5,2.2c0,0.6,0.2,0.9,0.7,1.1c0.4,0.2,0.8,0.1,1.3-0.3
				c0.4-0.4,0.8-1,1.2-1.9c0.4-0.9,0.5-1.6,0.5-2.2C341.4,30.4,341.2,30,340.8,29.9z"/>
			<path fill="#121212" d="M347.1,35.3c0.4,0.3,0.6,0.6,0.7,1s0.1,0.8-0.1,1.2c-0.3,0.6-0.7,1-1.3,1.3s-1.2,0.2-2-0.1
				c-0.5-0.2-1-0.5-1.3-0.9c-0.3-0.4-0.5-0.7-0.4-0.9c0-0.1,0.1-0.2,0.2-0.2c0.1,0,0.2,0,0.3,0c0.1,0,0.2,0.2,0.5,0.5s0.6,0.6,0.9,0.7
				c0.4,0.2,0.8,0.2,1.2,0.1s0.6-0.4,0.8-0.8c0.1-0.3,0.1-0.6,0.1-0.9c-0.1-0.3-0.3-0.5-0.6-0.7c-0.1-0.1-0.2-0.1-0.4-0.2
				c-0.3-0.1-0.4-0.3-0.3-0.6c0.1-0.2,0.3-0.3,0.6-0.2c0.1,0,0.2,0.1,0.3,0.1c0.3,0.1,0.6,0,0.8-0.1c0.2-0.1,0.4-0.3,0.5-0.6
				c0.1-0.3,0.1-0.7,0-1s-0.3-0.5-0.7-0.6c-0.3-0.1-0.6-0.2-1-0.1c-0.4,0.1-0.6,0.1-0.7,0c-0.1,0-0.2-0.1-0.2-0.2c0-0.1,0-0.2,0-0.3
				c0.1-0.2,0.4-0.4,0.9-0.4s1,0,1.5,0.2c0.6,0.2,0.9,0.6,1.2,1.1c0.2,0.5,0.2,1,0,1.5c-0.2,0.4-0.4,0.6-0.6,0.8
				C347.9,35.3,347.6,35.3,347.1,35.3z"/>
			<path fill="#121212" d="M350.1,41c-0.2,0.1-0.3,0.2-0.4,0.3c-0.1,0-0.2,0-0.3,0c-0.1,0-0.2-0.1-0.2-0.2c0-0.1,0-0.2,0-0.3
				c0,0,0-0.1,0.1-0.1s0.1-0.1,0.1-0.1l6.2-5.8c0.2-0.1,0.3-0.2,0.4-0.3c0.1,0,0.2,0,0.3,0c0.1,0,0.2,0.1,0.2,0.2c0,0.1,0,0.2,0,0.3
				c0,0,0,0.1-0.1,0.1c0,0,0,0.1-0.1,0.1L350.1,41z"/>
			<path fill="#121212" d="M356.1,43.2c-0.2-0.1-0.3-0.2-0.4-0.3s-0.1-0.2,0-0.4c0.1-0.2,0.6-0.5,1.5-0.9l0.2-0.1
				c0.1-0.1,0.3-0.1,0.6-0.2c1.7-0.7,2.7-1.3,2.9-1.8c0.2-0.4,0.2-0.7,0-1.1s-0.4-0.6-0.7-0.7c-0.2-0.1-0.5-0.1-0.7-0.1
				c-0.2,0-0.5,0.1-0.6,0.2c0,0-0.1,0.1-0.2,0.1c-0.2,0.2-0.4,0.2-0.6,0.2c-0.1-0.1-0.2-0.1-0.2-0.2c0-0.1,0-0.3,0.1-0.5
				c0.1-0.1,0.1-0.2,0.2-0.3c0,0,0.1-0.1,0.2-0.1c0.3-0.1,0.7-0.2,1.1-0.2c0.4,0,0.8,0.1,1.1,0.2c0.6,0.2,1,0.6,1.2,1.2
				c0.2,0.5,0.3,1.1,0,1.6c-0.3,0.7-1.3,1.4-2.9,2c-0.4,0.2-0.8,0.3-1,0.4l-0.9,0.4l2.4,1c0.1-0.1,0.2-0.2,0.3-0.3
				c0.1-0.1,0.2-0.1,0.3,0s0.2,0.1,0.2,0.2s0,0.2,0,0.4c0,0,0,0,0,0.1c0,0,0,0,0,0.1l-0.2,0.4c-0.1,0.1-0.1,0.2-0.2,0.2s-0.2,0-0.2,0
				L356.1,43.2z"/>
			<path fill="#121212" d="M364.4,46.8c-0.7-0.3-1.1-0.8-1.2-1.6c-0.1-0.8,0-1.7,0.5-2.8c0.4-1.1,1-1.9,1.6-2.3c0.6-0.5,1.3-0.6,2-0.3
				c0.7,0.3,1.1,0.8,1.2,1.6s0,1.7-0.5,2.8c-0.4,1.1-1,1.9-1.6,2.3C365.7,47,365.1,47.1,364.4,46.8z M366.9,40.5
				c-0.4-0.2-0.8-0.1-1.2,0.3c-0.4,0.4-0.8,1-1.2,1.9c-0.4,0.9-0.5,1.6-0.5,2.2c0,0.6,0.2,0.9,0.7,1.1c0.4,0.2,0.8,0.1,1.3-0.3
				c0.4-0.4,0.8-1,1.2-1.9c0.4-0.9,0.5-1.6,0.5-2.2C367.6,41,367.4,40.6,366.9,40.5z"/>
			<path fill="#121212" d="M372,43c0,0-0.1,0-0.1,0s0,0-0.1,0c-0.1,0-0.2-0.1-0.2-0.2c0-0.1,0-0.2,0-0.3c0-0.1,0.1-0.1,0.2-0.2
				s0.2-0.1,0.3,0l1.8,0.2c0,0,0.1,0,0.1,0c0,0,0.1,0,0.1,0c0.1,0,0.1,0.1,0.1,0.2s0,0.2,0,0.3l-2.3,5.8l0.9,0.3
				c0.3,0.1,0.5,0.2,0.6,0.3s0.1,0.2,0,0.3c-0.1,0.1-0.1,0.2-0.2,0.2c-0.1,0-0.2,0-0.4,0l-3.2-1.3c-0.1-0.1-0.2-0.1-0.3-0.2
				c0-0.1,0-0.2,0-0.3c0.1-0.1,0.1-0.2,0.2-0.2c0.1,0,0.3,0,0.6,0.2l0.9,0.4l2.1-5.2L372,43z"/>
			<path fill="#121212" d="M377.7,47.9c0.3-0.2,0.6-0.3,0.9-0.3c0.3,0,0.6,0,0.8,0.1c0.6,0.2,1,0.6,1.2,1.2c0.2,0.6,0.2,1.2,0,1.8
				c-0.3,0.6-0.7,1.1-1.2,1.4c-0.5,0.3-1.1,0.3-1.7,0c-0.7-0.3-1.1-0.8-1.3-1.5c-0.2-0.7-0.1-1.6,0.3-2.5c0.5-1.2,1.2-2,2.1-2.5
				c0.9-0.5,1.9-0.5,2.9-0.1c0.3,0.1,0.6,0.3,0.7,0.4c0.1,0.1,0.1,0.2,0.1,0.3c-0.1,0.2-0.3,0.3-0.8,0.1c-0.3-0.1-0.5-0.2-0.7-0.2
				c-0.6-0.1-1.2,0-1.7,0.3C378.6,46.7,378.1,47.2,377.7,47.9z M377.2,49.4c-0.2,0.4-0.2,0.8-0.1,1.2c0.1,0.4,0.4,0.6,0.7,0.8
				c0.3,0.1,0.7,0.1,1,0c0.3-0.2,0.6-0.5,0.7-0.9c0.2-0.4,0.2-0.8,0.1-1.2c-0.1-0.4-0.4-0.6-0.7-0.8c-0.3-0.1-0.7-0.1-1,0
				C377.7,48.7,377.4,49,377.2,49.4z"/>
		</g>
		<g>

				<rect x="284.2" y="11.8" transform="matrix(0.3748 -0.9271 0.9271 0.3748 170.2529 277.1105)" fill="#121212" width="12.7" height="1"/>
		</g>
		<g>

				<rect x="296" y="16.6" transform="matrix(0.3756 -0.9268 0.9268 0.3756 172.951 290.9276)" fill="#121212" width="12.7" height="1"/>
		</g>
		<g>

				<rect x="307.8" y="21.4" transform="matrix(0.3756 -0.9268 0.9268 0.3756 175.889 304.8533)" fill="#121212" width="12.7" height="1"/>
		</g>
		<g>

				<rect x="378.6" y="50.1" transform="matrix(0.3756 -0.9268 0.9268 0.3756 193.5181 388.4089)" fill="#121212" width="12.7" height="1"/>
		</g>
		<g>

				<rect x="402.2" y="59.7" transform="matrix(0.3756 -0.9268 0.9268 0.3756 199.3941 416.261)" fill="#121212" width="12.7" height="1"/>
		</g>
		<g>

				<rect x="390.4" y="54.9" transform="matrix(0.3756 -0.9268 0.9268 0.3756 196.456 402.3353)" fill="#121212" width="12.7" height="1"/>
		</g>
		<g>
			<path fill="#121212" d="M220,375.8l-0.3,0l-13.3-5.4l-0.2-0.2l-38-56.6l0.6-0.7l118,47.8l-0.1,1L220,375.8z M207,369.6l13,5.3
				l65-13.8l-115-46.6L207,369.6z"/>
		</g>
		<g>

				<rect x="214.6" y="362.4" transform="matrix(0.896 -0.4441 0.4441 0.896 -136.1909 144.3998)" fill="#121212" width="51.1" height="1"/>
		</g>
		<g>

				<rect x="211.4" y="359.8" transform="matrix(0.7951 -0.6065 0.6065 0.7951 -170.6429 215.5231)" fill="#121212" width="44.4" height="1"/>
		</g>
		<polygon fill="#FFFFFF" points="383.6,148.1 333.7,258.4 418,263.9 415,150 "/>
		<polygon fill="#FFFFFF" points="234.7,128 195.4,237.5 161.3,223.6 169.9,144.2 "/>
</svg>
