<?xml version="1.0" encoding="utf-8"?>
<!-- Generator: Adobe Illustrator 16.0.0, SVG Export Plug-In . SVG Version: 6.00 Build 0)  -->
<!DOCTYPE svg PUBLIC "-//W3C//DTD SVG 1.1//EN" "http://www.w3.org/Graphics/SVG/1.1/DTD/svg11.dtd">
<svg version="1.1" id="Layer_1" xmlns="http://www.w3.org/2000/svg" xmlns:xlink="http://www.w3.org/1999/xlink" x="0px" y="0px"
	 width="3000px" height="3000px" viewBox="0 0 3000 3000" enable-background="new 0 0 3000 3000" xml:space="preserve">
<rect fill="#D9C600" width="3000" height="3000"/>
<rect x="2160.316" y="848.81" transform="matrix(0.7781 0.6281 -0.6281 0.7781 1118.7683 -1219.394)" fill="#FF0059" width="250" height="249.999"/>
<rect x="1068.005" y="2201.945" transform="matrix(0.7781 0.6281 -0.6281 0.7781 1726.3347 -233.0342)" fill="#FF0059" width="250" height="250"/>
<g>
	<defs>
		<rect id="SVGID_1_" width="3000" height="3000"/>
	</defs>
	<clipPath id="SVGID_2_">
		<use xlink:href="#SVGID_1_"  overflow="visible"/>
	</clipPath>
	<path clip-path="url(#SVGID_2_)" fill="#FF0059" d="M2430.045,1090.641c43.363-53.717,57.266-114.418,31.051-135.58
		c-26.213-21.161-82.616,5.231-125.98,58.949c-43.363,53.717-57.265,114.418-31.05,135.579
		C2330.278,1170.75,2386.683,1144.357,2430.045,1090.641"/>
	<path clip-path="url(#SVGID_2_)" fill="#FFFFFF" d="M2337.216,1033.696c43.362-53.717,99.767-80.109,125.98-58.948
		c5.304,4.281,8.963,10.182,11.071,17.315c0.664-16.128-3.546-29.233-13.171-37.002c-26.214-21.162-82.618,5.23-125.981,58.948
		c-34.59,42.849-50.432,90.141-42.122,118.264C2294.138,1104.477,2309.774,1067.69,2337.216,1033.696"/>
	<path clip-path="url(#SVGID_2_)" fill="#FF0059" d="M1337.733,2443.776c43.363-53.717,57.265-114.418,31.051-135.58
		c-26.214-21.161-82.617,5.23-125.98,58.949c-43.363,53.717-57.265,114.418-31.051,135.579
		C1237.967,2523.885,1294.371,2497.493,1337.733,2443.776"/>
	<path clip-path="url(#SVGID_2_)" fill="#FFFFFF" d="M1244.904,2386.832c43.363-53.717,99.766-80.109,125.981-58.948
		c5.303,4.281,8.963,10.183,11.071,17.315c0.664-16.128-3.546-29.233-13.171-37.003c-26.214-21.161-82.618,5.23-125.981,58.948
		c-34.59,42.85-50.432,90.142-42.122,118.265C1201.826,2457.612,1217.463,2420.826,1244.904,2386.832"/>
	<path clip-path="url(#SVGID_2_)" fill="#FFFFFF" d="M2318.668,493.092c-46.549-37.647-106.278-46.253-164.337-35.729
		c-65.936,11.951-127.533,43.619-183.862,78.824c-72.022,45.012-138.357,98.938-201.461,155.607
		c-153.238,137.614-289.85,293.715-418.999,453.595c-242.359,300.025-446.877,631.416-653.852,956.508
		c-36.97,58.069-79.616,108.077-134.674,149.633c-32.534,24.556-106.73,65.519-96.855,116.432
		c3.919,20.203,19.685,36.855,33.715,50.853c24.563,24.504,52.433,45.81,79.378,67.56c45.663,36.857,94.454,83.136,153.427,96.745
		c63.936,14.755,133.111-13.118,188.762-42.251c52.214-27.334,102.49-58.582,145.177-99.597
		c61.248-58.846,120.971-119.406,181.149-179.344c144.886-144.311,288.543-290.002,426.933-440.586
		c72.89-79.313,144.585-159.942,212.18-243.802c75.714-93.932,148.946-189.991,217.672-289.217
		c102.241-147.616,203.345-305.845,257.991-478.271C2393.788,706.631,2413.62,569.885,2318.668,493.092"/>
	<path clip-path="url(#SVGID_2_)" fill="#007FCC" d="M2312.527,468.858c-46.549-37.647-106.277-46.253-164.336-35.729
		c-65.936,11.951-127.534,43.619-183.863,78.824c-72.022,45.012-138.357,98.938-201.461,155.607
		c-153.237,137.614-289.85,293.715-418.999,453.595c-242.359,300.025-446.877,631.417-653.852,956.509
		c-37.217,58.456-77.002,110.552-131.851,153.484c-32.081,25.112-105.991,66.662-96.232,117.342
		c3.884,20.169,19.629,36.792,33.629,50.758c24.546,24.486,52.397,45.777,79.324,67.511c45.674,36.867,94.464,83.124,153.434,96.781
		c63.928,14.805,132.942-13.147,188.121-43.175c126.86-69.035,222.411-181.832,323.654-282.672
		c144.886-144.311,288.543-290.002,426.933-440.586c72.891-79.313,144.586-159.942,212.181-243.802
		c75.714-93.932,148.945-189.991,217.672-289.217c102.24-147.616,203.344-305.845,257.99-478.271
		C2387.647,682.397,2407.479,545.651,2312.527,468.858"/>
	<path clip-path="url(#SVGID_2_)" fill="#FFFFFF" d="M605.445,2455.676c-22.636-18.285-45.768-36.26-66.806-56.404
		c-11.755-11.255-26.638-24.795-29.671-41.014c-6.692-35.795,61.638-74.586,84.485-92.26
		c60.597-46.871,102.56-104.789,143.409-168.96c202.757-318.509,403.507-642.93,641.037-936.846
		c85.007-105.188,173.451-208.119,267.08-305.52c81.944-85.245,168.325-168.153,262.973-239.18
		c68.359-51.299,144.339-102.739,227.53-123.996c52.835-13.501,109.919-13.853,154.826,22.398
		c44.906,36.251,56.604,92.126,54.55,146.62c-3.232,85.788-37.496,170.935-73.218,248.564
		c-49.466,107.497-112.291,209.425-178.334,307.504c-75.463,112.065-157.425,220.229-242.316,325.51
		c-237.206,294.178-511.984,558.837-780.567,824.21c-55.76,55.096-111.75,102.262-180.829,138.755
		c-41.85,22.108-99.445,51.174-148.786,40.355c-47.406-10.394-89.12-52.426-125.729-81.961
		C611.225,2460.342,609.299,2458.786,605.445,2455.676"/>
	<path clip-path="url(#SVGID_2_)" fill="#007FCC" d="M606.868,2436.076c-22.621-18.273-45.738-36.234-66.761-56.367
		c-11.752-11.255-26.619-24.791-29.649-41.007c-6.665-35.658,60.999-75.319,83.548-93.579
		c59.634-48.293,99.301-109.217,140.157-173.397c202.756-318.508,403.506-642.93,641.036-936.846
		c85.008-105.187,173.451-208.119,267.08-305.519c81.944-85.246,168.326-168.154,262.973-239.182
		c68.36-51.298,144.34-102.739,227.529-123.996c52.836-13.501,109.921-13.852,154.828,22.399
		c44.906,36.251,56.603,92.125,54.55,146.619c-3.233,85.788-37.496,170.935-73.218,248.563
		c-49.467,107.498-112.291,209.425-178.336,307.504c-75.462,112.066-157.424,220.23-242.314,325.511
		c-237.206,294.178-511.984,558.837-780.568,824.21c-55.528,54.866-109.596,105.254-177.726,143.069
		c-41.264,22.904-98.521,52.449-147.842,41.683c-47.376-10.342-89.086-52.39-125.659-81.896
		C612.645,2440.739,610.719,2439.185,606.868,2436.076"/>
	<path clip-path="url(#SVGID_2_)" fill="#007FCC" d="M606.868,2436.076c-22.621-18.273-45.738-36.234-66.761-56.367
		c-11.752-11.255-26.619-24.791-29.649-41.007c-6.665-35.658,60.999-75.319,83.548-93.579
		c59.634-48.293,99.301-109.217,140.157-173.397c202.756-318.508,403.506-642.93,641.036-936.846
		c85.008-105.187,173.451-208.119,267.08-305.519c81.944-85.246,168.326-168.154,262.973-239.182
		c68.36-51.298,144.34-102.739,227.529-123.996c52.836-13.501,109.921-13.852,154.828,22.399
		c44.906,36.251,56.603,92.125,54.55,146.619c-3.233,85.788-37.496,170.935-73.218,248.563
		c-49.467,107.498-112.291,209.425-178.336,307.504c-75.462,112.066-157.424,220.23-242.314,325.511
		c-237.206,294.178-511.984,558.837-780.568,824.21c-55.528,54.866-109.596,105.254-177.726,143.069
		c-41.264,22.904-98.521,52.449-147.842,41.683c-47.376-10.342-89.086-52.39-125.659-81.896
		C612.645,2440.739,610.719,2439.185,606.868,2436.076"/>
</g>
<g>
	<defs>
		<path id="SVGID_3_" d="M2134.299,466.005c-81.9,20.888-156.762,71.81-224.075,122.316
			c-94.222,70.693-180.207,153.261-261.784,238.125c-93.43,97.195-181.683,199.908-266.509,304.871
			c-237.304,293.637-437.844,617.771-640.408,935.978c-40.845,64.163-79.771,126.456-138.873,175.401
			c-19.771,16.373-86.07,56.641-80.032,88.337c2.858,14.996,18.066,28.289,29.22,38.837c20.311,19.209,42.491,36.466,64.216,54.016
			c3.848,3.106,5.772,4.66,9.622,7.768c34.174,27.567,75.251,69.585,119.431,78.986c45.469,9.678,100.056-20.111,137.933-41.6
			c67.665-38.389,121.187-90.249,176.627-145.027c268.309-265.103,542.83-529.479,779.794-823.356
			c84.71-105.057,166.5-212.989,241.802-324.817c65.748-97.639,128.323-199.106,177.555-306.118
			c35.168-76.442,69.16-160.375,72.305-244.833c1.908-51.272-8.439-104.137-50.843-138.367
			c-25.864-20.879-55.983-28.638-86.83-28.637C2173.72,457.885,2153.691,461.059,2134.299,466.005"/>
	</defs>
	<clipPath id="SVGID_4_">
		<use xlink:href="#SVGID_3_"  overflow="visible"/>
	</clipPath>
	<path clip-path="url(#SVGID_4_)" fill="#FFFFFF" d="M2460.632,972.741c-1.022-0.826-1.841-1.93-2.325-3.253
		c-119.193-325.447-238.388-650.893-357.58-976.34c-1.425-3.89,0.572-8.198,4.463-9.622c3.889-1.425,8.196,0.573,9.621,4.463
		c119.194,325.447,238.388,650.893,357.58,976.34c1.426,3.89-0.572,8.198-4.463,9.622
		C2465.362,974.891,2462.614,974.341,2460.632,972.741"/>
	<path clip-path="url(#SVGID_4_)" fill="#FFFFFF" d="M1766.955,412.774c-1.983-1.601-3.1-4.17-2.722-6.877
		c0.571-4.103,4.36-6.964,8.464-6.393l1029.796,143.613c4.102,0.573,6.964,4.362,6.392,8.464s-4.361,6.964-8.465,6.392
		L1770.625,414.361C1769.229,414.166,1767.977,413.599,1766.955,412.774"/>
	<path clip-path="url(#SVGID_4_)" fill="#FFFFFF" d="M2305.01,847.116c-1.022-0.825-1.84-1.929-2.325-3.253
		c-119.194-325.447-238.387-650.894-357.581-976.34c-1.424-3.89,0.574-8.198,4.463-9.622c3.89-1.425,8.197,0.573,9.622,4.463
		c119.194,325.447,238.388,650.894,357.581,976.341c1.424,3.889-0.573,8.197-4.463,9.622
		C2309.74,849.266,2306.992,848.716,2305.01,847.116"/>
	<path clip-path="url(#SVGID_4_)" fill="#FFFFFF" d="M1611.333,287.148c-1.983-1.6-3.101-4.17-2.723-6.877
		c0.572-4.103,4.361-6.964,8.464-6.392c343.266,47.871,686.53,95.741,1029.797,143.611c4.104,0.573,6.964,4.362,6.392,8.464
		c-0.572,4.103-4.361,6.964-8.464,6.393c-343.266-47.871-686.531-95.742-1029.796-143.613
		C1613.606,288.541,1612.354,287.974,1611.333,287.148"/>
	<path clip-path="url(#SVGID_4_)" fill="#FFFFFF" d="M2616.254,1098.366c-1.022-0.826-1.841-1.93-2.324-3.253
		c-119.194-325.446-238.389-650.893-357.581-976.34c-1.425-3.89,0.573-8.198,4.463-9.622c3.889-1.425,8.196,0.573,9.622,4.463
		c119.193,325.447,238.387,650.894,357.58,976.34c1.425,3.89-0.573,8.198-4.463,9.622
		C2620.984,1100.517,2618.236,1099.967,2616.254,1098.366"/>
	<path clip-path="url(#SVGID_4_)" fill="#FFFFFF" d="M1922.577,538.399c-1.983-1.6-3.1-4.17-2.722-6.877
		c0.572-4.104,4.36-6.964,8.464-6.393c343.265,47.871,686.53,95.742,1029.796,143.613c4.102,0.573,6.965,4.362,6.393,8.464
		c-0.572,4.103-4.362,6.964-8.466,6.393c-343.265-47.871-686.53-95.741-1029.795-143.612
		C1924.852,539.791,1923.6,539.225,1922.577,538.399"/>
	<path clip-path="url(#SVGID_4_)" fill="#FFFFFF" d="M2308.909,1160.692c-1.022-0.826-1.841-1.93-2.325-3.253
		c-119.193-325.447-238.387-650.893-357.58-976.34c-1.425-3.89,0.572-8.198,4.463-9.622c3.889-1.425,8.196,0.574,9.621,4.463
		c119.194,325.447,238.388,650.893,357.58,976.34c1.426,3.89-0.572,8.198-4.463,9.622
		C2313.64,1162.842,2310.892,1162.292,2308.909,1160.692"/>
	<path clip-path="url(#SVGID_4_)" fill="#FFFFFF" d="M1615.232,600.725c-1.983-1.6-3.1-4.17-2.722-6.877
		c0.571-4.103,4.36-6.964,8.464-6.392c343.265,47.871,686.529,95.741,1029.796,143.612c4.102,0.573,6.965,4.362,6.392,8.464
		c-0.572,4.103-4.361,6.964-8.464,6.392c-343.266-47.871-686.531-95.741-1029.796-143.612
		C1617.506,602.117,1616.254,601.55,1615.232,600.725"/>
	<path clip-path="url(#SVGID_4_)" fill="#FFFFFF" d="M2153.287,1035.067c-1.021-0.825-1.841-1.929-2.325-3.253
		c-119.193-325.447-238.388-650.893-357.581-976.34c-1.424-3.89,0.573-8.198,4.464-9.622c3.889-1.425,8.196,0.574,9.622,4.463
		c119.193,325.447,238.387,650.894,357.58,976.341c1.424,3.889-0.574,8.197-4.464,9.622
		C2158.019,1037.217,2155.27,1036.667,2153.287,1035.067"/>
	<path clip-path="url(#SVGID_4_)" fill="#FFFFFF" d="M1459.61,475.1c-1.983-1.6-3.1-4.17-2.722-6.877
		c0.572-4.103,4.361-6.964,8.464-6.393c343.265,47.872,686.531,95.742,1029.796,143.612c4.103,0.574,6.964,4.362,6.392,8.464
		c-0.571,4.103-4.362,6.964-8.464,6.393c-343.266-47.871-686.531-95.742-1029.796-143.613
		C1461.884,476.492,1460.632,475.925,1459.61,475.1"/>
	<path clip-path="url(#SVGID_4_)" fill="#FFFFFF" d="M2464.531,1286.317c-1.022-0.826-1.841-1.93-2.324-3.253
		c-119.194-325.447-238.388-650.893-357.581-976.34c-1.425-3.89,0.573-8.198,4.463-9.622c3.889-1.425,8.196,0.574,9.622,4.463
		c119.193,325.447,238.387,650.893,357.58,976.34c1.425,3.89-0.573,8.198-4.463,9.622
		C2469.262,1288.468,2466.514,1287.917,2464.531,1286.317"/>
	<path clip-path="url(#SVGID_4_)" fill="#FFFFFF" d="M1770.854,726.35c-1.982-1.6-3.1-4.17-2.722-6.877
		c0.572-4.103,4.361-6.964,8.464-6.392l1029.796,143.612c4.102,0.573,6.964,4.362,6.393,8.464c-0.572,4.103-4.362,6.964-8.466,6.392
		c-343.265-47.871-686.53-95.741-1029.795-143.612C1773.129,727.742,1771.877,727.175,1770.854,726.35"/>
	<path clip-path="url(#SVGID_4_)" fill="#FFFFFF" d="M2156.889,1349.012c-1.022-0.826-1.841-1.93-2.324-3.253
		c-119.194-325.446-238.389-650.893-357.581-976.34c-1.425-3.889,0.573-8.197,4.463-9.622c3.889-1.424,8.196,0.574,9.622,4.463
		c119.192,325.447,238.387,650.894,357.58,976.34c1.425,3.89-0.573,8.198-4.463,9.622
		C2161.619,1351.162,2158.871,1350.612,2156.889,1349.012"/>
	<path clip-path="url(#SVGID_4_)" fill="#FFFFFF" d="M1463.212,789.045c-1.983-1.6-3.1-4.17-2.722-6.877
		c0.572-4.103,4.361-6.964,8.464-6.393c343.265,47.872,686.53,95.743,1029.796,143.613c4.102,0.573,6.964,4.362,6.393,8.463
		c-0.572,4.103-4.362,6.964-8.466,6.392c-343.265-47.87-686.53-95.741-1029.795-143.612
		C1465.486,790.437,1464.234,789.87,1463.212,789.045"/>
	<path clip-path="url(#SVGID_4_)" fill="#FFFFFF" d="M2001.267,1223.387c-1.021-0.825-1.841-1.929-2.325-3.253
		c-119.193-325.447-238.388-650.893-357.58-976.34c-1.426-3.889,0.572-8.197,4.463-9.622c3.889-1.424,8.195,0.574,9.621,4.463
		c119.194,325.447,238.388,650.894,357.581,976.341c1.425,3.889-0.573,8.197-4.463,9.622
		C2005.998,1225.537,2003.249,1224.987,2001.267,1223.387"/>
	<path clip-path="url(#SVGID_4_)" fill="#FFFFFF" d="M1307.59,663.42c-1.982-1.6-3.1-4.17-2.722-6.877
		c0.572-4.104,4.361-6.964,8.464-6.393c343.265,47.872,686.53,95.742,1029.796,143.614c4.103,0.573,6.964,4.361,6.392,8.464
		s-4.361,6.964-8.464,6.393c-343.265-47.871-686.531-95.742-1029.796-143.613C1309.864,664.812,1308.612,664.245,1307.59,663.42"/>
	<path clip-path="url(#SVGID_4_)" fill="#FFFFFF" d="M2312.512,1474.638c-1.023-0.826-1.842-1.93-2.325-3.253
		c-119.194-325.446-238.388-650.893-357.581-976.34c-1.425-3.889,0.573-8.197,4.463-9.622c3.889-1.424,8.196,0.574,9.622,4.464
		c119.192,325.446,238.387,650.893,357.58,976.339c1.425,3.89-0.573,8.198-4.463,9.622
		C2317.241,1476.788,2314.493,1476.238,2312.512,1474.638"/>
	<path clip-path="url(#SVGID_4_)" fill="#FFFFFF" d="M1618.834,914.67c-1.982-1.6-3.1-4.17-2.722-6.877
		c0.572-4.103,4.361-6.964,8.464-6.392c343.266,47.871,686.53,95.742,1029.796,143.613c4.102,0.572,6.964,4.362,6.393,8.463
		c-0.572,4.103-4.362,6.965-8.466,6.392c-343.265-47.87-686.529-95.741-1029.795-143.612
		C1621.108,916.062,1619.856,915.495,1618.834,914.67"/>
	<path clip-path="url(#SVGID_4_)" fill="#FFFFFF" d="M2005.166,1536.963c-1.022-0.825-1.841-1.93-2.324-3.252
		c-119.194-325.446-238.389-650.894-357.581-976.341c-1.425-3.889,0.573-8.196,4.463-9.622c3.889-1.424,8.196,0.574,9.622,4.464
		c119.192,325.446,238.387,650.893,357.58,976.339c1.425,3.89-0.573,8.197-4.463,9.622
		C2009.896,1539.113,2007.148,1538.563,2005.166,1536.963"/>
	<path clip-path="url(#SVGID_4_)" fill="#FFFFFF" d="M1311.489,976.996c-1.983-1.6-3.1-4.17-2.722-6.877
		c0.572-4.103,4.361-6.964,8.464-6.393c343.265,47.872,686.53,95.742,1029.796,143.614c4.102,0.572,6.964,4.361,6.393,8.463
		c-0.573,4.103-4.362,6.964-8.466,6.392c-343.265-47.87-686.529-95.741-1029.795-143.612
		C1313.764,978.388,1312.512,977.821,1311.489,976.996"/>
	<path clip-path="url(#SVGID_4_)" fill="#FFFFFF" d="M1849.544,1411.338c-1.021-0.825-1.841-1.929-2.325-3.253
		c-119.193-325.446-238.388-650.893-357.581-976.34c-1.425-3.889,0.573-8.197,4.463-9.622c3.889-1.424,8.195,0.574,9.622,4.464
		c119.193,325.446,238.387,650.894,357.581,976.34c1.424,3.889-0.574,8.197-4.463,9.622
		C1854.275,1413.488,1851.526,1412.938,1849.544,1411.338"/>
	<path clip-path="url(#SVGID_4_)" fill="#FFFFFF" d="M1155.867,851.371c-1.983-1.6-3.1-4.17-2.722-6.877
		c0.572-4.104,4.361-6.964,8.464-6.393c343.265,47.872,686.529,95.742,1029.796,143.613c4.103,0.574,6.963,4.362,6.392,8.465
		c-0.572,4.102-4.361,6.964-8.464,6.392c-343.265-47.871-686.531-95.742-1029.796-143.613
		C1158.141,852.763,1156.889,852.196,1155.867,851.371"/>
	<path clip-path="url(#SVGID_4_)" fill="#FFFFFF" d="M2160.789,1662.589c-1.023-0.826-1.842-1.93-2.325-3.253
		c-119.194-325.446-238.388-650.893-357.581-976.34c-1.425-3.889,0.573-8.197,4.463-9.622c3.889-1.424,8.196,0.574,9.622,4.463
		c119.193,325.447,238.387,650.894,357.58,976.34c1.425,3.89-0.573,8.198-4.463,9.622
		C2165.519,1664.738,2162.771,1664.188,2160.789,1662.589"/>
	<path clip-path="url(#SVGID_4_)" fill="#FFFFFF" d="M1467.112,1102.621c-1.983-1.6-3.1-4.17-2.722-6.877
		c0.572-4.103,4.361-6.964,8.464-6.392c343.266,47.871,686.53,95.742,1029.796,143.613c4.102,0.572,6.966,4.361,6.393,8.463
		c-0.572,4.103-4.362,6.964-8.466,6.392c-343.265-47.87-686.529-95.741-1029.794-143.612
		C1469.386,1104.014,1468.134,1103.446,1467.112,1102.621"/>
	<path clip-path="url(#SVGID_4_)" fill="#FFFFFF" d="M1853.146,1725.284c-1.022-0.826-1.841-1.931-2.325-3.253
		c-119.193-325.447-238.388-650.894-357.581-976.34c-1.424-3.89,0.573-8.198,4.463-9.622c3.889-1.424,8.196,0.574,9.622,4.463
		c119.192,325.447,238.387,650.893,357.579,976.34c1.426,3.89-0.572,8.198-4.463,9.622
		C1857.876,1727.434,1855.128,1726.884,1853.146,1725.284"/>
	<path clip-path="url(#SVGID_4_)" fill="#FFFFFF" d="M1159.469,1165.316c-1.983-1.6-3.1-4.17-2.722-6.877
		c0.572-4.103,4.361-6.964,8.464-6.393c343.265,47.871,686.531,95.742,1029.796,143.613c4.102,0.573,6.965,4.362,6.392,8.464
		c-0.572,4.103-4.361,6.964-8.464,6.392c-343.266-47.871-686.531-95.741-1029.796-143.612
		C1161.743,1166.708,1160.491,1166.142,1159.469,1165.316"/>
	<path clip-path="url(#SVGID_4_)" fill="#FFFFFF" d="M1697.523,1599.658c-1.021-0.824-1.84-1.929-2.325-3.253
		c-119.193-325.447-238.388-650.893-357.581-976.34c-1.424-3.89,0.573-8.198,4.463-9.622c3.889-1.425,8.197,0.574,9.622,4.463
		c119.194,325.447,238.387,650.894,357.581,976.341c1.424,3.889-0.574,8.196-4.463,9.621
		C1702.255,1601.809,1699.506,1601.259,1697.523,1599.658"/>
	<path clip-path="url(#SVGID_4_)" fill="#FFFFFF" d="M1003.846,1039.691c-1.982-1.6-3.1-4.17-2.722-6.877
		c0.572-4.104,4.361-6.964,8.464-6.392c343.265,47.87,686.531,95.741,1029.796,143.612c4.104,0.574,6.964,4.362,6.392,8.464
		c-0.572,4.103-4.361,6.964-8.464,6.393c-343.266-47.871-686.531-95.742-1029.796-143.613
		C1006.12,1041.083,1004.868,1040.516,1003.846,1039.691"/>
	<path clip-path="url(#SVGID_4_)" fill="#FFFFFF" d="M2008.768,1850.909c-1.022-0.826-1.841-1.93-2.324-3.253
		c-119.194-325.447-238.389-650.893-357.581-976.34c-1.425-3.89,0.573-8.198,4.463-9.622c3.889-1.424,8.196,0.573,9.622,4.463
		l357.58,976.34c1.425,3.89-0.573,8.198-4.463,9.622C2013.498,1853.06,2010.75,1852.51,2008.768,1850.909"/>
	<path clip-path="url(#SVGID_4_)" fill="#FFFFFF" d="M1315.091,1290.942c-1.983-1.6-3.1-4.17-2.722-6.877
		c0.572-4.103,4.361-6.964,8.464-6.392c343.265,47.87,686.53,95.741,1029.796,143.612c4.102,0.573,6.964,4.362,6.393,8.464
		c-0.572,4.103-4.362,6.964-8.466,6.392c-343.265-47.871-686.529-95.741-1029.795-143.612
		C1317.365,1292.334,1316.113,1291.767,1315.091,1290.942"/>
	<path clip-path="url(#SVGID_4_)" fill="#FFFFFF" d="M1701.424,1913.234c-1.023-0.826-1.842-1.929-2.325-3.253
		c-119.194-325.446-238.388-650.893-357.581-976.34c-1.425-3.889,0.573-8.197,4.463-9.622c3.889-1.424,8.197,0.574,9.622,4.464
		c119.193,325.446,238.387,650.893,357.58,976.339c1.425,3.891-0.573,8.198-4.462,9.622
		C1706.153,1915.385,1703.405,1914.835,1701.424,1913.234"/>
	<path clip-path="url(#SVGID_4_)" fill="#FFFFFF" d="M1007.747,1353.267c-1.983-1.6-3.1-4.17-2.722-6.877
		c0.571-4.102,4.361-6.964,8.464-6.392c343.265,47.871,686.53,95.742,1029.796,143.613c4.103,0.572,6.964,4.362,6.393,8.463
		c-0.572,4.103-4.362,6.964-8.466,6.392c-343.265-47.87-686.529-95.741-1029.794-143.612
		C1010.021,1354.66,1008.769,1354.092,1007.747,1353.267"/>
	<path clip-path="url(#SVGID_4_)" fill="#FFFFFF" d="M1545.801,1787.609c-1.021-0.825-1.841-1.929-2.324-3.253
		c-119.194-325.446-238.388-650.893-357.581-976.34c-1.425-3.889,0.573-8.197,4.463-9.622c3.889-1.424,8.197,0.574,9.622,4.464
		c119.194,325.446,238.387,650.893,357.581,976.34c1.424,3.889-0.574,8.197-4.463,9.621
		C1550.531,1789.76,1547.783,1789.209,1545.801,1787.609"/>
	<path clip-path="url(#SVGID_4_)" fill="#FFFFFF" d="M852.124,1227.642c-1.982-1.6-3.1-4.17-2.722-6.877
		c0.571-4.102,4.361-6.964,8.464-6.392c343.265,47.871,686.53,95.741,1029.796,143.612c4.104,0.574,6.963,4.362,6.393,8.465
		c-0.572,4.102-4.362,6.964-8.465,6.392c-343.265-47.871-686.531-95.742-1029.796-143.613
		C854.398,1229.035,853.146,1228.467,852.124,1227.642"/>
	<path clip-path="url(#SVGID_4_)" fill="#FFFFFF" d="M1857.046,2038.86c-1.023-0.826-1.841-1.93-2.325-3.253
		c-119.193-325.446-238.388-650.894-357.581-976.34c-1.425-3.889,0.573-8.197,4.463-9.622c3.89-1.424,8.197,0.574,9.622,4.464
		c119.193,325.446,238.387,650.893,357.58,976.339c1.425,3.89-0.573,8.197-4.463,9.622
		C1861.775,2041.01,1859.027,2040.46,1857.046,2038.86"/>
	<path clip-path="url(#SVGID_4_)" fill="#FFFFFF" d="M1163.369,1478.893c-1.983-1.6-3.1-4.17-2.722-6.877
		c0.571-4.102,4.361-6.964,8.464-6.392c343.265,47.871,686.53,95.742,1029.795,143.613c4.102,0.572,6.965,4.362,6.393,8.463
		c-0.572,4.104-4.362,6.965-8.465,6.393c-343.266-47.87-686.53-95.741-1029.795-143.612
		C1165.643,1480.286,1164.391,1479.718,1163.369,1478.893"/>
	<path clip-path="url(#SVGID_4_)" fill="#FFFFFF" d="M1549.402,2101.555c-1.022-0.826-1.841-1.929-2.324-3.253
		c-119.194-325.446-238.388-650.893-357.581-976.34c-1.425-3.889,0.573-8.197,4.463-9.622c3.889-1.424,8.196,0.574,9.622,4.464
		c119.193,325.446,238.387,650.894,357.58,976.339c1.425,3.891-0.573,8.198-4.462,9.622
		C1554.133,2103.705,1551.385,2103.155,1549.402,2101.555"/>
	<path clip-path="url(#SVGID_4_)" fill="#FFFFFF" d="M855.726,1541.588c-1.982-1.601-3.1-4.17-2.722-6.877
		c0.571-4.103,4.361-6.964,8.464-6.393c343.265,47.871,686.53,95.742,1029.796,143.613c4.103,0.572,6.964,4.362,6.393,8.463
		c-0.573,4.104-4.362,6.964-8.466,6.393c-343.265-47.87-686.53-95.741-1029.794-143.612
		C858,1542.98,856.748,1542.413,855.726,1541.588"/>
	<path clip-path="url(#SVGID_4_)" fill="#FFFFFF" d="M1393.781,1975.93c-1.022-0.825-1.841-1.929-2.325-3.253
		c-119.194-325.446-238.388-650.893-357.581-976.34c-1.425-3.889,0.573-8.197,4.463-9.622c3.889-1.424,8.196,0.574,9.622,4.464
		c119.194,325.446,238.387,650.894,357.581,976.34c1.424,3.89-0.574,8.197-4.463,9.621
		C1398.511,1978.081,1395.763,1977.529,1393.781,1975.93"/>
	<path clip-path="url(#SVGID_4_)" fill="#FFFFFF" d="M700.104,1415.962c-1.983-1.6-3.1-4.17-2.722-6.877
		c0.571-4.102,4.361-6.964,8.464-6.393c343.265,47.871,686.53,95.742,1029.796,143.613c4.103,0.574,6.963,4.362,6.392,8.464
		c-0.571,4.103-4.361,6.965-8.464,6.393c-343.265-47.871-686.531-95.742-1029.796-143.613
		C702.377,1417.354,701.125,1416.788,700.104,1415.962"/>
	<path clip-path="url(#SVGID_4_)" fill="#FFFFFF" d="M1705.025,2227.18c-1.023-0.824-1.842-1.929-2.325-3.253
		c-119.194-325.445-238.388-650.893-357.581-976.34c-1.425-3.889,0.573-8.197,4.463-9.622c3.889-1.424,8.196,0.574,9.622,4.464
		c119.193,325.446,238.387,650.893,357.58,976.339c1.425,3.89-0.573,8.197-4.462,9.622
		C1709.755,2229.33,1707.007,2228.78,1705.025,2227.18"/>
	<path clip-path="url(#SVGID_4_)" fill="#FFFFFF" d="M1011.348,1667.213c-1.983-1.6-3.1-4.17-2.722-6.877
		c0.571-4.102,4.361-6.964,8.464-6.392c343.265,47.87,686.53,95.741,1029.796,143.612c4.102,0.572,6.964,4.362,6.393,8.463
		c-0.572,4.104-4.362,6.965-8.466,6.393c-343.265-47.87-686.529-95.741-1029.794-143.612
		C1013.622,1668.605,1012.37,1668.038,1011.348,1667.213"/>
	<path clip-path="url(#SVGID_4_)" fill="#FFFFFF" d="M1397.68,2289.506c-1.023-0.826-1.841-1.929-2.325-3.253
		c-119.194-325.446-238.388-650.893-357.581-976.34c-1.424-3.89,0.575-8.198,4.463-9.622c3.889-1.425,8.198,0.572,9.622,4.463
		c119.193,325.447,238.387,650.894,357.58,976.34c1.425,3.891-0.573,8.198-4.462,9.622
		C1402.41,2291.656,1399.662,2291.106,1397.68,2289.506"/>
	<path clip-path="url(#SVGID_4_)" fill="#FFFFFF" d="M704.003,1729.539c-1.982-1.601-3.1-4.17-2.722-6.877
		c0.571-4.103,4.361-6.964,8.464-6.394c343.265,47.871,686.531,95.742,1029.796,143.613c4.104,0.572,6.964,4.362,6.393,8.464
		c-0.573,4.102-4.362,6.964-8.466,6.393L707.673,1731.126C706.277,1730.931,705.025,1730.364,704.003,1729.539"/>
	<path clip-path="url(#SVGID_4_)" fill="#FFFFFF" d="M1242.058,2163.881c-1.022-0.825-1.841-1.929-2.325-3.253
		c-119.194-325.447-238.388-650.893-357.581-976.34c-1.424-3.89,0.575-8.198,4.463-9.622c3.89-1.425,8.198,0.572,9.622,4.463
		c119.194,325.447,238.387,650.895,357.581,976.341c1.424,3.89-0.574,8.197-4.463,9.621
		C1246.788,2166.032,1244.04,2165.48,1242.058,2163.881"/>
	<path clip-path="url(#SVGID_4_)" fill="#FFFFFF" d="M548.381,1603.913c-1.982-1.6-3.1-4.17-2.722-6.877
		c0.571-4.102,4.361-6.964,8.464-6.392c343.265,47.87,686.531,95.741,1029.796,143.612c4.104,0.571,6.964,4.36,6.392,8.465
		c-0.57,4.102-4.36,6.963-8.464,6.392c-343.265-47.871-686.531-95.742-1029.796-143.613
		C550.655,1605.307,549.403,1604.738,548.381,1603.913"/>
	<path clip-path="url(#SVGID_4_)" fill="#FFFFFF" d="M1553.303,2415.131c-1.023-0.825-1.841-1.929-2.325-3.253
		c-119.194-325.445-238.388-650.893-357.581-976.34c-1.424-3.89,0.575-8.198,4.463-9.622c3.889-1.425,8.198,0.572,9.622,4.463
		c119.193,325.447,238.387,650.894,357.58,976.34c1.425,3.89-0.573,8.197-4.463,9.622
		C1558.032,2417.281,1555.284,2416.731,1553.303,2415.131"/>
	<path clip-path="url(#SVGID_4_)" fill="#FFFFFF" d="M859.625,1855.164c-1.982-1.6-3.1-4.17-2.722-6.877
		c0.571-4.102,4.361-6.964,8.464-6.393c343.265,47.871,686.531,95.741,1029.796,143.612c4.103,0.572,6.964,4.362,6.393,8.464
		c-0.573,4.102-4.362,6.965-8.464,6.393c-343.267-47.871-686.531-95.741-1029.796-143.612
		C861.899,1856.557,860.647,1855.989,859.625,1855.164"/>
	<path clip-path="url(#SVGID_4_)" fill="#FFFFFF" d="M1245.66,2477.826c-1.023-0.824-1.841-1.929-2.325-3.253
		c-119.194-325.446-238.388-650.893-357.581-976.34c-1.424-3.89,0.574-8.198,4.463-9.622c3.889-1.425,8.198,0.572,9.622,4.463
		c119.194,325.447,238.387,650.895,357.58,976.34c1.425,3.891-0.573,8.198-4.462,9.622
		C1250.39,2479.977,1247.642,2479.427,1245.66,2477.826"/>
	<path clip-path="url(#SVGID_4_)" fill="#FFFFFF" d="M551.982,1917.859c-1.983-1.601-3.1-4.17-2.722-6.877
		c0.571-4.103,4.361-6.964,8.464-6.393c343.265,47.87,686.531,95.741,1029.796,143.612c4.103,0.572,6.964,4.362,6.392,8.464
		s-4.361,6.964-8.464,6.393c-343.266-47.871-686.531-95.741-1029.796-143.612C554.256,1919.252,553.004,1918.685,551.982,1917.859"
		/>
	<path clip-path="url(#SVGID_4_)" fill="#FFFFFF" d="M1090.037,2352.201c-1.022-0.825-1.841-1.929-2.325-3.253
		c-119.194-325.446-238.388-650.894-357.581-976.34c-1.424-3.89,0.574-8.198,4.463-9.622c3.889-1.425,8.198,0.572,9.622,4.463
		c119.194,325.447,238.387,650.894,357.581,976.341c1.424,3.89-0.574,8.198-4.463,9.621
		C1094.768,2354.353,1092.02,2353.801,1090.037,2352.201"/>
	<path clip-path="url(#SVGID_4_)" fill="#FFFFFF" d="M396.36,1792.234c-1.983-1.601-3.1-4.17-2.722-6.877
		c0.571-4.103,4.361-6.965,8.464-6.393c343.265,47.87,686.531,95.741,1029.796,143.612c4.105,0.571,6.964,4.362,6.392,8.465
		c-0.571,4.102-4.361,6.963-8.464,6.392L400.03,1793.821C398.634,1793.627,397.382,1793.059,396.36,1792.234"/>
	<path clip-path="url(#SVGID_4_)" fill="#FFFFFF" d="M1401.282,2603.452c-1.023-0.826-1.841-1.93-2.325-3.253
		c-119.194-325.447-238.388-650.894-357.581-976.34c-1.424-3.891,0.574-8.198,4.463-9.622c3.889-1.426,8.198,0.571,9.622,4.463
		c119.193,325.446,238.387,650.893,357.58,976.34c1.425,3.89-0.573,8.198-4.462,9.622
		C1406.012,2605.602,1403.264,2605.052,1401.282,2603.452"/>
	<path clip-path="url(#SVGID_4_)" fill="#FFFFFF" d="M707.604,2043.484c-1.982-1.6-3.1-4.17-2.722-6.877
		c0.571-4.102,4.361-6.964,8.464-6.392c343.265,47.87,686.531,95.74,1029.796,143.611c4.102,0.572,6.964,4.362,6.393,8.464
		c-0.573,4.102-4.362,6.965-8.466,6.393L711.274,2045.071C709.879,2044.877,708.626,2044.31,707.604,2043.484"/>
	<path clip-path="url(#SVGID_4_)" fill="#FFFFFF" d="M1078.806,2644.561c-1.024-0.827-1.785-1.851-2.149-3.003
		c-101.909-322.316-226.396-638.019-342.626-955.373c-1.424-3.89,0.574-8.198,4.463-9.622c3.89-1.424,8.198,0.573,9.623,4.463
		c116.624,318.433,241.536,635.224,344.736,958.319c1.089,3.418-1.652,6.688-6.134,7.283
		C1083.761,2647.023,1080.789,2646.162,1078.806,2644.561"/>
	<path clip-path="url(#SVGID_4_)" fill="#FFFFFF" d="M383.317,2083.131c-1.985-1.604-2.861-3.848-2.055-5.979
		c1.222-3.228,5.835-4.985,10.315-3.91c174.924,41.762,351.44,66.298,529.323,91.105c171.633,23.935,343.265,47.87,514.898,71.806
		c4.103,0.571,6.964,4.362,6.392,8.464c-0.572,4.102-4.362,6.965-8.464,6.393l-514.898-71.807
		c-178.983-24.961-355.845-51.275-531.638-94.216C385.658,2084.611,384.34,2083.957,383.317,2083.131"/>
	<path clip-path="url(#SVGID_4_)" fill="#FFFFFF" d="M922.871,2518.683c-1.025-0.827-1.787-1.851-2.149-3.004
		c-101.66-322.278-226.123-637.872-342.313-955.12c-1.425-3.889,0.574-8.197,4.463-9.621c3.889-1.425,8.198,0.572,9.622,4.464
		c116.591,318.341,241.502,635.037,344.473,958.105c1.086,3.416-1.668,6.674-6.164,7.26
		C927.837,2521.154,924.858,2520.287,922.871,2518.683"/>
	<path clip-path="url(#SVGID_4_)" fill="#FFFFFF" d="M227.647,1957.468c-1.981-1.6-2.851-3.839-2.038-5.964
		c1.231-3.222,5.849-4.976,10.326-3.901c174.944,41.716,351.448,66.311,529.342,91.12c171.633,23.935,343.265,47.87,514.898,71.806
		c4.105,0.572,6.965,4.36,6.392,8.464c-0.571,4.103-4.361,6.964-8.464,6.393c-171.632-23.936-343.265-47.871-514.898-71.807
		c-179.007-24.964-355.865-51.354-531.69-94.257C229.984,1958.945,228.668,1958.291,227.647,1957.468"/>
	<path clip-path="url(#SVGID_4_)" fill="#FFFFFF" d="M1234.458,2770.21c-1.022-0.825-1.781-1.847-2.144-3
		c-101.755-322.359-226.433-638.052-342.661-955.4c-1.424-3.89,0.574-8.198,4.464-9.622c3.889-1.425,8.197,0.573,9.622,4.463
		c116.619,318.418,241.705,635.189,344.739,958.321c1.086,3.416-1.651,6.689-6.124,7.293
		C1239.402,2772.664,1236.438,2771.808,1234.458,2770.21"/>
	<path clip-path="url(#SVGID_4_)" fill="#FFFFFF" d="M539.262,2209.017c-1.988-1.604-2.871-3.854-2.074-5.993
		c1.208-3.239,5.808-5.008,10.284-3.935c174.826,41.662,351.282,66.093,529.05,90.884c171.633,23.936,343.265,47.87,514.898,71.807
		c4.103,0.57,6.964,4.361,6.393,8.464c-0.572,4.101-4.362,6.964-8.466,6.392l-514.896-71.806
		c-178.847-24.942-355.638-51.123-531.315-93.954C541.605,2210.499,540.287,2209.844,539.262,2209.017"/>
	<path clip-path="url(#SVGID_4_)" fill="#FFFFFF" d="M875.701,2761.55c-1.029-0.831-1.782-1.839-2.119-2.953
		c-41.509-137.24-80.761-275.173-124.365-411.774c-50.807-159.165-109.762-315.471-167.207-472.317
		c-1.424-3.89,0.575-8.198,4.463-9.622c3.89-1.425,8.199,0.572,9.622,4.463c57.797,157.811,117.497,315.023,169.161,474.984
		c44.213,136.894,83.763,275.22,125.19,412.967c0.983,3.263-1.996,6.198-6.647,6.563
		C880.729,2764.102,877.696,2763.16,875.701,2761.55"/>
	<path clip-path="url(#SVGID_4_)" fill="#FFFFFF" d="M175.167,2196.048c-1.996-1.61-2.826-3.788-1.909-5.768
		c1.388-3,6.268-4.4,10.892-3.137c191.24,52.339,381.643,108.49,575.086,152.328c173.073,39.223,348.953,60.516,524.541,85.003
		c4.103,0.571,6.963,4.362,6.391,8.464c-0.572,4.101-4.361,6.964-8.464,6.391c-176.538-24.619-352.681-47.178-526.469-87.65
		c-193.616-45.088-384.347-101.591-576.13-153.694C177.535,2197.56,176.197,2196.879,175.167,2196.048"/>
	<path clip-path="url(#SVGID_4_)" fill="#FFFFFF" d="M718.775,2634.873c-1.032-0.833-1.787-1.844-2.125-2.958
		c-41.424-136.924-80.184-274.654-123.433-411.022c-50.469-159.135-109.431-315.292-166.829-472.013
		c-1.424-3.891,0.575-8.197,4.463-9.622c3.889-1.424,8.198,0.572,9.622,4.463c57.756,157.698,117.483,314.779,168.833,474.72
		c43.877,136.664,82.941,274.797,124.283,412.234c0.983,3.263-2.011,6.186-6.684,6.534
		C723.822,2637.439,720.777,2636.488,718.775,2634.873"/>
	<path clip-path="url(#SVGID_4_)" fill="#FFFFFF" d="M18.902,2069.904c-1.985-1.603-2.801-3.77-1.873-5.739
		c1.405-2.985,6.292-4.381,10.907-3.125c191.391,52.186,381.847,108.505,575.352,152.544
		c173.171,39.411,349.146,60.759,524.866,85.265c4.106,0.571,6.964,4.361,6.393,8.464c-0.572,4.103-4.362,6.965-8.464,6.393
		c-176.697-24.642-352.941-47.282-526.849-87.956c-193.678-45.298-384.466-101.976-576.407-153.919
		C21.259,2071.406,19.925,2070.729,18.902,2069.904"/>
	<path clip-path="url(#SVGID_4_)" fill="#FFFFFF" d="M1031.924,2887.66c-1.024-0.826-1.771-1.83-2.105-2.942
		c-41.257-137.404-80.768-275.35-124.603-411.967c-51.085-159.212-110.093-315.649-167.583-472.621
		c-1.424-3.89,0.575-8.196,4.463-9.622c3.89-1.425,8.198,0.572,9.622,4.463c57.837,157.919,117.564,315.25,169.484,475.246
		c44.429,136.91,84.239,275.244,125.418,413.15c0.973,3.255-2,6.195-6.635,6.574
		C1036.927,2890.191,1033.907,2889.261,1031.924,2887.66"/>
	<path clip-path="url(#SVGID_4_)" fill="#FFFFFF" d="M332.121,2322.748c-2.003-1.616-2.845-3.804-1.942-5.794
		c1.368-3.017,6.232-4.43,10.856-3.166c190.888,52.24,381.014,108.033,574.151,151.572
		c172.983,38.996,348.758,60.271,524.214,84.739c4.102,0.571,6.964,4.362,6.392,8.464s-4.362,6.964-8.465,6.392
		c-176.384-24.599-352.415-47.117-526.094-87.349c-193.302-44.774-383.749-100.913-575.168-152.918
		C334.494,2324.263,333.152,2323.581,332.121,2322.748"/>
	<path clip-path="url(#SVGID_4_)" fill="#FFFFFF" d="M693.627,2907.025c-1.032-0.833-1.861-1.946-2.354-3.275
		c-103.558-280.069-177.959-568.426-269.287-852.378c-1.127-3.489,1.501-6.954,5.851-7.761s8.8,1.378,9.955,4.908
		c92.192,282.732,165.691,570.663,267.733,850.285c1.412,3.855-0.636,8.085-4.553,9.476
		C698.389,2909.199,695.627,2908.641,693.627,2907.025"/>
	<path clip-path="url(#SVGID_4_)" fill="#FFFFFF" d="M-10.246,2338.827c-2.001-1.615-3.137-4.201-2.753-6.896
		c0.581-4.084,4.459-6.836,8.635-6.181c383.775,61.352,750.998,198.09,1130.648,278.551c4.346,0.914,7.084,4.529,6.098,8.052
		c-0.984,3.523-5.34,5.593-9.713,4.643C744.442,2534.199,377.228,2397.408-6.543,2340.44
		C-7.951,2340.235-9.213,2339.66-10.246,2338.827"/>
	<path clip-path="url(#SVGID_4_)" fill="#FFFFFF" d="M536.092,2779.856c-1.037-0.838-1.872-1.954-2.371-3.289
		c-103.975-279.283-176.547-567.35-267.331-850.798c-1.121-3.485,1.512-6.946,5.861-7.754c4.351-0.807,8.798,1.375,9.947,4.901
		c91.699,282.218,163.364,569.897,265.814,848.736c1.427,3.866-0.619,8.099-4.545,9.481
		C540.876,2782.048,538.104,2781.48,536.092,2779.856"/>
	<path clip-path="url(#SVGID_4_)" fill="#FFFFFF" d="M-166.725,2212.511c-1.984-1.603-3.105-4.177-2.715-6.866
		c0.591-4.076,4.455-6.84,8.605-6.205c384.283,59.914,751.594,198.256,1131.369,279.133c4.356,0.919,7.091,4.533,6.099,8.052
		c-0.991,3.519-5.359,5.578-9.74,4.622c-378.316-83.233-745.683-221.705-1129.944-277.145
		C-164.449,2213.904-165.702,2213.336-166.725,2212.511"/>
	<path clip-path="url(#SVGID_4_)" fill="#FFFFFF" d="M850.039,3033.288c-1.023-0.826-1.842-1.931-2.326-3.253
		c-102.408-280.607-178.106-568.941-269.942-852.906c-1.135-3.497,1.481-6.971,5.823-7.783c4.343-0.813,8.794,1.372,9.956,4.908
		c92.656,282.768,167.478,570.642,268.38,850.807c1.386,3.835-0.677,8.053-4.584,9.451
		C854.767,3035.435,852.021,3034.888,850.039,3033.288"/>
	<path clip-path="url(#SVGID_4_)" fill="#FFFFFF" d="M147.333,2466.031c-2.012-1.623-3.159-4.22-2.782-6.92
		c0.572-4.092,4.452-6.842,8.642-6.175c382.887,61.987,749.687,196.91,1128.676,276.959c4.34,0.909,7.074,4.521,6.089,8.044
		c-0.985,3.522-5.337,5.596-9.704,4.65c-377.582-82.345-744.323-217.267-1127.203-274.932
		C149.638,2467.449,148.37,2466.869,147.333,2466.031"/>
	<path clip-path="url(#SVGID_4_)" fill="#007FCC" d="M2465.414,950.897c-1.023-0.826-1.842-1.93-2.326-3.253
		c-119.193-325.446-238.388-650.893-357.58-976.34c-1.424-3.89,0.572-8.198,4.463-9.622c3.889-1.425,8.197,0.573,9.622,4.463
		c119.193,325.447,238.387,650.894,357.579,976.34c1.426,3.89-0.572,8.198-4.463,9.622
		C2470.144,953.048,2467.396,952.498,2465.414,950.897"/>
	<path clip-path="url(#SVGID_4_)" fill="#007FCC" d="M1771.736,390.931c-1.982-1.6-3.1-4.17-2.722-6.877
		c0.571-4.104,4.36-6.964,8.464-6.393c343.265,47.871,686.531,95.742,1029.796,143.613c4.103,0.573,6.965,4.362,6.392,8.464
		c-0.571,4.103-4.361,6.964-8.465,6.393c-343.265-47.871-686.529-95.741-1029.795-143.612
		C1774.011,392.322,1772.759,391.756,1771.736,390.931"/>
	<path clip-path="url(#SVGID_4_)" fill="#007FCC" d="M2309.791,825.272c-1.021-0.825-1.841-1.929-2.325-3.253
		c-119.193-325.447-238.388-650.893-357.581-976.34c-1.424-3.89,0.573-8.198,4.464-9.622c3.889-1.425,8.196,0.573,9.622,4.463
		c119.193,325.447,238.387,650.894,357.58,976.341c1.424,3.889-0.574,8.197-4.463,9.622
		C2314.522,827.423,2311.773,826.873,2309.791,825.272"/>
	<path clip-path="url(#SVGID_4_)" fill="#007FCC" d="M1616.114,265.305c-1.982-1.601-3.101-4.17-2.722-6.877
		c0.571-4.103,4.36-6.964,8.464-6.393l1029.796,143.613c4.104,0.573,6.964,4.361,6.392,8.464c-0.571,4.103-4.36,6.964-8.464,6.392
		L1619.784,266.893C1618.388,266.697,1617.136,266.13,1616.114,265.305"/>
	<path clip-path="url(#SVGID_4_)" fill="#007FCC" d="M2621.036,1076.523c-1.023-0.826-1.841-1.93-2.325-3.253
		c-119.194-325.446-238.389-650.893-357.581-976.34c-1.425-3.89,0.573-8.198,4.463-9.622c3.889-1.425,8.197,0.573,9.622,4.463
		c119.193,325.447,238.387,650.894,357.58,976.34c1.425,3.89-0.573,8.198-4.463,9.622
		C2625.766,1078.673,2623.018,1078.123,2621.036,1076.523"/>
	<path clip-path="url(#SVGID_4_)" fill="#007FCC" d="M1927.358,516.556c-1.981-1.6-3.1-4.17-2.722-6.877
		c0.572-4.103,4.361-6.964,8.464-6.393c343.265,47.871,686.531,95.742,1029.796,143.612c4.102,0.573,6.965,4.362,6.393,8.464
		c-0.572,4.103-4.362,6.964-8.465,6.392c-343.266-47.871-686.531-95.741-1029.796-143.612
		C1929.633,517.948,1928.381,517.381,1927.358,516.556"/>
	<path clip-path="url(#SVGID_4_)" fill="#007FCC" d="M2313.691,1138.849c-1.023-0.826-1.842-1.93-2.326-3.253
		c-119.193-325.447-238.388-650.893-357.58-976.34c-1.424-3.89,0.572-8.198,4.463-9.622c3.889-1.425,8.197,0.574,9.622,4.463
		c119.193,325.447,238.387,650.893,357.579,976.34c1.426,3.89-0.572,8.198-4.463,9.622
		C2318.421,1140.999,2315.673,1140.449,2313.691,1138.849"/>
	<path clip-path="url(#SVGID_4_)" fill="#007FCC" d="M1620.014,578.881c-1.982-1.6-3.1-4.17-2.722-6.877
		c0.571-4.103,4.36-6.964,8.464-6.392c343.265,47.871,686.531,95.741,1029.796,143.612c4.103,0.573,6.965,4.362,6.392,8.464
		c-0.571,4.103-4.361,6.964-8.465,6.392c-343.265-47.871-686.529-95.741-1029.795-143.612
		C1622.288,580.273,1621.036,579.707,1620.014,578.881"/>
	<path clip-path="url(#SVGID_4_)" fill="#007FCC" d="M2158.068,1013.224c-1.021-0.825-1.84-1.929-2.325-3.253
		c-119.193-325.447-238.388-650.893-357.581-976.34c-1.424-3.89,0.574-8.198,4.464-9.622c3.889-1.425,8.196,0.574,9.622,4.463
		c119.193,325.447,238.387,650.894,357.58,976.341c1.424,3.889-0.572,8.197-4.463,9.622
		C2162.8,1015.374,2160.051,1014.824,2158.068,1013.224"/>
	<path clip-path="url(#SVGID_4_)" fill="#007FCC" d="M1464.392,453.256c-1.983-1.6-3.1-4.17-2.722-6.877
		c0.572-4.103,4.361-6.964,8.464-6.392c343.265,47.871,686.53,95.741,1029.796,143.612c4.104,0.574,6.964,4.362,6.392,8.464
		c-0.571,4.103-4.36,6.964-8.464,6.393c-343.265-47.871-686.531-95.742-1029.796-143.613
		C1466.666,454.648,1465.414,454.081,1464.392,453.256"/>
	<path clip-path="url(#SVGID_4_)" fill="#007FCC" d="M2469.313,1264.474c-1.023-0.826-1.841-1.93-2.325-3.253
		c-119.194-325.447-238.389-650.893-357.581-976.34c-1.424-3.89,0.573-8.198,4.463-9.622c3.889-1.425,8.197,0.573,9.622,4.463
		c119.193,325.447,238.387,650.893,357.58,976.34c1.425,3.89-0.573,8.198-4.463,9.622
		C2474.043,1266.624,2471.295,1266.074,2469.313,1264.474"/>
	<path clip-path="url(#SVGID_4_)" fill="#007FCC" d="M1775.636,704.507c-1.982-1.601-3.1-4.17-2.722-6.877
		c0.572-4.103,4.361-6.964,8.464-6.393c343.265,47.871,686.531,95.742,1029.796,143.612c4.102,0.572,6.965,4.362,6.393,8.464
		s-4.362,6.964-8.465,6.392L1779.306,706.094C1777.91,705.899,1776.658,705.332,1775.636,704.507"/>
	<path clip-path="url(#SVGID_4_)" fill="#007FCC" d="M2161.671,1327.169c-1.023-0.826-1.841-1.93-2.325-3.253
		c-119.194-325.446-238.388-650.893-357.582-976.34c-1.424-3.889,0.574-8.197,4.464-9.622c3.889-1.424,8.196,0.574,9.622,4.464
		c119.193,325.446,238.387,650.893,357.58,976.339c1.425,3.89-0.573,8.198-4.463,9.622
		C2166.4,1329.319,2163.652,1328.769,2161.671,1327.169"/>
	<path clip-path="url(#SVGID_4_)" fill="#007FCC" d="M1467.993,767.201c-1.982-1.6-3.1-4.17-2.722-6.877
		c0.572-4.103,4.361-6.964,8.464-6.392c343.265,47.871,686.53,95.741,1029.796,143.613c4.102,0.573,6.964,4.362,6.393,8.463
		c-0.572,4.103-4.362,6.964-8.466,6.392c-343.265-47.87-686.529-95.741-1029.795-143.612
		C1470.268,768.594,1469.016,768.026,1467.993,767.201"/>
	<path clip-path="url(#SVGID_4_)" fill="#007FCC" d="M2006.049,1201.543c-1.022-0.825-1.842-1.929-2.325-3.253
		c-119.194-325.446-238.389-650.893-357.581-976.34c-1.426-3.889,0.572-8.197,4.463-9.622c3.889-1.424,8.195,0.574,9.622,4.463
		c119.193,325.447,238.387,650.894,357.581,976.341c1.424,3.889-0.574,8.197-4.463,9.622
		C2010.779,1203.693,2008.03,1203.144,2006.049,1201.543"/>
	<path clip-path="url(#SVGID_4_)" fill="#007FCC" d="M1312.371,641.576c-1.983-1.6-3.1-4.17-2.722-6.877
		c0.572-4.103,4.361-6.964,8.464-6.393c343.265,47.872,686.53,95.742,1029.796,143.613c4.103,0.573,6.964,4.361,6.392,8.464
		c-0.571,4.102-4.361,6.964-8.464,6.392c-343.265-47.871-686.53-95.742-1029.796-143.613
		C1314.645,642.968,1313.393,642.401,1312.371,641.576"/>
	<path clip-path="url(#SVGID_4_)" fill="#007FCC" d="M2317.293,1452.794c-1.023-0.826-1.842-1.93-2.325-3.253
		c-119.194-325.446-238.388-650.893-357.581-976.34c-1.425-3.889,0.573-8.197,4.463-9.622c3.889-1.424,8.196,0.574,9.622,4.464
		c119.192,325.446,238.387,650.893,357.58,976.339c1.425,3.89-0.573,8.198-4.463,9.622
		C2322.022,1454.944,2319.274,1454.394,2317.293,1452.794"/>
	<path clip-path="url(#SVGID_4_)" fill="#007FCC" d="M1623.615,892.827c-1.982-1.6-3.1-4.17-2.722-6.877
		c0.572-4.103,4.361-6.964,8.464-6.392c343.266,47.871,686.53,95.742,1029.796,143.613c4.102,0.572,6.964,4.362,6.393,8.463
		c-0.573,4.103-4.362,6.965-8.466,6.392c-343.265-47.87-686.529-95.741-1029.795-143.612
		C1625.89,894.219,1624.638,893.652,1623.615,892.827"/>
	<path clip-path="url(#SVGID_4_)" fill="#007FCC" d="M2009.948,1515.12c-1.023-0.826-1.841-1.93-2.325-3.253
		c-119.194-325.446-238.388-650.893-357.581-976.34c-1.425-3.889,0.573-8.197,4.463-9.622c3.889-1.424,8.196,0.574,9.622,4.463
		c119.193,325.447,238.387,650.893,357.58,976.34c1.425,3.89-0.573,8.198-4.463,9.622
		C2014.678,1517.27,2011.93,1516.72,2009.948,1515.12"/>
	<path clip-path="url(#SVGID_4_)" fill="#007FCC" d="M1316.271,955.152c-1.983-1.6-3.1-4.17-2.722-6.877
		c0.572-4.103,4.361-6.964,8.464-6.393c343.265,47.872,686.53,95.743,1029.796,143.614c4.103,0.572,6.965,4.361,6.393,8.463
		c-0.572,4.103-4.362,6.964-8.465,6.392c-343.266-47.87-686.53-95.741-1029.795-143.612
		C1318.545,956.545,1317.293,955.978,1316.271,955.152"/>
	<path clip-path="url(#SVGID_4_)" fill="#007FCC" d="M1854.326,1389.495c-1.022-0.825-1.841-1.929-2.325-3.253
		c-119.194-325.446-238.389-650.893-357.581-976.34c-1.425-3.889,0.573-8.196,4.463-9.622c3.889-1.424,8.195,0.574,9.622,4.464
		c119.193,325.446,238.387,650.893,357.581,976.34c1.424,3.889-0.574,8.197-4.463,9.622
		C1859.057,1391.645,1856.308,1391.095,1854.326,1389.495"/>
	<path clip-path="url(#SVGID_4_)" fill="#007FCC" d="M1160.648,829.527c-1.982-1.6-3.1-4.17-2.722-6.877
		c0.572-4.103,4.361-6.964,8.464-6.393c343.265,47.872,686.53,95.742,1029.796,143.613c4.103,0.573,6.964,4.361,6.392,8.464
		c-0.571,4.102-4.361,6.964-8.464,6.392c-343.265-47.871-686.53-95.742-1029.796-143.613
		C1162.922,830.919,1161.67,830.353,1160.648,829.527"/>
	<path clip-path="url(#SVGID_4_)" fill="#007FCC" d="M2165.57,1640.745c-1.023-0.826-1.841-1.93-2.325-3.253
		c-119.194-325.446-238.388-650.893-357.582-976.34c-1.424-3.889,0.574-8.197,4.464-9.622c3.89-1.424,8.196,0.574,9.622,4.463
		c119.193,325.447,238.388,650.894,357.58,976.34c1.425,3.891-0.573,8.198-4.463,9.622
		C2170.301,1642.896,2167.553,1642.346,2165.57,1640.745"/>
	<path clip-path="url(#SVGID_4_)" fill="#007FCC" d="M1471.893,1080.778c-1.982-1.6-3.1-4.17-2.722-6.877
		c0.572-4.103,4.361-6.964,8.464-6.392c343.266,47.871,686.53,95.742,1029.796,143.613c4.102,0.572,6.966,4.361,6.393,8.463
		c-0.572,4.103-4.362,6.964-8.466,6.392c-343.265-47.87-686.529-95.741-1029.794-143.612
		C1474.167,1082.17,1472.915,1081.603,1471.893,1080.778"/>
	<path clip-path="url(#SVGID_4_)" fill="#007FCC" d="M1857.928,1703.44c-1.023-0.826-1.842-1.93-2.325-3.253
		c-119.194-325.447-238.389-650.893-357.581-976.34c-1.424-3.89,0.573-8.198,4.463-9.622c3.889-1.424,8.197,0.574,9.622,4.463
		c119.193,325.447,238.387,650.893,357.58,976.34c1.425,3.89-0.573,8.198-4.464,9.622
		C1862.657,1705.59,1859.909,1705.04,1857.928,1703.44"/>
	<path clip-path="url(#SVGID_4_)" fill="#007FCC" d="M1164.25,1143.473c-1.982-1.6-3.1-4.17-2.722-6.877
		c0.572-4.103,4.361-6.964,8.464-6.392c343.265,47.87,686.531,95.741,1029.796,143.612c4.103,0.573,6.965,4.362,6.392,8.464
		c-0.571,4.103-4.361,6.964-8.465,6.392c-343.265-47.871-686.529-95.741-1029.795-143.612
		C1166.524,1144.865,1165.272,1144.298,1164.25,1143.473"/>
	<path clip-path="url(#SVGID_4_)" fill="#007FCC" d="M1702.305,1577.815c-1.021-0.825-1.841-1.93-2.324-3.253
		c-119.194-325.447-238.389-650.894-357.582-976.34c-1.424-3.89,0.573-8.198,4.463-9.622c3.889-1.424,8.197,0.574,9.622,4.463
		c119.194,325.447,238.387,650.894,357.581,976.341c1.425,3.889-0.573,8.197-4.463,9.622
		C1707.036,1579.965,1704.287,1579.415,1702.305,1577.815"/>
	<path clip-path="url(#SVGID_4_)" fill="#007FCC" d="M1008.628,1017.848c-1.983-1.6-3.1-4.17-2.722-6.877
		c0.572-4.103,4.361-6.964,8.464-6.393c343.265,47.871,686.53,95.742,1029.796,143.613c4.104,0.574,6.964,4.361,6.392,8.464
		c-0.571,4.103-4.36,6.964-8.464,6.393c-343.265-47.871-686.531-95.742-1029.796-143.613
		C1010.902,1019.24,1009.65,1018.673,1008.628,1017.848"/>
	<path clip-path="url(#SVGID_4_)" fill="#007FCC" d="M2013.55,1829.065c-1.023-0.825-1.841-1.93-2.325-3.253
		c-119.194-325.447-238.388-650.893-357.581-976.34c-1.424-3.89,0.573-8.198,4.463-9.622c3.889-1.424,8.197,0.573,9.622,4.463
		c119.193,325.447,238.387,650.893,357.58,976.34c1.425,3.891-0.573,8.198-4.463,9.622
		C2018.279,1831.216,2015.531,1830.666,2013.55,1829.065"/>
	<path clip-path="url(#SVGID_4_)" fill="#007FCC" d="M1319.873,1269.098c-1.983-1.6-3.1-4.17-2.722-6.877
		c0.572-4.103,4.361-6.964,8.464-6.392c343.265,47.87,686.531,95.741,1029.796,143.612c4.102,0.573,6.965,4.362,6.393,8.464
		c-0.572,4.103-4.362,6.964-8.465,6.392c-343.266-47.871-686.53-95.741-1029.795-143.612
		C1322.146,1270.49,1320.895,1269.923,1319.873,1269.098"/>
	<path clip-path="url(#SVGID_4_)" fill="#007FCC" d="M1706.205,1891.391c-1.023-0.825-1.841-1.929-2.325-3.252
		c-119.194-325.446-238.388-650.894-357.581-976.341c-1.425-3.889,0.573-8.196,4.463-9.622c3.889-1.424,8.197,0.574,9.622,4.464
		c119.193,325.446,238.387,650.893,357.58,976.339c1.425,3.89-0.573,8.197-4.462,9.622
		C1710.935,1893.541,1708.187,1892.991,1706.205,1891.391"/>
	<path clip-path="url(#SVGID_4_)" fill="#007FCC" d="M1012.528,1331.424c-1.982-1.6-3.1-4.17-2.722-6.877
		c0.571-4.102,4.361-6.964,8.464-6.392c343.265,47.871,686.53,95.742,1029.796,143.613c4.103,0.572,6.964,4.362,6.393,8.463
		c-0.572,4.104-4.362,6.964-8.466,6.393c-343.265-47.87-686.529-95.741-1029.794-143.612
		C1014.802,1332.817,1013.55,1332.249,1012.528,1331.424"/>
	<path clip-path="url(#SVGID_4_)" fill="#007FCC" d="M1550.583,1765.766c-1.022-0.825-1.841-1.929-2.325-3.253
		c-119.194-325.446-238.388-650.893-357.581-976.34c-1.425-3.889,0.573-8.197,4.463-9.622c3.889-1.424,8.197,0.574,9.622,4.464
		c119.194,325.446,238.387,650.893,357.581,976.34c1.424,3.89-0.574,8.197-4.463,9.621
		C1555.312,1767.917,1552.564,1767.366,1550.583,1765.766"/>
	<path clip-path="url(#SVGID_4_)" fill="#007FCC" d="M856.906,1205.798c-1.983-1.6-3.1-4.17-2.722-6.877
		c0.571-4.102,4.361-6.964,8.464-6.392c343.265,47.871,686.53,95.741,1029.796,143.613c4.104,0.573,6.963,4.361,6.393,8.464
		c-0.572,4.102-4.362,6.964-8.465,6.392c-343.265-47.871-686.53-95.742-1029.795-143.613
		C859.18,1207.191,857.928,1206.624,856.906,1205.798"/>
	<path clip-path="url(#SVGID_4_)" fill="#007FCC" d="M1861.827,2017.017c-1.022-0.826-1.841-1.929-2.325-3.253
		c-119.193-325.446-238.388-650.893-357.581-976.34c-1.425-3.889,0.573-8.197,4.464-9.622c3.889-1.424,8.196,0.574,9.621,4.464
		c119.193,325.446,238.388,650.893,357.58,976.339c1.426,3.89-0.572,8.198-4.462,9.622
		C1866.558,2019.166,1863.81,2018.616,1861.827,2017.017"/>
	<path clip-path="url(#SVGID_4_)" fill="#007FCC" d="M1168.15,1457.049c-1.983-1.6-3.101-4.17-2.722-6.877
		c0.571-4.102,4.361-6.964,8.464-6.393c343.265,47.871,686.53,95.742,1029.795,143.613c4.102,0.572,6.965,4.361,6.393,8.464
		c-0.573,4.103-4.362,6.964-8.465,6.392c-343.266-47.871-686.53-95.741-1029.795-143.612
		C1170.424,1458.441,1169.172,1457.874,1168.15,1457.049"/>
	<path clip-path="url(#SVGID_4_)" fill="#007FCC" d="M1554.185,2079.711c-1.023-0.825-1.841-1.929-2.325-3.253
		c-119.194-325.445-238.388-650.893-357.581-976.34c-1.425-3.889,0.573-8.197,4.463-9.622c3.889-1.424,8.196,0.574,9.622,4.464
		c119.193,325.446,238.387,650.893,357.58,976.339c1.425,3.89-0.573,8.197-4.463,9.622
		C1558.914,2081.861,1556.166,2081.312,1554.185,2079.711"/>
	<path clip-path="url(#SVGID_4_)" fill="#007FCC" d="M860.507,1519.744c-1.983-1.6-3.1-4.17-2.722-6.877
		c0.571-4.102,4.361-6.964,8.464-6.392c343.265,47.87,686.53,95.741,1029.796,143.612c4.103,0.572,6.964,4.362,6.393,8.463
		c-0.572,4.104-4.362,6.965-8.465,6.393c-343.266-47.87-686.53-95.741-1029.795-143.612
		C862.781,1521.137,861.529,1520.569,860.507,1519.744"/>
	<path clip-path="url(#SVGID_4_)" fill="#007FCC" d="M1398.562,1954.086c-1.022-0.824-1.841-1.929-2.325-3.253
		c-119.194-325.446-238.388-650.893-357.581-976.34c-1.425-3.889,0.573-8.197,4.463-9.622c3.889-1.424,8.196,0.574,9.622,4.464
		c119.194,325.446,238.387,650.894,357.581,976.341c1.424,3.889-0.574,8.196-4.463,9.62
		C1403.292,1956.237,1400.544,1955.687,1398.562,1954.086"/>
	<path clip-path="url(#SVGID_4_)" fill="#007FCC" d="M704.885,1394.119c-1.983-1.6-3.1-4.17-2.722-6.877
		c0.571-4.102,4.361-6.964,8.464-6.393c343.265,47.872,686.53,95.742,1029.796,143.613c4.103,0.574,6.963,4.362,6.392,8.464
		c-0.571,4.104-4.361,6.965-8.464,6.394c-343.265-47.871-686.531-95.742-1029.796-143.613
		C707.159,1395.512,705.907,1394.944,704.885,1394.119"/>
	<path clip-path="url(#SVGID_4_)" fill="#007FCC" d="M1709.807,2205.337c-1.023-0.825-1.841-1.929-2.325-3.253
		c-119.194-325.446-238.388-650.894-357.581-976.34c-1.425-3.889,0.573-8.197,4.463-9.622c3.889-1.424,8.196,0.574,9.622,4.464
		c119.193,325.445,238.387,650.893,357.58,976.339c1.425,3.89-0.573,8.198-4.462,9.622
		C1714.536,2207.486,1711.788,2206.937,1709.807,2205.337"/>
	<path clip-path="url(#SVGID_4_)" fill="#007FCC" d="M1016.129,1645.369c-1.982-1.6-3.1-4.17-2.722-6.877
		c0.571-4.102,4.361-6.964,8.464-6.392c343.265,47.871,686.53,95.742,1029.796,143.612c4.102,0.572,6.964,4.362,6.393,8.464
		c-0.572,4.103-4.362,6.965-8.466,6.392c-343.265-47.87-686.529-95.741-1029.794-143.612
		C1018.403,1646.763,1017.151,1646.194,1016.129,1645.369"/>
	<path clip-path="url(#SVGID_4_)" fill="#007FCC" d="M1402.462,2267.662c-1.023-0.825-1.841-1.929-2.325-3.253
		c-119.194-325.446-238.388-650.893-357.581-976.34c-1.424-3.89,0.575-8.198,4.463-9.622c3.889-1.425,8.198,0.572,9.622,4.463
		c119.194,325.447,238.387,650.893,357.58,976.34c1.425,3.89-0.573,8.197-4.462,9.622
		C1407.191,2269.812,1404.443,2269.263,1402.462,2267.662"/>
	<path clip-path="url(#SVGID_4_)" fill="#007FCC" d="M708.785,1707.695c-1.983-1.6-3.1-4.17-2.722-6.877
		c0.571-4.102,4.361-6.964,8.464-6.393c343.265,47.871,686.531,95.741,1029.796,143.612c4.104,0.572,6.964,4.362,6.393,8.464
		c-0.573,4.102-4.362,6.965-8.465,6.393c-343.266-47.871-686.53-95.741-1029.795-143.612
		C711.059,1709.088,709.807,1708.521,708.785,1707.695"/>
	<path clip-path="url(#SVGID_4_)" fill="#007FCC" d="M1246.839,2142.037c-1.022-0.824-1.841-1.929-2.325-3.253
		c-119.194-325.446-238.388-650.893-357.581-976.34c-1.424-3.89,0.575-8.198,4.463-9.622c3.889-1.425,8.198,0.572,9.622,4.463
		c119.194,325.447,238.387,650.895,357.581,976.342c1.424,3.889-0.574,8.196-4.463,9.62
		C1251.569,2144.188,1248.821,2143.638,1246.839,2142.037"/>
	<path clip-path="url(#SVGID_4_)" fill="#007FCC" d="M553.163,1582.07c-1.983-1.601-3.1-4.17-2.722-6.877
		c0.571-4.103,4.361-6.965,8.464-6.393c343.265,47.87,686.531,95.741,1029.796,143.612c4.105,0.572,6.964,4.361,6.393,8.465
		c-0.571,4.103-4.361,6.963-8.465,6.392c-343.265-47.87-686.53-95.741-1029.795-143.612
		C555.437,1583.463,554.185,1582.895,553.163,1582.07"/>
	<path clip-path="url(#SVGID_4_)" fill="#007FCC" d="M1558.084,2393.288c-1.023-0.826-1.841-1.93-2.325-3.253
		c-119.194-325.446-238.388-650.894-357.581-976.34c-1.424-3.89,0.575-8.198,4.463-9.622c3.89-1.425,8.198,0.572,9.622,4.463
		c119.193,325.447,238.387,650.894,357.58,976.34c1.425,3.89-0.573,8.198-4.462,9.622
		C1562.814,2395.438,1560.066,2394.888,1558.084,2393.288"/>
	<path clip-path="url(#SVGID_4_)" fill="#007FCC" d="M864.407,1833.32c-1.983-1.6-3.1-4.17-2.722-6.877
		c0.571-4.102,4.361-6.964,8.464-6.392c343.265,47.87,686.531,95.741,1029.796,143.612c4.102,0.571,6.964,4.361,6.392,8.464
		c-0.573,4.101-4.362,6.964-8.465,6.392c-343.265-47.871-686.53-95.741-1029.795-143.612
		C866.681,1834.714,865.429,1834.146,864.407,1833.32"/>
	<path clip-path="url(#SVGID_4_)" fill="#007FCC" d="M1250.441,2455.982c-1.023-0.824-1.841-1.929-2.325-3.253
		c-119.194-325.445-238.388-650.893-357.581-976.34c-1.424-3.89,0.574-8.198,4.463-9.622c3.889-1.425,8.198,0.572,9.622,4.463
		c119.193,325.447,238.387,650.894,357.58,976.34c1.425,3.89-0.573,8.197-4.463,9.622
		C1255.171,2458.133,1252.423,2457.583,1250.441,2455.982"/>
	<path clip-path="url(#SVGID_4_)" fill="#007FCC" d="M556.764,1896.016c-1.983-1.6-3.1-4.17-2.722-6.877
		c0.571-4.102,4.361-6.964,8.464-6.392c343.265,47.87,686.531,95.74,1029.796,143.611c4.104,0.572,6.964,4.362,6.393,8.464
		c-0.573,4.102-4.362,6.965-8.466,6.393c-343.265-47.871-686.53-95.741-1029.794-143.612
		C559.038,1897.408,557.786,1896.841,556.764,1896.016"/>
	<path clip-path="url(#SVGID_4_)" fill="#007FCC" d="M1094.819,2330.357c-1.022-0.824-1.841-1.929-2.325-3.253
		c-119.194-325.445-238.388-650.893-357.581-976.34c-1.424-3.89,0.574-8.198,4.463-9.622c3.889-1.425,8.198,0.572,9.622,4.463
		c119.194,325.447,238.387,650.895,357.581,976.342c1.424,3.889-0.574,8.197-4.463,9.62
		C1099.549,2332.509,1096.801,2331.958,1094.819,2330.357"/>
	<path clip-path="url(#SVGID_4_)" fill="#007FCC" d="M401.142,1770.391c-1.983-1.601-3.1-4.17-2.722-6.877
		c0.571-4.103,4.361-6.964,8.464-6.393c343.265,47.87,686.531,95.741,1029.796,143.612c4.105,0.572,6.964,4.362,6.392,8.465
		c-0.571,4.103-4.361,6.963-8.464,6.393c-343.265-47.871-686.531-95.742-1029.796-143.613
		C403.416,1771.783,402.164,1771.216,401.142,1770.391"/>
	<path clip-path="url(#SVGID_4_)" fill="#007FCC" d="M1406.063,2581.608c-1.023-0.826-1.841-1.929-2.325-3.253
		c-119.194-325.447-238.388-650.893-357.581-976.34c-1.424-3.891,0.574-8.198,4.463-9.622c3.889-1.425,8.198,0.572,9.622,4.463
		c119.194,325.447,238.387,650.893,357.58,976.34c1.425,3.89-0.573,8.198-4.462,9.622
		C1410.793,2583.759,1408.045,2583.208,1406.063,2581.608"/>
	<path clip-path="url(#SVGID_4_)" fill="#007FCC" d="M712.386,2021.641c-1.983-1.6-3.1-4.17-2.722-6.877
		c0.571-4.102,4.361-6.964,8.464-6.393c343.265,47.871,686.531,95.742,1029.796,143.613c4.103,0.571,6.965,4.361,6.393,8.464
		c-0.573,4.101-4.362,6.964-8.464,6.392c-343.267-47.871-686.531-95.741-1029.796-143.611
		C714.66,2023.034,713.408,2022.466,712.386,2021.641"/>
	<path clip-path="url(#SVGID_4_)" fill="#007FCC" d="M1086.814,2627.231c-1.024-0.825-1.79-1.855-2.164-3.024
		c-103.929-323.492-229.004-640.862-345.838-959.866c-1.424-3.89,0.574-8.198,4.463-9.622c3.89-1.424,8.198,0.573,9.623,4.463
		c117.199,320.002,242.459,638.381,347.749,962.535c1.122,3.466-1.547,6.835-5.975,7.507
		C1091.75,2629.667,1088.798,2628.833,1086.814,2627.231"/>
	<path clip-path="url(#SVGID_4_)" fill="#007FCC" d="M391.661,2066.073c-1.984-1.603-2.88-3.874-2.111-6.056
		c1.164-3.307,5.699-5.169,10.141-4.144c173.667,39.806,349.721,62.047,525.99,86.629c171.633,23.937,343.265,47.871,514.898,71.808
		c4.103,0.57,6.964,4.361,6.392,8.464c-0.572,4.101-4.362,6.964-8.464,6.392c-171.633-23.936-343.266-47.871-514.898-71.806
		c-177.29-24.726-353.634-48.375-528.093-89.454C393.996,2067.546,392.684,2066.899,391.661,2066.073"/>
	<path clip-path="url(#SVGID_4_)" fill="#007FCC" d="M930.934,2501.398c-1.024-0.827-1.791-1.857-2.164-3.025
		c-103.678-323.472-228.779-640.746-345.58-959.657c-1.424-3.89,0.574-8.198,4.463-9.621c3.89-1.425,8.198,0.571,9.623,4.463
		c117.171,319.923,242.471,638.221,347.537,962.362c1.118,3.464-1.563,6.822-6.004,7.484
		C935.878,2503.842,932.92,2503.002,930.934,2501.398"/>
	<path clip-path="url(#SVGID_4_)" fill="#007FCC" d="M236.038,1940.447c-1.98-1.599-2.871-3.866-2.097-6.044
		c1.172-3.3,5.71-5.161,10.149-4.138c173.672,39.752,349.705,62.031,525.969,86.612c171.633,23.936,343.265,47.871,514.898,71.807
		c4.105,0.572,6.965,4.36,6.392,8.465c-0.571,4.102-4.361,6.964-8.464,6.392c-171.632-23.936-343.265-47.871-514.898-71.806
		c-177.295-24.726-353.625-48.426-528.099-89.458C238.369,1941.917,237.059,1941.271,236.038,1940.447"/>
	<path clip-path="url(#SVGID_4_)" fill="#007FCC" d="M1242.452,2752.87c-1.022-0.825-1.786-1.854-2.16-3.022
		c-103.805-323.524-229.026-640.884-345.858-959.882c-1.424-3.889,0.574-8.197,4.463-9.622c3.89-1.424,8.198,0.573,9.623,4.465
		c117.193,319.986,242.588,638.345,347.741,962.527c1.12,3.464-1.546,6.836-5.966,7.515
		C1247.378,2755.298,1244.432,2754.468,1242.452,2752.87"/>
	<path clip-path="url(#SVGID_4_)" fill="#007FCC" d="M547.532,2191.899c-1.987-1.604-2.889-3.881-2.128-6.07
		c1.152-3.314,5.675-5.188,10.113-4.165c173.595,39.721,349.604,61.896,525.787,86.465
		c171.632,23.936,343.265,47.871,514.898,71.807c4.102,0.57,6.964,4.361,6.391,8.464c-0.572,4.101-4.361,6.964-8.464,6.392
		l-514.898-71.806c-177.184-24.71-353.474-48.268-527.844-89.252C549.868,2193.373,548.556,2192.727,547.532,2191.899"/>
	<path clip-path="url(#SVGID_4_)" fill="#007FCC" d="M884.714,2745.643c-1.029-0.831-1.779-1.835-2.112-2.943
		c-41.413-138.039-81.118-276.608-125.663-413.688c-52.112-160.365-112.169-318.048-170.147-476.35
		c-1.424-3.891,0.575-8.198,4.463-9.622c3.89-1.426,8.199,0.571,9.622,4.463c58.29,159.155,118.884,317.667,171.867,478.696
		c45.245,137.513,85.366,276.611,126.795,415.301c0.971,3.247-2.033,6.147-6.706,6.482
		C889.749,2748.206,886.708,2747.253,884.714,2745.643"/>
	<path clip-path="url(#SVGID_4_)" fill="#007FCC" d="M184.602,2180.48c-1.994-1.609-2.814-3.773-1.881-5.731
		c1.412-2.968,6.319-4.333,10.953-3.056c190.26,52.519,380.025,107.974,573.054,149.65
		c172.123,37.163,347.564,56.984,521.831,81.287c4.103,0.572,6.964,4.362,6.392,8.464c-0.572,4.101-4.362,6.964-8.465,6.391
		c-175.09-24.417-350.821-45.112-523.528-83.613c-193.315-43.097-383.506-99.018-574.413-151.446
		C186.97,2181.994,185.63,2181.311,184.602,2180.48"/>
	<path clip-path="url(#SVGID_4_)" fill="#007FCC" d="M727.845,2619.011c-1.032-0.833-1.784-1.839-2.117-2.947
		c-41.295-137.722-80.498-276.085-124.709-412.917c-51.809-160.352-111.91-317.911-169.85-476.11
		c-1.424-3.89,0.575-8.198,4.463-9.622c3.89-1.424,8.199,0.572,9.623,4.463c58.257,159.067,118.908,317.471,171.614,478.493
		c44.932,137.271,84.56,276.173,125.871,414.554c0.97,3.247-2.05,6.135-6.744,6.453
		C732.899,2621.588,729.846,2620.626,727.845,2619.011"/>
	<path clip-path="url(#SVGID_4_)" fill="#007FCC" d="M28.427,2054.41c-1.984-1.603-2.79-3.755-1.846-5.704
		c1.429-2.954,6.343-4.313,10.968-3.043c190.403,52.374,380.217,107.99,573.305,149.853
		c172.192,37.333,347.716,57.174,522.082,81.489c4.104,0.572,6.964,4.362,6.392,8.465c-0.572,4.103-4.361,6.963-8.464,6.393
		c-175.211-24.436-351.032-45.173-523.827-83.857c-193.377-43.292-383.623-99.38-574.68-151.661
		C30.786,2055.915,29.45,2055.235,28.427,2054.41"/>
	<path clip-path="url(#SVGID_4_)" fill="#007FCC" d="M1040.929,2871.746c-1.024-0.826-1.771-1.827-2.1-2.933
		c-41.207-138.215-81.199-276.812-125.968-413.934c-52.366-160.394-112.433-318.188-170.448-476.593
		c-1.424-3.89,0.575-8.198,4.463-9.622c3.89-1.425,8.199,0.571,9.623,4.463c58.322,159.243,118.903,317.853,172.119,478.901
		c45.452,137.553,85.859,276.675,127.083,415.532c0.962,3.24-2.035,6.146-6.689,6.496
		C1045.94,2874.289,1042.912,2873.348,1040.929,2871.746"/>
	<path clip-path="url(#SVGID_4_)" fill="#007FCC" d="M341.445,2307.092c-2.001-1.615-2.833-3.789-1.914-5.759
		c1.392-2.984,6.283-4.361,10.917-3.084c189.927,52.419,379.431,107.511,572.16,148.93
		c172.053,36.976,347.409,56.788,521.573,81.077c4.102,0.571,6.964,4.362,6.392,8.464c-0.572,4.101-4.362,6.964-8.464,6.392
		c-174.972-24.4-350.6-45.09-523.229-83.373c-193.009-42.803-382.927-98.369-573.486-150.697
		C343.819,2308.608,342.477,2307.925,341.445,2307.092"/>
	<path clip-path="url(#SVGID_4_)" fill="#007FCC" d="M698.577,2885.479c-1.033-0.833-1.852-1.933-2.326-3.236
		c-101.32-279.383-174.225-567.127-266.889-849.235c-1.171-3.55,1.359-7.146,5.63-8.059c4.273-0.913,8.696,1.236,9.897,4.83
		c93.693,281.205,166.005,568.748,265.958,847.996c1.358,3.779-0.812,7.839-4.824,9.098
		C703.375,2887.703,700.578,2887.094,698.577,2885.479"/>
	<path clip-path="url(#SVGID_4_)" fill="#007FCC" d="M-5.206,2317.354c-2.001-1.615-3.098-4.149-2.645-6.752
		c0.685-3.944,4.694-6.521,8.929-5.784c383.355,67.583,750.583,204.233,1132.064,280.549c4.302,0.854,7.063,4.501,6.149,8.124
		c-0.913,3.623-5.178,5.819-9.51,4.927c-380.353-79.052-747.578-215.743-1131.255-279.409
		C-2.903,2318.775-4.175,2318.187-5.206,2317.354"/>
	<path clip-path="url(#SVGID_4_)" fill="#007FCC" d="M541.009,2758.282c-1.037-0.837-1.863-1.94-2.341-3.248
		c-101.651-278.585-172.674-566.068-264.879-847.612c-1.166-3.546,1.366-7.142,5.636-8.055c4.271-0.914,8.691,1.233,9.889,4.823
		c93.284,280.636,163.718,567.953,263.994,846.411c1.37,3.789-0.799,7.85-4.823,9.098
		C545.829,2760.524,543.021,2759.906,541.009,2758.282"/>
	<path clip-path="url(#SVGID_4_)" fill="#007FCC" d="M-161.644,2191.07c-1.984-1.603-3.066-4.124-2.606-6.722
		c0.696-3.935,4.693-6.52,8.903-5.805c383.884,66.282,751.122,204.433,1132.775,281.124c4.311,0.857,7.07,4.504,6.15,8.124
		c-0.918,3.619-5.194,5.806-9.532,4.909c-380.502-79.448-747.785-217.724-1131.985-279.998
		C-159.357,2192.477-160.621,2191.895-161.644,2191.07"/>
	<path clip-path="url(#SVGID_4_)" fill="#007FCC" d="M855.081,3011.815c-1.024-0.827-1.835-1.919-2.3-3.215
		c-100.273-279.96-174.576-567.668-267.689-849.881c-1.177-3.556,1.343-7.16,5.608-8.077c4.267-0.917,8.69,1.231,9.897,4.83
		c94.097,281.328,167.827,568.801,266.74,848.627c1.334,3.76-0.847,7.812-4.849,9.078
		C859.847,3014.015,857.065,3013.417,855.081,3011.815"/>
	<path clip-path="url(#SVGID_4_)" fill="#007FCC" d="M152.321,2444.516c-2.012-1.624-3.12-4.167-2.675-6.776
		c0.674-3.952,4.683-6.527,8.932-5.782c382.479,68.133,749.35,203.023,1130.148,279.004c4.298,0.849,7.056,4.495,6.142,8.117
		c-0.914,3.623-5.177,5.82-9.504,4.932c-379.68-78.663-746.505-213.564-1129.295-277.827
		C154.635,2445.946,153.358,2445.353,152.321,2444.516"/>
</g>
<g>
	<path fill="#007FCC" d="M1367.782,1684.594c18.66-4.112,49.684-11.666,64.912-30.531c6.561-8.127,9.45-15.861,9.303-22.211
		c-1.531-9.386-8.798-12.855-15.561-11.604c-25.479,4.84-80.49,36.171-110.386,12.039c-39.762-32.098-37.405-104.497-27.581-139.231
		c5.441-18.618,14.365-34.422,30.804-36.972c12.532-1.867,26.327,0.64,36.095,5.169c13.952,6.469,19.648,22.572,22.229,31.846
		c4.067,15.747,12.074,36.112,16.051,46.032c1.44,3.561,1.486,6.474-4.284,7.089c-9.966,1.063-21.774-2.718-30.495-19.824
		c-9.012-17.341-15.529-58.555-28.408-57.446c-18.125,1.668-31.354,108.912,3.754,139.65c18.162,16.1,63.534-8.633,88.264-15.515
		c16.74-4.703,28.92,7.525,33.412,32.244c5.969,33.581-29.283,88.534-111.658,89.628c-6.351,0.146-7.445-2.654-6.207-5.971
		C1342.854,1697.066,1355.071,1687.275,1367.782,1684.594z"/>
	<path fill="#007FCC" d="M1386.964,1481.494c-6.405-0.377-7.031-3.759-3.227-7.879c6.85-7.892,12.83-16.487,18.286-25.026
		c-8.7-21.883-15.782-41.022-18.185-51.11c-1.664-5.658,0.97-8.326,5.623-6.966c10.705,3.368,20.283,11.1,29.752,30.248
		c8.847-11.553,17.585-11.689,23.233-10.965c5.122,0.78,6.218,3.58,2.702,7.934c-6.025,5.683-12.417,15.382-17.113,23.576
		c10.309,27.016,25.107,66.287,40.584,96.996c13.455,26.682,34.027,38.016,44.447,26.294c11.123-12.593,3.872-45.771-9.228-74.082
		c-2.076-4.553-0.08-8.214,4.921-6.095c5.815,2.298,9.868,7.966,14.2,16.258c5.37,10.566,15.448,50.341-4.165,72.856
		c-16.045,18.687-49.939,16.732-72.07-24.143c-9.592-17.81-24.131-49.68-36.986-80.669
		C1401.774,1478.588,1392.032,1481.749,1386.964,1481.494z"/>
	<path fill="#007FCC" d="M1567.364,1496.739c20.607-23.153,14.492-63.083,5.41-91.026c-1.149-3.326,0.725-5.648,4.273-4.7
		c3.26,0.713,10.684,8.145,14.012,19.46c7.864,26.482,3.175,59.607-14.576,82.189c-29.174,37.329-75.762,20.812-97.975-28.276
		c-22.211-49.089-13.404-90.877,6.727-98.594c10.21-3.742,18.781-5.451,28.915-4.94c11.184,0.398,27.014,17.012,31.975,41.15
		c5.935,28.28-2.218,53.817-35.161,60.778C1530.169,1503.624,1554.077,1511.418,1567.364,1496.739z M1520.056,1418.762
		c-4.692-19.127-14.63-37.696-21.103-36.21c-9.854,2.112-11.886,40.259,4.675,76.158c1.039,2.276,2.076,4.553,3.06,6.305
		C1527.165,1458.056,1524.292,1436.082,1520.056,1418.762z"/>
	<path fill="#007FCC" d="M1642.337,1403.865c20.606-23.153,14.49-63.083,5.409-91.026c-1.149-3.325,0.726-5.647,4.272-4.7
		c3.26,0.714,10.684,8.145,14.012,19.46c7.865,26.482,3.176,59.607-14.574,82.19c-29.176,37.329-75.764,20.812-97.975-28.277
		c-22.212-49.089-13.406-90.876,6.725-98.594c10.211-3.742,18.783-5.451,28.916-4.94c11.184,0.398,27.014,17.012,31.975,41.15
		c5.935,28.28-2.218,53.817-35.16,60.779C1605.14,1410.75,1629.048,1418.545,1642.337,1403.865z M1595.028,1325.888
		c-4.693-19.127-14.631-37.696-21.104-36.21c-9.854,2.112-11.887,40.259,4.675,76.158c1.038,2.277,2.076,4.553,3.06,6.305
		C1602.138,1365.183,1599.263,1343.208,1595.028,1325.888z"/>
	<path fill="#007FCC" d="M1719.935,1283.392c-8.506-0.154-21.057,18.957-22.612,41.668c-0.188,3.203-1.249,5.704-4.272,4.701
		c-15.995-5.722-19.604-19.66-17.209-34.504c10.184-63.684-3.264-105.22-19.458-105.35c-16.194-0.129-27.452,55.978-17.628,100.818
		c0.916,3.616-1.596,4.945-4.386,3.65c-9.421-3.77-19.96-18.03-21.739-37.203c-1.947-20.747,3.279-43.85,12.785-59.187
		c8.801-14.467,17.337-21.477,33.643-20.299c15.49,1,29.545,10.907,37.664,32.322c6.68,17.854,7.546,45.878,4.217,74.35
		c5.332-7.2,12.463-12.469,20.564-13.599c7.055-1.018,13.862,0.644,20.313,3.934c3.812-18.974,0.882-41.473-9.325-65.052
		c-1.385-3.035,0.668-6.172,4.217-5.225c3.26,0.714,10.449,8.434,14.715,18.59c7.092,16.75,3.605,41.26-1.011,57.667
		c31.056,25.069,50.515,90.632,45.913,117.117c-1.494,8.382-4.672,15.883-19.527,15.876c-12.467,0.003-28.716-0.651-39.346-20.737
		c-16.293-30.887-11.068-66.458-1.312-99.328C1730.983,1287.519,1725.524,1283.592,1719.935,1283.392z M1770.913,1400.764
		c10.312-0.304-5.955-63.289-27.303-96.821C1734.218,1360.117,1759.786,1400.89,1770.913,1400.764z"/>
</g>
<g>
	<defs>
		<rect id="SVGID_5_" width="3000" height="3000"/>
	</defs>
	<clipPath id="SVGID_6_">
		<use xlink:href="#SVGID_5_"  overflow="visible"/>
	</clipPath>
	<path clip-path="url(#SVGID_6_)" fill="none" stroke="#007FCC" stroke-width="119" stroke-miterlimit="10" d="M1338.025,1708.986
		c-1.238,3.315-0.145,6.117,6.207,5.97c82.375-1.095,117.627-56.046,111.658-89.626c-4.494-24.719-16.674-36.947-33.412-32.244
		c-24.73,6.881-70.101,31.614-88.264,15.514c-35.108-30.738-21.878-137.983-3.754-139.65c12.879-1.109,19.397,40.105,28.408,57.446
		c8.72,17.107,20.53,20.888,30.495,19.824c5.77-0.615,5.725-3.528,4.283-7.087c-3.975-9.921-11.982-30.287-16.049-46.033
		c-2.581-9.273-8.277-25.377-22.23-31.846c-9.766-4.529-23.561-7.037-36.094-5.169c-16.438,2.549-25.361,18.355-30.803,36.972
		c-9.824,34.734-12.181,107.132,27.581,139.23c29.894,24.132,84.907-7.199,110.386-12.038c6.762-1.252,14.027,2.217,15.56,11.603
		c0.146,6.35-2.742,14.085-9.302,22.212c-15.229,18.864-46.252,26.419-64.912,30.529
		C1355.072,1687.275,1342.854,1697.066,1338.025,1708.986z"/>
	<path clip-path="url(#SVGID_6_)" fill="none" stroke="#007FCC" stroke-width="119" stroke-miterlimit="10" d="M1409.738,1468.724
		c12.854,30.989,27.393,62.86,36.984,80.669c22.131,40.875,56.028,42.83,72.071,24.143c19.613-22.516,9.537-62.288,4.166-72.855
		c-4.333-8.292-8.387-13.96-14.201-16.258c-5-2.119-6.998,1.543-4.92,6.095c13.099,28.312,20.351,61.489,9.227,74.081
		c-10.42,11.722-30.992,0.387-44.447-26.293c-15.478-30.709-30.275-69.979-40.584-96.996c4.697-8.193,11.09-17.893,17.113-23.576
		c3.515-4.353,2.421-7.154-2.703-7.934c-5.646-0.724-14.385-0.588-23.232,10.967c-9.469-19.149-19.047-26.881-29.75-30.249
		c-4.655-1.36-7.287,1.307-5.623,6.966c2.402,10.088,9.482,29.227,18.182,51.11c-5.455,8.539-11.435,17.134-18.285,25.026
		c-3.805,4.12-3.179,7.501,3.228,7.879C1392.03,1481.753,1401.771,1478.592,1409.738,1468.724z"/>
	<path clip-path="url(#SVGID_6_)" fill="none" stroke="#007FCC" stroke-width="119" stroke-miterlimit="10" d="M1506.454,1465.305
		c-0.983-1.752-2.021-4.028-3.06-6.305c-16.56-35.899-14.529-74.046-4.675-76.158c6.472-1.486,16.41,17.082,21.103,36.21
		C1524.057,1436.372,1526.932,1458.346,1506.454,1465.305z M1510.73,1473.071c32.943-6.961,41.096-32.499,35.162-60.778
		c-4.963-24.139-20.793-40.752-31.976-41.151c-10.134-0.511-18.705,1.199-28.916,4.941c-20.132,7.717-28.937,49.504-6.726,98.593
		c22.212,49.089,68.8,65.605,97.975,28.276c17.752-22.582,22.44-55.708,14.576-82.19c-3.33-11.315-10.753-18.746-14.012-19.459
		c-3.549-0.947-5.424,1.374-4.273,4.699c9.082,27.944,15.197,67.875-5.41,91.027
		C1553.843,1511.709,1529.936,1503.914,1510.73,1473.071z"/>
	<path clip-path="url(#SVGID_6_)" fill="none" stroke="#007FCC" stroke-width="119" stroke-miterlimit="10" d="M1581.425,1372.432
		c-0.982-1.752-2.021-4.028-3.06-6.306c-16.561-35.898-14.529-74.045-4.675-76.157c6.473-1.486,16.409,17.082,21.103,36.21
		C1599.028,1343.499,1601.902,1365.473,1581.425,1372.432z M1585.701,1380.198c32.943-6.961,41.096-32.499,35.162-60.778
		c-4.963-24.139-20.793-40.752-31.976-41.151c-10.134-0.511-18.704,1.199-28.915,4.941c-20.132,7.717-28.938,49.504-6.727,98.593
		c22.212,49.089,68.801,65.605,97.975,28.276c17.752-22.582,22.44-55.708,14.576-82.19c-3.329-11.315-10.753-18.746-14.012-19.459
		c-3.549-0.947-5.424,1.374-4.273,4.699c9.082,27.944,15.197,67.875-5.41,91.027
		C1628.813,1418.836,1604.906,1411.041,1585.701,1380.198z"/>
	<path clip-path="url(#SVGID_6_)" fill="none" stroke="#007FCC" stroke-width="119" stroke-miterlimit="10" d="M1743.377,1304.232
		c21.348,33.532,37.613,96.518,27.301,96.822C1759.552,1401.18,1733.982,1360.407,1743.377,1304.232z M1735.907,1293.89
		c-9.757,32.87-14.981,68.44,1.31,99.328c10.631,20.086,26.881,20.739,39.348,20.736c14.854,0.007,18.033-7.494,19.525-15.876
		c4.604-26.484-14.856-92.047-45.912-117.116c4.616-16.407,8.104-40.916,1.012-57.666c-4.267-10.155-11.456-17.876-14.715-18.589
		c-3.55-0.948-5.602,2.188-4.217,5.224c10.207,23.579,13.137,46.078,9.325,65.051c-6.452-3.29-13.261-4.951-20.313-3.934
		c-8.102,1.129-15.232,6.4-20.564,13.599c3.329-28.471,2.462-56.495-4.217-74.349c-8.119-21.415-22.174-31.323-37.664-32.323
		c-16.307-1.178-24.842,5.833-33.645,20.299c-9.504,15.337-14.731,38.441-12.784,59.188c1.78,19.173,12.319,33.433,21.739,37.204
		c2.791,1.293,5.301-0.036,4.386-3.651c-9.823-44.841,1.435-100.948,17.628-100.817c16.194,0.129,29.643,41.664,19.459,105.349
		c-2.396,14.844,1.213,28.782,17.207,34.504c3.025,1.003,4.085-1.497,4.273-4.7c1.557-22.712,14.107-41.822,22.611-41.668
		C1725.291,1283.882,1730.749,1287.808,1735.907,1293.89z"/>
</g>
<g>
	<path fill="#007FCC" d="M1367.782,1684.594c18.66-4.112,49.684-11.666,64.912-30.531c6.561-8.127,9.45-15.861,9.303-22.211
		c-1.531-9.386-8.798-12.855-15.561-11.604c-25.479,4.84-80.49,36.171-110.386,12.039c-39.762-32.098-37.405-104.497-27.581-139.231
		c5.441-18.618,14.365-34.422,30.804-36.972c12.532-1.867,26.327,0.64,36.095,5.169c13.952,6.469,19.648,22.572,22.229,31.846
		c4.067,15.747,12.074,36.112,16.051,46.032c1.44,3.561,1.486,6.474-4.284,7.089c-9.966,1.063-21.774-2.718-30.495-19.824
		c-9.012-17.341-15.529-58.555-28.408-57.446c-18.125,1.668-31.354,108.912,3.754,139.65c18.162,16.1,63.534-8.633,88.264-15.515
		c16.74-4.703,28.92,7.525,33.412,32.244c5.969,33.581-29.283,88.534-111.658,89.628c-6.351,0.146-7.445-2.654-6.207-5.971
		C1342.854,1697.066,1355.071,1687.275,1367.782,1684.594z"/>
	<path fill="#007FCC" d="M1386.964,1481.494c-6.405-0.377-7.031-3.759-3.227-7.879c6.85-7.892,12.83-16.487,18.286-25.026
		c-8.7-21.883-15.782-41.022-18.185-51.11c-1.664-5.658,0.97-8.326,5.623-6.966c10.705,3.368,20.283,11.1,29.752,30.248
		c8.847-11.553,17.585-11.689,23.233-10.965c5.122,0.78,6.218,3.58,2.702,7.934c-6.025,5.683-12.417,15.382-17.113,23.576
		c10.309,27.016,25.107,66.287,40.584,96.996c13.455,26.682,34.027,38.016,44.447,26.294c11.123-12.593,3.872-45.771-9.228-74.082
		c-2.076-4.553-0.08-8.214,4.921-6.095c5.815,2.298,9.868,7.966,14.2,16.258c5.37,10.566,15.448,50.341-4.165,72.856
		c-16.045,18.687-49.939,16.732-72.07-24.143c-9.592-17.81-24.131-49.68-36.986-80.669
		C1401.774,1478.588,1392.032,1481.749,1386.964,1481.494z"/>
	<path fill="#007FCC" d="M1567.364,1496.739c20.607-23.153,14.492-63.083,5.41-91.026c-1.149-3.326,0.725-5.648,4.273-4.7
		c3.26,0.713,10.684,8.145,14.012,19.46c7.864,26.482,3.175,59.607-14.576,82.189c-29.174,37.329-75.762,20.812-97.975-28.276
		c-22.211-49.089-13.404-90.877,6.727-98.594c10.21-3.742,18.781-5.451,28.915-4.94c11.184,0.398,27.014,17.012,31.975,41.15
		c5.935,28.28-2.218,53.817-35.161,60.778C1530.169,1503.624,1554.077,1511.418,1567.364,1496.739z M1520.056,1418.762
		c-4.692-19.127-14.63-37.696-21.103-36.21c-9.854,2.112-11.886,40.259,4.675,76.158c1.039,2.276,2.076,4.553,3.06,6.305
		C1527.165,1458.056,1524.292,1436.082,1520.056,1418.762z"/>
	<path fill="#007FCC" d="M1642.337,1403.865c20.606-23.153,14.49-63.083,5.409-91.026c-1.149-3.325,0.726-5.647,4.272-4.7
		c3.26,0.714,10.684,8.145,14.012,19.46c7.865,26.482,3.176,59.607-14.574,82.19c-29.176,37.329-75.764,20.812-97.975-28.277
		c-22.212-49.089-13.406-90.876,6.725-98.594c10.211-3.742,18.783-5.451,28.916-4.94c11.184,0.398,27.014,17.012,31.975,41.15
		c5.935,28.28-2.218,53.817-35.16,60.779C1605.14,1410.75,1629.048,1418.545,1642.337,1403.865z M1595.028,1325.888
		c-4.693-19.127-14.631-37.696-21.104-36.21c-9.854,2.112-11.887,40.259,4.675,76.158c1.038,2.277,2.076,4.553,3.06,6.305
		C1602.138,1365.183,1599.263,1343.208,1595.028,1325.888z"/>
	<path fill="#007FCC" d="M1719.935,1283.392c-8.506-0.154-21.057,18.957-22.612,41.668c-0.188,3.203-1.249,5.704-4.272,4.701
		c-15.995-5.722-19.604-19.66-17.209-34.504c10.184-63.684-3.264-105.22-19.458-105.35c-16.194-0.129-27.452,55.978-17.628,100.818
		c0.916,3.616-1.596,4.945-4.386,3.65c-9.421-3.77-19.96-18.03-21.739-37.203c-1.947-20.747,3.279-43.85,12.785-59.187
		c8.801-14.467,17.337-21.477,33.643-20.299c15.49,1,29.545,10.907,37.664,32.322c6.68,17.854,7.546,45.878,4.217,74.35
		c5.332-7.2,12.463-12.469,20.564-13.599c7.055-1.018,13.862,0.644,20.313,3.934c3.812-18.974,0.882-41.473-9.325-65.052
		c-1.385-3.035,0.668-6.172,4.217-5.225c3.26,0.714,10.449,8.434,14.715,18.59c7.092,16.75,3.605,41.26-1.011,57.667
		c31.056,25.069,50.515,90.632,45.913,117.117c-1.494,8.382-4.672,15.883-19.527,15.876c-12.467,0.003-28.716-0.651-39.346-20.737
		c-16.293-30.887-11.068-66.458-1.312-99.328C1730.983,1287.519,1725.524,1283.592,1719.935,1283.392z M1770.913,1400.764
		c10.312-0.304-5.955-63.289-27.303-96.821C1734.218,1360.117,1759.786,1400.89,1770.913,1400.764z"/>
</g>
<g>
	<defs>
		<rect id="SVGID_7_" width="3000" height="3000"/>
	</defs>
	<clipPath id="SVGID_8_">
		<use xlink:href="#SVGID_7_"  overflow="visible"/>
	</clipPath>
	<path clip-path="url(#SVGID_8_)" fill="none" stroke="#FFFFFF" stroke-width="80" stroke-miterlimit="10" d="M1338.025,1708.986
		c-1.238,3.315-0.145,6.117,6.207,5.97c82.375-1.095,117.627-56.046,111.658-89.626c-4.494-24.719-16.674-36.947-33.412-32.244
		c-24.73,6.881-70.101,31.614-88.264,15.514c-35.108-30.738-21.878-137.983-3.754-139.65c12.879-1.109,19.397,40.105,28.408,57.446
		c8.72,17.107,20.53,20.888,30.495,19.824c5.77-0.615,5.725-3.528,4.283-7.087c-3.975-9.921-11.982-30.287-16.049-46.033
		c-2.581-9.273-8.277-25.377-22.23-31.846c-9.766-4.529-23.561-7.037-36.094-5.169c-16.438,2.549-25.361,18.355-30.803,36.972
		c-9.824,34.734-12.181,107.132,27.581,139.23c29.894,24.132,84.907-7.199,110.386-12.038c6.762-1.252,14.027,2.217,15.56,11.603
		c0.146,6.35-2.742,14.085-9.302,22.212c-15.229,18.864-46.252,26.419-64.912,30.529
		C1355.072,1687.275,1342.854,1697.066,1338.025,1708.986z"/>
	<path clip-path="url(#SVGID_8_)" fill="none" stroke="#FFFFFF" stroke-width="80" stroke-miterlimit="10" d="M1409.738,1468.724
		c12.854,30.989,27.393,62.86,36.984,80.669c22.131,40.875,56.028,42.83,72.071,24.143c19.613-22.516,9.537-62.288,4.166-72.855
		c-4.333-8.292-8.387-13.96-14.201-16.258c-5-2.119-6.998,1.543-4.92,6.095c13.099,28.312,20.351,61.489,9.227,74.081
		c-10.42,11.722-30.992,0.387-44.447-26.293c-15.478-30.709-30.275-69.979-40.584-96.996c4.697-8.193,11.09-17.893,17.113-23.576
		c3.515-4.353,2.421-7.154-2.703-7.934c-5.646-0.724-14.385-0.588-23.232,10.967c-9.469-19.149-19.047-26.881-29.75-30.249
		c-4.655-1.36-7.287,1.307-5.623,6.966c2.402,10.088,9.482,29.227,18.182,51.11c-5.455,8.539-11.435,17.134-18.285,25.026
		c-3.805,4.12-3.179,7.501,3.228,7.879C1392.03,1481.753,1401.771,1478.592,1409.738,1468.724z"/>
	<path clip-path="url(#SVGID_8_)" fill="none" stroke="#FFFFFF" stroke-width="80" stroke-miterlimit="10" d="M1506.454,1465.305
		c-0.983-1.752-2.021-4.028-3.06-6.305c-16.56-35.899-14.529-74.046-4.675-76.158c6.472-1.486,16.41,17.082,21.103,36.21
		C1524.057,1436.372,1526.932,1458.346,1506.454,1465.305z M1510.73,1473.071c32.943-6.961,41.096-32.499,35.162-60.778
		c-4.963-24.139-20.793-40.752-31.976-41.151c-10.134-0.511-18.705,1.199-28.916,4.941c-20.132,7.717-28.937,49.504-6.726,98.593
		c22.212,49.089,68.8,65.605,97.975,28.276c17.752-22.582,22.44-55.708,14.576-82.19c-3.33-11.315-10.753-18.746-14.012-19.459
		c-3.549-0.947-5.424,1.374-4.273,4.699c9.082,27.944,15.197,67.875-5.41,91.027
		C1553.843,1511.709,1529.936,1503.914,1510.73,1473.071z"/>
	<path clip-path="url(#SVGID_8_)" fill="none" stroke="#FFFFFF" stroke-width="80" stroke-miterlimit="10" d="M1581.425,1372.432
		c-0.982-1.752-2.021-4.028-3.06-6.306c-16.561-35.898-14.529-74.045-4.675-76.157c6.473-1.486,16.409,17.082,21.103,36.21
		C1599.028,1343.499,1601.902,1365.473,1581.425,1372.432z M1585.701,1380.198c32.943-6.961,41.096-32.499,35.162-60.778
		c-4.963-24.139-20.793-40.752-31.976-41.151c-10.134-0.511-18.704,1.199-28.915,4.941c-20.132,7.717-28.938,49.504-6.727,98.593
		c22.212,49.089,68.801,65.605,97.975,28.276c17.752-22.582,22.44-55.708,14.576-82.19c-3.329-11.315-10.753-18.746-14.012-19.459
		c-3.549-0.947-5.424,1.374-4.273,4.699c9.082,27.944,15.197,67.875-5.41,91.027
		C1628.813,1418.836,1604.906,1411.041,1585.701,1380.198z"/>
	<path clip-path="url(#SVGID_8_)" fill="none" stroke="#FFFFFF" stroke-width="80" stroke-miterlimit="10" d="M1743.377,1304.232
		c21.348,33.532,37.613,96.518,27.301,96.822C1759.552,1401.18,1733.982,1360.407,1743.377,1304.232z M1735.907,1293.89
		c-9.757,32.87-14.981,68.44,1.31,99.328c10.631,20.086,26.881,20.739,39.348,20.736c14.854,0.007,18.033-7.494,19.525-15.876
		c4.604-26.484-14.856-92.047-45.912-117.116c4.616-16.407,8.104-40.916,1.012-57.666c-4.267-10.155-11.456-17.876-14.715-18.589
		c-3.55-0.948-5.602,2.188-4.217,5.224c10.207,23.579,13.137,46.078,9.325,65.051c-6.452-3.29-13.261-4.951-20.313-3.934
		c-8.102,1.129-15.232,6.4-20.564,13.599c3.329-28.471,2.462-56.495-4.217-74.349c-8.119-21.415-22.174-31.323-37.664-32.323
		c-16.307-1.178-24.842,5.833-33.645,20.299c-9.504,15.337-14.731,38.441-12.784,59.188c1.78,19.173,12.319,33.433,21.739,37.204
		c2.791,1.293,5.301-0.036,4.386-3.651c-9.823-44.841,1.435-100.948,17.628-100.817c16.194,0.129,29.643,41.664,19.459,105.349
		c-2.396,14.844,1.213,28.782,17.207,34.504c3.025,1.003,4.085-1.497,4.273-4.7c1.557-22.712,14.107-41.822,22.611-41.668
		C1725.291,1283.882,1730.749,1287.808,1735.907,1293.89z"/>
</g>
<g>
	<path fill="#007FCC" d="M1365.533,1663.499c18.66-4.112,49.684-11.665,64.912-30.53c6.561-8.127,9.449-15.861,9.303-22.212
		c-1.532-9.386-8.799-12.854-15.561-11.603c-25.479,4.84-80.491,36.17-110.387,12.038c-39.762-32.098-37.404-104.497-27.581-139.231
		c5.441-18.618,14.365-34.422,30.804-36.972c12.533-1.867,26.328,0.64,36.094,5.169c13.953,6.469,19.649,22.572,22.23,31.845
		c4.066,15.747,12.074,36.113,16.05,46.033c1.44,3.561,1.487,6.473-4.284,7.088c-9.965,1.062-21.774-2.718-30.494-19.824
		c-9.012-17.341-15.529-58.554-28.408-57.446c-18.125,1.667-31.354,108.912,3.754,139.651c18.162,16.1,63.533-8.634,88.264-15.516
		c16.74-4.703,28.92,7.525,33.412,32.244c5.969,33.581-29.283,88.533-111.659,89.627c-6.35,0.147-7.444-2.654-6.206-5.969
		C1340.604,1675.973,1352.822,1666.181,1365.533,1663.499z"/>
	<path fill="#007FCC" d="M1384.715,1460.399c-6.405-0.378-7.031-3.759-3.227-7.879c6.85-7.892,12.83-16.487,18.285-25.026
		c-8.7-21.883-15.781-41.022-18.184-51.11c-1.664-5.658,0.969-8.326,5.623-6.966c10.705,3.367,20.283,11.099,29.751,30.248
		c8.848-11.554,17.586-11.689,23.233-10.965c5.123,0.78,6.218,3.581,2.703,7.935c-6.025,5.683-12.417,15.382-17.113,23.576
		c10.308,27.016,25.106,66.286,40.582,96.996c13.457,26.681,34.028,38.015,44.449,26.293c11.123-12.592,3.871-45.771-9.228-74.082
		c-2.077-4.552-0.08-8.213,4.92-6.095c5.816,2.298,9.868,7.966,14.2,16.258c5.371,10.566,15.449,50.34-4.165,72.856
		c-16.044,18.688-49.938,16.732-72.069-24.143c-9.592-17.809-24.131-49.68-36.986-80.669
		C1399.525,1457.494,1389.783,1460.655,1384.715,1460.399z"/>
	<path fill="#007FCC" d="M1565.115,1475.644c20.607-23.153,14.491-63.083,5.41-91.026c-1.15-3.325,0.725-5.647,4.273-4.699
		c3.26,0.713,10.683,8.144,14.012,19.459c7.863,26.482,3.174,59.607-14.576,82.19c-29.175,37.328-75.763,20.812-97.975-28.277
		c-22.211-49.089-13.404-90.876,6.726-98.593c10.211-3.742,18.782-5.452,28.915-4.941c11.184,0.398,27.014,17.012,31.976,41.15
		c5.935,28.28-2.218,53.817-35.161,60.779C1527.919,1482.53,1551.826,1490.324,1565.115,1475.644z M1517.807,1397.667
		c-4.692-19.127-14.63-37.696-21.104-36.21c-9.854,2.112-11.885,40.259,4.676,76.158c1.039,2.277,2.076,4.553,3.059,6.305
		C1524.916,1436.962,1522.041,1414.987,1517.807,1397.667z"/>
	<path fill="#007FCC" d="M1640.088,1382.771c20.605-23.152,14.49-63.083,5.408-91.026c-1.148-3.326,0.726-5.648,4.273-4.7
		c3.26,0.713,10.684,8.145,14.012,19.46c7.864,26.482,3.176,59.607-14.575,82.19c-29.175,37.329-75.763,20.812-97.975-28.276
		s-13.405-90.877,6.726-98.594c10.211-3.742,18.781-5.451,28.916-4.941c11.184,0.398,27.013,17.013,31.975,41.151
		c5.934,28.28-2.218,53.817-35.162,60.778C1602.891,1389.656,1626.799,1397.451,1640.088,1382.771z M1592.779,1304.794
		c-4.693-19.128-14.631-37.696-21.104-36.21c-9.854,2.112-11.887,40.258,4.674,76.158c1.039,2.276,2.077,4.553,3.06,6.305
		C1599.888,1344.088,1597.014,1322.114,1592.779,1304.794z"/>
	<path fill="#007FCC" d="M1717.685,1262.298c-8.505-0.154-21.056,18.956-22.612,41.667c-0.188,3.204-1.248,5.704-4.272,4.701
		c-15.994-5.721-19.603-19.66-17.208-34.504c10.184-63.685-3.265-105.22-19.459-105.351c-16.193-0.129-27.451,55.978-17.629,100.818
		c0.917,3.616-1.594,4.945-4.385,3.65c-9.42-3.77-19.96-18.029-21.739-37.203c-1.947-20.747,3.28-43.85,12.786-59.187
		c8.801-14.467,17.337-21.477,33.643-20.299c15.49,1,29.545,10.907,37.664,32.322c6.68,17.854,7.545,45.878,4.217,74.35
		c5.332-7.2,12.463-12.47,20.564-13.599c7.054-1.018,13.861,0.644,20.313,3.934c3.812-18.974,0.882-41.473-9.325-65.051
		c-1.385-3.035,0.668-6.172,4.217-5.225c3.26,0.714,10.449,8.434,14.715,18.59c7.091,16.75,3.605,41.259-1.011,57.666
		c31.056,25.069,50.515,90.632,45.912,117.117c-1.493,8.382-4.673,15.882-19.526,15.875c-12.467,0.003-28.717-0.65-39.347-20.737
		c-16.292-30.888-11.067-66.458-1.311-99.328C1728.734,1266.424,1723.275,1262.497,1717.685,1262.298z M1768.663,1379.67
		c10.312-0.304-5.954-63.289-27.302-96.821C1731.968,1339.022,1757.537,1379.795,1768.663,1379.67z"/>
</g>
<g>
	<defs>
		<rect id="SVGID_9_" width="3000" height="3000"/>
	</defs>
	<clipPath id="SVGID_10_">
		<use xlink:href="#SVGID_9_"  overflow="visible"/>
	</clipPath>
	<path clip-path="url(#SVGID_10_)" fill="none" stroke="#007FCC" stroke-width="80" stroke-miterlimit="10" d="M1335.775,1687.893
		c-1.238,3.315-0.145,6.117,6.207,5.97c82.375-1.095,117.627-56.046,111.658-89.626c-4.494-24.719-16.674-36.947-33.412-32.244
		c-24.73,6.881-70.101,31.614-88.264,15.514c-35.108-30.738-21.878-137.983-3.754-139.65c12.879-1.109,19.397,40.105,28.408,57.446
		c8.72,17.107,20.53,20.888,30.495,19.824c5.77-0.615,5.725-3.528,4.283-7.087c-3.975-9.921-11.982-30.287-16.049-46.033
		c-2.581-9.273-8.277-25.377-22.23-31.846c-9.766-4.529-23.561-7.037-36.094-5.169c-16.438,2.549-25.361,18.355-30.803,36.972
		c-9.824,34.734-12.181,107.132,27.581,139.23c29.894,24.132,84.907-7.199,110.386-12.038c6.762-1.252,14.027,2.217,15.56,11.603
		c0.146,6.35-2.742,14.085-9.302,22.212c-15.229,18.864-46.252,26.419-64.912,30.529
		C1352.822,1666.182,1340.604,1675.973,1335.775,1687.893z"/>
	<path clip-path="url(#SVGID_10_)" fill="none" stroke="#007FCC" stroke-width="80" stroke-miterlimit="10" d="M1407.488,1447.63
		c12.854,30.989,27.393,62.86,36.984,80.669c22.131,40.875,56.028,42.83,72.071,24.143c19.613-22.516,9.537-62.289,4.166-72.855
		c-4.333-8.292-8.387-13.96-14.201-16.258c-5-2.119-6.999,1.543-4.92,6.095c13.099,28.311,20.351,61.489,9.227,74.081
		c-10.42,11.722-30.992,0.387-44.447-26.293c-15.478-30.709-30.275-69.979-40.584-96.996c4.697-8.193,11.09-17.893,17.113-23.576
		c3.515-4.353,2.421-7.154-2.703-7.934c-5.646-0.724-14.385-0.588-23.232,10.967c-9.469-19.149-19.047-26.881-29.75-30.249
		c-4.655-1.36-7.287,1.307-5.623,6.966c2.402,10.088,9.482,29.227,18.182,51.11c-5.455,8.539-11.435,17.134-18.285,25.026
		c-3.805,4.12-3.179,7.501,3.228,7.879C1389.78,1460.659,1399.521,1457.498,1407.488,1447.63z"/>
	<path clip-path="url(#SVGID_10_)" fill="none" stroke="#007FCC" stroke-width="80" stroke-miterlimit="10" d="M1504.204,1444.211
		c-0.983-1.752-2.021-4.028-3.06-6.305c-16.56-35.899-14.529-74.046-4.675-76.158c6.472-1.486,16.41,17.082,21.103,36.21
		C1521.807,1415.278,1524.682,1437.252,1504.204,1444.211z M1508.48,1451.977c32.943-6.961,41.096-32.499,35.162-60.778
		c-4.963-24.139-20.793-40.752-31.976-41.151c-10.134-0.511-18.705,1.199-28.916,4.941c-20.132,7.717-28.937,49.504-6.726,98.593
		c22.212,49.089,68.8,65.605,97.975,28.276c17.752-22.582,22.44-55.708,14.576-82.19c-3.33-11.315-10.753-18.746-14.012-19.459
		c-3.549-0.947-5.424,1.374-4.273,4.699c9.082,27.944,15.197,67.875-5.41,91.027
		C1551.593,1490.615,1527.686,1482.82,1508.48,1451.977z"/>
	<path clip-path="url(#SVGID_10_)" fill="none" stroke="#007FCC" stroke-width="80" stroke-miterlimit="10" d="M1579.175,1351.338
		c-0.982-1.752-2.021-4.028-3.06-6.306c-16.561-35.898-14.529-74.045-4.675-76.157c6.473-1.486,16.409,17.082,21.103,36.21
		C1596.778,1322.405,1599.652,1344.379,1579.175,1351.338z M1583.451,1359.104c32.943-6.961,41.096-32.499,35.162-60.778
		c-4.963-24.139-20.793-40.752-31.976-41.151c-10.134-0.511-18.704,1.199-28.915,4.941c-20.132,7.717-28.938,49.504-6.727,98.593
		c22.212,49.089,68.801,65.605,97.975,28.276c17.752-22.582,22.44-55.708,14.576-82.19c-3.329-11.315-10.753-18.746-14.012-19.459
		c-3.549-0.947-5.424,1.374-4.273,4.699c9.082,27.944,15.197,67.875-5.41,91.027
		C1626.563,1397.743,1602.656,1389.947,1583.451,1359.104z"/>
	<path clip-path="url(#SVGID_10_)" fill="none" stroke="#007FCC" stroke-width="80" stroke-miterlimit="10" d="M1741.127,1283.139
		c21.348,33.532,37.613,96.518,27.301,96.822C1757.302,1380.086,1731.732,1339.313,1741.127,1283.139z M1733.657,1272.796
		c-9.757,32.87-14.981,68.44,1.31,99.328c10.631,20.086,26.881,20.739,39.348,20.736c14.854,0.007,18.033-7.494,19.525-15.876
		c4.604-26.484-14.856-92.047-45.912-117.116c4.616-16.407,8.104-40.916,1.012-57.666c-4.267-10.155-11.456-17.876-14.715-18.589
		c-3.55-0.948-5.602,2.188-4.217,5.224c10.207,23.579,13.137,46.078,9.325,65.051c-6.452-3.29-13.261-4.951-20.313-3.934
		c-8.102,1.129-15.232,6.4-20.564,13.599c3.329-28.471,2.462-56.495-4.217-74.349c-8.119-21.415-22.174-31.323-37.664-32.323
		c-16.307-1.178-24.842,5.833-33.645,20.299c-9.504,15.337-14.731,38.441-12.784,59.188c1.78,19.173,12.319,33.433,21.739,37.204
		c2.791,1.293,5.301-0.036,4.386-3.651c-9.823-44.841,1.435-100.948,17.628-100.817c16.194,0.129,29.643,41.664,19.459,105.349
		c-2.396,14.844,1.213,28.782,17.207,34.504c3.025,1.003,4.085-1.497,4.273-4.7c1.557-22.712,14.107-41.822,22.611-41.668
		C1723.041,1262.788,1728.499,1266.714,1733.657,1272.796z"/>
</g>
<g>
	<path fill="#FFFFFF" d="M1368.496,1664.605c18.659-4.111,49.683-11.664,64.912-30.529c6.56-8.127,9.449-15.861,9.302-22.213
		c-1.532-9.385-8.798-12.854-15.561-11.602c-25.478,4.839-80.491,36.17-110.386,12.037c-39.762-32.098-37.404-104.496-27.582-139.23
		c5.441-18.617,14.365-34.422,30.805-36.972c12.533-1.867,26.328,0.64,36.094,5.169c13.953,6.469,19.648,22.572,22.229,31.845
		c4.067,15.747,12.073,36.113,16.05,46.033c1.441,3.561,1.487,6.473-4.283,7.088c-9.967,1.063-21.775-2.718-30.496-19.824
		c-9.01-17.341-15.529-58.555-28.408-57.446c-18.124,1.667-31.354,108.913,3.756,139.651c18.162,16.1,63.533-8.634,88.264-15.516
		c16.738-4.703,28.919,7.525,33.411,32.244c5.97,33.58-29.283,88.533-111.659,89.627c-6.35,0.147-7.444-2.654-6.207-5.969
		C1343.566,1677.08,1355.785,1667.288,1368.496,1664.605z"/>
	<path fill="#FFFFFF" d="M1387.678,1461.506c-6.406-0.378-7.032-3.759-3.228-7.878c6.851-7.892,12.83-16.487,18.286-25.026
		c-8.701-21.883-15.782-41.022-18.184-51.11c-1.664-5.658,0.969-8.326,5.623-6.966c10.703,3.367,20.282,11.099,29.751,30.248
		c8.847-11.553,17.585-11.69,23.233-10.966c5.122,0.78,6.217,3.581,2.703,7.935c-6.025,5.682-12.418,15.382-17.114,23.575
		c10.308,27.017,25.106,66.286,40.583,96.997c13.457,26.681,34.028,38.015,44.448,26.293c11.124-12.593,3.872-45.771-9.228-74.082
		c-2.076-4.553-0.08-8.214,4.92-6.095c5.816,2.298,9.869,7.966,14.201,16.258c5.371,10.567,15.449,50.341-4.166,72.856
		c-16.043,18.687-49.938,16.732-72.07-24.143c-9.59-17.81-24.131-49.68-36.984-80.669
		C1402.486,1458.601,1392.745,1461.762,1387.678,1461.506z"/>
	<path fill="#FFFFFF" d="M1568.078,1476.751c20.605-23.153,14.49-63.083,5.41-91.026c-1.15-3.326,0.724-5.648,4.272-4.7
		c3.259,0.713,10.684,8.145,14.012,19.46c7.864,26.482,3.175,59.607-14.575,82.19c-29.175,37.329-75.764,20.813-97.975-28.276
		c-22.212-49.089-13.405-90.876,6.725-98.594c10.211-3.742,18.782-5.451,28.916-4.94c11.184,0.398,27.014,17.012,31.975,41.151
		c5.935,28.28-2.218,53.816-35.16,60.778C1530.881,1483.637,1554.789,1491.431,1568.078,1476.751z M1520.77,1398.774
		c-4.693-19.128-14.631-37.695-21.104-36.21c-9.854,2.112-11.887,40.259,4.675,76.158c1.038,2.276,2.077,4.553,3.06,6.305
		C1527.879,1438.069,1525.004,1416.095,1520.77,1398.774z"/>
	<path fill="#FFFFFF" d="M1643.049,1383.878c20.607-23.153,14.491-63.083,5.41-91.026c-1.15-3.325,0.725-5.647,4.273-4.7
		c3.26,0.714,10.684,8.145,14.012,19.46c7.863,26.482,3.174,59.607-14.576,82.19c-29.174,37.329-75.763,20.813-97.975-28.276
		c-22.211-49.089-13.404-90.876,6.727-98.594c10.21-3.742,18.781-5.451,28.915-4.94c11.184,0.398,27.014,17.012,31.975,41.15
		c5.935,28.28-2.218,53.817-35.161,60.778C1605.854,1390.763,1629.762,1398.558,1643.049,1383.878z M1595.74,1305.901
		c-4.692-19.127-14.63-37.695-21.103-36.21c-9.854,2.112-11.886,40.259,4.675,76.158c1.039,2.277,2.076,4.553,3.06,6.305
		C1602.85,1345.196,1599.975,1323.222,1595.74,1305.901z"/>
	<path fill="#FFFFFF" d="M1720.646,1263.405c-8.505-0.154-21.055,18.957-22.611,41.668c-0.189,3.203-1.248,5.704-4.273,4.7
		c-15.994-5.721-19.603-19.66-17.207-34.503c10.184-63.685-3.266-105.22-19.459-105.35c-16.193-0.129-27.451,55.978-17.629,100.817
		c0.916,3.616-1.595,4.945-4.385,3.651c-9.421-3.77-19.961-18.03-21.74-37.204c-1.947-20.747,3.281-43.85,12.786-59.187
		c8.802-14.466,17.337-21.477,33.643-20.299c15.491,1,29.545,10.907,37.665,32.322c6.679,17.855,7.545,45.878,4.215,74.35
		c5.333-7.2,12.463-12.469,20.565-13.599c7.054-1.018,13.862,0.644,20.313,3.934c3.812-18.974,0.881-41.473-9.326-65.052
		c-1.385-3.036,0.67-6.172,4.219-5.225c3.259,0.714,10.447,8.434,14.714,18.59c7.091,16.75,3.605,41.26-1.011,57.667
		c31.055,25.069,50.515,90.632,45.912,117.116c-1.492,8.382-4.672,15.883-19.525,15.876c-12.467,0.003-28.717-0.65-39.348-20.737
		c-16.291-30.887-11.066-66.457-1.311-99.328C1731.696,1267.531,1726.238,1263.604,1720.646,1263.405z M1771.625,1380.777
		c10.312-0.304-5.954-63.289-27.302-96.82C1734.93,1340.129,1760.498,1380.903,1771.625,1380.777z"/>
</g>
</svg>
