<?xml version="1.0" encoding="utf-8"?>
<!-- Generator: Adobe Illustrator 19.2.0, SVG Export Plug-In . SVG Version: 6.00 Build 0)  -->
<svg version="1.1" id="Layer_1" xmlns="http://www.w3.org/2000/svg" xmlns:xlink="http://www.w3.org/1999/xlink" x="0px" y="0px"
	 viewBox="0 0 417.3 417.3" enable-background="new 0 0 417.3 417.3" xml:space="preserve">
<rect y="-149.6" display="none" opacity="0.52" fill="#BB916B" width="1190.6" height="841.9"/>
<g>
	<path fill="#231F20" d="M271,31.8c17.2,0,31.1,14,31.1,31.1S288.2,94,271,94s-31.1-14-31.1-31.1S253.9,31.8,271,31.8 M271,29.7
		c-18.3,0-33.2,14.9-33.2,33.2s14.9,33.2,33.2,33.2s33.2-14.9,33.2-33.2S289.4,29.7,271,29.7L271,29.7z"/>
</g>
<g>
	
		<rect x="239.5" y="61.9" transform="matrix(0.7071 -0.7071 0.7071 0.7071 34.9011 210.0843)" fill="#231F20" width="63.1" height="2.1"/>
</g>
<g>
	<polygon fill="#231F20" points="263.6,45.6 257.1,48 257.6,49.5 263.1,50.4 274.8,81.6 278.4,85.4 278.8,80.1 267.1,48.9 
		270.7,44.7 270.2,43.2 	"/>
</g>
<g>
	<path fill="#231F20" d="M158.1,31.8c17.2,0,31.1,14,31.1,31.1S175.2,94,158.1,94S127,80.1,127,62.9S140.9,31.8,158.1,31.8
		 M158.1,29.8c-18.3,0-33.2,14.9-33.2,33.2s14.9,33.2,33.2,33.2s33.2-14.9,33.2-33.2S176.4,29.8,158.1,29.8L158.1,29.8z"/>
</g>
<g>
	<path fill="#231F20" d="M139.3,75.4v-2.1h5.9V52.8l-5.9,2.5v-2.1l5.9-2.5h2.2v22.6h5.9v2.1H139.3z"/>
	<path fill="#231F20" d="M168.4,72c-0.3,0.7-0.7,1.4-1.3,1.9c-0.6,0.6-1.2,1-1.9,1.3s-1.5,0.5-2.4,0.5h-1c-0.8,0-1.6-0.2-2.4-0.5
		s-1.4-0.7-1.9-1.3c-0.6-0.6-1-1.2-1.3-1.9c-0.3-0.7-0.5-1.5-0.5-2.4V69l2.2-0.3v1c0,0.6,0.1,1.1,0.3,1.5s0.5,0.9,0.9,1.3
		s0.8,0.6,1.3,0.9s1,0.3,1.5,0.3h0.8c0.6,0,1.1-0.1,1.5-0.3c0.5-0.2,0.9-0.5,1.2-0.9c0.4-0.4,0.6-0.8,0.8-1.3s0.3-1,0.3-1.5v-2
		c0-0.6-0.1-1.1-0.3-1.5c-0.2-0.5-0.5-0.9-0.8-1.2c-0.4-0.4-0.8-0.6-1.2-0.8c-0.5-0.2-1-0.3-1.5-0.3h-1.7v-2.1h1.7
		c0.6,0,1.1-0.1,1.5-0.3c0.5-0.2,0.9-0.5,1.2-0.8c0.4-0.4,0.6-0.8,0.8-1.2c0.2-0.5,0.3-1,0.3-1.5v-1.2c0-0.6-0.1-1.1-0.3-1.5
		c-0.2-0.5-0.5-0.9-0.8-1.2c-0.4-0.4-0.8-0.6-1.2-0.8c-0.5-0.2-1-0.3-1.5-0.3h-0.8c-0.6,0-1.1,0.1-1.5,0.3c-0.5,0.2-0.9,0.5-1.3,0.8
		s-0.6,0.8-0.9,1.2c-0.2,0.5-0.3,1-0.3,1.5v1l-2.2-0.4v-0.6c0-0.8,0.2-1.6,0.5-2.4c0.3-0.7,0.7-1.4,1.3-1.9c0.6-0.6,1.2-1,1.9-1.3
		c0.7-0.3,1.5-0.5,2.4-0.5h1c0.8,0,1.6,0.2,2.4,0.5c0.7,0.3,1.4,0.7,1.9,1.3c0.6,0.6,1,1.2,1.3,1.9c0.3,0.7,0.5,1.5,0.5,2.4v0.8
		c0,0.6-0.1,1.1-0.2,1.7s-0.4,1-0.7,1.5c-0.3,0.5-0.6,0.9-1,1.2c-0.4,0.4-0.8,0.7-1.3,1c0.5,0.3,0.9,0.6,1.3,0.9
		c0.4,0.4,0.7,0.8,1,1.2c0.3,0.5,0.5,1,0.7,1.5c0.2,0.5,0.2,1.1,0.2,1.7v1.7C168.9,70.5,168.7,71.3,168.4,72z"/>
	<path fill="#231F20" d="M174,58.3h-0.9v-7.6h2.6L174,58.3z M178.2,58.3h-0.9v-7.6h2.6L178.2,58.3z"/>
</g>
<g>
	<path fill="#231F20" d="M45.1,31.8c17.2,0,31.1,14,31.1,31.1s-14,31.1-31.1,31.1S14,80.1,14,62.9S27.9,31.8,45.1,31.8 M45.1,29.8
		c-18.3,0-33.2,14.9-33.2,33.2s14.9,33.2,33.2,33.2s33.2-14.9,33.2-33.2S63.4,29.8,45.1,29.8L45.1,29.8z"/>
</g>
<g>
	<path fill="#231F20" d="M44.2,80.6H27.5V63.8h16.8V80.6z M29.5,78.5h12.6V65.9H29.5V78.5z"/>
</g>
<g>
	<path fill="#231F20" d="M44.2,65.9H27.5V49.1h16.8V65.9z M29.5,63.8h12.6V51.2H29.5V63.8z"/>
</g>
<g>
	<path fill="#231F20" d="M58.9,80.6H42.1V63.8h16.8V80.6z M44.2,78.5h12.6V65.9H44.2V78.5z"/>
</g>
<g>
	<path fill="#231F20" d="M47,44.3V61h16.8V44.3H47z M60.1,53.7h-3.7v3.7h-2.1v-3.7h-3.7v-2.1h3.7v-3.7h2.1v3.7h3.7V53.7z"/>
</g>
<rect x="182.9" y="200.7" width="0.5" height="4.1"/>
<rect x="136.9" y="141.9" transform="matrix(0.8659 -0.5003 0.5003 0.8659 -52.0957 90.507)" width="11.7" height="1"/>
<rect x="150.8" y="223.7" width="1" height="4.6"/>
<rect x="221.7" y="261.9" transform="matrix(0.8665 -0.4992 0.4992 0.8665 -100.4777 148.687)" width="12.1" height="0.5"/>
<rect x="220.6" y="262.5" transform="matrix(0.5 -0.866 0.866 0.5 -118.4563 323.4671)" width="0.5" height="3.6"/>
<rect x="183.1" y="204.7" transform="matrix(0.5002 -0.8659 0.8659 0.5002 -85.8547 261.1863)" width="0.5" height="0.5"/>
<rect x="222.2" y="265.2" width="0.5" height="3.6"/>
<rect x="218.8" y="263.4" width="1" height="1.2"/>
<rect x="218.5" y="263.7" transform="matrix(0.4999 -0.8661 0.8661 0.4999 -119.5046 321.6674)" width="0.5" height="1.2"/>
<rect x="218" y="262.3" width="0.5" height="1.7"/>
<rect x="291.9" y="221.2" transform="matrix(0.4999 -0.8661 0.8661 0.4999 -46.899 364.7982)" width="1" height="3.6"/>
<rect x="147.1" y="221.4" width="0.5" height="4.6"/>
<rect x="293.5" y="223.9" width="1" height="3.6"/>
<rect x="289.3" y="221" width="1" height="1.7"/>
<rect x="280.1" y="224.8" transform="matrix(0.8659 -0.5003 0.5003 0.8659 -74.4554 172.957)" width="10.4" height="1"/>
<rect x="228.5" y="256.2" width="0.5" height="1.7"/>
<rect x="149.2" y="138.4" transform="matrix(0.5 -0.866 0.866 0.5 -46.9079 199.9086)" width="1" height="4.4"/>
<rect x="217.5" y="259" transform="matrix(0.8665 -0.4992 0.4992 0.8665 -99.584 146.1968)" width="12.1" height="0.5"/>
<rect x="278.5" y="223.8" transform="matrix(0.8665 -0.4992 0.4992 0.8665 -73.8491 171.9562)" width="12.1" height="0.5"/>
<rect x="220.4" y="101.6" transform="matrix(0.5 -0.866 0.866 0.5 -46.4874 281.916)" width="1" height="159.2"/>
<rect x="117.3" y="169.8" transform="matrix(0.5 -0.866 0.866 0.5 -118.0355 203.9273)" width="0.5" height="68.7"/>
<rect x="218.2" y="266.3" transform="matrix(0.8659 -0.5003 0.5003 0.8659 -104.1753 145.0966)" width="0.5" height="1"/>
<rect x="184.3" y="209" transform="matrix(0.5 -0.866 0.866 0.5 -122.0338 283.8589)" width="1" height="77.3"/>
<rect x="117.1" y="174.4" transform="matrix(0.5 -0.866 0.866 0.5 -122.0336 206.2356)" width="1" height="68.7"/>
<rect x="218" y="266.4" width="0.5" height="0.5"/>
<rect x="182.9" y="204.8" width="0.5" height="0.5"/>
<rect x="231.2" y="256.4" transform="matrix(0.4999 -0.8661 0.8661 0.4999 -107.9298 329.5645)" width="0.5" height="3.6"/>
<rect x="282.7" y="226.7" transform="matrix(0.8665 -0.4992 0.4992 0.8665 -74.7429 174.4464)" width="12.1" height="0.5"/>
<rect x="229.1" y="243.8" transform="matrix(0.8665 -0.4992 0.4992 0.8665 -87.3678 161.5019)" width="58.3" height="0.5"/>
<rect x="229.1" y="255.9" transform="matrix(0.4999 -0.8661 0.8661 0.4999 -107.5089 326.8912)" width="0.5" height="1.2"/>
<rect x="231.2" y="255.9" transform="matrix(0.5001 -0.8659 0.8659 0.5001 -107.5254 329.2428)" width="0.5" height="3.6"/>
<rect x="283" y="229.5" width="1" height="0.5"/>
<rect x="232.7" y="258.7" width="0.5" height="0.5"/>
<rect x="229.6" y="256.8" width="0.5" height="0.5"/>
<rect x="88.6" y="173" transform="matrix(0.5 -0.866 0.866 0.5 -107.5137 164.6767)" width="0.5" height="4.9"/>
<rect x="88.4" y="173.6" transform="matrix(0.5001 -0.866 0.866 0.5001 -107.9329 164.6453)" width="0.5" height="4.4"/>
<rect x="86.2" y="174.2" width="1" height="0.5"/>
<rect x="82.8" y="159.1" transform="matrix(0.8659 -0.5003 0.5003 0.8659 -64.8484 77.4506)" width="58.3" height="1"/>
<rect x="282.7" y="230.1" transform="matrix(0.8659 -0.5003 0.5003 0.8659 -76.6337 175.4032)" width="12.1" height="1"/>
<rect x="229.1" y="248.2" transform="matrix(0.8659 -0.5003 0.5003 0.8659 -89.7834 162.566)" width="58.3" height="1"/>
<rect x="232.3" y="262.9" transform="matrix(0.5002 -0.8659 0.8659 0.5002 -111.5315 333.0899)" width="1" height="0.5"/>
<rect x="283" y="233.6" width="1" height="0.5"/>
<rect x="232.7" y="262.8" width="0.5" height="0.5"/>
<rect x="184.9" y="199.6" transform="matrix(0.5 -0.866 0.866 0.5 -82.2596 261.2705)" width="0.5" height="4.6"/>
<rect x="144.6" y="210.8" transform="matrix(0.8665 -0.4992 0.4992 0.8665 -83.2888 110.6603)" width="41.3" height="0.5"/>
<rect x="184.6" y="204.4" transform="matrix(0.5 -0.866 0.866 0.5 -118.0352 281.5521)" width="0.5" height="77.3"/>
<rect x="12.2" y="381.5" width="1" height="4.9"/>
<rect x="15" y="216" transform="matrix(0.8665 -0.4992 0.4992 0.8665 -105.1317 39.411)" width="12.1" height="0.5"/>
<rect x="85.3" y="261.5" transform="matrix(0.5 -0.866 0.866 0.5 -185.5637 206.2351)" width="1" height="4.6"/>
<rect x="76.5" y="349.3" transform="matrix(0.8661 -0.4999 0.4999 0.8661 -163.8219 88.0051)" width="11.7" height="1"/>
<rect x="86.9" y="343.2" width="1" height="3.6"/>
<rect x="86.6" y="342.7" transform="matrix(0.4997 -0.8662 0.8662 0.4997 -253.563 247.0393)" width="1" height="0.7"/>
<rect x="15.6" y="384.5" width="0.5" height="3.6"/>
<rect x="13.8" y="385.4" transform="matrix(0.4999 -0.8661 0.8661 0.4999 -328.2509 206.0167)" width="1" height="3.6"/>
<rect x="85.3" y="175.3" transform="matrix(0.5 -0.866 0.866 0.5 -110.438 162.8536)" width="1" height="3.6"/>
<rect x="14" y="216.6" transform="matrix(0.4999 -0.8661 0.8661 0.4999 -181.9931 121.5683)" width="0.5" height="3.6"/>
<rect x="14.5" y="382.7" width="0.5" height="1.2"/>
<rect x="15.1" y="383.6" transform="matrix(0.4999 -0.8661 0.8661 0.4999 -325.0944 205.4092)" width="0.5" height="1.2"/>
<rect x="76.5" y="345.9" transform="matrix(0.8665 -0.4992 0.4992 0.8665 -161.7888 87.3178)" width="11.7" height="0.5"/>
<rect x="12.2" y="217.5" width="1" height="3.6"/>
<rect x="13.2" y="221.7" width="1" height="1.2"/>
<rect x="12.8" y="221.7" transform="matrix(0.4998 -0.8661 0.8661 0.4998 -186.2168 122.57)" width="0.5" height="1.7"/>
<rect x="25.8" y="377.9" transform="matrix(0.4997 -0.8662 0.8662 0.4997 -314.6103 211.8056)" width="0.5" height="0.7"/>
<rect x="15" y="381.2" transform="matrix(0.8665 -0.4992 0.4992 0.8665 -187.6124 61.4697)" width="12.1" height="0.5"/>
<rect x="14.7" y="383.4" transform="matrix(0.8665 -0.4992 0.4992 0.8665 -189.4464 58.8649)" width="1.2" height="0.5"/>
<rect x="15" y="220.9" transform="matrix(0.8665 -0.4992 0.4992 0.8665 -107.5577 40.0598)" width="12.1" height="0.5"/>
<rect x="15.6" y="219.3" width="0.5" height="4.9"/>
<rect x="16" y="224.4" width="0.5" height="159.2"/>
<rect x="15.5" y="221.1" transform="matrix(0.8665 -0.4992 0.4992 0.8665 -107.6226 40.3023)" width="12.1" height="0.5"/>
<rect x="15.8" y="224" transform="matrix(0.4995 -0.8663 0.8663 0.4995 -186.253 126.1696)" width="0.5" height="0.5"/>
<rect x="87.1" y="182.7" transform="matrix(0.5002 -0.8659 0.8659 0.5002 -114.6428 167.3017)" width="1" height="0.5"/>
<rect x="12.2" y="221.3" transform="matrix(0.8659 -0.5003 0.5003 0.8659 -109.2399 36.1566)" width="1.2" height="1"/>
<rect x="11.8" y="222.1" width="1" height="159.2"/>
<rect x="12" y="381.1" transform="matrix(0.5002 -0.8659 0.8659 0.5002 -323.9799 201.404)" width="1" height="0.5"/>
<rect x="26.1" y="378.5" width="0.5" height="3.6"/>
<rect x="15" y="384.6" transform="matrix(0.8661 -0.4999 0.4999 0.8661 -189.6954 62.1282)" width="12.1" height="1"/>
<rect x="22.9" y="367.2" transform="matrix(0.8661 -0.4999 0.4999 0.8661 -176.8684 75.2651)" width="58.3" height="1"/>
<rect x="26.5" y="378.7" width="0.5" height="3.6"/>
<rect x="26.5" y="377.5" width="0.5" height="1.2"/>
<rect x="26.1" y="382" transform="matrix(0.5002 -0.8659 0.8659 0.5002 -317.6703 214.0372)" width="1" height="0.5"/>
<polygon points="26.7,378.9 26.2,378.7 26.5,378.2 26.9,378.5 "/>
<rect x="18.9" y="196.1" transform="matrix(0.8659 -0.5003 0.5003 0.8659 -91.8991 50.4091)" width="58.3" height="1"/>
<rect x="22.3" y="211.2" width="1" height="0.5"/>
<rect x="22.8" y="211" transform="matrix(0.4995 -0.8663 0.8663 0.4995 -171.5151 125.679)" width="0.5" height="0.5"/>
<rect x="73" y="181.9" transform="matrix(0.4995 -0.8663 0.8663 0.4995 -120.9765 154.8378)" width="1" height="0.5"/>
<rect x="76.6" y="183.9" transform="matrix(0.4995 -0.8663 0.8663 0.4995 -120.9754 158.9705)" width="1" height="0.5"/>
<rect x="26.3" y="213.1" transform="matrix(0.4995 -0.8663 0.8663 0.4995 -171.5141 129.8118)" width="0.5" height="0.5"/>
<rect x="22.9" y="198.6" transform="matrix(0.8665 -0.4992 0.4992 0.8665 -92.3293 52.5331)" width="58.3" height="0.5"/>
<rect x="26.3" y="218" transform="matrix(0.4995 -0.8663 0.8663 0.4995 -175.7243 132.2442)" width="0.5" height="0.5"/>
<rect x="26.5" y="213.5" width="0.5" height="4.9"/>
<rect x="26.1" y="213.2" width="0.5" height="4.9"/>
<rect x="76.1" y="180.8" transform="matrix(0.8665 -0.4992 0.4992 0.8665 -79.3969 65.1702)" width="12.1" height="0.5"/>
<rect x="22.5" y="198.4" transform="matrix(0.8665 -0.4992 0.4992 0.8665 -92.2643 52.2906)" width="58.3" height="0.5"/>
<rect x="76.5" y="185.5" transform="matrix(0.8663 -0.4996 0.4996 0.8663 -81.7903 65.985)" width="11.7" height="0.5"/>
<rect x="76.5" y="185.9" transform="matrix(0.8665 -0.4992 0.4992 0.8665 -81.8878 66.0615)" width="12.1" height="0.5"/>
<rect x="49.3" y="275" transform="matrix(0.8665 -0.4992 0.4992 0.8665 -128.0889 71.6642)" width="41.3" height="0.5"/>
<rect x="51.5" y="281" width="1" height="4.6"/>
<rect x="87.3" y="265" width="1" height="77.3"/>
<rect x="221.7" y="265.4" transform="matrix(0.8659 -0.5003 0.5003 0.8659 -102.536 149.5094)" width="11.7" height="1"/>
<rect x="232.5" y="262.4" transform="matrix(0.8663 -0.4996 0.4996 0.8663 -100.2198 151.4622)" width="0.5" height="1"/>
<rect x="218.6" y="260.2" transform="matrix(0.8659 -0.5003 0.5003 0.8659 -100.3578 147.0634)" width="10.9" height="1"/>
<rect x="228.7" y="257.1" transform="matrix(0.8659 -0.5003 0.5003 0.8659 -98.1325 149.2878)" width="1.2" height="1"/>
<rect x="289.7" y="221.9" transform="matrix(0.8659 -0.5003 0.5003 0.8659 -72.3191 175.0926)" width="1.2" height="1"/>
<rect x="218.2" y="263.5" transform="matrix(0.8665 -0.4992 0.4992 0.8665 -102.4298 144.4255)" width="1.2" height="0.5"/>
<rect x="151.5" y="141" transform="matrix(0.8659 -0.5003 0.5003 0.8659 -50.4565 94.92)" width="0.5" height="1"/>
<rect x="140.7" y="144.1" transform="matrix(0.8659 -0.5003 0.5003 0.8659 -52.6818 92.6954)" width="11.7" height="1"/>
<rect x="218" y="266.3" transform="matrix(0.5002 -0.8659 0.8659 0.5002 -121.6284 322.3996)" width="1" height="0.5"/>
<rect x="220.1" y="265.6" transform="matrix(0.5 -0.866 0.866 0.5 -121.6156 324.909)" width="1" height="4.4"/>
<rect x="148.9" y="214" transform="matrix(0.8659 -0.5003 0.5003 0.8659 -84.8818 112.4448)" width="36.7" height="1"/>
<rect x="147" y="224.3" transform="matrix(0.8659 -0.5003 0.5003 0.8659 -92.4479 104.8813)" width="4.6" height="1"/>
<rect x="281.6" y="227.1" transform="matrix(0.5 -0.866 0.866 0.5 -57.0111 358.696)" width="1" height="3.2"/>
<rect x="139.1" y="144.2" transform="matrix(0.5 -0.866 0.866 0.5 -57.0113 194.0659)" width="1" height="4.4"/>
<rect x="136.9" y="145" transform="matrix(0.4995 -0.8663 0.8663 0.4995 -56.9817 191.7599)" width="1" height="0.5"/>
<rect x="84.1" y="174.9" transform="matrix(0.8659 -0.5003 0.5003 0.8659 -76.3025 66.3085)" width="2.9" height="1"/>
<rect x="90.5" y="176.3" transform="matrix(0.8659 -0.5003 0.5003 0.8659 -76.2698 69.1152)" width="0.5" height="1"/>
<rect x="87.2" y="177.3" transform="matrix(0.8659 -0.5003 0.5003 0.8659 -77.0219 68.3634)" width="3.6" height="1"/>
<rect x="183.3" y="203.5" transform="matrix(0.8659 -0.5003 0.5003 0.8659 -77.227 120.0973)" width="4.1" height="1"/>
<rect x="11.9" y="214" transform="matrix(0.8659 -0.5003 0.5003 0.8659 -104.9599 37.6609)" width="11.7" height="1"/>
<rect x="22.8" y="211" transform="matrix(0.8659 -0.5003 0.5003 0.8659 -102.7344 39.8855)" width="0.5" height="1"/>
<rect x="15.5" y="383.2" transform="matrix(0.5002 -0.8659 0.8659 0.5002 -323.9804 205.534)" width="1" height="0.5"/>
<rect x="14.8" y="382.4" transform="matrix(0.4999 -0.8661 0.8661 0.4999 -324.0422 204.8017)" width="1" height="1.2"/>
<rect x="12.5" y="220.9" transform="matrix(0.5002 -0.8659 0.8659 0.5002 -185.1152 121.8638)" width="1" height="0.7"/>
<rect x="13" y="221.4" transform="matrix(0.4995 -0.8663 0.8663 0.4995 -185.2014 122.6441)" width="1" height="0.5"/>
<rect x="86.9" y="178" width="1" height="0.7"/>
<rect x="86.9" y="178.7" width="1" height="4.1"/>
<rect x="86.7" y="342" transform="matrix(0.8661 -0.4999 0.4999 0.8661 -159.546 89.5092)" width="1.2" height="1"/>
<rect x="76.6" y="345.1" transform="matrix(0.8661 -0.4999 0.4999 0.8661 -161.7688 87.286)" width="10.9" height="1"/>
<rect x="25.7" y="377.3" transform="matrix(0.8661 -0.4999 0.4999 0.8661 -185.3306 63.721)" width="1.2" height="1"/>
<rect x="15.5" y="380.3" transform="matrix(0.8659 -0.5003 0.5003 0.8659 -187.704 61.5963)" width="10.9" height="1"/>
<rect x="87.3" y="183.1" width="1" height="3.9"/>
<rect x="76.8" y="348.3" width="1" height="0.7"/>
<rect x="76.8" y="352.7" width="1" height="0.5"/>
<rect x="76.8" y="184.3" width="1" height="4.4"/>
<rect x="76.8" y="188.7" width="1" height="0.5"/>
<rect x="49.6" y="271.3" transform="matrix(0.8661 -0.4999 0.4999 0.8661 -126.7916 70.3627)" width="36.7" height="1"/>
<rect x="83.5" y="261" transform="matrix(0.8659 -0.5003 0.5003 0.8659 -119.3204 78.0178)" width="4.6" height="1"/>
<rect x="183.1" y="204.7" transform="matrix(0.8663 -0.4996 0.4996 0.8663 -78.0023 119.0387)" width="0.5" height="1"/>
<rect x="87.3" y="187" width="1" height="4.6"/>
<rect x="87.3" y="191.6" width="1" height="68.7"/>
<rect x="279.5" y="226.7" transform="matrix(0.5002 -0.8659 0.8659 0.5002 -57.0319 356.2113)" width="1" height="1.7"/>
<rect x="72.9" y="178.7" transform="matrix(0.8659 -0.5003 0.5003 0.8659 -79.0574 63.5545)" width="12.1" height="1"/>
<rect x="76.8" y="349.1" width="1" height="3.6"/>
<g>
	<path d="M105,253.1l-0.5-0.9l3.6-2.1l0.5,0.9L105,253.1z M112.2,249l-0.5-0.9l3.6-2.1l0.5,0.9L112.2,249z M119.3,244.8l-0.5-0.9
		l3.6-2.1l0.5,0.9L119.3,244.8z M126.5,240.7l-0.5-0.9l3.6-2.1l0.5,0.9L126.5,240.7z M133.7,236.5l-0.5-0.9l3.6-2.1l0.5,0.9
		L133.7,236.5z M140.9,232.4l-0.5-0.9l3.6-2.1l0.5,0.9L140.9,232.4z"/>
</g>
<g>
	<g>
		<polygon points="101.3,252.1 99.1,255.9 103.5,255.9 		"/>
	</g>
</g>
<g>
	<rect x="401.2" y="218.3" transform="matrix(0.4999 -0.8661 0.8661 0.4999 9.6668 458.3608)" width="1" height="4.9"/>
</g>
<g>
	<rect x="403.4" y="222" width="1" height="3.5"/>
</g>
<g>
	<rect x="400.3" y="227.3" width="1" height="3.5"/>
</g>
<g>
	<rect x="410.1" y="225.2" transform="matrix(0.5 -0.866 0.866 0.5 9.6542 468.5691)" width="1" height="1.4"/>
</g>
<g>
	<rect x="410.7" y="226.3" width="1" height="41.6"/>
</g>
<g>
	<rect x="378.3" y="234.8" transform="matrix(0.8665 -0.4992 0.4992 0.8665 -64.4959 229.0314)" width="35.3" height="0.5"/>
</g>
<g>
	<rect x="380.4" y="243.9" width="0.5" height="41.6"/>
</g>
<g>
	<rect x="379.8" y="242.9" transform="matrix(0.5 -0.866 0.866 0.5 -20.8944 450.9327)" width="0.5" height="1.4"/>
</g>
<g>
	<rect x="369.6" y="249.1" transform="matrix(0.8665 -0.4992 0.4992 0.8665 -74.4409 220.4169)" width="10.6" height="0.5"/>
</g>
<g>
	<rect x="374.6" y="249.4" transform="matrix(0.5 -0.866 0.866 0.5 -33.1225 451.9732)" width="0.5" height="10.6"/>
</g>
<g>
	<rect x="370" y="241.4" width="0.5" height="10.6"/>
</g>
<g>
	<rect x="371.3" y="240.6" transform="matrix(0.5 -0.866 0.866 0.5 -23.9582 443.155)" width="1" height="3.5"/>
</g>
<g>
	<rect x="371" y="230.6" transform="matrix(0.8665 -0.4992 0.4992 0.8665 -63.3617 224.8065)" width="35.3" height="0.5"/>
</g>
<g>
	<rect x="373.1" y="239.7" width="0.5" height="3.5"/>
</g>
<g>
	<rect x="366.7" y="227.9" transform="matrix(0.8659 -0.5003 0.5003 0.8659 -62.7076 222.9172)" width="35.3" height="1"/>
</g>
<g>
	<rect x="370.9" y="236" transform="matrix(0.5 -0.866 0.866 0.5 -20.9009 440.6907)" width="0.5" height="4.9"/>
</g>
<g>
	<rect x="368.5" y="237.2" width="1" height="14.1"/>
</g>
<g>
	<rect x="355.9" y="240.2" transform="matrix(0.8659 -0.5003 0.5003 0.8659 -71.7523 213.8755)" width="14.1" height="1"/>
</g>
<g>
	<rect x="362.7" y="240.7" transform="matrix(0.5 -0.866 0.866 0.5 -33.1223 438.2166)" width="0.5" height="14.1"/>
</g>
<g>
	<rect x="356.3" y="244.3" width="1" height="1.4"/>
</g>
<g>
	<rect x="368.5" y="252.7" width="1" height="10.6"/>
</g>
<g>
	<rect x="359.2" y="255.1" transform="matrix(0.8665 -0.4992 0.4992 0.8665 -78.8208 216.0328)" width="10.6" height="0.5"/>
</g>
<g>
	<rect x="364.2" y="255.4" transform="matrix(0.5 -0.866 0.866 0.5 -43.501 445.9929)" width="0.5" height="10.6"/>
</g>
<g>
	<rect x="359.4" y="252.5" transform="matrix(0.8665 -0.4992 0.4992 0.8665 -77.7041 214.9172)" width="7.1" height="0.5"/>
</g>
<g>
	<rect x="359.6" y="254.5" width="0.5" height="3.5"/>
</g>
<g>
	<rect x="356.4" y="250.4" transform="matrix(0.8659 -0.5003 0.5003 0.8659 -77.2798 213.7194)" width="7.1" height="1"/>
</g>
<g>
	<rect x="358.1" y="251.9" transform="matrix(0.5 -0.866 0.866 0.5 -40.4538 437.1586)" width="0.5" height="3.5"/>
</g>
<g>
	<rect x="356.3" y="252.7" width="1" height="4.9"/>
</g>
<g>
	<rect x="362.4" y="254.1" transform="matrix(0.5 -0.866 0.866 0.5 -44.7302 444.9184)" width="1" height="14.1"/>
</g>
<g>
	<rect x="368.5" y="264.7" width="1" height="14.1"/>
</g>
<g>
	<rect x="369.6" y="276.4" transform="matrix(0.8661 -0.4999 0.4999 0.8661 -88.2178 224.4676)" width="10.6" height="1"/>
</g>
<g>
	<rect x="369.2" y="278.5" transform="matrix(0.5002 -0.8659 0.8659 0.5002 -56.9953 459.6238)" width="1" height="1.4"/>
</g>
<g>
	<rect x="370" y="265.4" width="0.5" height="14.1"/>
</g>
<g>
	<rect x="374.3" y="262.8" transform="matrix(0.5 -0.866 0.866 0.5 -44.7304 458.6749)" width="1" height="10.6"/>
</g>
<g>
	<rect x="376.2" y="278.1" transform="matrix(0.8661 -0.4999 0.4999 0.8661 -88.6904 226.2308)" width="3.5" height="1"/>
</g>
<g>
	<rect x="377.7" y="278.7" transform="matrix(0.5 -0.866 0.866 0.5 -53.8947 467.4931)" width="0.5" height="3.5"/>
</g>
<g>
	<rect x="375.9" y="279.5" width="1" height="3.5"/>
</g>
<g>
	<rect x="378.3" y="276.2" transform="matrix(0.8661 -0.4999 0.4999 0.8661 -85.3071 234.9805)" width="35.3" height="1"/>
</g>
<g>
	<rect x="378" y="281.8" transform="matrix(0.4999 -0.8661 0.8661 0.4999 -56.931 470.0049)" width="1" height="4.9"/>
</g>
<g>
	<rect x="376.8" y="260.2" transform="matrix(0.9026 -0.4304 0.4304 0.9026 -75.481 187.7868)" width="1" height="1.1"/>
</g>
<g>
	<rect x="377.2" y="261.2" transform="matrix(0.9596 -0.2815 0.2815 0.9596 -58.411 116.9214)" width="1" height="1.1"/>
</g>
<g>
	<rect x="377.4" y="262.3" transform="matrix(0.9947 -0.1025 0.1025 0.9947 -24.9463 40.1295)" width="1" height="1"/>
</g>
<g>
	<rect x="377.5" y="263.1" transform="matrix(0.1262 -0.992 0.992 0.1262 68.6557 605.2578)" width="0.9" height="1"/>
</g>
<g>
	<rect x="377.3" y="263.9" transform="matrix(0.4183 -0.9083 0.9083 0.4183 -20.4739 496.861)" width="0.7" height="1"/>
</g>
<g>
	<rect x="377" y="264.5" transform="matrix(0.7389 -0.6738 0.6738 0.7389 -80.0279 323.4342)" width="0.7" height="1"/>
</g>
<g>
	<rect x="376.4" y="265" transform="matrix(0.958 -0.2867 0.2867 0.958 -60.2371 119.1278)" width="0.7" height="0.5"/>
</g>
<g>
	<rect x="375.8" y="265" transform="matrix(0.1059 -0.9944 0.9944 0.1059 72.3789 611.1909)" width="0.5" height="0.7"/>
</g>
<g>
	<rect x="375" y="264.7" transform="matrix(0.396 -0.9183 0.9183 0.396 -16.7812 504.7646)" width="0.5" height="0.9"/>
</g>
<g>
	<rect x="374.2" y="264.2" transform="matrix(0.5925 -0.8056 0.8056 0.5925 -60.6056 409.5474)" width="0.5" height="1"/>
</g>
<g>
	<rect x="373.5" y="263.5" transform="matrix(0.728 -0.6856 0.6856 0.728 -79.33 328.0575)" width="0.5" height="1.1"/>
</g>
<g>
	<rect x="372.8" y="262.6" transform="matrix(0.8275 -0.5615 0.5615 0.8275 -83.3939 254.8732)" width="0.5" height="1.1"/>
</g>
<g>
	<rect x="372.2" y="261.6" transform="matrix(0.9026 -0.4304 0.4304 0.9026 -76.5723 185.8511)" width="0.5" height="1.1"/>
</g>
<g>
	<rect x="371.8" y="260.6" transform="matrix(0.9596 -0.2815 0.2815 0.9596 -58.4705 115.3186)" width="0.5" height="1.1"/>
</g>
<g>
	<rect x="371.6" y="259.7" transform="matrix(0.9947 -0.1025 0.1025 0.9947 -24.7121 39.4998)" width="0.5" height="1"/>
</g>
<g>
	<rect x="371.5" y="259" transform="matrix(0.1264 -0.992 0.992 0.1264 67.7499 595.4123)" width="0.9" height="0.5"/>
</g>
<g>
	<rect x="371.7" y="258.2" transform="matrix(0.4183 -0.9083 0.9083 0.4183 -18.3326 488.3376)" width="0.7" height="0.5"/>
</g>
<g>
	<rect x="372.2" y="257.7" transform="matrix(0.7393 -0.6733 0.6733 0.7393 -76.5694 318.0549)" width="0.7" height="0.5"/>
</g>
<g>
	<rect x="372.7" y="257.1" transform="matrix(0.9581 -0.2864 0.2864 0.9581 -58.15 117.6388)" width="0.7" height="1"/>
</g>
<g>
	<rect x="373.2" y="257.2" transform="matrix(0.1052 -0.9944 0.9944 0.1052 78.3104 602.136)" width="1" height="0.7"/>
</g>
<g>
	<rect x="374" y="257.3" transform="matrix(0.3962 -0.9182 0.9182 0.3962 -10.5201 499.5241)" width="1" height="0.9"/>
</g>
<g>
	<rect x="374.8" y="257.7" transform="matrix(0.5925 -0.8056 0.8056 0.5925 -55.0708 407.5785)" width="1" height="1"/>
</g>
<g>
	<rect x="375.6" y="258.4" transform="matrix(0.728 -0.6856 0.6856 0.728 -75.1995 328.2808)" width="1" height="1.1"/>
</g>
<g>
	<rect x="376.2" y="259.2" transform="matrix(0.8275 -0.5615 0.5615 0.8275 -80.8531 256.3736)" width="1" height="1.1"/>
</g>
<g>
	<rect x="377.8" y="236.5" transform="matrix(0.8659 -0.5003 0.5003 0.8659 -66.2524 226.9802)" width="24.7" height="1"/>
</g>
<g>
	<rect x="400.1" y="227.7" transform="matrix(0.8659 -0.5003 0.5003 0.8659 -59.7918 233.4386)" width="10.6" height="1"/>
</g>
<g>
	<rect x="378.9" y="246.7" width="1" height="10.6"/>
</g>
<g>
	<rect x="378.9" y="243.2" width="1" height="3.5"/>
</g>
<g>
	<rect x="371.2" y="234.8" transform="matrix(0.8659 -0.5003 0.5003 0.8659 -65.7798 225.2154)" width="31.7" height="1"/>
</g>
<g>
	<rect x="400.6" y="225.9" transform="matrix(0.8659 -0.5003 0.5003 0.8659 -59.3192 231.6738)" width="3.5" height="1"/>
</g>
<g>
	<rect x="367" y="250.1" transform="matrix(0.5 -0.866 0.866 0.5 -34.3444 444.213)" width="1" height="3.5"/>
</g>
<g>
	<rect x="378.9" y="270.7" width="1" height="3.5"/>
</g>
<g>
	<rect x="359.4" y="243.9" transform="matrix(0.5 -0.866 0.866 0.5 -34.3443 435.395)" width="1" height="7.1"/>
</g>
<g>
	<rect x="364" y="248.3" transform="matrix(0.5 -0.866 0.866 0.5 -34.3444 440.6858)" width="1" height="3.5"/>
</g>
<g>
	<rect x="378.9" y="277.8" width="1" height="3.5"/>
</g>
<g>
	<rect x="378.9" y="274.2" width="1" height="3.5"/>
</g>
<g>
	<rect x="363.5" y="154.3" transform="matrix(0.8665 -0.4992 0.4992 0.8665 -27.9266 204.7092)" width="10.6" height="0.5"/>
</g>
<g>
	<rect x="373.7" y="148" transform="matrix(0.4999 -0.8661 0.8661 0.4999 58.1965 398.271)" width="0.5" height="1.4"/>
</g>
<g>
	<rect x="372.2" y="140" transform="matrix(0.8665 -0.4992 0.4992 0.8665 -17.9816 213.3235)" width="35.3" height="0.5"/>
</g>
<g>
	<rect x="404" y="130.4" transform="matrix(0.5001 -0.866 0.866 0.5001 88.6641 415.8129)" width="1" height="1.4"/>
</g>
<g>
	<rect x="363" y="183.7" transform="matrix(0.5 -0.866 0.866 0.5 22.1182 407.0502)" width="1" height="1.4"/>
</g>
<g>
	<rect x="363.5" y="181.6" transform="matrix(0.8659 -0.5003 0.5003 0.8659 -41.6262 208.9103)" width="10.6" height="1"/>
</g>
<g>
	<rect x="374.3" y="149.1" width="0.5" height="41.6"/>
</g>
<g>
	<rect x="367" y="144.9" width="0.5" height="3.5"/>
</g>
<g>
	<rect x="397.3" y="127.2" width="1" height="3.5"/>
</g>
<g>
	<rect x="364.9" y="135.8" transform="matrix(0.8665 -0.4992 0.4992 0.8665 -16.8474 209.0989)" width="35.3" height="0.5"/>
</g>
<g>
	<rect x="394.2" y="132.5" width="1" height="3.5"/>
</g>
<g>
	<rect x="404.6" y="131.5" width="1" height="41.6"/>
</g>
<g>
	<rect x="365.2" y="145.7" transform="matrix(0.5 -0.866 0.866 0.5 55.0992 390.4574)" width="1" height="3.5"/>
</g>
<g>
	<rect x="368.5" y="154.6" transform="matrix(0.5 -0.866 0.866 0.5 45.9447 399.2884)" width="0.5" height="10.6"/>
</g>
<g>
	<rect x="364.8" y="141.2" transform="matrix(0.5 -0.866 0.866 0.5 58.157 387.992)" width="0.5" height="4.9"/>
</g>
<g>
	<rect x="363.9" y="146.6" width="0.5" height="10.6"/>
</g>
<g>
	<rect x="362.4" y="142.4" width="1" height="41.6"/>
</g>
<g>
	<rect x="363.9" y="170.6" width="0.5" height="14.1"/>
</g>
<g>
	<rect x="368.2" y="168" transform="matrix(0.5 -0.866 0.866 0.5 34.3274 405.9771)" width="1" height="10.6"/>
</g>
<g>
	<rect x="371.6" y="183.8" transform="matrix(0.5 -0.866 0.866 0.5 25.1631 414.7952)" width="0.5" height="3.5"/>
</g>
<g>
	<rect x="369.8" y="184.7" width="1" height="3.5"/>
</g>
<g>
	<rect x="371.9" y="187" transform="matrix(0.5 -0.866 0.866 0.5 22.0998 417.2513)" width="1" height="4.9"/>
</g>
<g>
	<rect x="365.7" y="165.7" transform="matrix(0.9586 -0.2849 0.2849 0.9586 -32.206 111.1438)" width="0.5" height="1.1"/>
</g>
<g>
	<rect x="365.5" y="164.8" transform="matrix(0.9943 -0.1063 0.1063 0.9943 -15.4931 39.804)" width="0.5" height="1"/>
</g>
<g>
	<rect x="365.3" y="164.1" transform="matrix(0.1206 -0.9927 0.9927 0.1206 158.4893 507.6369)" width="0.9" height="0.5"/>
</g>
<g>
	<rect x="365.6" y="163.3" transform="matrix(0.413 -0.9108 0.9108 0.413 65.8317 429.3402)" width="0.7" height="0.5"/>
</g>
<g>
	<rect x="366" y="162.8" transform="matrix(0.733 -0.6802 0.6802 0.733 -13.0888 292.7383)" width="0.7" height="0.5"/>
</g>
<g>
	<rect x="366.6" y="162.2" transform="matrix(0.9555 -0.2949 0.2949 0.9555 -31.671 115.4579)" width="0.7" height="1"/>
</g>
<g>
	
		<rect x="367.1" y="162.3" transform="matrix(9.832756e-02 -0.9952 0.9952 9.832756e-02 169.5812 512.4786)" width="1" height="0.7"/>
</g>
<g>
	<rect x="367.8" y="162.4" transform="matrix(0.3914 -0.9202 0.9202 0.3914 74.3197 438.096)" width="1" height="0.9"/>
</g>
<g>
	<rect x="368.6" y="162.8" transform="matrix(0.5893 -0.8079 0.8079 0.5893 19.6551 365.3046)" width="1" height="1"/>
</g>
<g>
	<rect x="369.4" y="163.5" transform="matrix(0.726 -0.6877 0.6877 0.726 -11.4208 299.3291)" width="1" height="1.1"/>
</g>
<g>
	<rect x="370.1" y="164.3" transform="matrix(0.8258 -0.564 0.564 0.8258 -28.4057 237.7442)" width="1" height="1.1"/>
</g>
<g>
	<rect x="370.6" y="165.3" transform="matrix(0.9013 -0.4332 0.4332 0.9013 -35.1973 177.1638)" width="1" height="1.1"/>
</g>
<g>
	<rect x="371" y="166.3" transform="matrix(0.9586 -0.2849 0.2849 0.9586 -32.132 112.761)" width="1" height="1.1"/>
</g>
<g>
	<rect x="371.2" y="167.3" transform="matrix(0.9943 -0.1063 0.1063 0.9943 -15.7306 40.4566)" width="1" height="1"/>
</g>
<g>
	<rect x="371.3" y="168.2" transform="matrix(0.1207 -0.9927 0.9927 0.1207 159.3827 517.4266)" width="0.9" height="1"/>
</g>
<g>
	<rect x="371.2" y="169" transform="matrix(0.4126 -0.9109 0.9109 0.4126 63.8409 438.0248)" width="0.7" height="1"/>
</g>
<g>
	<rect x="370.8" y="169.6" transform="matrix(0.7335 -0.6797 0.6797 0.7335 -16.6775 297.6167)" width="0.7" height="1"/>
</g>
<g>
	<rect x="370.3" y="170.1" transform="matrix(0.9552 -0.2958 0.2958 0.9552 -33.8195 117.2511)" width="0.7" height="0.5"/>
</g>
<g>
	
		<rect x="369.7" y="170.1" transform="matrix(9.826303e-02 -0.9952 0.9952 9.826303e-02 163.9317 521.8321)" width="0.5" height="0.7"/>
</g>
<g>
	<rect x="368.9" y="169.8" transform="matrix(0.3916 -0.9201 0.9201 0.3916 67.9387 443.2551)" width="0.5" height="0.9"/>
</g>
<g>
	<rect x="368.1" y="169.3" transform="matrix(0.5891 -0.8081 0.8081 0.5891 14.1549 367.4302)" width="0.5" height="1"/>
</g>
<g>
	<rect x="367.3" y="168.6" transform="matrix(0.7262 -0.6875 0.6875 0.7262 -15.6225 299.012)" width="0.5" height="1.1"/>
</g>
<g>
	<rect x="366.7" y="167.7" transform="matrix(0.8256 -0.5643 0.5643 0.8256 -30.9525 236.4034)" width="0.5" height="1.1"/>
</g>
<g>
	<rect x="366.1" y="166.7" transform="matrix(0.9015 -0.4329 0.4329 0.9015 -36.3174 175.0703)" width="0.5" height="1.1"/>
</g>
<g>
	<rect x="372.2" y="181.4" transform="matrix(0.8659 -0.5003 0.5003 0.8659 -38.7106 219.4315)" width="35.3" height="1"/>
</g>
<g>
	<rect x="395.1" y="123.5" transform="matrix(0.5 -0.866 0.866 0.5 88.7046 405.6285)" width="1" height="4.9"/>
</g>
<g>
	<rect x="360.6" y="133.1" transform="matrix(0.8659 -0.5003 0.5003 0.8659 -16.0915 207.1418)" width="35.3" height="1"/>
</g>
<g>
	<rect x="370" y="183.3" transform="matrix(0.8659 -0.5003 0.5003 0.8659 -42.0988 210.6751)" width="3.5" height="1"/>
</g>
<g>
	<rect x="372.8" y="183" width="1" height="3.5"/>
</g>
<g>
	<rect x="371.7" y="141.7" transform="matrix(0.8659 -0.5003 0.5003 0.8659 -19.6364 211.2048)" width="24.7" height="1"/>
</g>
<g>
	<rect x="394" y="132.9" transform="matrix(0.8659 -0.5003 0.5003 0.8659 -13.1758 217.6632)" width="10.6" height="1"/>
</g>
<g>
	<rect x="372.8" y="151.9" width="1" height="10.6"/>
</g>
<g>
	<rect x="372.8" y="148.4" width="1" height="3.5"/>
</g>
<g>
	<rect x="365.1" y="139.9" transform="matrix(0.8659 -0.5003 0.5003 0.8659 -19.1639 209.44)" width="31.7" height="1"/>
</g>
<g>
	<rect x="394.5" y="131.1" transform="matrix(0.8659 -0.5003 0.5003 0.8659 -12.7032 215.8984)" width="3.5" height="1"/>
</g>
<g>
	<rect x="372.8" y="179.4" width="1" height="3.5"/>
</g>
<g>
	<rect x="372.8" y="175.9" width="1" height="3.5"/>
</g>
<g>
	<rect x="410.7" y="331.7" width="1" height="27.5"/>
</g>
<g>
	<rect x="368.5" y="356" width="1" height="14.1"/>
</g>
<g>
	<rect x="380.4" y="349.3" width="0.5" height="27.5"/>
</g>
<g>
	<rect x="356.3" y="335.6" width="1" height="1.4"/>
</g>
<g>
	<rect x="378" y="373.1" transform="matrix(0.5 -0.866 0.866 0.5 -135.9998 515.6302)" width="1" height="4.9"/>
</g>
<g>
	<rect x="364.2" y="346.7" transform="matrix(0.5 -0.866 0.866 0.5 -122.5659 491.6198)" width="0.5" height="10.6"/>
</g>
<g>
	<rect x="359.6" y="345.8" width="0.5" height="3.5"/>
</g>
<g>
	<rect x="376.2" y="369.4" transform="matrix(0.8661 -0.4999 0.4999 0.8661 -134.324 238.455)" width="3.5" height="1"/>
</g>
<g>
	<rect x="374.3" y="354.1" transform="matrix(0.5 -0.866 0.866 0.5 -123.7877 504.3181)" width="1" height="10.6"/>
</g>
<g>
	<rect x="358.1" y="343.1" transform="matrix(0.5 -0.866 0.866 0.5 -119.511 482.8017)" width="0.5" height="3.5"/>
</g>
<g>
	<rect x="359.4" y="343.8" transform="matrix(0.8665 -0.4992 0.4992 0.8665 -123.2732 227.1043)" width="7.1" height="0.5"/>
</g>
<g>
	<rect x="356.4" y="341.7" transform="matrix(0.8661 -0.4999 0.4999 0.8661 -122.8958 225.7378)" width="7.1" height="1"/>
</g>
<g>
	<rect x="398.8" y="311" transform="matrix(0.5 -0.866 0.866 0.5 -81.6317 508.2004)" width="1" height="27.5"/>
</g>
<g>
	<rect x="359.2" y="346.4" transform="matrix(0.8665 -0.4992 0.4992 0.8665 -124.3899 228.2199)" width="10.6" height="0.5"/>
</g>
<g>
	<rect x="368.5" y="328.7" transform="matrix(0.5 -0.866 0.866 0.5 -112.1804 490.5595)" width="0.5" height="27.5"/>
</g>
<g>
	<rect x="368.5" y="344" width="1" height="10.6"/>
</g>
<g>
	<rect x="356.3" y="344" width="1" height="4.9"/>
</g>
<g>
	<rect x="362.4" y="345.4" transform="matrix(0.5 -0.866 0.866 0.5 -123.7879 490.5618)" width="1" height="14.1"/>
</g>
<g>
	<rect x="369.2" y="369.8" transform="matrix(0.4997 -0.8662 0.8662 0.4997 -135.9604 505.55)" width="1" height="1.4"/>
</g>
<g>
	<rect x="370" y="356.7" width="0.5" height="14.1"/>
</g>
<g>
	<rect x="377.7" y="369.9" transform="matrix(0.5 -0.866 0.866 0.5 -132.952 513.1362)" width="0.5" height="3.5"/>
</g>
<g>
	<rect x="375.9" y="370.8" width="1" height="3.5"/>
</g>
<g>
	<rect x="354.5" y="326.2" transform="matrix(0.8661 -0.4999 0.4999 0.8661 -113.5011 229.7676)" width="35.3" height="1"/>
</g>
<g>
	<rect x="378.3" y="367.5" transform="matrix(0.8661 -0.4999 0.4999 0.8661 -130.9406 247.2046)" width="35.3" height="1"/>
</g>
<g>
	<rect x="378.3" y="340.2" transform="matrix(0.8665 -0.4992 0.4992 0.8665 -117.1081 243.1019)" width="35.3" height="0.5"/>
</g>
<g>
	<rect x="369.6" y="367.7" transform="matrix(0.8661 -0.4999 0.4999 0.8661 -133.8514 236.6919)" width="10.6" height="1"/>
</g>
<g>
	<rect x="376.2" y="351.2" transform="matrix(0.9151 -0.4033 0.4033 0.9151 -109.8554 181.7648)" width="1" height="1.1"/>
</g>
<g>
	<rect x="376.5" y="352.2" transform="matrix(0.9682 -0.2502 0.2502 0.9682 -76.258 105.5356)" width="1" height="1.1"/>
</g>
<g>
	<rect x="376.7" y="353.3" transform="matrix(0.998 -6.288757e-02 6.288757e-02 0.998 -21.4997 24.4215)" width="1" height="1"/>
</g>
<g>
	<rect x="376.7" y="354.1" transform="matrix(0.1772 -0.9842 0.9842 0.1772 -38.7046 662.9706)" width="0.8" height="1"/>
</g>
<g>
	<rect x="376.6" y="354.8" transform="matrix(0.4804 -0.877 0.877 0.4804 -115.831 515.1938)" width="0.7" height="1"/>
</g>
<g>
	<rect x="376.2" y="355.4" transform="matrix(0.7934 -0.6087 0.6087 0.7934 -138.8406 302.691)" width="0.7" height="1"/>
</g>
<g>
	<rect x="375.6" y="355.9" transform="matrix(0.9787 -0.2052 0.2052 0.9787 -65.0695 84.6916)" width="0.7" height="0.5"/>
</g>
<g>
	<rect x="374.9" y="355.8" transform="matrix(0.1701 -0.9854 0.9854 0.1701 -39.5915 665.2819)" width="0.5" height="0.8"/>
</g>
<g>
	<rect x="374.2" y="355.4" transform="matrix(0.4399 -0.898 0.898 0.4399 -109.9006 535.5575)" width="0.5" height="0.9"/>
</g>
<g>
	<polygon points="373.9,355.9 373.1,355.3 373.4,354.9 374.2,355.5 	"/>
</g>
<g>
	<polygon points="373,355.2 372.3,354.4 372.7,354.1 373.4,354.9 	"/>
</g>
<g>
	<polygon points="372.3,354.4 371.7,353.4 372.1,353.2 372.7,354.1 	"/>
</g>
<g>
	<rect x="371.4" y="352.2" transform="matrix(0.9149 -0.4036 0.4036 0.9149 -110.7668 180.0074)" width="0.5" height="1.1"/>
</g>
<g>
	<polygon points="371.2,352.4 370.9,351.3 371.4,351.2 371.7,352.2 	"/>
</g>
<g>
	<polygon points="370.9,351.3 370.9,350.3 371.4,350.3 371.5,351.2 	"/>
</g>
<g>
	<rect x="370.8" y="349.6" transform="matrix(0.1772 -0.9842 0.9842 0.1772 -38.9444 653.2189)" width="0.8" height="0.5"/>
</g>
<g>
	<rect x="371.1" y="348.9" transform="matrix(0.4794 -0.8776 0.8776 0.4794 -113.0546 507.7766)" width="0.7" height="0.5"/>
</g>
<g>
	<rect x="371.6" y="348.4" transform="matrix(0.795 -0.6066 0.6066 0.795 -135.2655 297.0652)" width="0.7" height="0.5"/>
</g>
<g>
	<rect x="372.1" y="347.9" transform="matrix(0.9783 -0.2073 0.2073 0.9783 -64.1417 84.7998)" width="0.7" height="1"/>
</g>
<g>
	<rect x="372.7" y="348" transform="matrix(0.1701 -0.9854 0.9854 0.1701 -33.6098 656.8689)" width="1" height="0.8"/>
</g>
<g>
	<rect x="373.4" y="348.2" transform="matrix(0.4401 -0.8979 0.8979 0.4401 -103.7001 530.9778)" width="1" height="0.9"/>
</g>
<g>
	<rect x="374.2" y="348.7" transform="matrix(0.6223 -0.7828 0.7828 0.6223 -131.772 425.2077)" width="1" height="1"/>
</g>
<g>
	<rect x="375" y="349.3" transform="matrix(0.7498 -0.6617 0.6617 0.7498 -137.5507 336.0005)" width="1" height="1.1"/>
</g>
<g>
	<rect x="375.6" y="350.2" transform="matrix(0.8433 -0.5375 0.5375 0.8433 -129.5699 257.1385)" width="1" height="1.1"/>
</g>
<g>
	<rect x="367" y="341.4" transform="matrix(0.5 -0.866 0.866 0.5 -113.4017 489.8562)" width="1" height="3.5"/>
</g>
<g>
	<rect x="378.9" y="369.1" width="1" height="3.5"/>
</g>
<g>
	<rect x="359.4" y="335.2" transform="matrix(0.5 -0.866 0.866 0.5 -113.4016 481.0381)" width="1" height="7.1"/>
</g>
<g>
	<rect x="364" y="339.6" transform="matrix(0.5 -0.866 0.866 0.5 -113.4016 486.3289)" width="1" height="3.5"/>
</g>
<g>
	<rect x="378.9" y="365.5" width="1" height="3.5"/>
</g>
<g>
	<rect x="378.9" y="362" width="1" height="3.5"/>
</g>
<g>
	<rect x="413.8" y="64.5" transform="matrix(0.5 -0.866 0.866 0.5 148.2079 392.7852)" width="1" height="7.1"/>
</g>
<g>
	<rect x="416.8" y="69.8" width="1" height="1.4"/>
</g>
<g>
	<rect x="395.1" y="28.7" transform="matrix(0.5 -0.866 0.866 0.5 170.8172 358.2207)" width="1" height="4.9"/>
</g>
<g>
	<rect x="397.3" y="32.4" width="1" height="3.5"/>
</g>
<g>
	<rect x="394.2" y="37.7" width="1" height="3.5"/>
</g>
<g>
	<rect x="404" y="35.6" transform="matrix(0.4999 -0.8661 0.8661 0.4999 170.8698 368.4867)" width="1" height="1.4"/>
</g>
<g>
	<rect x="404.6" y="36.6" width="1" height="14.1"/>
</g>
<g>
	<rect x="410.7" y="47.2" transform="matrix(0.5 -0.866 0.866 0.5 158.5999 383.2657)" width="1" height="14.1"/>
</g>
<g>
	<rect x="416.8" y="57.8" width="1" height="4.9"/>
</g>
<g>
	<rect x="373.8" y="77.5" transform="matrix(0.8665 -0.4992 0.4992 0.8665 11.8101 199.6373)" width="10.6" height="0.5"/>
</g>
<g>
	<rect x="374.3" y="69.8" width="0.5" height="10.6"/>
</g>
<g>
	<rect x="378.6" y="67.2" transform="matrix(0.5 -0.8661 0.8661 0.5 126.8437 364.5826)" width="1" height="10.6"/>
</g>
<g>
	<rect x="383.2" y="75.1" width="1" height="3.5"/>
</g>
<g>
	<rect x="384.7" y="77.7" transform="matrix(0.5 -0.866 0.866 0.5 123.7707 373.3849)" width="1" height="3.5"/>
</g>
<g>
	<rect x="384.4" y="66.4" transform="matrix(0.8665 -0.4992 0.4992 0.8665 20.415 209.5905)" width="35.3" height="0.5"/>
</g>
<g>
	<rect x="386.5" y="75.4" width="0.5" height="4.9"/>
</g>
<g>
	<rect x="372.2" y="59.3" transform="matrix(0.8665 -0.4992 0.4992 0.8665 22.3053 202.5491)" width="35.3" height="0.5"/>
</g>
<g>
	<rect x="380.4" y="64.9" transform="matrix(0.5 -0.866 0.866 0.5 128.0522 365.6292)" width="0.5" height="14.1"/>
</g>
<g>
	<rect x="372.2" y="45.2" transform="matrix(0.8665 -0.4992 0.4992 0.8665 29.3484 200.6655)" width="35.3" height="0.5"/>
</g>
<g>
	<rect x="374.3" y="54.3" width="0.5" height="14.1"/>
</g>
<g>
	<rect x="373.7" y="53.2" transform="matrix(0.5001 -0.866 0.866 0.5001 140.2278 350.7801)" width="0.5" height="1.4"/>
</g>
<g>
	<rect x="363.5" y="59.5" transform="matrix(0.8665 -0.4992 0.4992 0.8665 19.4035 192.0512)" width="10.6" height="0.5"/>
</g>
<g>
	<rect x="368.5" y="59.7" transform="matrix(0.5 -0.866 0.866 0.5 128.0474 351.8686)" width="0.5" height="10.6"/>
</g>
<g>
	<rect x="363.9" y="51.8" width="0.5" height="10.6"/>
</g>
<g>
	<rect x="365.2" y="50.9" transform="matrix(0.5 -0.866 0.866 0.5 137.2117 343.0504)" width="1" height="3.5"/>
</g>
<g>
	<rect x="364.9" y="41" transform="matrix(0.8665 -0.4992 0.4992 0.8665 30.4826 196.4409)" width="35.3" height="0.5"/>
</g>
<g>
	<rect x="367" y="50" width="0.5" height="3.5"/>
</g>
<g>
	<rect x="360.6" y="38.2" transform="matrix(0.8659 -0.5003 0.5003 0.8659 31.3441 194.4228)" width="35.3" height="1"/>
</g>
<g>
	<rect x="364.8" y="46.3" transform="matrix(0.4999 -0.8661 0.8661 0.4999 140.2948 340.6034)" width="0.5" height="4.9"/>
</g>
<g>
	<rect x="362.4" y="47.6" width="1" height="14.1"/>
</g>
<g>
	<rect x="349.8" y="50.6" transform="matrix(0.8659 -0.5003 0.5003 0.8659 22.2992 185.3811)" width="14.1" height="1"/>
</g>
<g>
	<rect x="356.6" y="51.1" transform="matrix(0.5 -0.866 0.866 0.5 128.0471 338.1123)" width="0.5" height="14.1"/>
</g>
<g>
	<rect x="350.2" y="54.6" width="1" height="1.4"/>
</g>
<g>
	<rect x="362.4" y="63.1" width="1" height="10.6"/>
</g>
<g>
	<rect x="353.1" y="65.5" transform="matrix(0.8665 -0.4992 0.4992 0.8665 15.0235 187.6672)" width="10.6" height="0.5"/>
</g>
<g>
	<rect x="358.1" y="65.7" transform="matrix(0.5 -0.866 0.866 0.5 117.6612 345.8721)" width="0.5" height="10.6"/>
</g>
<g>
	<rect x="353.3" y="62.8" transform="matrix(0.8665 -0.4992 0.4992 0.8665 16.1402 186.5516)" width="7.1" height="0.5"/>
</g>
<g>
	<rect x="353.5" y="64.9" width="0.5" height="3.5"/>
</g>
<g>
	<rect x="350.3" y="60.8" transform="matrix(0.8659 -0.5003 0.5003 0.8659 16.7719 185.2251)" width="7.1" height="1"/>
</g>
<g>
	<rect x="352" y="62.2" transform="matrix(0.5 -0.866 0.866 0.5 120.7161 337.054)" width="0.5" height="3.5"/>
</g>
<g>
	<rect x="350.2" y="63.1" width="1" height="4.9"/>
</g>
<g>
	<rect x="356.3" y="64.5" transform="matrix(0.5 -0.866 0.866 0.5 116.4476 344.8211)" width="1" height="14.1"/>
</g>
<g>
	<rect x="362.4" y="75.1" width="1" height="14.1"/>
</g>
<g>
	<rect x="363.5" y="86.7" transform="matrix(0.8659 -0.5003 0.5003 0.8659 5.8093 196.1914)" width="10.6" height="1"/>
</g>
<g>
	<rect x="363" y="88.8" transform="matrix(0.5 -0.866 0.866 0.5 104.2323 359.6398)" width="1" height="1.4"/>
</g>
<g>
	<rect x="363.9" y="75.8" width="0.5" height="14.1"/>
</g>
<g>
	<rect x="368.2" y="73.2" transform="matrix(0.5 -0.866 0.866 0.5 116.4394 358.5703)" width="1" height="10.6"/>
</g>
<g>
	<rect x="370" y="88.5" transform="matrix(0.8659 -0.5003 0.5003 0.8659 5.3367 197.9562)" width="3.5" height="1"/>
</g>
<g>
	<rect x="371.6" y="89" transform="matrix(0.5 -0.866 0.866 0.5 107.2751 367.3885)" width="0.5" height="3.5"/>
</g>
<g>
	<rect x="369.8" y="89.9" width="1" height="3.5"/>
</g>
<g>
	<rect x="371.9" y="92.2" transform="matrix(0.5 -0.866 0.866 0.5 104.2101 369.8476)" width="1" height="4.9"/>
</g>
<g>
	<rect x="374.3" y="81.8" width="0.5" height="14.1"/>
</g>
<g>
	<rect x="384.4" y="78.4" transform="matrix(0.8665 -0.4992 0.4992 0.8665 14.4284 211.1915)" width="35.3" height="0.5"/>
</g>
<g>
	<rect x="386.5" y="87.4" width="0.5" height="1.4"/>
</g>
<g>
	<rect x="380.4" y="76.9" transform="matrix(0.5 -0.866 0.866 0.5 117.6662 371.6256)" width="0.5" height="14.1"/>
</g>
<g>
	<rect x="380.1" y="78.3" transform="matrix(0.5 -0.866 0.866 0.5 116.4441 372.3312)" width="1" height="14.1"/>
</g>
<g>
	<rect x="370.6" y="70.4" transform="matrix(0.9013 -0.4332 0.4332 0.9013 5.8793 167.8041)" width="1" height="1.1"/>
</g>
<g>
	<rect x="371" y="71.5" transform="matrix(0.9586 -0.2849 0.2849 0.9586 -5.121 108.8322)" width="1" height="1.1"/>
</g>
<g>
	<rect x="371.2" y="72.5" transform="matrix(0.9943 -0.1063 0.1063 0.9943 -5.6546 39.9197)" width="1" height="1"/>
</g>
<g>
	<rect x="371.3" y="73.4" transform="matrix(0.1216 -0.9926 0.9926 0.1216 253.1686 433.9415)" width="0.9" height="1"/>
</g>
<g>
	<rect x="371.2" y="74.2" transform="matrix(0.4118 -0.9113 0.9113 0.4118 150.474 382.5196)" width="0.7" height="1"/>
</g>
<g>
	<rect x="370.8" y="74.7" transform="matrix(0.7335 -0.6797 0.6797 0.7335 47.7711 272.3451)" width="0.7" height="1"/>
</g>
<g>
	<rect x="370.3" y="75.3" transform="matrix(0.9552 -0.2958 0.2958 0.9552 -5.7724 113.0079)" width="0.7" height="0.5"/>
</g>
<g>
	
		<rect x="369.7" y="75.3" transform="matrix(9.891608e-02 -0.9951 0.9951 9.891608e-02 258.0518 436.26)" width="0.5" height="0.7"/>
</g>
<g>
	<polygon points="369.4,75.8 368.7,75.5 368.9,75 369.6,75.4 	"/>
</g>
<g>
	<rect x="368.1" y="74.5" transform="matrix(0.5893 -0.8079 0.8079 0.5893 90.6977 328.3883)" width="0.5" height="1"/>
</g>
<g>
	<rect x="367.3" y="73.8" transform="matrix(0.726 -0.6877 0.6877 0.726 49.6258 273.1585)" width="0.5" height="1.1"/>
</g>
<g>
	<rect x="366.7" y="72.9" transform="matrix(0.8256 -0.5643 0.5643 0.8256 22.5527 219.8642)" width="0.5" height="1.1"/>
</g>
<g>
	<rect x="366.1" y="71.9" transform="matrix(0.9015 -0.4329 0.4329 0.9015 4.7256 165.7267)" width="0.5" height="1.1"/>
</g>
<g>
	<rect x="365.7" y="70.9" transform="matrix(0.9586 -0.2848 0.2848 0.9586 -5.1996 107.1668)" width="0.5" height="1.1"/>
</g>
<g>
	<rect x="365.5" y="70" transform="matrix(0.9943 -0.1063 0.1063 0.9943 -5.4188 39.2868)" width="0.5" height="1"/>
</g>
<g>
	<rect x="365.3" y="69.3" transform="matrix(0.1206 -0.9927 0.9927 0.1206 252.6132 424.252)" width="0.9" height="0.5"/>
</g>
<g>
	<rect x="365.6" y="68.5" transform="matrix(0.413 -0.9108 0.9108 0.413 152.1852 373.6789)" width="0.7" height="0.5"/>
</g>
<g>
	<rect x="366" y="68" transform="matrix(0.733 -0.6802 0.6802 0.733 51.4079 267.4221)" width="0.7" height="0.5"/>
</g>
<g>
	<rect x="366.6" y="67.4" transform="matrix(0.9555 -0.2949 0.2949 0.9555 -3.7055 111.24)" width="0.7" height="1"/>
</g>
<g>
	
		<rect x="367.1" y="67.5" transform="matrix(9.826303e-02 -0.9952 0.9952 9.826303e-02 263.9607 426.9931)" width="1" height="0.7"/>
</g>
<g>
	<rect x="367.8" y="67.6" transform="matrix(0.3916 -0.9201 0.9201 0.3916 161.5022 380.3438)" width="1" height="0.9"/>
</g>
<g>
	<rect x="368.6" y="68" transform="matrix(0.5893 -0.8079 0.8079 0.5893 96.2559 326.3666)" width="1" height="1"/>
</g>
<g>
	<rect x="369.4" y="68.6" transform="matrix(0.726 -0.6877 0.6877 0.726 53.7844 273.3486)" width="1" height="1.1"/>
</g>
<g>
	<rect x="370.1" y="69.5" transform="matrix(0.8258 -0.564 0.564 0.8258 25.0714 221.2241)" width="1" height="1.1"/>
</g>
<g>
	<rect x="384.9" y="72.8" transform="matrix(0.8659 -0.5003 0.5003 0.8659 16.8366 209.4522)" width="28.2" height="1"/>
</g>
<g>
	<rect x="410.7" y="64" transform="matrix(0.8659 -0.5003 0.5003 0.8659 23.2971 215.9106)" width="7.1" height="1"/>
</g>
<g>
	<rect x="371.7" y="46.9" transform="matrix(0.8659 -0.5003 0.5003 0.8659 27.7992 198.4859)" width="24.7" height="1"/>
</g>
<g>
	<rect x="394" y="38.1" transform="matrix(0.8659 -0.5003 0.5003 0.8659 34.2597 204.9443)" width="10.6" height="1"/>
</g>
<g>
	<rect x="372.8" y="57.1" width="1" height="10.6"/>
</g>
<g>
	<rect x="372.8" y="53.6" width="1" height="3.5"/>
</g>
<g>
	<rect x="365.1" y="45.1" transform="matrix(0.8659 -0.5003 0.5003 0.8659 28.2718 196.7211)" width="31.7" height="1"/>
</g>
<g>
	<rect x="394.5" y="36.3" transform="matrix(0.8659 -0.5003 0.5003 0.8659 34.7323 203.1795)" width="3.5" height="1"/>
</g>
<g>
	<rect x="360.9" y="60.5" transform="matrix(0.5 -0.866 0.866 0.5 126.8254 344.1084)" width="1" height="3.5"/>
</g>
<g>
	<rect x="372.8" y="81.1" width="1" height="3.5"/>
</g>
<g>
	<rect x="373.6" y="91.9" transform="matrix(0.8659 -0.5003 0.5003 0.8659 4.8485 202.8376)" width="14.1" height="1"/>
</g>
<g>
	<rect x="353.3" y="54.3" transform="matrix(0.5 -0.866 0.866 0.5 126.8256 335.2903)" width="1" height="7.1"/>
</g>
<g>
	<rect x="357.9" y="58.7" transform="matrix(0.5 -0.866 0.866 0.5 126.8255 340.5812)" width="1" height="3.5"/>
</g>
<g>
	<rect x="372.8" y="88.1" width="1" height="3.5"/>
</g>
<g>
	<rect x="372.8" y="84.6" width="1" height="3.5"/>
</g>
<g>
	<rect x="384.4" y="79.5" transform="matrix(0.8659 -0.5003 0.5003 0.8659 13.8935 211.8795)" width="35.3" height="1"/>
</g>
<g>
	<rect x="311.8" y="325" transform="matrix(0.8372 -0.5468 0.5468 0.8372 -126.8719 224.7116)" width="4.5" height="1"/>
</g>
<g>
	<rect x="319" y="319.1" transform="matrix(0.5955 -0.8033 0.8033 0.5955 -127.2268 386.6341)" width="2.7" height="1"/>
</g>
<g>
	<rect x="315.2" y="322" transform="matrix(0.7179 -0.6962 0.6962 0.7179 -134.8761 312.1983)" width="5" height="1"/>
</g>
<g>
	<rect x="258.4" y="358.2" transform="matrix(0.8661 -0.4999 0.4999 0.8661 -140.1006 194.3927)" width="68.9" height="1"/>
</g>
<g>
	<rect x="262.8" y="333.6" transform="matrix(0.9203 -0.3913 0.3913 0.9203 -109.5879 130.524)" width="5.4" height="1"/>
</g>
<g>
	<rect x="266.3" y="335.9" transform="matrix(0.9199 -0.3921 0.3921 0.9199 -110.2811 132.3976)" width="5.4" height="0.5"/>
</g>
<g>
	<rect x="266.3" y="339.9" transform="matrix(0.9203 -0.3913 0.3913 0.9203 -111.7738 132.2268)" width="4.5" height="1"/>
</g>
<g>
	<rect x="284.5" y="341" transform="matrix(6.767817e-02 -0.9977 0.9977 6.767817e-02 -74.9024 602.7322)" width="1" height="0.9"/>
</g>
<g>
	
		<rect x="287.8" y="342.4" transform="matrix(6.734493e-02 -0.9977 0.9977 6.734493e-02 -74.033 607.6931)" width="0.5" height="2"/>
</g>
<g>
	<rect x="286" y="342" transform="matrix(0.4784 -0.8781 0.8781 0.4784 -151.8557 430.2018)" width="0.5" height="1.9"/>
</g>
<g>
	<rect x="283.2" y="338.7" transform="matrix(0.9111 -0.4122 0.4122 0.9111 -114.8534 147.1769)" width="1" height="2.3"/>
</g>
<g>
	<rect x="323.9" y="340.5" transform="matrix(0.5 -0.8661 0.8661 0.5 -134.4218 452.1909)" width="1" height="4.1"/>
</g>
<g>
	<rect x="325.6" y="343.5" width="1" height="4"/>
</g>
<g>
	<rect x="261.9" y="360.5" transform="matrix(0.8665 -0.4992 0.4992 0.8665 -140.5127 196.0749)" width="68.9" height="0.5"/>
</g>
<g>
	<rect x="258.7" y="376.3" transform="matrix(0.9203 -0.3913 0.3913 0.9203 -126.6328 132.1388)" width="4.5" height="1"/>
</g>
<g>
	<rect x="262.2" y="378.6" transform="matrix(0.9199 -0.3921 0.3921 0.9199 -127.3615 134.0232)" width="4.5" height="0.5"/>
</g>
<g>
	<rect x="287.5" y="347" transform="matrix(0.9659 -0.2589 0.2589 0.9659 -80.1127 86.7046)" width="3.2" height="1"/>
</g>
<g>
	<rect x="283.2" y="345.7" transform="matrix(0.5 -0.866 0.866 0.5 -158.6789 419.2405)" width="1" height="2.6"/>
</g>
<g>
	<rect x="280.3" y="343.3" transform="matrix(0.5 -0.866 0.866 0.5 -158.6806 415.8936)" width="1" height="4.1"/>
</g>
<g>
	<rect x="285.7" y="346.4" transform="matrix(8.899137e-02 -0.996 0.996 8.899137e-02 -85.674 601.9482)" width="1" height="2.8"/>
</g>
<g>
	<rect x="276.6" y="340.4" transform="matrix(0.9111 -0.4121 0.4121 0.9111 -116.0177 144.5358)" width="1" height="1.8"/>
</g>
<g>
	<polygon points="280.8,344.2 280,342.6 280.5,342.4 281.2,344 	"/>
</g>
<g>
	<rect x="253.9" y="377.2" transform="matrix(0.2944 -0.9557 0.9557 0.2944 -181.6086 509.7119)" width="1" height="1.4"/>
</g>
<g>
	<polygon points="258.5,380.3 255.2,379.3 255.3,378.8 258.6,379.8 	"/>
</g>
<g>
	<rect x="251.4" y="373" transform="matrix(0.9111 -0.4122 0.4122 0.9111 -132.1616 137.1868)" width="1" height="3.9"/>
</g>
<g>
	<rect x="250.4" y="368.8" transform="matrix(0.9926 -0.1212 0.1212 0.9926 -43.1003 33.1285)" width="1" height="4.5"/>
</g>
<g>
	<rect x="248.3" y="365.7" transform="matrix(0.1056 -0.9944 0.9944 0.1056 -139.805 577.0568)" width="5.1" height="1"/>
</g>
<g>
	<rect x="249.2" y="360.5" transform="matrix(0.2847 -0.9586 0.9586 0.2847 -165.8811 499.784)" width="5.6" height="1"/>
</g>
<g>
	<rect x="251.1" y="355.2" transform="matrix(0.4332 -0.9013 0.9013 0.4332 -176.6628 430.5526)" width="5.8" height="1"/>
</g>
<g>
	<rect x="254" y="350.2" transform="matrix(0.5638 -0.8259 0.8259 0.5638 -177.5857 365.1569)" width="5.8" height="1"/>
</g>
<g>
	<rect x="257.7" y="345.8" transform="matrix(0.688 -0.7257 0.7257 0.688 -170.025 297.059)" width="5.6" height="1"/>
</g>
<g>
	<rect x="261.9" y="342.2" transform="matrix(0.8083 -0.5888 0.5888 0.8083 -151.1081 221.4101)" width="5.1" height="1"/>
</g>
<g>
	
		<rect x="270.6" y="338.8" transform="matrix(0.9951 -9.894390e-02 9.894390e-02 0.9951 -32.2351 28.6302)" width="3.9" height="1"/>
</g>
<g>
	<rect x="275.7" y="339.3" transform="matrix(0.6797 -0.7335 0.7335 0.6797 -160.8905 311.5013)" width="1" height="1.4"/>
</g>
<g>
	<polygon points="280.1,342.7 277.6,340.3 277.9,339.9 280.4,342.3 	"/>
</g>
<g>
	<rect x="315.1" y="330.2" transform="matrix(0.8083 -0.5888 0.5888 0.8083 -133.6937 250.8464)" width="6.6" height="1"/>
</g>
<g>
	<rect x="277.8" y="341.8" transform="matrix(0.8181 -0.575 0.575 0.8181 -146.7507 222.4338)" width="1" height="2.8"/>
</g>
<g>
	<polygon points="282.4,346.5 280.8,344.3 281.2,344 282.8,346.2 	"/>
</g>
<g>
	<rect x="285.5" y="340.6" transform="matrix(0.9616 -0.2743 0.2743 0.9616 -82.5989 91.7195)" width="2.3" height="1"/>
</g>
<g>
	<rect x="289" y="342.9" transform="matrix(0.9614 -0.2752 0.2752 0.9614 -83.2496 93.1051)" width="2.3" height="0.5"/>
</g>
<g>
	<rect x="322.4" y="317.5" transform="matrix(0.5 -0.866 0.866 0.5 -115.3074 439.4559)" width="1" height="4.1"/>
</g>
<g>
	<rect x="324.9" y="320.4" transform="matrix(0.8825 -0.4703 0.4703 0.8825 -113.1895 190.8877)" width="1" height="3.1"/>
</g>
<g>
	<rect x="322.5" y="321.4" transform="matrix(0.5958 -0.8032 0.8032 0.5958 -127.4556 390.1693)" width="2.7" height="0.5"/>
</g>
<g>
	<rect x="318.8" y="324.3" transform="matrix(0.7174 -0.6966 0.6966 0.7174 -135.3051 315.523)" width="5" height="0.5"/>
</g>
<g>
	<rect x="315.3" y="327.3" transform="matrix(0.8372 -0.5468 0.5468 0.8372 -127.4121 226.9749)" width="4.5" height="0.5"/>
</g>
<g>
	<rect x="319.9" y="325.6" transform="matrix(0.688 -0.7257 0.7257 0.688 -135.7587 336.5289)" width="7.2" height="1"/>
</g>
<g>
	<rect x="325.9" y="322.9" transform="matrix(0.5655 -0.8247 0.8247 0.5655 -125.0702 409.4342)" width="0.3" height="1"/>
</g>
<g>
	<rect x="255" y="377.3" transform="matrix(0.9952 -9.801068e-02 9.801068e-02 0.9952 -35.7965 27.0019)" width="3.9" height="1"/>
</g>
<g>
	
		<rect x="258.5" y="379.6" transform="matrix(0.9952 -9.801068e-02 9.801068e-02 0.9952 -35.9793 27.3579)" width="3.9" height="0.5"/>
</g>
<g>
	<rect x="261.9" y="364.2" transform="matrix(0.8661 -0.4999 0.4999 0.8661 -142.6396 196.9651)" width="68.9" height="1"/>
</g>
<g>
	<polygon points="280.1,336.2 276.1,334.9 276.2,334.4 280.3,335.7 	"/>
</g>
<g>
	
		<rect x="271.5" y="334.6" transform="matrix(0.9952 -9.801068e-02 9.801068e-02 0.9952 -31.5054 28.4517)" width="4.7" height="0.5"/>
</g>
<g>
	<polygon points="261.6,341.1 261.3,340.7 266.3,337.1 266.7,337.5 	"/>
</g>
<g>
	<rect x="255.8" y="343.1" transform="matrix(0.687 -0.7266 0.7266 0.687 -168.3983 295.7908)" width="6.8" height="0.5"/>
</g>
<g>
	<polygon points="253,351.8 252.6,351.6 256.6,345.7 257,346 	"/>
</g>
<g>
	<rect x="247.7" y="354.6" transform="matrix(0.4336 -0.9011 0.9011 0.4336 -177.4763 427.4553)" width="7.1" height="0.5"/>
</g>
<g>
	<polygon points="248.1,364.7 247.6,364.5 249.5,358 250,358.2 	"/>
</g>
<g>
	<rect x="244.4" y="367.4" transform="matrix(0.1055 -0.9944 0.9944 0.1055 -144.2543 575.0119)" width="6.2" height="0.5"/>
</g>
<g>
	<rect x="247.2" y="370.7" transform="matrix(0.9926 -0.1212 0.1212 0.9926 -43.4271 32.7372)" width="0.5" height="5.4"/>
</g>
<g>
	<rect x="248.5" y="376" transform="matrix(0.9111 -0.4121 0.4121 0.9111 -133.8032 136.1555)" width="0.5" height="4.7"/>
</g>
<g>
	<rect x="251" y="379.8" transform="matrix(0.6799 -0.7333 0.7333 0.6799 -199.5917 306.519)" width="0.5" height="4.2"/>
</g>
<g>
	<rect x="254.3" y="381.8" transform="matrix(0.2951 -0.9555 0.9555 0.2951 -187.1862 514.1025)" width="1" height="4.2"/>
</g>
<g>
	
		<rect x="256.8" y="383.8" transform="matrix(0.9951 -9.894390e-02 9.894390e-02 0.9951 -36.7523 27.5281)" width="4.7" height="1"/>
</g>
<g>
	<rect x="261.3" y="382.5" transform="matrix(0.9203 -0.3913 0.3913 0.9203 -128.8188 133.8416)" width="5.4" height="1"/>
</g>
<g>
	<rect x="277.9" y="332.8" transform="matrix(0.5 -0.8661 0.8661 0.5 -150.8087 408.5813)" width="1" height="4.1"/>
</g>
<g>
	<rect x="268" y="332.3" transform="matrix(0.9951 -9.894390e-02 9.894390e-02 0.9951 -31.6082 28.3787)" width="4.7" height="1"/>
</g>
<g>
	<rect x="250.5" y="380.2" transform="matrix(0.5 -0.8661 0.8661 0.5 -205.529 408.5828)" width="1" height="4.1"/>
</g>
<g>
	<rect x="243.4" y="368.7" transform="matrix(0.9926 -0.1211 0.1211 0.9926 -43.1986 32.288)" width="1" height="5.4"/>
</g>
<g>
	<rect x="240.9" y="365.1" transform="matrix(0.1056 -0.9944 0.9944 0.1056 -145.4057 569.6367)" width="6.2" height="1"/>
</g>
<g>
	<rect x="241.9" y="358.8" transform="matrix(0.2847 -0.9586 0.9586 0.2847 -169.0148 492.1324)" width="6.8" height="1"/>
</g>
<g>
	<rect x="247.7" y="346.2" transform="matrix(0.5638 -0.8259 0.8259 0.5638 -176.7553 358.7869)" width="7.1" height="1"/>
</g>
<g>
	<rect x="274.1" y="331.2" transform="matrix(0.2949 -0.9555 0.9555 0.2949 -124.7714 497.4163)" width="1" height="4.2"/>
</g>
<g>
	<rect x="247.2" y="377.7" transform="matrix(0.6801 -0.7332 0.7332 0.6801 -199.2075 303.1642)" width="1" height="4.2"/>
</g>
<g>
	<rect x="244.7" y="373.9" transform="matrix(0.9111 -0.4122 0.4122 0.9111 -133.2973 134.5512)" width="1" height="4.7"/>
</g>
<g>
	<rect x="244.2" y="352.3" transform="matrix(0.4332 -0.9013 0.9013 0.4332 -177.6107 423.2914)" width="7.1" height="1"/>
</g>
<g>
	<rect x="252.2" y="340.8" transform="matrix(0.688 -0.7257 0.7257 0.688 -167.9549 292.0059)" width="6.8" height="1"/>
</g>
<g>
	<rect x="257.4" y="336.5" transform="matrix(0.8083 -0.5888 0.5888 0.8083 -148.5153 217.9748)" width="6.2" height="1"/>
</g>
<g>
	<rect x="283.9" y="340.8" transform="matrix(0.8052 -0.593 0.593 0.8052 -146.8967 235.0947)" width="1" height="0.6"/>
</g>
<g>
	<rect x="284.5" y="341.3" transform="matrix(0.8055 -0.5926 0.5926 0.8055 -147.2025 235.3854)" width="1" height="1.3"/>
</g>
<g>
	<rect x="254" y="377.3" transform="matrix(0.6799 -0.7333 0.7333 0.6799 -195.9879 307.753)" width="1" height="2.1"/>
</g>
<g>
	<rect x="252.7" y="376.5" transform="matrix(0.6803 -0.7329 0.7329 0.6803 -195.4929 306.197)" width="1" height="1.4"/>
</g>
<g>
	<rect x="274.6" y="338.6" transform="matrix(0.295 -0.9555 0.9555 0.295 -130.2839 502.0496)" width="1" height="1.4"/>
</g>
<g>
	<rect x="276.2" y="338.8" transform="matrix(0.2946 -0.9556 0.9556 0.2946 -129.5391 504.1526)" width="1" height="2.1"/>
</g>
<g>
	<rect x="285.8" y="333.3" transform="matrix(0.8656 -0.5007 0.5007 0.8656 -126.8192 195.0307)" width="28.2" height="1"/>
</g>
<g>
	<rect x="288.7" y="339.4" transform="matrix(0.8661 -0.4999 0.4999 0.8661 -129.3072 197.0696)" width="28.9" height="1"/>
</g>
<g>
	<polygon points="291.4,343.1 291.1,342.7 315.6,328.5 315.8,329 	"/>
</g>
<g>
	<rect x="281.2" y="335.2" transform="matrix(0.6801 -0.7332 0.7332 0.6801 -157.1842 314.4699)" width="1" height="4.2"/>
</g>
<g>
	<rect x="116.8" y="382.4" transform="matrix(0.9584 -0.2853 0.2853 0.9584 -104.2868 49.3783)" width="1" height="0.4"/>
</g>
<g>
	<rect x="117.1" y="381" transform="matrix(0.1225 -0.9925 0.9925 0.1225 -275.7731 451.2014)" width="0.4" height="1"/>
</g>
<g>
	
		<rect x="117.1" y="381.4" transform="matrix(3.014652e-02 -0.9995 0.9995 3.014652e-02 -268.0212 487.5917)" width="0.3" height="1"/>
</g>
<g>
	<rect x="117.1" y="381.6" transform="matrix(0.1206 -0.9927 0.9927 0.1206 -275.968 452.2539)" width="0.3" height="0.5"/>
</g>
<g>
	<rect x="118.1" y="381.1" transform="matrix(0.3912 -0.9203 0.9203 0.3912 -278.855 341.0096)" width="0.5" height="0.3"/>
</g>
<g>
	<rect x="117.8" y="381" transform="matrix(0.1011 -0.9949 0.9949 0.1011 -273.1584 460.0514)" width="0.5" height="0.3"/>
</g>
<g>
	
		<rect x="117.7" y="380.5" transform="matrix(9.788827e-02 -0.9952 0.9952 9.788827e-02 -272.293 461.0641)" width="1" height="0.4"/>
</g>
<g>
	<rect x="118.8" y="381.1" transform="matrix(0.7252 -0.6886 0.6886 0.7252 -229.8128 186.9501)" width="1" height="0.5"/>
</g>
<g>
	<rect x="118.7" y="381.5" transform="matrix(0.726 -0.6877 0.6877 0.726 -229.9198 186.3886)" width="0.5" height="0.4"/>
</g>
<g>
	<rect x="118" y="380.6" transform="matrix(0.3911 -0.9204 0.9204 0.3911 -278.3116 340.9906)" width="1" height="0.4"/>
</g>
<g>
	<polygon points="117.7,381.5 117.5,381 117.8,380.9 117.9,381.4 	"/>
</g>
<g>
	<polygon points="118.6,381.8 118.3,381.6 118.6,381.1 119,381.4 	"/>
</g>
<g>
	<rect x="118.4" y="380.8" transform="matrix(0.5902 -0.8072 0.8072 0.5902 -258.8593 252.1357)" width="1" height="0.5"/>
</g>
<g>
	<rect x="117" y="382.8" transform="matrix(0.9016 -0.4325 0.4325 0.9016 -154.1247 88.5096)" width="1" height="0.5"/>
</g>
<g>
	<rect x="117.2" y="380.7" transform="matrix(0.4126 -0.9109 0.9109 0.4126 -278.2798 330.8319)" width="0.4" height="1"/>
</g>
<g>
	<polygon points="117.5,381.8 117.1,381.6 117.2,381.3 117.6,381.5 	"/>
</g>
<g>
	<rect x="117.4" y="381.1" transform="matrix(0.7321 -0.6812 0.6812 0.7321 -228.285 182.1981)" width="0.3" height="0.5"/>
</g>
<g>
	<rect x="117.7" y="380.2" transform="matrix(0.9555 -0.2949 0.2949 0.9555 -107.0606 51.6953)" width="0.3" height="1"/>
</g>
<g>
	<rect x="117.4" y="380.4" transform="matrix(0.733 -0.6802 0.6802 0.733 -227.7187 181.6809)" width="0.3" height="1"/>
</g>
<g>
	<rect x="116.7" y="382.1" transform="matrix(0.9944 -0.1061 0.1061 0.9944 -39.894 14.5991)" width="1" height="0.4"/>
</g>
<g>
	<rect x="222.7" y="318.6" transform="matrix(0.5222 -0.8528 0.8528 0.5222 -165.4506 342.7445)" width="1" height="0.9"/>
</g>
<g>
	<rect x="119" y="381.8" transform="matrix(0.8254 -0.5646 0.5646 0.8254 -194.9013 134.041)" width="0.5" height="0.5"/>
</g>
<g>
	<rect x="119.4" y="382" transform="matrix(0.9015 -0.4328 0.4328 0.9015 -153.6365 89.5554)" width="1" height="0.5"/>
</g>
<g>
	<rect x="119.2" y="382.2" transform="matrix(0.9012 -0.4334 0.4334 0.9012 -153.9473 89.5457)" width="0.5" height="0.5"/>
</g>
<g>
	<rect x="119.6" y="382.5" transform="matrix(0.9586 -0.2848 0.2848 0.9586 -104.0212 50.0444)" width="1" height="0.5"/>
</g>
<g>
	<polygon points="119.4,383.2 119.3,382.7 119.8,382.6 119.9,383 	"/>
</g>
<g>
	<rect x="119.7" y="383" transform="matrix(0.9944 -0.106 0.106 0.9944 -39.9552 14.9034)" width="1" height="0.5"/>
</g>
<g>
	<rect x="119.4" y="383.1" transform="matrix(0.9944 -0.1061 0.1061 0.9944 -39.9899 14.8626)" width="0.5" height="0.4"/>
</g>
<g>
	<rect x="222.9" y="321.6" transform="matrix(0.8255 -0.5644 0.5644 0.8255 -142.6927 182.2439)" width="1" height="0.5"/>
</g>
<g>
	<rect x="222.5" y="321.2" transform="matrix(0.7257 -0.6881 0.6881 0.7257 -160.0007 241.6664)" width="1" height="0.5"/>
</g>
<g>
	<rect x="221.4" y="320.3" transform="matrix(0.9555 -0.2949 0.2949 0.9555 -84.7773 79.632)" width="0.3" height="1"/>
</g>
<g>
	<polygon points="224.7,322.2 224.1,321.3 224.6,321 225.1,322 	"/>
</g>
<g>
	<rect x="224.7" y="320.7" transform="matrix(0.8745 -0.485 0.485 0.8745 -127.5607 149.5486)" width="1" height="1.1"/>
</g>
<g>
	
		<rect x="225.6" y="323.7" transform="matrix(2.638101e-02 -0.9997 0.9997 2.638101e-02 -104.0046 541.5621)" width="0.9" height="1"/>
</g>
<g>
	<rect x="225.2" y="325.1" transform="matrix(0.6129 -0.7902 0.7902 0.6129 -169.9567 304.2885)" width="0.7" height="1"/>
</g>
<g>
	<polygon points="225,326.4 224.6,326 225,325.5 225.4,325.8 	"/>
</g>
<g>
	<rect x="224.7" y="325.5" transform="matrix(0.8656 -0.5007 0.5007 0.8656 -133.0009 156.5114)" width="0.7" height="1"/>
</g>
<g>
	<rect x="222.6" y="326" transform="matrix(0.2916 -0.9566 0.9566 0.2916 -154.1304 444.7106)" width="1" height="0.8"/>
</g>
<g>
	<rect x="223.5" y="326" transform="matrix(0.9991 -4.335542e-02 4.335542e-02 0.9991 -13.9455 10.0134)" width="0.7" height="1"/>
</g>
<g>
	<rect x="223.4" y="319.1" transform="matrix(0.6785 -0.7346 0.7346 0.6785 -162.7973 267.2633)" width="1" height="1"/>
</g>
<g>
	<polygon points="223.5,320.5 222.8,319.8 223.1,319.4 223.9,320.1 	"/>
</g>
<g>
	<rect x="221.9" y="318.3" transform="matrix(0.2925 -0.9563 0.9563 0.2925 -147.3949 438.1416)" width="1" height="0.8"/>
</g>
<g>
	<rect x="119.1" y="381.5" transform="matrix(0.8259 -0.5638 0.5638 0.8259 -194.4214 133.9062)" width="1" height="0.5"/>
</g>
<g>
	<rect x="222.2" y="320.9" transform="matrix(0.5902 -0.8072 0.8072 0.5902 -167.9927 311.3427)" width="1" height="0.5"/>
</g>
<g>
	<rect x="221.8" y="320.7" transform="matrix(0.3911 -0.9204 0.9204 0.3911 -160.0052 400.0053)" width="1" height="0.4"/>
</g>
<g>
	<rect x="225.2" y="321.7" transform="matrix(0.9389 -0.3442 0.3442 0.9389 -97.1273 97.358)" width="1" height="1.1"/>
</g>
<g>
	
		<rect x="221.4" y="320.6" transform="matrix(9.788827e-02 -0.9952 0.9952 9.788827e-02 -119.0826 510.281)" width="1" height="0.4"/>
</g>
<g>
	<rect x="223.5" y="323.9" transform="matrix(0.7335 -0.6797 0.6797 0.7335 -160.908 238.4944)" width="0.3" height="1"/>
</g>
<g>
	<rect x="223.7" y="323.6" transform="matrix(0.413 -0.9108 0.9108 0.413 -163.8132 394.1617)" width="0.4" height="1"/>
</g>
<g>
	<rect x="223.7" y="323.3" transform="matrix(0.1207 -0.9927 0.9927 0.1207 -124.4926 507.0195)" width="0.4" height="1"/>
</g>
<g>
	<rect x="223.4" y="323.1" transform="matrix(0.9944 -0.1058 0.1058 0.9944 -32.9545 25.5102)" width="1" height="0.5"/>
</g>
<g>
	<rect x="223.3" y="322.6" transform="matrix(0.9583 -0.2856 0.2856 0.9583 -82.8891 77.3851)" width="1" height="0.5"/>
</g>
<g>
	<rect x="223.1" y="322.1" transform="matrix(0.9015 -0.4328 0.4328 0.9015 -117.482 128.5491)" width="1" height="0.5"/>
</g>
<g>
	<rect x="223.8" y="320.2" transform="matrix(0.7905 -0.6124 0.6124 0.7905 -149.4914 204.3889)" width="0.5" height="1.1"/>
</g>
<g>
	<rect x="222.3" y="318.9" transform="matrix(0.522 -0.8529 0.8529 0.522 -166.019 342.5113)" width="0.5" height="0.9"/>
</g>
<g>
	<rect x="221.6" y="318.6" transform="matrix(0.2916 -0.9566 0.9566 0.2916 -148.0222 438.1884)" width="0.5" height="0.8"/>
</g>
<g>
	
		<rect x="220.8" y="318.7" transform="matrix(0.9991 -4.335542e-02 4.335542e-02 0.9991 -13.6192 9.8856)" width="0.7" height="0.5"/>
</g>
<g>
	<rect x="220.2" y="318.8" transform="matrix(0.8906 -0.4547 0.4547 0.8906 -120.9866 135.1604)" width="0.6" height="0.5"/>
</g>
<g>
	<rect x="219.7" y="319" transform="matrix(0.6124 -0.7905 0.7905 0.6124 -167.3033 297.7267)" width="0.7" height="1"/>
</g>
<g>
	<rect x="219.3" y="319.6" transform="matrix(0.2921 -0.9564 0.9564 0.2921 -150.6475 436.7037)" width="0.8" height="1"/>
</g>
<g>
	
		<rect x="219.1" y="320.4" transform="matrix(2.638101e-02 -0.9997 0.9997 2.638101e-02 -107.0484 531.9271)" width="0.9" height="1"/>
</g>
<g>
	<rect x="219.1" y="321.4" transform="matrix(0.9837 -0.1797 0.1797 0.9837 -54.222 44.693)" width="1" height="0.6"/>
</g>
<g>
	<rect x="221.4" y="325.5" transform="matrix(0.6789 -0.7342 0.7342 0.6789 -167.8884 267.4709)" width="1" height="0.4"/>
</g>
<g>
	<rect x="221.9" y="325.6" transform="matrix(0.5222 -0.8528 0.8528 0.5222 -171.8084 345.4429)" width="1" height="0.9"/>
</g>
<g>
	<rect x="224.2" y="325.8" transform="matrix(0.891 -0.454 0.454 0.891 -123.6896 137.4892)" width="0.6" height="1"/>
</g>
<g>
	<polygon points="225.4,325.8 224.9,325.6 225.2,324.9 225.7,325 	"/>
</g>
<g>
	
		<rect x="225" y="324.3" transform="matrix(2.640588e-02 -0.9997 0.9997 2.640588e-02 -104.9297 541.2951)" width="0.9" height="0.5"/>
</g>
<g>
	<polygon points="225.2,324.1 225,323.2 225.5,323.1 225.7,324 	"/>
</g>
<g>
	<polygon points="225,323.2 224.7,322.2 225.1,322 225.5,323 	"/>
</g>
<g>
	<rect x="225.4" y="322.8" transform="matrix(0.9837 -0.1799 0.1799 0.9837 -54.4743 45.9291)" width="1" height="1"/>
</g>
<g>
	<rect x="225.5" y="324.5" transform="matrix(0.2921 -0.9564 0.9564 0.2921 -150.8926 446.0962)" width="0.8" height="1"/>
</g>
<g>
	<rect x="220.8" y="318.2" transform="matrix(0.891 -0.454 0.454 0.891 -120.6091 135.0999)" width="0.6" height="1"/>
</g>
<g>
	<rect x="221.3" y="318.1" transform="matrix(0.999 -4.429610e-02 4.429610e-02 0.999 -13.8944 10.1327)" width="0.7" height="1"/>
</g>
<g>
	<rect x="224.1" y="319.8" transform="matrix(0.7907 -0.6121 0.6121 0.7907 -149.1157 204.546)" width="1" height="1.1"/>
</g>
<g>
	<rect x="220.1" y="318.5" transform="matrix(0.8665 -0.4992 0.4992 0.8665 -129.8306 152.6576)" width="0.7" height="1"/>
</g>
<g>
	<rect x="117.2" y="383.2" transform="matrix(0.8254 -0.5646 0.5646 0.8254 -195.9424 133.4408)" width="1" height="0.5"/>
</g>
<g>
	<rect x="117.5" y="383.6" transform="matrix(0.726 -0.6877 0.6877 0.726 -231.6009 186.3117)" width="1" height="0.4"/>
</g>
<g>
	<rect x="117.8" y="383.9" transform="matrix(0.5901 -0.8073 0.8073 0.5901 -261.5812 252.9665)" width="1" height="0.4"/>
</g>
<g>
	<rect x="118.1" y="384.1" transform="matrix(0.4732 -0.881 0.881 0.4732 -276.0357 306.9181)" width="1" height="0.3"/>
</g>
<g>
	<rect x="118.4" y="384.1" transform="matrix(0.3907 -0.9205 0.9205 0.3907 -281.4331 343.3429)" width="0.5" height="0.3"/>
</g>
<g>
	<rect x="118.4" y="384.2" transform="matrix(0.3915 -0.9202 0.9202 0.3915 -281.3605 343.3442)" width="1" height="0.4"/>
</g>
<g>
	
		<rect x="118.7" y="384.2" transform="matrix(9.788827e-02 -0.9952 0.9952 9.788827e-02 -275.1938 465.0984)" width="0.5" height="0.3"/>
</g>
<g>
	
		<rect x="118.8" y="384.3" transform="matrix(9.775601e-02 -0.9952 0.9952 9.775601e-02 -275.0345 465.6505)" width="1" height="0.4"/>
</g>
<g>
	<polygon points="119.2,384.6 119,384.1 119.3,384 119.4,384.5 	"/>
</g>
<g>
	<rect x="119.5" y="384" transform="matrix(0.9555 -0.2949 0.2949 0.9555 -108.0799 52.3887)" width="0.3" height="1"/>
</g>
<g>
	<polygon points="119.5,384.5 119.2,384.1 119.4,383.9 119.7,384.3 	"/>
</g>
<g>
	<rect x="119.7" y="383.8" transform="matrix(0.733 -0.6802 0.6802 0.733 -229.4171 184.1781)" width="0.3" height="1"/>
</g>
<g>
	<polygon points="119.8,384.2 119.3,384 119.4,383.7 119.9,383.9 	"/>
</g>
<g>
	<rect x="119.9" y="383.5" transform="matrix(0.4126 -0.9109 0.9109 0.4126 -279.2956 334.989)" width="0.4" height="1"/>
</g>
<g>
	<rect x="119.5" y="383.4" transform="matrix(0.1206 -0.9927 0.9927 0.1206 -275.5911 456.2223)" width="0.3" height="0.5"/>
</g>
<g>
	<rect x="120" y="383.2" transform="matrix(0.1207 -0.9927 0.9927 0.1207 -275.1894 456.6978)" width="0.4" height="1"/>
</g>
<g>
	<rect x="121.7" y="381.7" transform="matrix(0.5464 -0.8375 0.8375 0.5464 -264.9002 275.3828)" width="0.1" height="1"/>
</g>
<g>
	<rect x="121.8" y="381.7" transform="matrix(0.6899 -0.7239 0.7239 0.6899 -238.8588 206.7003)" width="0.1" height="1"/>
</g>
<g>
	<polygon points="122.2,382.5 121.6,381.7 121.7,381.6 	"/>
</g>
<g>
	<polygon points="122.2,382.5 121.8,381.6 121.9,381.6 	"/>
</g>
<g>
	<polygon points="122.1,382.6 122.1,381.5 122.1,381.5 	"/>
</g>
<g>
	<polygon points="122.3,382.8 121.9,382.5 121.9,382.4 122.3,382.7 	"/>
</g>
<g>
	<rect x="122" y="382.4" transform="matrix(0.742 -0.6704 0.6704 0.742 -225.0824 180.5627)" width="0.1" height="0.5"/>
</g>
<g>
	<rect x="121.9" y="382.5" transform="matrix(0.8437 -0.5368 0.5368 0.8437 -186.3906 125.275)" width="0.1" height="0.5"/>
</g>
<g>
	<polygon points="121.7,383.1 121.6,383 121.8,382.6 	"/>
</g>
<g>
	<polygon points="121.2,382.9 121.2,382.8 122.2,382.6 	"/>
</g>
<g>
	
		<rect x="121.6" y="382" transform="matrix(4.711742e-02 -0.9989 0.9989 4.711742e-02 -266.1754 486.0797)" width="0.1" height="1"/>
</g>
<g>
	<polygon points="122,382.3 122,382.2 122.5,382 122.5,382.1 	"/>
</g>
<g>
	<rect x="121.8" y="382.6" transform="matrix(0.9982 -6.026761e-02 6.026761e-02 0.9982 -22.85 8.0375)" width="0.1" height="0.5"/>
</g>
<g>
	<rect x="121.6" y="381.9" transform="matrix(0.2299 -0.9732 0.9732 0.2299 -278.4826 412.9745)" width="0.1" height="1"/>
</g>
<g>
	<rect x="122.2" y="382.1" transform="matrix(0.2638 -0.9646 0.9646 0.2638 -278.7965 399.4384)" width="0.1" height="0.5"/>
</g>
<g>
	<polygon points="122.4,382.6 122,382.4 122,382.3 122.5,382.5 	"/>
</g>
<g>
	<polygon points="122,382.6 122.3,381.6 122.4,381.6 	"/>
</g>
<g>
	<polygon points="122.2,382.7 121.2,382.7 121.2,382.6 	"/>
</g>
<g>
	<polygon points="121.2,382.7 121.2,382.7 122.2,382.5 	"/>
</g>
<g>
	<polygon points="122.4,382.7 121.9,382.4 122,382.4 122.4,382.6 	"/>
</g>
<g>
	<rect x="121.8" y="382.5" transform="matrix(0.9374 -0.3482 0.3482 0.9374 -125.6748 66.4057)" width="0.1" height="0.5"/>
</g>
<g>
	<polygon points="121.3,383.1 121.3,383.1 122.1,382.4 	"/>
</g>
<g>
	<rect x="121.7" y="381.8" transform="matrix(0.3937 -0.9192 0.9192 0.3937 -277.6595 343.7241)" width="0.1" height="1"/>
</g>
<g>
	<rect x="122" y="382.2" transform="matrix(0.986 -0.1667 0.1667 0.986 -61.9927 25.7219)" width="0.5" height="0.1"/>
</g>
<g>
	<polygon points="122.5,382.3 122,382.3 122.5,382.3 	"/>
</g>
<g>
	<rect x="121.9" y="382.1" transform="matrix(0.7201 -0.6939 0.6939 0.7201 -230.9386 191.7595)" width="0.5" height="0.1"/>
</g>
<g>
	<rect x="221.6" y="324.5" transform="matrix(0.8656 -0.5007 0.5007 0.8656 -132.8355 155.156)" width="2.1" height="1"/>
</g>
<g>
	<rect x="111.9" y="354.5" transform="matrix(0.8661 -0.4999 0.4999 0.8661 -154.594 132.8994)" width="117.7" height="1"/>
</g>
<g>
	<rect x="219.5" y="320.9" transform="matrix(0.8665 -0.4992 0.4992 0.8665 -131.0038 153.0003)" width="2.1" height="1"/>
</g>
<g>
	<rect x="109.8" y="350.9" transform="matrix(0.8661 -0.4999 0.4999 0.8661 -153.0597 131.3654)" width="117.7" height="1"/>
</g>
</svg>
