<svg version="1.1" class="inlinesvg" xmlns="http://www.w3.org/2000/svg" xmlns:xlink="http://www.w3.org/1999/xlink" x="0px" y="0px"
	 viewBox="0 0 119 86" enable-background="new 0 0 119 86" xml:space="preserve">
		<g>
			<path d="M46.6,63.1c-16.7,0-30.3-13.6-30.3-30.3c0-16.7,13.6-30.3,30.3-30.3c16.7,0,30.3,13.6,30.3,30.3
				C76.8,49.5,63.3,63.1,46.6,63.1z M46.6,3.5c-16.1,0-29.3,13.1-29.3,29.3s13.1,29.3,29.3,29.3s29.3-13.1,29.3-29.3
				S62.7,3.5,46.6,3.5z"/>
		</g>
		<g>
			<path d="M97.7,83.9H46.1V32.3h51.6V83.9z M47.1,82.9h49.6V33.3H47.1V82.9z"/>
		</g>
		<g>
			<g>
				<path fill="hsl(152, 89%, 61%)" class="akzentsvg" d="M47.1,63v-1c-0.2,0-0.3,0-0.5,0s-0.3,0-0.5,0v1c0.2,0,0.3,0,0.5,0S46.9,63,47.1,63z"/>
				<path fill="hsl(152, 89%, 61%)" class="akzentsvg" d="M46.6,65.1c-0.1,0-0.2,0-0.4,0L46,65c-1.1,0-2-0.9-2-2v-1c0-0.5,0.2-1.1,0.6-1.4c0.4-0.4,0.9-0.6,1.4-0.6
					l0.5,0l0.5,0c0.5,0,1.1,0.2,1.4,0.6s0.6,0.9,0.6,1.4v1c0,1.1-0.9,2-2,2l-0.2,0C46.8,65.1,46.7,65.1,46.6,65.1z"/>
			</g>
			<g>
				<path fill="hsl(152, 89%, 61%)" class="akzentsvg" d="M75.8,32.8c0,0.2,0,0.3,0,0.5h1c0-0.2,0-0.3,0-0.5s0-0.3,0-0.5h-1C75.8,32.4,75.8,32.6,75.8,32.8z"/>
				<path fill="hsl(152, 89%, 61%)" class="akzentsvg" d="M76.8,35.3h-1c-0.5,0-1.1-0.2-1.4-0.6s-0.6-0.9-0.6-1.4l0-0.5l0-0.5c0-0.5,0.2-1.1,0.6-1.4
					s0.9-0.6,1.4-0.6h1c1.1,0,2,0.9,2,2l0,0.2c0,0.1,0,0.2,0,0.4s0,0.2,0,0.4l0,0.2C78.8,34.4,77.9,35.3,76.8,35.3z"/>
			</g>
		</g>
		<g>
			<g>
				<g>
					<rect x="16.3" y="32.8" fill="hsl(152, 89%, 61%)" class="akzentsvg" width="1" height="16.4"/>
				</g>
				<g>
					<g>
						<circle fill="hsl(152, 89%, 61%)" class="akzentsvg" cx="16.8" cy="49.2" r="2"/>
					</g>
				</g>
				<g>
					<g>
						<g>
							<rect x="14.5" y="30.5" fill="#FFFFFF" width="4.5" height="4.5"/>
						</g>
						<g>
							<path fill="hsl(152, 89%, 61%)" class="akzentsvg" d="M19.4,30.2v5.2h-5.2v-5.2H19.4z M18.7,34.7v-3.8h-3.8v3.8H18.7z"/>
						</g>
					</g>
				</g>
			</g>
		</g>
		<g>
			<g>
				<g>
					<rect x="30.1" y="2.5" fill="hsl(152, 89%, 61%)" class="akzentsvg" width="16.4" height="1"/>
				</g>
				<g>
					<g>
						<circle fill="hsl(152, 89%, 61%)" class="akzentsvg" cx="30.1" cy="3" r="2"/>
					</g>
				</g>
				<g>
					<g>
						<g>
							<rect x="44.3" y="0.8" fill="#FFFFFF" width="4.5" height="4.5"/>
						</g>
						<g>
							<path fill="hsl(152, 89%, 61%)" class="akzentsvg" d="M49.1,5.6H44V0.4h5.2V5.6z M44.7,4.9h3.8V1.1h-3.8V4.9z"/>
						</g>
					</g>
				</g>
			</g>
		</g>
		<g>
			<g>
				<g>
					<rect x="16.3" y="16.3" fill="hsl(152, 89%, 61%)" class="akzentsvg" width="1" height="16.4"/>
				</g>
				<g>
					<g>
						<circle fill="hsl(152, 89%, 61%)" class="akzentsvg" cx="16.8" cy="16.3" r="2"/>
					</g>
				</g>
				<g>
					<g>
						<g>
							<rect x="14.5" y="30.5" fill="#FFFFFF" width="4.5" height="4.5"/>
						</g>
						<g>
							<path fill="hsl(152, 89%, 61%)" class="akzentsvg" d="M14.2,35.4v-5.2h5.2v5.2H14.2z M14.9,30.9v3.8h3.8v-3.8H14.9z"/>
						</g>
					</g>
				</g>
			</g>
		</g>
		<g>
			<rect x="71.4" y="22.3" transform="matrix(0.7071 -0.7071 0.7071 0.7071 -20.029 67.8363)" width="1" height="71.6"/>
		</g>
		<g>
			<rect x="36.1" y="57.6" transform="matrix(0.7071 -0.7071 0.7071 0.7071 -20.0284 67.8366)" width="71.6" height="1"/>
		</g>
</svg>
