<?xml version="1.0" encoding="utf-8"?>
<!-- Generator: Adobe Illustrator 16.0.0, SVG Export Plug-In . SVG Version: 6.00 Build 0)  -->
<!DOCTYPE svg PUBLIC "-//W3C//DTD SVG 1.1//EN" "http://www.w3.org/Graphics/SVG/1.1/DTD/svg11.dtd">
<svg version="1.1" id="Layer_1" xmlns="http://www.w3.org/2000/svg" xmlns:xlink="http://www.w3.org/1999/xlink" x="0px" y="0px"
	 width="50px" height="50px" viewBox="0 0 50 50" enable-background="new 0 0 50 50" xml:space="preserve">
<g>
	<path fill="#FFFFFF" d="M50,40.625C50,45.781,45.781,50,40.625,50H9.375C4.219,50,0,45.781,0,40.625V9.375C0,4.219,4.219,0,9.375,0
		h31.25C45.781,0,50,4.219,50,9.375V40.625z"/>
</g>
<g>
	<path fill="none" stroke="#000000" stroke-miterlimit="10" d="M43.35,33.977c0,5.154-4.218,9.375-9.375,9.375H16.024
		c-5.156,0-9.375-4.221-9.375-9.375V16.025c0-5.156,4.219-9.375,9.375-9.375h17.951c5.157,0,9.375,4.219,9.375,9.375V33.977z"/>
</g>
<g>
	<path fill="none" stroke="#000000" stroke-miterlimit="10" d="M39.963,34.232c0,3.149-2.579,5.729-5.729,5.729H15.768
		c-3.151,0-5.729-2.579-5.729-5.729V15.768c0-3.151,2.578-5.729,5.729-5.729h18.464c3.151,0,5.729,2.578,5.729,5.729L39.963,34.232
		L39.963,34.232z"/>
</g>
<circle fill="none" stroke="#000000" stroke-miterlimit="10" cx="25" cy="25" r="6.01"/>
<circle fill="none" stroke="#000000" stroke-miterlimit="10" cx="25" cy="25" r="9.398"/>
<circle stroke="#FFFFFF" stroke-miterlimit="10" cx="34.784" cy="15.217" r="2.43"/>
</svg>
