<svg width="50" height="50" viewBox="0 0 50 50" version="1.1" xmlns="http://www.w3.org/2000/svg" xmlns:xlink="http://www.w3.org/1999/xlink">
<title>instagram</title>
<desc>Created using Figma</desc>
<g id="Canvas" transform="translate(-535 -2952)">
<clipPath id="clip-0" clip-rule="evenodd">
<path d="M 535 2952L 585 2952L 585 3002L 535 3002L 535 2952Z" fill="#FFFFFF"/>
</clipPath>
<g id="instagram" clip-path="url(#clip-0)">
<g id="Group">
<g id="Vector">
<use xlink:href="#path0_stroke" transform="translate(541.649 2958.65)" fill="#FFFFFF"/>
</g>
</g>
<g id="Group">
<g id="Vector">
<use xlink:href="#path1_stroke" transform="translate(545.039 2962.04)" fill="#FFFFFF"/>
</g>
</g>
<g id="Vector">
<use xlink:href="#path2_stroke" transform="translate(553.99 2970.99)" fill="#FFFFFF"/>
</g>
<g id="Vector">
<use xlink:href="#path3_stroke" transform="translate(550.602 2967.6)" fill="#FFFFFF"/>
</g>
<g id="Vector">
<mask id="mask0_outline_ins">
<use xlink:href="#path4_fill" fill="white" transform="translate(567.354 2964.79)"/>
</mask>
<g mask="url(#mask0_outline_ins)">
<use xlink:href="#path5_stroke_2x" transform="translate(567.354 2964.79)" fill="#FFFFFF"/>
</g>
</g>
</g>
</g>
<defs>
<path id="path0_stroke" d="M 35.901 27.327C 35.901 32.0393 32.041 35.902 27.326 35.902L 27.326 37.502C 32.925 37.502 37.501 32.9227 37.501 27.327L 35.901 27.327ZM 27.326 35.902L 9.375 35.902L 9.375 37.502L 27.326 37.502L 27.326 35.902ZM 9.375 35.902C 4.66094 35.902 0.8 32.0393 0.8 27.327L -0.8 27.327C -0.8 32.9227 3.77706 37.502 9.375 37.502L 9.375 35.902ZM 0.8 27.327L 0.8 9.375L -0.8 9.375L -0.8 27.327L 0.8 27.327ZM 0.8 9.375C 0.8 4.66083 4.66083 0.8 9.375 0.8L 9.375 -0.8C 3.77717 -0.8 -0.8 3.77717 -0.8 9.375L 0.8 9.375ZM 9.375 0.8L 27.326 0.8L 27.326 -0.8L 9.375 -0.8L 9.375 0.8ZM 27.326 0.8C 32.0411 0.8 35.901 4.66077 35.901 9.375L 37.501 9.375C 37.501 3.77723 32.9249 -0.8 27.326 -0.8L 27.326 0.8ZM 35.901 9.375L 35.901 27.327L 37.501 27.327L 37.501 9.375L 35.901 9.375Z"/>
<path id="path1_stroke" d="M 29.924 24.193L 30.724 24.193L 30.724 24.1929L 29.924 24.193ZM 29.922 5.729L 29.122 5.729L 29.122 5.72909L 29.922 5.729ZM 29.124 24.193C 29.124 26.9003 26.9031 29.122 24.195 29.122L 24.195 30.722C 27.7869 30.722 30.724 27.7837 30.724 24.193L 29.124 24.193ZM 24.195 29.122L 5.729 29.122L 5.729 30.722L 24.195 30.722L 24.195 29.122ZM 5.729 29.122C 3.01992 29.122 0.8 26.9013 0.8 24.193L -0.8 24.193C -0.8 27.7847 2.13608 30.722 5.729 30.722L 5.729 29.122ZM 0.8 24.193L 0.8 5.729L -0.8 5.729L -0.8 24.193L 0.8 24.193ZM 0.8 5.729C 0.8 3.01983 3.01983 0.8 5.729 0.8L 5.729 -0.8C 2.13617 -0.8 -0.8 2.13617 -0.8 5.729L 0.8 5.729ZM 5.729 0.8L 24.193 0.8L 24.193 -0.8L 5.729 -0.8L 5.729 0.8ZM 24.193 0.8C 26.9022 0.8 29.122 3.01983 29.122 5.729L 30.722 5.729C 30.722 2.13617 27.7858 -0.8 24.193 -0.8L 24.193 0.8ZM 29.122 5.72909L 29.124 24.1931L 30.724 24.1929L 30.722 5.72891L 29.122 5.72909Z"/>
<path id="path2_stroke" d="M 11.22 6.01C 11.22 8.8874 8.8874 11.22 6.01 11.22L 6.01 12.82C 9.77106 12.82 12.82 9.77106 12.82 6.01L 11.22 6.01ZM 6.01 11.22C 3.1326 11.22 0.8 8.8874 0.8 6.01L -0.8 6.01C -0.8 9.77106 2.24894 12.82 6.01 12.82L 6.01 11.22ZM 0.8 6.01C 0.8 3.1326 3.1326 0.8 6.01 0.8L 6.01 -0.8C 2.24894 -0.8 -0.8 2.24894 -0.8 6.01L 0.8 6.01ZM 6.01 0.8C 8.8874 0.8 11.22 3.1326 11.22 6.01L 12.82 6.01C 12.82 2.24894 9.77106 -0.8 6.01 -0.8L 6.01 0.8Z"/>
<path id="path3_stroke" d="M 17.996 9.398C 17.996 14.1465 14.1465 17.996 9.398 17.996L 9.398 19.596C 15.0302 19.596 19.596 15.0302 19.596 9.398L 17.996 9.398ZM 9.398 17.996C 4.64946 17.996 0.8 14.1465 0.8 9.398L -0.8 9.398C -0.8 15.0302 3.7658 19.596 9.398 19.596L 9.398 17.996ZM 0.8 9.398C 0.8 4.64946 4.64946 0.8 9.398 0.8L 9.398 -0.8C 3.7658 -0.8 -0.8 3.7658 -0.8 9.398L 0.8 9.398ZM 9.398 0.8C 14.1465 0.8 17.996 4.64946 17.996 9.398L 19.596 9.398C 19.596 3.7658 15.0302 -0.8 9.398 -0.8L 9.398 0.8Z"/>
<path id="path4_fill" d="M 2.43 4.86C 3.77205 4.86 4.86 3.77205 4.86 2.43C 4.86 1.08795 3.77205 0 2.43 0C 1.08795 0 0 1.08795 0 2.43C 0 3.77205 1.08795 4.86 2.43 4.86Z"/>
<path id="path5_stroke_2x" d="M 3.26 2.43C 3.26 2.8884 2.8884 3.26 2.43 3.26L 2.43 6.46C 4.65571 6.46 6.46 4.65571 6.46 2.43L 3.26 2.43ZM 2.43 3.26C 1.9716 3.26 1.6 2.8884 1.6 2.43L -1.6 2.43C -1.6 4.65571 0.204294 6.46 2.43 6.46L 2.43 3.26ZM 1.6 2.43C 1.6 1.9716 1.9716 1.6 2.43 1.6L 2.43 -1.6C 0.204293 -1.6 -1.6 0.204292 -1.6 2.43L 1.6 2.43ZM 2.43 1.6C 2.8884 1.6 3.26 1.9716 3.26 2.43L 6.46 2.43C 6.46 0.204292 4.65571 -1.6 2.43 -1.6L 2.43 1.6Z"/>
</defs>
</svg>
