<svg width="50" height="50" viewBox="0 0 50 50" version="1.1" xmlns="http://www.w3.org/2000/svg" xmlns:xlink="http://www.w3.org/1999/xlink">
<title>linkedin</title>
<desc>Created using Figma</desc>
<g id="Canvas" transform="translate(-585 -2952)">
<clipPath id="clip-0" clip-rule="evenodd">
<path d="M 585 2952L 635 2952L 635 3002L 585 3002L 585 2952Z" fill="#FFFFFF"/>
</clipPath>
<g id="linkedin" clip-path="url(#clip-0)">
<g id="Group">
<g id="Vector">
<use xlink:href="#path0_stroke" transform="translate(595.006 2962.83)" fill="#FFFFFF"/>
</g>
<g id="Vector">
<use xlink:href="#path1_stroke" transform="translate(606.389 2971.22)" fill="#FFFFFF"/>
</g>
</g>
</g>
</g>
<defs>
<path id="path0_stroke" d="M 6.68997 3.2L 7.48997 3.2L 7.48997 3.19081L 7.48976 3.18162L 6.68997 3.2ZM 0.000966809 3.2L 0.800735 3.21926L 0.801188 3.20044L 0.800756 3.18162L 0.000966809 3.2ZM 0.166967 29.167L -0.633033 29.167L -0.633033 29.967L 0.166967 29.967L 0.166967 29.167ZM 0.166967 8.851L 0.166967 8.051L -0.633033 8.051L -0.633033 8.851L 0.166967 8.851ZM 6.48197 8.851L 7.28197 8.851L 7.28197 8.051L 6.48197 8.051L 6.48197 8.851ZM 6.48197 29.167L 6.48197 29.967L 7.28197 29.967L 7.28197 29.167L 6.48197 29.167ZM 5.88997 3.2C 5.88997 4.47651 4.94528 5.558 3.28297 5.558L 3.28297 7.158C 5.77466 7.158 7.48997 5.41349 7.48997 3.2L 5.88997 3.2ZM 3.28297 5.558C 1.7131 5.558 0.770152 4.4892 0.800735 3.21926L -0.798801 3.18074C -0.852218 5.3988 0.864831 7.158 3.28297 7.158L 3.28297 5.558ZM 0.800756 3.18162C 0.784469 2.47277 1.03121 1.89105 1.44435 1.48519C 1.85857 1.07827 2.49012 0.8 3.32497 0.8L 3.32497 -0.8C 2.12382 -0.8 1.07237 -0.392275 0.323081 0.34381C -0.427279 1.08095 -0.824535 2.09923 -0.798822 3.21838L 0.800756 3.18162ZM 3.32497 0.8C 4.15719 0.8 4.77885 1.07661 5.19446 1.48507C 5.61232 1.89574 5.87345 2.4903 5.89018 3.21838L 7.48976 3.18162C 7.46448 2.08171 7.06112 1.07626 6.31598 0.34393C 5.56858 -0.390611 4.52874 -0.8 3.32497 -0.8L 3.32497 0.8ZM 0.966967 29.167L 0.966967 8.851L -0.633033 8.851L -0.633033 29.167L 0.966967 29.167ZM 0.166967 9.651L 6.48197 9.651L 6.48197 8.051L 0.166967 8.051L 0.166967 9.651ZM 5.68197 8.851L 5.68197 29.167L 7.28197 29.167L 7.28197 8.851L 5.68197 8.851ZM 6.48197 28.367L 0.166967 28.367L 0.166967 29.967L 6.48197 29.967L 6.48197 28.367Z"/>
<path id="path1_stroke" d="M 0.166 6.937L -0.634 6.937L -0.634 7.737L 0.166 7.737L 0.166 6.937ZM -6.10352e-08 0.457L -6.10352e-08 -0.343001L -0.838042 -0.343001L -0.799138 0.494137L -6.10352e-08 0.457ZM 5.484 0.457L 6.27966 0.373802L 6.20471 -0.343001L 5.484 -0.343001L 5.484 0.457ZM 5.775 3.24L 4.97934 3.3232L 5.05429 4.04L 5.775 4.04L 5.775 3.24ZM 5.899 3.24L 5.899 4.04L 6.33444 4.04L 6.57084 3.67432L 5.899 3.24ZM 19.444 20.773L 19.444 21.573L 20.244 21.573L 20.244 20.773L 19.444 20.773ZM 13.129 20.773L 12.329 20.773L 12.329 21.573L 13.129 21.573L 13.129 20.773ZM 6.732 7.478L 7.46248 7.80418L 7.47513 7.77586L 7.48554 7.74666L 6.732 7.478ZM 6.482 20.773L 6.482 21.573L 7.282 21.573L 7.282 20.773L 6.482 20.773ZM 0.167 20.773L -0.633 20.773L -0.633 21.573L 0.167 21.573L 0.167 20.773ZM 0.167 6.937L 0.967 6.937L 0.967 6.137L 0.167 6.137L 0.167 6.937ZM 0.966 6.937C 0.966 4.38537 0.882402 2.21156 0.799137 0.419862L -0.799138 0.494137C -0.716402 2.27444 -0.634 4.42063 -0.634 6.937L 0.966 6.937ZM -6.10352e-08 1.257L 5.484 1.257L 5.484 -0.343001L -6.10352e-08 -0.343001L -6.10352e-08 1.257ZM 4.68834 0.540197L 4.97934 3.3232L 6.57066 3.1568L 6.27966 0.373802L 4.68834 0.540197ZM 5.775 4.04L 5.899 4.04L 5.899 2.44L 5.775 2.44L 5.775 4.04ZM 6.57084 3.67432C 7.29561 2.55319 9.14599 0.800001 12.173 0.800001L 12.173 -0.799999C 8.47001 -0.799999 6.16639 1.35281 5.22716 2.80568L 6.57084 3.67432ZM 12.173 0.800001C 14.0689 0.800001 15.6542 1.42056 16.7734 2.65588C 17.9003 3.8997 18.644 5.86594 18.644 8.724L 20.244 8.724C 20.244 5.60006 19.4292 3.2043 17.9591 1.58162C 16.4813 -0.0495549 14.4311 -0.799999 12.173 -0.799999L 12.173 0.800001ZM 18.644 8.724L 18.644 20.773L 20.244 20.773L 20.244 8.724L 18.644 8.724ZM 19.444 19.973L 13.129 19.973L 13.129 21.573L 19.444 21.573L 19.444 19.973ZM 13.929 20.773L 13.929 9.513L 12.329 9.513L 12.329 20.773L 13.929 20.773ZM 13.929 9.513C 13.929 8.13439 13.6923 6.84979 13.0527 5.88733C 12.3777 4.87173 11.3169 4.31 9.93 4.31L 9.93 5.91C 10.8281 5.91 11.3668 6.24127 11.7201 6.77292C 12.1087 7.35771 12.329 8.27461 12.329 9.513L 13.929 9.513ZM 9.93 4.31C 7.74216 4.31 6.46697 5.83917 5.97846 7.20934L 7.48554 7.74666C 7.82703 6.78883 8.62984 5.91 9.93 5.91L 9.93 4.31ZM 6.00152 7.15182C 5.76581 7.67968 5.682 8.43705 5.682 9.057L 7.282 9.057C 7.282 8.51295 7.36419 8.02431 7.46248 7.80418L 6.00152 7.15182ZM 5.682 9.057L 5.682 20.773L 7.282 20.773L 7.282 9.057L 5.682 9.057ZM 6.482 19.973L 0.167 19.973L 0.167 21.573L 6.482 21.573L 6.482 19.973ZM 0.967 20.773L 0.967 6.937L -0.633 6.937L -0.633 20.773L 0.967 20.773ZM 0.167 6.137L 0.166 6.137L 0.166 7.737L 0.167 7.737L 0.167 6.137Z"/>
</defs>
</svg>
