<?xml version="1.0" encoding="utf-8"?>
<!-- Generator: Adobe Illustrator 16.0.0, SVG Export Plug-In . SVG Version: 6.00 Build 0)  -->
<!DOCTYPE svg PUBLIC "-//W3C//DTD SVG 1.1//EN" "http://www.w3.org/Graphics/SVG/1.1/DTD/svg11.dtd">
<svg version="1.1" id="Layer_1" xmlns="http://www.w3.org/2000/svg" xmlns:xlink="http://www.w3.org/1999/xlink" x="0px" y="0px"
	 width="50px" height="50px" viewBox="0 0 50 50" enable-background="new 0 0 50 50" xml:space="preserve">
<g>
	<path fill="#FFFFFF" d="M50,40.625C50,45.781,45.781,50,40.625,50H9.375C4.219,50,0,45.781,0,40.625V9.375C0,4.219,4.219,0,9.375,0
		h31.25C45.781,0,50,4.219,50,9.375V40.625z"/>
</g>
<g>
	<path fill="none" stroke="#000000" d="M16.696,14.027c0,1.745-1.33,3.158-3.407,3.158c-1.994,0-3.324-1.414-3.282-3.158
		c-0.042-1.828,1.288-3.2,3.324-3.2S16.654,12.199,16.696,14.027z M10.173,39.994V19.678h6.315v20.316H10.173z"/>
	<path fill="none" stroke="#000000" d="M21.555,26.158c0-2.534-0.083-4.694-0.166-6.48h5.484l0.291,2.783h0.124
		c0.832-1.287,2.909-3.24,6.274-3.24c4.154,0,7.271,2.742,7.271,8.724v12.049h-6.315v-11.26c0-2.617-0.914-4.403-3.199-4.403
		c-1.744,0-2.783,1.204-3.198,2.368c-0.167,0.374-0.25,0.997-0.25,1.579v11.716h-6.315V26.158z"/>
</g>
</svg>
