<?xml version="1.0" encoding="utf-8"?>
<!-- Generator: Adobe Illustrator 16.0.0, SVG Export Plug-In . SVG Version: 6.00 Build 0)  -->
<!DOCTYPE svg PUBLIC "-//W3C//DTD SVG 1.1//EN" "http://www.w3.org/Graphics/SVG/1.1/DTD/svg11.dtd">
<svg version="1.1" id="Layer_1" xmlns="http://www.w3.org/2000/svg" xmlns:xlink="http://www.w3.org/1999/xlink" x="0px" y="0px"
	 width="50px" height="50px" viewBox="0 0 50 50" enable-background="new 0 0 50 50" xml:space="preserve">
<g>
	<path fill="#FFFFFF" d="M50,40.625C50,45.781,45.781,50,40.625,50H9.375C4.219,50,0,45.781,0,40.625V9.375C0,4.219,4.219,0,9.375,0
		h31.25C45.781,0,50,4.219,50,9.375V40.625z"/>
</g>
<g>
	<path fill="none" stroke="#000000" stroke-miterlimit="10" d="M40.72,35.004"/>
	<g>
		<path fill="#FFFFFF" d="M40.72,35.004L27.121,21.397c-1.167-1.167-3.076-1.167-4.242,0L9.28,35.004"/>
		<path fill="none" stroke="#000000" stroke-miterlimit="10" d="M40.72,35.004L27.121,21.397c-1.167-1.167-3.076-1.167-4.242,0
			L9.28,35.004"/>
	</g>
</g>
<g>
	<path fill="none" stroke="#000000" stroke-miterlimit="10" d="M41.666,32.703c0,1.65-1.35,3-3,3H11.334c-1.65,0-3-1.35-3-3V17.297
		c0-1.65,1.35-3,3-3h27.332c1.65,0,3,1.35,3,3V32.703z"/>
</g>
<g>
	<path fill="none" stroke="#000000" stroke-miterlimit="10" d="M9.28,15.274"/>
	<g>
		<path fill="#FFFFFF" d="M9.28,15.274l13.599,13.604c1.167,1.167,3.075,1.167,4.242,0L40.72,15.274"/>
		<path fill="none" stroke="#000000" stroke-miterlimit="10" d="M9.28,15.274l13.599,13.604c1.167,1.167,3.075,1.167,4.242,0
			L40.72,15.274"/>
	</g>
</g>
</svg>
