<svg version="1.1" class="inlinesvg" xmlns="http://www.w3.org/2000/svg" xmlns:xlink="http://www.w3.org/1999/xlink" x="0px" y="0px"
	 viewBox="0 0 119 86" enable-background="new 0 0 119 86" xml:space="preserve">
<g>
	<g>
		<circle cx="31.6" cy="25.6" r="0.5"/>
	</g>
	<g>
		<circle cx="39.5" cy="24.3" r="0.5"/>
	</g>
	<g>
		<circle cx="47.4" cy="22.9" r="0.5"/>
	</g>
	<g>
		<circle cx="55.3" cy="21.6" r="0.5"/>
	</g>
	<g>
		<circle cx="63.2" cy="20.3" r="0.5"/>
	</g>
	<g>
		<circle cx="71.1" cy="18.9" r="0.5"/>
	</g>
	<g>
		<circle cx="78.9" cy="17.6" r="0.5"/>
	</g>
	<g>
		<circle cx="33" cy="33.5" r="0.5"/>
	</g>
	<g>
		<circle cx="40.9" cy="32.2" r="0.5"/>
	</g>
	<g>
		<circle cx="48.7" cy="30.8" r="0.5"/>
	</g>
	<g>
		<circle cx="56.6" cy="29.5" r="0.5"/>
	</g>
	<g>
		<circle cx="64.5" cy="28.1" r="0.5"/>
	</g>
	<g>
		<circle cx="72.4" cy="26.8" r="0.5"/>
	</g>
	<g>
		<circle cx="80.3" cy="25.5" r="0.5"/>
	</g>
	<g>
		<circle cx="26.4" cy="42.7" r="0.5"/>
	</g>
	<g>
		<circle cx="34.3" cy="41.4" r="0.5"/>
	</g>
	<g>
		<circle cx="42.2" cy="40.1" r="0.5"/>
	</g>
	<g>
		<circle cx="50.1" cy="38.7" r="0.5"/>
	</g>
	<g>
		<circle cx="58" cy="37.4" r="0.5"/>
	</g>
	<g>
		<circle cx="65.9" cy="36" r="0.5"/>
	</g>
	<g>
		<circle cx="73.7" cy="34.7" r="0.5"/>
	</g>
	<g>
		<circle cx="81.6" cy="33.4" r="0.5"/>
	</g>
	<g>
		<circle cx="89.5" cy="32" r="0.5"/>
	</g>
	<g>
		<circle cx="27.8" cy="50.6" r="0.5"/>
	</g>
	<g>
		<circle cx="35.6" cy="49.3" r="0.5"/>
	</g>
	<g>
		<circle cx="43.5" cy="47.9" r="0.5"/>
	</g>
	<g>
		<circle cx="51.4" cy="46.6" r="0.5"/>
	</g>
	<g>
		<circle cx="59.3" cy="45.3" r="0.5"/>
	</g>
	<g>
		<circle cx="67.2" cy="43.9" r="0.5"/>
	</g>
	<g>
		<circle cx="75.1" cy="42.6" r="0.5"/>
	</g>
	<g>
		<circle cx="83" cy="41.2" r="0.5"/>
	</g>
	<g>
		<circle cx="90.9" cy="39.9" r="0.5"/>
	</g>
	<g>
		<circle cx="37" cy="57.2" r="0.5"/>
	</g>
	<g>
		<circle cx="44.9" cy="55.8" r="0.5"/>
	</g>
	<g>
		<circle cx="52.8" cy="54.5" r="0.5"/>
	</g>
	<g>
		<circle cx="60.6" cy="53.1" r="0.5"/>
	</g>
	<g>
		<circle cx="68.5" cy="51.8" r="0.5"/>
	</g>
	<g>
		<circle cx="76.4" cy="50.5" r="0.5"/>
	</g>
	<g>
		<circle cx="84.3" cy="49.1" r="0.5"/>
	</g>
	<g>
		<circle cx="38.3" cy="65.1" r="0.5"/>
	</g>
	<g>
		<circle cx="46.2" cy="63.7" r="0.5"/>
	</g>
	<g>
		<circle cx="54.1" cy="62.4" r="0.5"/>
	</g>
	<g>
		<circle cx="62" cy="61" r="0.5"/>
	</g>
	<g>
		<circle cx="69.9" cy="59.7" r="0.5"/>
	</g>
	<g>
		<circle cx="77.8" cy="58.3" r="0.5"/>
	</g>
	<g>
		<circle cx="85.6" cy="57" r="0.5"/>
	</g>
	<g>
		<circle cx="38.3" cy="65.1" r="0.5"/>
	</g>
	<g>
		<circle cx="46.2" cy="63.7" r="0.5"/>
	</g>
	<g>
		<circle cx="54.1" cy="62.4" r="0.5"/>
	</g>
	<g>
		<circle cx="62" cy="61" r="0.5"/>
	</g>
	<g>
		<circle cx="69.9" cy="59.7" r="0.5"/>
	</g>
	<g>
		<circle cx="77.8" cy="58.4" r="0.5"/>
	</g>
	<g>
		<circle cx="85.7" cy="57" r="0.5"/>
	</g>
	<g>
		<circle cx="47.6" cy="71.6" r="0.5"/>
	</g>
	<g>
		<circle cx="55.4" cy="70.3" r="0.5"/>
	</g>
	<g>
		<circle cx="63.3" cy="68.9" r="0.5"/>
	</g>
	<g>
		<circle cx="71.2" cy="67.6" r="0.5"/>
	</g>
	<g>
		<circle cx="79.1" cy="66.2" r="0.5"/>
	</g>
	<g>
		<circle cx="46.1" cy="15.1" r="0.5"/>
	</g>
	<g>
		<circle cx="53.9" cy="13.7" r="0.5"/>
	</g>
	<g>
		<circle cx="61.8" cy="12.4" r="0.5"/>
	</g>
</g>
<g>
	<path d="M59,75.9c-18.8,0-34.1-15.3-34.1-34.1S40.2,7.6,59,7.6s34.1,15.3,34.1,34.1S77.8,75.9,59,75.9z M59,8.6
		c-18.3,0-33.1,14.9-33.1,33.1C25.9,60,40.7,74.9,59,74.9c18.3,0,33.1-14.9,33.1-33.1C92.1,23.5,77.3,8.6,59,8.6z"/>
</g>
<g>
	<g>
		<path fill="hsl(152, 89%, 61%)" class="akzentsvg" d="M57.8,83.8c-1.7,0-3.5-0.5-4.8-1.3L51,81c-2.2-1.5-6.2-2.8-8.8-2.9l-2.5-0.1c-2.9-0.1-6.2-2.4-7.4-5.1
			l-1-2.3c-1-2.5-3.7-5.7-5.9-7.2L23.4,62c-2.4-1.7-4-5.4-3.5-8.3l0.4-2.5c0.5-2.6,0-6.8-1-9.3l-1-2.3c-1.1-2.7-0.4-6.7,1.6-8.8
			l1.7-1.8c1.8-2,3.7-5.7,4.1-8.3l0.4-2.5c0.5-2.9,3.2-5.8,6.1-6.6l2.4-0.6c2.6-0.7,6.2-2.8,8-4.8l1.7-1.8c2-2.2,5.9-3.2,8.7-2.2
			L55.4,3c2.5,0.8,6.7,1,9.3,0.3l2.4-0.6c2.8-0.7,6.7,0.5,8.5,2.8l1.6,1.9c1.7,2.1,5.1,4.4,7.7,5.3l2.4,0.8c2.8,0.9,5.3,4,5.6,7
			l0.3,2.5c0.3,2.7,1.9,6.5,3.6,8.6l1.6,1.9c1.8,2.3,2.3,6.3,1,8.9l-1.1,2.2c-1.2,2.4-1.9,6.5-1.6,9.2l0.3,2.5c0.3,2.9-1.5,6.5-4,8
			l-2.1,1.3c-2.3,1.4-5.1,4.4-6.3,6.8l-1.1,2.2c-1.3,2.6-4.8,4.7-7.7,4.6l-2.5-0.1c-2.7-0.1-6.7,1-9,2.3L62,82.7
			C60.8,83.5,59.3,83.8,57.8,83.8z M50.8,2.9c-2.1,0-4.4,0.9-5.7,2.3L43.4,7c-1.9,2.1-5.7,4.4-8.5,5.1l-2.4,0.6
			c-2.5,0.6-4.9,3.3-5.3,5.8l-0.4,2.5c-0.5,2.8-2.5,6.8-4.4,8.8l-1.7,1.8c-1.7,1.9-2.3,5.4-1.4,7.8l1,2.3c1.1,2.6,1.6,7,1.1,9.8
			l-0.4,2.5c-0.4,2.5,1,5.8,3,7.3l2.1,1.4c2.3,1.6,5.1,5.1,6.2,7.7l1,2.3c1,2.3,3.9,4.4,6.5,4.5l2.5,0.1c2.8,0.1,7,1.5,9.4,3.1
			l2.1,1.4c2.1,1.4,5.7,1.6,7.9,0.3l2.1-1.3c2.4-1.5,6.7-2.6,9.6-2.5l2.5,0.1c2.6,0.1,5.6-1.8,6.8-4l1.1-2.2
			c1.3-2.5,4.3-5.8,6.7-7.3l2.1-1.3c2.2-1.3,3.8-4.5,3.5-7.1l-0.3-2.5c-0.3-2.8,0.5-7.2,1.7-9.7l1.1-2.2c1.1-2.3,0.7-5.9-0.9-7.8
			L96,32.1c-1.8-2.2-3.5-6.3-3.8-9.1l-0.3-2.5c-0.3-2.5-2.6-5.3-5-6.1l0,0l-2.4-0.8c-2.7-0.9-6.3-3.4-8.1-5.6l-1.6-1.9
			c-1.6-2-5-3.1-7.5-2.5L65,4.2c-2.7,0.7-7.2,0.6-9.9-0.3l-2.4-0.8C52.1,3,51.5,2.9,50.8,2.9z"/>
	</g>
</g>
</svg>
