<?xml version="1.0" encoding="utf-8"?>
<!-- Generator: Adobe Illustrator 16.0.0, SVG Export Plug-In . SVG Version: 6.00 Build 0)  -->
<!DOCTYPE svg PUBLIC "-//W3C//DTD SVG 1.1//EN" "http://www.w3.org/Graphics/SVG/1.1/DTD/svg11.dtd">
<svg version="1.1" id="Layer_1" xmlns="http://www.w3.org/2000/svg" xmlns:xlink="http://www.w3.org/1999/xlink" x="0px" y="0px"
	 width="119px" height="86px" viewBox="0 0 119 86" enable-background="new 0 0 119 86" xml:space="preserve">
<g>
	<circle cx="31.623" cy="25.625" r="0.5"/>
	<circle cx="39.51" cy="24.283" r="0.5"/>
	<circle cx="47.397" cy="22.943" r="0.5"/>
	<circle cx="55.284" cy="21.601" r="0.5"/>
	<circle cx="63.17" cy="20.26" r="0.5"/>
	<circle cx="71.057" cy="18.919" r="0.5"/>
	<circle cx="78.944" cy="17.578" r="0.5"/>
	<circle cx="32.964" cy="33.511" r="0.5"/>
	<circle cx="40.851" cy="32.171" r="0.5"/>
	<circle cx="48.738" cy="30.829" r="0.5"/>
	<circle cx="56.625" cy="29.488" r="0.5"/>
	<circle cx="64.512" cy="28.147" r="0.5"/>
	<circle cx="72.398" cy="26.806" r="0.5"/>
	<circle cx="80.285" cy="25.465" r="0.5"/>
	<circle cx="26.419" cy="42.74" r="0.5"/>
	<circle cx="34.305" cy="41.398" r="0.5"/>
	<circle cx="42.192" cy="40.057" r="0.5"/>
	<circle cx="50.079" cy="38.716" r="0.5"/>
	<circle cx="57.966" cy="37.375" r="0.5"/>
	<circle cx="65.853" cy="36.034" r="0.5"/>
	<circle cx="73.739" cy="34.693" r="0.5"/>
	<circle cx="81.626" cy="33.352" r="0.5"/>
	<circle cx="89.513" cy="32.01" r="0.5"/>
	<circle cx="27.759" cy="50.624" r="0.5"/>
	<circle cx="35.646" cy="49.282" r="0.5"/>
	<circle cx="43.533" cy="47.941" r="0.5"/>
	<circle cx="51.42" cy="46.6" r="0.5"/>
	<circle cx="59.306" cy="45.259" r="0.5"/>
	<circle cx="67.193" cy="43.917" r="0.5"/>
	<circle cx="75.08" cy="42.576" r="0.5"/>
	<circle cx="82.967" cy="41.236" r="0.5"/>
	<circle cx="90.854" cy="39.894" r="0.5"/>
	<circle cx="29.1" cy="58.51" r="0.5"/>
	<circle cx="36.987" cy="57.169" r="0.5"/>
	<circle cx="44.874" cy="55.828" r="0.5"/>
	<circle cx="52.761" cy="54.487" r="0.5"/>
	<circle cx="60.648" cy="53.146" r="0.5"/>
	<circle cx="68.534" cy="51.805" r="0.5"/>
	<circle cx="76.421" cy="50.463" r="0.5"/>
	<circle cx="84.308" cy="49.123" r="0.5"/>
	<circle cx="38.328" cy="65.056" r="0.5"/>
	<circle cx="46.215" cy="63.715" r="0.5"/>
	<circle cx="54.102" cy="62.374" r="0.5"/>
	<circle cx="61.989" cy="61.032" r="0.5"/>
	<circle cx="69.875" cy="59.691" r="0.5"/>
	<circle cx="77.762" cy="58.35" r="0.5"/>
	<circle cx="85.649" cy="57.009" r="0.5"/>
	<circle cx="38.33" cy="65.063" r="0.5"/>
	<circle cx="46.217" cy="63.722" r="0.5"/>
	<circle cx="54.103" cy="62.381" r="0.5"/>
	<circle cx="61.99" cy="61.04" r="0.5"/>
	<circle cx="69.877" cy="59.699" r="0.5"/>
	<circle cx="77.764" cy="58.358" r="0.5"/>
	<circle cx="85.65" cy="57.017" r="0.5"/>
	<circle cx="47.558" cy="71.609" r="0.5"/>
	<circle cx="55.444" cy="70.268" r="0.5"/>
	<circle cx="63.331" cy="68.927" r="0.5"/>
	<circle cx="71.218" cy="67.586" r="0.5"/>
	<circle cx="79.104" cy="66.245" r="0.5"/>
	<circle cx="46.056" cy="15.056" r="0.5"/>
	<circle cx="53.943" cy="13.715" r="0.5"/>
	<circle cx="61.829" cy="12.373" r="0.5"/>
</g>
<circle fill="none" stroke="#000000" stroke-miterlimit="10" cx="59" cy="41.734" r="33.634"/>
<g>
	<path fill="none" stroke="#FF1D25" stroke-miterlimit="10" d="M87.113,13.929c2.612,0.859,4.999,3.798,5.303,6.531l0.276,2.488
		c0.304,2.733,1.971,6.716,3.704,8.851l1.578,1.942c1.733,2.135,2.151,5.897,0.93,8.361l-1.111,2.242
		c-1.222,2.464-1.973,6.716-1.669,9.449L96.4,56.28c0.304,2.733-1.378,6.125-3.738,7.537l-2.147,1.285
		c-2.36,1.412-5.291,4.583-6.513,7.047l-1.111,2.242c-1.222,2.464-4.471,4.407-7.219,4.319l-2.503-0.08
		c-2.748-0.088-6.928,0.995-9.288,2.406l-2.147,1.285c-2.36,1.411-6.144,1.29-8.408-0.27l-2.061-1.42
		c-2.265-1.56-6.367-2.908-9.115-2.996l-2.501-0.08c-2.749-0.088-5.866-2.235-6.928-4.772l-0.966-2.309
		c-1.062-2.537-3.784-5.889-6.048-7.449l-2.062-1.42c-2.264-1.561-3.726-5.053-3.248-7.761l0.436-2.465
		c0.478-2.708,0.001-6.999-1.061-9.536l-0.966-2.309c-1.062-2.537-0.403-6.265,1.463-8.284l1.699-1.838
		c1.866-2.02,3.785-5.888,4.263-8.596l0.436-2.465c0.478-2.708,3.048-5.488,5.71-6.178l2.422-0.628
		c2.662-0.69,6.368-2.907,8.234-4.926l1.699-1.838c1.866-2.02,5.531-2.969,8.144-2.11l2.378,0.781
		c2.612,0.859,6.928,0.997,9.59,0.307l2.423-0.628c2.662-0.69,6.258,0.492,7.991,2.627l1.578,1.943
		c1.733,2.135,5.289,4.584,7.901,5.443L87.113,13.929z"/>
</g>
</svg>
