<svg version="1.1" class="inlinesvg" xmlns="http://www.w3.org/2000/svg" xmlns:xlink="http://www.w3.org/1999/xlink" x="0px" y="0px"
	 viewBox="0 0 119 86" enable-background="new 0 0 119 86" xml:space="preserve">
<g>
	<circle cx="16.5" cy="23.5" r="0.5"/>
</g>
<g>
	<circle cx="24.5" cy="23.5" r="0.5"/>
</g>
<g>
	<circle cx="32.5" cy="23.5" r="0.5"/>
</g>
<g>
	<circle cx="40.5" cy="23.5" r="0.5"/>
</g>
<g>
	<circle cx="48.5" cy="23.5" r="0.5"/>
</g>
<g>
	<circle cx="56.5" cy="23.5" r="0.5"/>
</g>
<g>
	<circle cx="64.5" cy="23.5" r="0.5"/>
</g>
<g>
	<circle cx="72.5" cy="23.5" r="0.5"/>
</g>
<g>
	<circle cx="80.5" cy="23.5" r="0.5"/>
</g>
<g>
	<circle cx="16.5" cy="31.5" r="0.5"/>
</g>
<g>
	<circle cx="24.5" cy="31.5" r="0.5"/>
</g>
<g>
	<circle cx="32.5" cy="31.5" r="0.5"/>
</g>
<g>
	<circle cx="40.5" cy="31.5" r="0.5"/>
</g>
<g>
	<circle cx="48.5" cy="31.5" r="0.5"/>
</g>
<g>
	<circle cx="56.5" cy="31.5" r="0.5"/>
</g>
<g>
	<circle cx="64.5" cy="31.5" r="0.5"/>
</g>
<g>
	<circle cx="72.5" cy="31.5" r="0.5"/>
</g>
<g>
	<circle cx="80.5" cy="31.5" r="0.5"/>
</g>
<g>
	<circle cx="16.5" cy="39.5" r="0.5"/>
</g>
<g>
	<circle cx="24.5" cy="39.5" r="0.5"/>
</g>
<g>
	<circle cx="32.5" cy="39.5" r="0.5"/>
</g>
<g>
	<circle cx="40.5" cy="39.5" r="0.5"/>
</g>
<g>
	<circle cx="48.5" cy="39.5" r="0.5"/>
</g>
<g>
	<circle cx="56.5" cy="39.5" r="0.5"/>
</g>
<g>
	<circle cx="64.5" cy="39.5" r="0.5"/>
</g>
<g>
	<circle cx="72.5" cy="39.5" r="0.5"/>
</g>
<g>
	<circle cx="80.5" cy="39.5" r="0.5"/>
</g>
<g>
	<circle cx="16.5" cy="47.5" r="0.5"/>
</g>
<g>
	<circle cx="24.5" cy="47.5" r="0.5"/>
</g>
<g>
	<circle cx="32.5" cy="47.5" r="0.5"/>
</g>
<g>
	<circle cx="40.5" cy="47.5" r="0.5"/>
</g>
<g>
	<circle cx="48.5" cy="47.5" r="0.5"/>
</g>
<g>
	<circle cx="56.5" cy="47.5" r="0.5"/>
</g>
<g>
	<circle cx="64.5" cy="47.5" r="0.5"/>
</g>
<g>
	<circle cx="72.5" cy="47.5" r="0.5"/>
</g>
<g>
	<circle cx="80.5" cy="47.5" r="0.5"/>
</g>
<g>
	<circle cx="16.5" cy="55.5" r="0.5"/>
</g>
<g>
	<circle cx="24.5" cy="55.5" r="0.5"/>
</g>
<g>
	<circle cx="32.5" cy="55.5" r="0.5"/>
</g>
<g>
	<circle cx="40.5" cy="55.5" r="0.5"/>
</g>
<g>
	<circle cx="48.5" cy="55.5" r="0.5"/>
</g>
<g>
	<circle cx="56.5" cy="55.5" r="0.5"/>
</g>
<g>
	<circle cx="64.5" cy="55.5" r="0.5"/>
</g>
<g>
	<circle cx="72.5" cy="55.5" r="0.5"/>
</g>
<g>
	<circle cx="80.5" cy="55.5" r="0.5"/>
</g>
<g>
	<circle cx="16.5" cy="63.5" r="0.5"/>
</g>
<g>
	<circle cx="24.5" cy="63.5" r="0.5"/>
</g>
<g>
	<circle cx="32.5" cy="63.5" r="0.5"/>
</g>
<g>
	<circle cx="40.5" cy="63.5" r="0.5"/>
</g>
<g>
	<circle cx="48.5" cy="63.5" r="0.5"/>
</g>
<g>
	<circle cx="56.5" cy="63.5" r="0.5"/>
</g>
<g>
	<circle cx="64.5" cy="63.5" r="0.5"/>
</g>
<g>
	<circle cx="72.5" cy="63.5" r="0.5"/>
</g>
<g>
	<circle cx="80.5" cy="63.5" r="0.5"/>
</g>
<g>
	<g>
		<g>
			<path fill="hsl(152, 89%, 61%)" class="akzentsvg" d="M45.5,65.4C45.5,65.4,45.5,65.4,45.5,65.4c-0.1,0-0.1,0-0.1,0c0,0-0.1,0-0.1,0c-0.1,0-0.1-0.1-0.1-0.1
				c0,0-0.1-0.1-0.1-0.1c-0.3-0.4-0.4-0.8-0.5-1.1c-0.6-2.1-0.8-4.3-1-6.5c0-0.5-0.1-0.9-0.1-1.4c-0.3-3-0.6-6.1-0.9-9l-0.3-3.9
				c-0.2-2-0.4-4.1-0.5-6.1c-0.2-2.6-0.5-5.6-0.9-8.5c-0.2-1.5-0.3-2.6-0.5-3.7c0-0.2,0-0.4-0.1-0.6c-0.1-0.6-0.3-2.1-0.6-2.7
				c0,0.1-0.1,0.1-0.1,0.2c-0.6,1.5-0.9,3.3-1.1,5c-0.1,0.4-0.1,0.8-0.2,1.3c-0.2,1.6-0.5,3.2-0.7,4.9c-0.2,1.1-0.3,2.3-0.4,3.4
				l-0.2,1.8c-0.2,1.7-0.4,3.3-0.7,5l-0.1,0.4c-0.3,2-0.6,4.1-1.1,6.1l0,0.1c-0.2,0.8-0.4,1.8-1,2.5c-0.1,0.1-0.2,0.2-0.2,0.2
				c0,0-0.1,0.1-0.1,0.1c0,0-0.1,0.1-0.1,0.1c0,0-0.1,0-0.1,0c-0.2,0-0.3,0-0.4,0c0,0-0.1,0-0.1-0.1c0,0-0.1-0.1-0.1-0.1
				c0,0-0.1-0.1-0.1-0.1c-0.8-0.9-1.1-2.2-1.4-3.4c-0.1-0.2-0.1-0.4-0.1-0.6c-0.4-1.4-0.7-2.9-1-4.3c-0.2-1.1-0.5-2.1-0.7-3.2
				c-0.2-1-0.5-2.2-0.9-3.2l-0.1-0.3c-0.2-0.8-0.6-2.1-1.3-2.3c-0.3,0.1-0.6,0.4-0.8,0.7c-0.6,0.9-1,1.8-1.5,2.8c-0.5,1-1,2.1-1.7,3
				L23,41.8c-0.1,0.2-0.3,0.3-0.4,0.5c-0.1,0.1-0.1,0.1-0.2,0.2c-0.2,0.1-0.3,0.2-0.4,0.3c-0.1,0.1-0.2,0.1-0.3,0.1L21.5,43
				c-0.1,0-0.1,0-0.2,0.1c-0.1,0-0.2,0-0.3,0c-0.1,0-0.2,0-0.3,0c-0.1,0-0.2,0-0.3,0c0,0-0.1,0-0.2,0c-0.1,0-0.2-0.1-0.4-0.1
				c-0.1-0.1-0.2-0.1-0.3-0.1c-0.2-0.1-0.3-0.2-0.4-0.2c0,0-0.2-0.1-0.2-0.1c-0.2-0.1-0.4-0.3-0.6-0.4l-1-0.8c0,0-0.1-0.1-0.1-0.1
				l-0.1-0.1C17.1,41,17.1,41,17,41c-0.1-0.1-0.2-0.1-0.3-0.2c-0.1-0.1-0.3-0.1-0.4-0.2c-0.2-0.1-0.4-0.2-0.6-0.2c0,0-0.1,0-0.1,0
				c0,0-0.1,0-0.1,0l-0.4-0.1c-0.2,0-0.4,0-0.6,0l-0.4,0c0,0-0.1,0-0.1,0c-0.2,0-0.3,0-0.4,0l-0.9,0.2c0,0-0.1,0-0.2,0l-0.3,0.1
				c-0.1,0-0.1,0-0.2,0c0,0-0.1,0-0.2,0l-0.2,0l-0.2-0.5l0.1,0.5c0,0-0.2,0-0.2,0c0,0-0.1,0-0.1,0c0,0-0.1,0-0.1,0l-0.9,0.1
				c0,0-0.1,0-0.1,0c0,0-0.1,0-0.1,0c0,0,0,0-0.1,0l0,0c-0.1,0-0.1,0-0.2,0c0,0-0.1,0-0.1,0c0,0-0.1,0-0.1,0c0,0-0.1,0-0.1,0l-0.1,0
				c-0.1,0-0.2,0-0.4,0c-0.1,0-0.2,0-0.3,0l-0.3,0v-1l0.5,0c0.1,0,0.2,0,0.4,0c0,0,0.2,0,0.2,0l0.2,0c0,0,0.1,0,0.1,0
				c0,0,0.1,0,0.1,0c0,0,0.1,0,0.1,0c0,0,0,0,0.1,0c0,0,0.1,0,0.1,0l0.8-0.1c0,0,0,0,0.1,0c0,0,0.1,0,0.1,0c0,0,0,0,0.1,0
				c0,0,0.1,0,0.1,0c0,0,0,0,0.1,0c0,0,0.1,0,0.1,0l0.3-0.1c0,0,0.2,0,0.2,0l0.3-0.1c0,0,0,0,0.1,0c0,0,0.1,0,0.1,0l0.6-0.1
				c0,0,0.1,0,0.1,0l0.3-0.1c0.2,0,0.3,0,0.5-0.1c0,0,0.1,0,0.1,0l0.4,0c0.3,0,0.5,0,0.8,0l0.2,0c0.1,0,0.2,0,0.2,0c0,0,0.1,0,0.1,0
				l0.2,0c0,0,0.1,0,0.1,0c0.2,0.1,0.4,0.1,0.6,0.2c0,0,0.1,0,0.1,0c0.1,0.1,0.3,0.1,0.4,0.2c0.1,0.1,0.2,0.1,0.3,0.2
				c0,0,0.2,0.1,0.2,0.1l0.1,0.1c0,0,0.1,0.1,0.1,0.1l1,0.7c0.2,0.2,0.4,0.3,0.6,0.4c0,0,0.1,0.1,0.1,0.1c0.1,0.1,0.2,0.1,0.4,0.2
				c0.1,0,0.1,0.1,0.2,0.1c0.1,0,0.2,0.1,0.3,0.1l0.1,0c0,0,0.1,0,0.2,0c0,0,0.1,0,0.2,0c0.1,0,0.1,0,0.1,0l0.2-0.1
				c0.1,0,0.1,0,0.1-0.1c0.1-0.1,0.2-0.1,0.3-0.2c0.1-0.1,0.1-0.1,0.2-0.2c0.1-0.1,0.2-0.2,0.3-0.4l0.1-0.2c0.6-0.9,1.1-1.8,1.6-2.9
				c0.5-1,0.9-2,1.6-2.9c0.3-0.4,0.6-0.8,1.1-1c0.1,0,0.2-0.1,0.3-0.1c0.1,0,0.1,0,0.2,0c0.1,0,0.2,0,0.3,0c1.2,0.4,1.6,1.9,2,3
				l0.1,0.3c0.4,1.1,0.6,2.2,0.9,3.3c0.3,1.1,0.5,2.2,0.7,3.2c0.3,1.4,0.6,2.8,1,4.2c0.1,0.2,0.1,0.4,0.2,0.7c0.2,1,0.5,2.2,1.1,2.9
				c0.4-0.5,0.6-1.3,0.8-2l0-0.1c0.5-2,0.8-4,1.1-6l0.1-0.4c0.2-1.6,0.5-3.3,0.7-4.9l0.2-1.8c0.1-1.1,0.3-2.3,0.4-3.4
				c0.2-1.6,0.4-3.3,0.7-4.9c0.1-0.4,0.1-0.8,0.2-1.2c0.2-1.8,0.5-3.6,1.2-5.2c0.1-0.2,0.2-0.5,0.4-0.7c0,0,0.1-0.1,0.1-0.1
				c0,0,0.1-0.1,0.1-0.1c0,0,0.1,0,0.1,0c0.2,0,0.3,0,0.4,0c0,0,0.1,0,0.1,0c0.9,0.5,1.2,2,1.4,3.7c0,0.2,0,0.4,0.1,0.5
				c0.2,1.1,0.3,2.2,0.5,3.7c0.3,2.9,0.6,5.9,0.9,8.5c0.2,2,0.4,4.1,0.5,6.1l0.3,3.9c0.3,2.9,0.5,6,0.8,9c0,0.4,0.1,0.9,0.1,1.4
				c0.2,2.1,0.4,4.3,1,6.3c0,0.1,0.1,0.2,0.1,0.4c0.4-0.9,0.5-2,0.6-3c0-0.3,0.1-0.6,0.1-0.8c0.2-1.2,0.3-2.5,0.5-3.7
				c0.4-3.4,0.7-6.8,0.9-9.9c0.2-2,0.3-4.1,0.5-6.1l0.4-5.2c0.3-3.4,0.6-6.8,0.9-10.2l0.1-1.3c0.2-2.3,0.5-4.7,1.1-6.9
				c0.1-0.3,0.2-0.7,0.4-1.1c0.1-0.1,0.1-0.2,0.2-0.2c0,0,0.1-0.1,0.1-0.1c0,0,0.1-0.1,0.1-0.1l0.1,0c0,0,0.1,0,0.1,0
				c0,0,0.1,0,0.2,0c0,0,0.1,0,0.1,0c0,0,0.1,0,0.1,0c0.2,0.1,0.3,0.2,0.3,0.3c0.7,1,0.8,2.4,1,3.6c0,0.3,0.1,0.5,0.1,0.8
				c0.2,1.1,0.3,2.3,0.4,3.4c0.3,3,0.6,6,0.9,8.8l0.4,4.5c0.2,1.8,0.3,3.5,0.5,5.3c0.2,2.6,0.5,5.7,0.8,8.7l0.1,1.2
				c0.2,2.1,0.5,4.3,1.1,6.3c0.1,0.2,0.1,0.4,0.2,0.6c0.3-0.5,0.4-1.2,0.5-1.8l0.1-0.4c0.3-1.2,0.5-2.5,0.6-3.6
				c0.2-1.6,0.5-3.2,0.7-4.8l0.7-5.2c0.2-1.7,0.4-3.3,0.7-5c0.3-2,0.6-4.2,1.1-6.4c0.1-0.2,0.1-0.5,0.2-0.7c0.2-0.7,0.4-1.4,0.7-2.1
				c0.1-0.3,0.4-0.7,0.8-0.8c0,0,0.1,0,0.1,0c0.1,0,0.2,0,0.3,0c0,0,0.1,0,0.1,0c0.1,0,0.2,0.1,0.2,0.1c0,0,0.1,0.1,0.1,0.1
				c0.9,1,1.2,2.4,1.5,3.6c0,0.2,0.1,0.4,0.1,0.6c0.1,0.2,0.1,0.4,0.1,0.6l-0.5,0.2l0.5-0.1l0,0.2c0.1,0.3,0.1,0.6,0.2,0.9
				c0.1,0.2,0.1,0.5,0.2,0.7l0.1,0.6c0,0.1,0,0.1,0,0.2c0.2,1.2,0.5,2.3,0.8,3.4c0.1,0.5,0.2,1.1,0.4,1.6c0.1,0.3,0.1,0.6,0.2,0.9
				c0.3,1.3,0.7,2.8,1.5,3.7c0.1,0.1,0.1,0.1,0.2,0.2c0,0,0,0,0,0c0,0,0,0,0.1,0c0,0,0,0,0.1,0c0,0,0.1,0,0.1,0l0.3,0.4l-0.2-0.5
				l0.1-0.1c0.1-0.1,0.1-0.1,0.2-0.2c0.1-0.1,0.1-0.1,0.1-0.2c0.2-0.2,0.3-0.4,0.4-0.7c0.2-0.3,0.3-0.6,0.5-0.9l0.4-0.7
				c0,0,0-0.1,0.1-0.1l0.1-0.2c0.1-0.2,0.2-0.4,0.3-0.6c0.1-0.2,0.2-0.4,0.3-0.6l0.1-0.2c0.1-0.2,0.2-0.5,0.4-0.7
				c0.2-0.3,0.4-0.7,0.6-1c0,0,0.1-0.1,0.1-0.1l0.4,0.2l-0.4-0.3c0.1-0.1,0.1-0.2,0.2-0.3c0,0,0.1-0.1,0.1-0.1c0,0,0.1-0.1,0.1-0.1
				l0.2-0.2c0,0,0.1-0.1,0.2-0.2c0,0,0.1-0.1,0.1-0.1c0.1-0.1,0.2-0.2,0.3-0.2c0,0,0.2-0.1,0.2-0.1l0.3,0.4l-0.3-0.4
				c0.2-0.1,0.4-0.2,0.6-0.2c0.3-0.1,0.6-0.1,1,0c0.2,0.1,0.3,0.1,0.4,0.1c0,0,0.1,0,0.1,0.1c0.1,0,0.2,0.1,0.3,0.1
				c0,0,0.1,0.1,0.2,0.1c0,0,0.1,0.1,0.2,0.1c0,0,0.1,0.1,0.2,0.1c0,0,0.1,0.1,0.2,0.1l-0.2,0.5l0.3-0.4c0,0,0.1,0.1,0.1,0.1
				c0,0,0.1,0.1,0.1,0.1l0.4,0.3c0,0,0.1,0.1,0.1,0.1c0,0,0,0,0,0c0,0,0,0,0.1,0c0.1,0.1,0.2,0.2,0.3,0.2c0,0,0.1,0.1,0.1,0.1
				c0,0,0.1,0.1,0.1,0.1l0.4,0.3c0,0,0.1,0.1,0.1,0.1l0.2,0.1c0,0,0.1,0.1,0.2,0.1c0.1,0.1,0.2,0.1,0.3,0.1c0,0,0.1,0,0.1,0.1
				l0.2,0.1c0,0,0.1,0,0.1,0l0.1,0c0,0,0.1,0,0.1,0l0.1,0c0,0,0.1,0,0.1,0c0,0,0.1,0,0.2,0l0.3,0c0.1,0,0.2,0,0.3,0c0,0,0,0,0.1,0
				l0.4,0c0.1,0,0.2,0,0.2,0l0.6-0.1c0,0,0.1,0,0.1,0c0,0,0.1,0,0.1,0l0.3-0.1c0,0,0.2,0,0.2,0l0.2-0.1c0,0,0.1,0,0.2,0l0.1,0
				c0,0,0.1,0,0.2,0l0.8-0.2l0.2,0.5l0-0.5c0.1,0,0.1,0,0.2,0c0,0,0.1,0,0.1,0l0.1,0l0.2,0.5L87.1,40c0,0,0.1,0,0.1,0
				c0,0,0.1,0,0.1,0l0.6,0c0.1,0,0.2,0,0.4,0c0,0,0.1,0,0.1,0l0.4,0v1l-0.3,0c0,0-0.1,0-0.1,0c0,0-0.1,0-0.1,0c-0.1,0-0.2,0-0.4,0
				c0,0-0.1,0-0.1,0L87.2,41c0,0-0.1,0-0.2,0l-0.1,0c-0.1,0-0.2,0-0.3,0c0,0-0.1,0-0.2,0l-1,0.2c0,0-0.1,0-0.1,0l-0.1-0.5l0,0.5
				l-0.9,0.2l0,0c0,0-0.1,0-0.1,0l-0.7,0.1l-0.2-0.5l0.1,0.5c0,0-0.1,0-0.1,0l-0.5,0c-0.2,0-0.2,0-0.3,0l-0.4,0c-0.1,0-0.2,0-0.2,0
				c0,0-0.1,0-0.2,0l-0.1,0l0-0.5l-0.1,0.5l-0.2-0.1c-0.1,0-0.1,0-0.1-0.1c0,0-0.1,0-0.1,0l-0.1,0c0,0-0.1-0.1-0.2-0.1
				c-0.1,0-0.2-0.1-0.3-0.1c0,0-0.1,0-0.1,0l-0.4-0.2c0,0-0.1-0.1-0.1-0.1c0,0-0.1,0-0.1-0.1l-0.1-0.1c-0.1-0.1-0.1-0.1-0.2-0.1
				c0,0-0.1-0.1-0.1-0.1l-0.1-0.1c0,0-0.1-0.1-0.1-0.1c-0.1-0.1-0.2-0.1-0.3-0.2c0,0-0.1-0.1-0.1-0.1l-0.5-0.4c0,0-0.1-0.1-0.1-0.1
				l0.2-0.4l-0.3,0.4c0,0-0.1-0.1-0.1-0.1l-0.1-0.1c0,0-0.1,0-0.1-0.1c0,0,0,0-0.1-0.1c-0.1,0-0.1-0.1-0.2-0.1c0,0-0.1-0.1-0.1-0.1
				c0,0-0.1,0-0.2-0.1c0,0,0,0-0.1,0c0,0,0,0-0.1,0c-0.1,0-0.2-0.1-0.3-0.1c-0.2,0-0.4,0-0.6,0c-0.1,0-0.2,0.1-0.3,0.1l-0.4-0.4
				l0.2,0.5c-0.1,0.1-0.2,0.1-0.2,0.2c0,0-0.1,0.1-0.1,0.1c0,0-0.1,0.1-0.1,0.1l-0.1,0.2l-0.5-0.2l0.4,0.3c-0.1,0.1-0.2,0.2-0.2,0.3
				c0,0-0.1,0.1-0.1,0.1c-0.2,0.3-0.4,0.6-0.6,0.9c-0.1,0.2-0.2,0.4-0.3,0.6l-0.1,0.2c-0.1,0.2-0.2,0.4-0.3,0.5
				c-0.1,0.2-0.2,0.4-0.3,0.6l-0.1,0.2c0,0,0,0.1-0.1,0.1l-0.4,0.7c-0.1,0.3-0.3,0.6-0.5,0.9c-0.2,0.3-0.3,0.5-0.5,0.8
				c-0.1,0.1-0.1,0.2-0.2,0.2c-0.1,0.1-0.2,0.2-0.3,0.3l-0.2,0.1c0,0-0.1,0.1-0.2,0.1c0,0-0.1,0-0.1,0.1c0,0-0.1,0-0.1,0
				c-0.2,0.1-0.3,0.1-0.4,0.1c-0.1,0-0.1,0-0.1,0c0,0-0.1,0-0.1,0c0,0-0.1,0-0.1,0c0,0-0.1,0-0.1,0c0,0,0,0-0.1,0
				c-0.1,0-0.1-0.1-0.2-0.1c-0.2-0.1-0.3-0.2-0.4-0.4c-1-1.2-1.4-2.8-1.7-4.2c-0.1-0.3-0.1-0.6-0.2-0.8c-0.1-0.6-0.3-1.1-0.4-1.7
				c-0.3-1.1-0.5-2.3-0.8-3.4c0,0,0-0.1,0-0.2l-0.1-0.6c0-0.2-0.1-0.5-0.2-0.7c-0.1-0.3-0.1-0.6-0.2-0.9l0-0.2c0,0,0-0.1,0-0.1
				c0-0.2-0.1-0.3-0.1-0.5c-0.1-0.2-0.1-0.5-0.2-0.7c-0.2-1.1-0.5-2.3-1.1-3c0,0-0.1,0.1-0.1,0.2c-0.3,0.6-0.5,1.3-0.6,1.9
				c-0.1,0.2-0.1,0.5-0.2,0.7c-0.5,2.1-0.8,4.3-1.1,6.3c-0.2,1.7-0.5,3.3-0.7,5l-0.7,5.2c-0.2,1.6-0.4,3.2-0.7,4.8
				c-0.2,1.1-0.4,2.4-0.6,3.7l-0.1,0.4c-0.2,0.8-0.4,1.8-0.9,2.5l-0.1,0.1c0,0-0.1,0-0.1,0.1c0,0-0.1,0-0.1,0c0,0-0.1,0-0.1,0
				c0,0-0.1,0-0.1,0c0,0-0.2,0-0.2,0c-0.1,0-0.2-0.1-0.2-0.1c-0.1-0.1-0.2-0.1-0.3-0.2c-0.3-0.4-0.4-0.8-0.5-1.2
				c-0.6-2.1-0.9-4.4-1.1-6.5L55.6,51c-0.3-3-0.6-6.1-0.8-8.7c-0.2-1.8-0.3-3.5-0.5-5.3l-0.4-4.5c-0.2-2.8-0.5-5.8-0.8-8.8
				c-0.1-1.1-0.3-2.3-0.4-3.4c0-0.3-0.1-0.5-0.1-0.8c-0.1-1-0.2-2-0.6-2.8c-0.1,0.1-0.1,0.3-0.1,0.5c-0.6,2.1-0.8,4.5-1,6.7
				l-0.1,1.3c-0.4,3.4-0.6,6.7-0.9,10.2l-0.4,5.2c-0.2,2-0.3,4.1-0.5,6.1c-0.3,3.2-0.6,6.5-0.9,9.9c-0.1,1.3-0.3,2.5-0.5,3.8
				c0,0.3-0.1,0.5-0.1,0.8c-0.1,1.2-0.3,2.6-0.9,3.7c-0.1,0.1-0.2,0.2-0.3,0.3c0,0-0.1,0-0.1,0.1c0,0-0.1,0.1-0.1,0.1
				C45.7,65.4,45.6,65.4,45.5,65.4C45.6,65.4,45.6,65.4,45.5,65.4z M70.4,46l0.2,0.3l-0.2-0.4L70.4,46z M84.3,41.2l0.1,0.3l-0.1-0.4
				L84.3,41.2z"/>
		</g>
	</g>
</g>
<g>
	<g>
		<path d="M107.5,78h-96C5.7,78,1,73.3,1,67.5v-56C1,5.7,5.7,1,11.5,1h96c5.8,0,10.5,4.7,10.5,10.5v56C118,73.3,113.3,78,107.5,78z
			 M11.5,2C6.3,2,2,6.3,2,11.5v56c0,5.2,4.3,9.5,9.5,9.5h96c5.2,0,9.5-4.3,9.5-9.5v-56c0-5.2-4.3-9.5-9.5-9.5H11.5z"/>
	</g>
</g>
<g>
	<path d="M32,85H11v-6h21V85z M12,84h19v-4H12V84z"/>
</g>
<g>
	<path d="M108,85H87v-6h21V85z M88,84h19v-4H88V84z"/>
</g>
<g>
	<g>
		<path d="M86.5,71h-75C9.6,71,8,69.4,8,67.5v-55C8,10.6,9.6,9,11.5,9h75c1.9,0,3.5,1.6,3.5,3.5v55C90,69.4,88.4,71,86.5,71z
			 M11.5,10C10.1,10,9,11.1,9,12.5v55c0,1.4,1.1,2.5,2.5,2.5h75c1.4,0,2.5-1.1,2.5-2.5v-55c0-1.4-1.1-2.5-2.5-2.5H11.5z"/>
	</g>
</g>
<g>
	<rect x="13" y="80" width="1" height="4"/>
</g>
<g>
	<rect x="16" y="80" width="1" height="4"/>
</g>
<g>
	<rect x="29" y="80" width="1" height="4"/>
</g>
<g>
	<rect x="26" y="80" width="1" height="4"/>
</g>
<g>
	<rect x="21" y="80" width="1" height="4"/>
</g>
<g>
	<rect x="89" y="80" width="1" height="4"/>
</g>
<g>
	<rect x="92" y="80" width="1" height="4"/>
</g>
<g>
	<rect x="105" y="80" width="1" height="4"/>
</g>
<g>
	<rect x="102" y="80" width="1" height="4"/>
</g>
<g>
	<rect x="97" y="80" width="1" height="4"/>
</g>
<g>
	<g>
		<path d="M102.5,19.5c-2.2,0-4-1.8-4-4s1.8-4,4-4s4,1.8,4,4S104.7,19.5,102.5,19.5z M102.5,12.5c-1.7,0-3,1.3-3,3s1.3,3,3,3
			s3-1.3,3-3S104.2,12.5,102.5,12.5z"/>
	</g>
	<g>
		<rect x="102" y="9" width="1" height="3"/>
	</g>
	<g>
		<path d="M102.5,22.5c-3.9,0-7-3.1-7-7s3.1-7,7-7s7,3.1,7,7S106.4,22.5,102.5,22.5z M102.5,9.5c-3.3,0-6,2.7-6,6s2.7,6,6,6
			s6-2.7,6-6S105.8,9.5,102.5,9.5z"/>
	</g>
</g>
<g>
	<g>
		<path d="M102.5,38.5c-2.2,0-4-1.8-4-4s1.8-4,4-4s4,1.8,4,4S104.7,38.5,102.5,38.5z M102.5,31.5c-1.7,0-3,1.3-3,3s1.3,3,3,3
			s3-1.3,3-3S104.2,31.5,102.5,31.5z"/>
	</g>
	<g>
		<rect x="104.8" y="30.8" transform="matrix(0.7615 -0.6482 0.6482 0.7615 5.0949 76.3688)" width="3" height="1"/>
	</g>
	<g>
		<path d="M102.5,41.5c-3.9,0-7-3.1-7-7s3.1-7,7-7s7,3.1,7,7S106.4,41.5,102.5,41.5z M102.5,28.5c-3.3,0-6,2.7-6,6s2.7,6,6,6
			s6-2.7,6-6S105.8,28.5,102.5,28.5z"/>
	</g>
</g>
<g>
	<g>
		<path d="M102.5,57.5c-2.2,0-4-1.8-4-4s1.8-4,4-4s4,1.8,4,4S104.7,57.5,102.5,57.5z M102.5,50.5c-1.7,0-3,1.3-3,3s1.3,3,3,3
			s3-1.3,3-3S104.2,50.5,102.5,50.5z"/>
	</g>
	<g>
		<rect x="99.8" y="47.5" transform="matrix(0.8942 -0.4477 0.4477 0.8942 -11.3405 50.0806)" width="1" height="3"/>
	</g>
	<g>
		<path d="M102.5,60.5c-3.9,0-7-3.1-7-7s3.1-7,7-7s7,3.1,7,7S106.4,60.5,102.5,60.5z M102.5,47.5c-3.3,0-6,2.7-6,6s2.7,6,6,6
			s6-2.7,6-6S105.8,47.5,102.5,47.5z"/>
	</g>
</g>
<g>
	<rect x="96.5" y="66.5" fill="hsl(152, 89%, 61%)" class="akzentsvg" width="4" height="4"/>
	<path fill="hsl(152, 89%, 61%)" class="akzentsvg" d="M101,71h-5v-5h5V71z M97,70h3v-3h-3V70z"/>
</g>
<g>
	<path d="M109,71h-5v-5h5V71z M105,70h3v-3h-3V70z"/>
</g>
<g>
	<circle cx="16.5" cy="15.5" r="0.5"/>
</g>
<g>
	<circle cx="24.5" cy="15.5" r="0.5"/>
</g>
<g>
	<circle cx="32.5" cy="15.5" r="0.5"/>
</g>
<g>
	<circle cx="40.5" cy="15.5" r="0.5"/>
</g>
<g>
	<circle cx="48.5" cy="15.5" r="0.5"/>
</g>
<g>
	<circle cx="56.5" cy="15.5" r="0.5"/>
</g>
<g>
	<circle cx="64.5" cy="15.5" r="0.5"/>
</g>
<g>
	<circle cx="72.5" cy="15.5" r="0.5"/>
</g>
<g>
	<circle cx="80.5" cy="15.5" r="0.5"/>
</g>
</svg>
