<?xml version="1.0" encoding="utf-8"?>
<!-- Generator: Adobe Illustrator 16.0.0, SVG Export Plug-In . SVG Version: 6.00 Build 0)  -->
<!DOCTYPE svg PUBLIC "-//W3C//DTD SVG 1.1//EN" "http://www.w3.org/Graphics/SVG/1.1/DTD/svg11.dtd">
<svg version="1.1" id="Layer_1" xmlns="http://www.w3.org/2000/svg" xmlns:xlink="http://www.w3.org/1999/xlink" x="0px" y="0px"
	 width="119px" height="86px" viewBox="0 0 119 86" enable-background="new 0 0 119 86" xml:space="preserve">
<circle cx="16.5" cy="23.5" r="0.5"/>
<circle cx="24.5" cy="23.5" r="0.5"/>
<circle cx="32.5" cy="23.5" r="0.5"/>
<circle cx="40.5" cy="23.5" r="0.5"/>
<circle cx="48.5" cy="23.5" r="0.5"/>
<circle cx="56.5" cy="23.5" r="0.5"/>
<circle cx="64.5" cy="23.5" r="0.5"/>
<circle cx="72.5" cy="23.5" r="0.5"/>
<circle cx="80.5" cy="23.5" r="0.5"/>
<circle cx="16.5" cy="31.5" r="0.5"/>
<circle cx="24.5" cy="31.5" r="0.5"/>
<circle cx="32.5" cy="31.5" r="0.5"/>
<circle cx="40.5" cy="31.5" r="0.5"/>
<circle cx="48.5" cy="31.5" r="0.5"/>
<circle cx="56.5" cy="31.5" r="0.5"/>
<circle cx="64.5" cy="31.5" r="0.5"/>
<circle cx="72.5" cy="31.5" r="0.5"/>
<circle cx="80.5" cy="31.5" r="0.5"/>
<circle cx="16.5" cy="39.5" r="0.5"/>
<circle cx="24.5" cy="39.5" r="0.5"/>
<circle cx="32.5" cy="39.5" r="0.5"/>
<circle cx="40.5" cy="39.5" r="0.5"/>
<circle cx="48.5" cy="39.5" r="0.5"/>
<circle cx="56.5" cy="39.5" r="0.5"/>
<circle cx="64.5" cy="39.5" r="0.5"/>
<circle cx="72.5" cy="39.5" r="0.5"/>
<circle cx="80.5" cy="39.5" r="0.5"/>
<circle cx="16.5" cy="47.5" r="0.5"/>
<circle cx="24.5" cy="47.5" r="0.5"/>
<circle cx="32.5" cy="47.5" r="0.5"/>
<circle cx="40.5" cy="47.5" r="0.5"/>
<circle cx="48.5" cy="47.5" r="0.5"/>
<circle cx="56.5" cy="47.5" r="0.5"/>
<circle cx="64.5" cy="47.5" r="0.5"/>
<circle cx="72.5" cy="47.5" r="0.5"/>
<circle cx="80.5" cy="47.5" r="0.5"/>
<circle cx="16.5" cy="55.5" r="0.5"/>
<circle cx="24.5" cy="55.5" r="0.5"/>
<circle cx="32.5" cy="55.5" r="0.5"/>
<circle cx="40.5" cy="55.5" r="0.5"/>
<circle cx="48.5" cy="55.5" r="0.5"/>
<circle cx="56.5" cy="55.5" r="0.5"/>
<circle cx="64.5" cy="55.5" r="0.5"/>
<circle cx="72.5" cy="55.5" r="0.5"/>
<circle cx="80.5" cy="55.5" r="0.5"/>
<circle cx="16.5" cy="63.5" r="0.5"/>
<circle cx="24.5" cy="63.5" r="0.5"/>
<circle cx="32.5" cy="63.5" r="0.5"/>
<circle cx="40.5" cy="63.5" r="0.5"/>
<circle cx="48.5" cy="63.5" r="0.5"/>
<circle cx="56.5" cy="63.5" r="0.5"/>
<circle cx="64.5" cy="63.5" r="0.5"/>
<circle cx="72.5" cy="63.5" r="0.5"/>
<circle cx="80.5" cy="63.5" r="0.5"/>
<g>
	<g>
		<polyline fill="none" stroke="#FF1D25" stroke-miterlimit="10" points="8.537,40.492 8.557,40.492 8.577,40.492 8.596,40.492 
			8.615,40.492 8.635,40.492 8.655,40.492 8.674,40.49 8.694,40.489 8.714,40.49 8.733,40.49 8.753,40.489 8.774,40.489 
			8.794,40.488 8.812,40.489 8.833,40.488 8.853,40.488 8.871,40.488 8.891,40.486 8.911,40.486 8.932,40.486 8.951,40.486 
			8.97,40.486 8.989,40.486 9.01,40.484 9.03,40.483 9.049,40.482 9.069,40.482 9.088,40.48 9.108,40.48 9.127,40.48 9.148,40.48 
			9.167,40.479 9.188,40.479 9.207,40.478 9.226,40.477 9.246,40.477 9.266,40.475 9.286,40.474 9.305,40.473 9.324,40.472 
			9.344,40.472 9.365,40.471 9.385,40.469 9.405,40.468 9.424,40.467 9.443,40.465 9.463,40.465 9.482,40.465 9.503,40.463 
			9.522,40.461 9.542,40.459 9.561,40.459 9.581,40.456 9.602,40.456 9.621,40.453 9.64,40.453 9.66,40.451 9.68,40.451 9.7,40.447 
			9.72,40.447 9.74,40.445 9.758,40.443 9.778,40.441 9.799,40.441 9.818,40.438 9.838,40.438 9.858,40.436 9.877,40.435 
			9.897,40.434 9.916,40.43 9.937,40.429 9.957,40.428 9.976,40.426 9.995,40.423 10.015,40.42 10.035,40.42 10.055,40.418 
			10.075,40.414 10.094,40.414 10.113,40.411 10.133,40.408 10.152,40.406 10.172,40.406 10.193,40.402 10.211,40.4 10.232,40.399 
			10.251,40.396 10.271,40.395 10.292,40.391 10.311,40.389 10.331,40.387 10.351,40.384 10.37,40.383 10.39,40.379 10.41,40.377 
			10.429,40.375 10.449,40.372 10.468,40.369 10.488,40.367 10.508,40.363 10.527,40.363 10.547,40.359 10.566,40.357 
			10.586,40.354 10.606,40.352 10.626,40.348 10.646,40.346 10.666,40.343 10.685,40.339 10.705,40.336 10.726,40.334 10.745,40.33 
			10.764,40.328 10.784,40.324 10.803,40.321 10.824,40.318 10.842,40.315 10.863,40.312 10.883,40.31 10.903,40.307 10.922,40.304 
			10.942,40.301 10.961,40.297 10.982,40.293 11.001,40.291 11.021,40.288 11.041,40.283 11.06,40.281 11.08,40.276 11.1,40.273 
			11.119,40.271 11.138,40.268 11.159,40.264 11.178,40.26 11.198,40.256 11.218,40.254 11.238,40.249 11.257,40.246 11.277,40.242 
			11.297,40.24 11.316,40.234 11.336,40.231 11.356,40.229 11.375,40.223 11.395,40.221 11.415,40.216 11.436,40.213 11.455,40.208 
			11.475,40.207 11.494,40.201 11.513,40.197 11.533,40.193 11.554,40.189 11.573,40.187 11.593,40.184 11.612,40.178 
			11.632,40.175 11.652,40.171 11.672,40.168 11.691,40.162 11.71,40.159 11.73,40.156 11.75,40.15 11.771,40.146 11.79,40.143 
			11.81,40.139 11.829,40.135 11.849,40.131 11.87,40.126 11.888,40.121 11.908,40.117 11.929,40.114 11.947,40.109 11.968,40.105 
			11.987,40.102 12.006,40.098 12.026,40.094 12.046,40.09 12.066,40.085 12.085,40.081 12.105,40.075 12.125,40.072 12.145,40.068 
			12.165,40.064 12.184,40.061 12.204,40.057 12.223,40.052 12.244,40.049 12.263,40.043 12.283,40.039 12.302,40.034 12.322,40.03 
			12.342,40.025 12.362,40.021 12.381,40.018 12.402,40.013 12.421,40.01 12.44,40.006 12.46,40.001 12.48,39.996 12.5,39.992 
			12.519,39.988 12.539,39.984 12.559,39.979 12.578,39.977 12.598,39.971 12.619,39.967 12.638,39.965 12.657,39.959 
			12.678,39.955 12.697,39.951 12.717,39.946 12.736,39.941 12.756,39.938 12.775,39.934 12.795,39.93 12.816,39.926 12.834,39.922 
			12.855,39.918 12.874,39.914 12.894,39.91 12.914,39.906 12.934,39.901 12.954,39.898 12.973,39.895 12.992,39.891 13.013,39.887 
			13.033,39.883 13.052,39.878 13.072,39.875 13.091,39.871 13.111,39.867 13.132,39.862 13.15,39.859 13.171,39.855 13.189,39.852 
			13.21,39.848 13.229,39.845 13.25,39.842 13.269,39.836 13.289,39.834 13.309,39.83 13.329,39.828 13.348,39.823 13.368,39.82 
			13.388,39.816 13.407,39.814 13.427,39.811 13.447,39.807 13.466,39.803 13.486,39.8 13.505,39.797 13.525,39.794 13.544,39.791 
			13.564,39.788 13.584,39.785 13.604,39.782 13.624,39.778 13.644,39.775 13.663,39.771 13.683,39.77 13.704,39.767 13.723,39.764 
			13.743,39.761 13.761,39.758 13.781,39.756 13.801,39.754 13.821,39.75 13.841,39.748 13.861,39.746 13.881,39.743 13.9,39.74 
			13.919,39.738 13.939,39.736 13.959,39.734 13.979,39.731 13.999,39.73 14.018,39.728 14.038,39.727 14.058,39.725 14.078,39.723 
			14.097,39.719 14.117,39.719 14.136,39.717 14.156,39.716 14.176,39.713 14.195,39.713 14.216,39.711 14.235,39.709 
			14.255,39.707 14.274,39.707 14.294,39.705 14.314,39.704 14.335,39.704 14.353,39.703 14.373,39.701 14.394,39.701 
			14.413,39.699 14.433,39.699 14.453,39.698 14.472,39.698 14.491,39.697 14.512,39.697 14.531,39.697 14.552,39.697 14.57,39.695 
			14.59,39.695 14.609,39.695 14.629,39.694 14.649,39.695 14.669,39.695 14.688,39.695 14.708,39.697 14.728,39.697 14.747,39.697 
			14.767,39.697 14.787,39.698 14.806,39.699 14.826,39.699 14.847,39.701 14.866,39.701 14.886,39.703 14.905,39.703 
			14.925,39.704 14.944,39.705 14.964,39.707 14.985,39.709 15.005,39.71 15.023,39.711 15.043,39.713 15.062,39.715 15.082,39.716 
			15.103,39.719 15.122,39.721 15.141,39.723 15.161,39.725 15.18,39.728 15.202,39.73 15.221,39.732 15.241,39.734 15.26,39.738 
			15.279,39.74 15.299,39.744 15.319,39.746 15.339,39.749 15.358,39.752 15.378,39.756 15.398,39.758 15.417,39.764 15.438,39.767 
			15.458,39.77 15.477,39.773 15.496,39.777 15.516,39.781 15.536,39.785 15.555,39.789 15.575,39.794 15.595,39.797 15.614,39.803 
			15.634,39.809 15.653,39.812 15.673,39.815 15.693,39.821 15.713,39.826 15.732,39.832 15.752,39.836 15.772,39.84 15.792,39.846 
			15.812,39.852 15.832,39.856 15.852,39.863 15.87,39.868 15.891,39.875 15.911,39.881 15.93,39.887 15.949,39.891 15.968,39.898 
			15.989,39.904 16.008,39.911 16.028,39.917 16.047,39.924 16.067,39.932 16.087,39.938 16.105,39.943 16.126,39.951 
			16.147,39.959 16.166,39.965 16.185,39.973 16.206,39.98 16.225,39.988 16.245,39.996 16.264,40.004 16.284,40.012 16.304,40.02 
			16.323,40.027 16.344,40.035 16.363,40.043 16.383,40.052 16.401,40.059 16.422,40.068 16.441,40.078 16.461,40.086 
			16.481,40.094 16.5,40.104 16.52,40.111 16.54,40.121 16.56,40.131 16.579,40.141 16.599,40.148 16.618,40.159 16.638,40.168 
			16.657,40.178 16.678,40.188 16.698,40.197 16.717,40.208 16.736,40.219 16.757,40.229 16.775,40.238 16.795,40.249 
			16.814,40.259 16.835,40.27 16.855,40.281 16.875,40.291 16.893,40.301 16.914,40.312 16.934,40.324 16.953,40.334 16.973,40.348 
			16.993,40.357 17.012,40.369 17.032,40.381 17.052,40.391 17.072,40.402 17.091,40.414 17.11,40.426 17.13,40.438 17.15,40.449 
			17.17,40.462 17.19,40.475 17.209,40.486 17.229,40.498 17.248,40.512 17.268,40.523 17.288,40.537 17.308,40.547 17.327,40.561 
			17.346,40.573 17.365,40.586 17.386,40.6 17.406,40.612 17.425,40.627 17.445,40.639 17.464,40.651 17.484,40.664 17.504,40.678 
			17.523,40.69 17.543,40.705 17.563,40.717 17.583,40.73 17.602,40.746 17.622,40.758 17.642,40.773 17.662,40.787 17.681,40.801 
			17.701,40.812 17.72,40.827 17.741,40.842 17.76,40.855 17.779,40.87 17.799,40.885 17.819,40.896 17.838,40.912 17.858,40.926 
			17.877,40.939 17.897,40.955 17.917,40.969 17.936,40.983 17.956,40.999 17.977,41.014 17.995,41.027 18.015,41.041 
			18.035,41.057 18.054,41.07 18.074,41.085 18.095,41.101 18.113,41.115 18.133,41.13 18.152,41.145 18.173,41.16 18.192,41.174 
			18.212,41.189 18.232,41.203 18.25,41.219 18.27,41.232 18.291,41.248 18.311,41.263 18.33,41.277 18.35,41.292 18.369,41.308 
			18.388,41.322 18.409,41.337 18.429,41.352 18.448,41.367 18.466,41.381 18.486,41.397 18.507,41.412 18.525,41.426 
			18.547,41.441 18.566,41.457 18.585,41.472 18.604,41.486 18.625,41.502 18.645,41.516 18.665,41.531 18.684,41.544 
			18.703,41.561 18.723,41.574 18.743,41.589 18.762,41.604 18.783,41.619 18.8,41.633 18.821,41.648 18.841,41.662 18.861,41.676 
			18.88,41.69 18.9,41.706 18.919,41.719 18.939,41.734 18.959,41.748 18.979,41.762 18.999,41.775 19.018,41.79 19.038,41.805 
			19.057,41.818 19.077,41.834 19.096,41.847 19.116,41.861 19.136,41.874 19.156,41.889 19.174,41.9 19.194,41.915 19.214,41.928 
			19.234,41.941 19.254,41.954 19.274,41.969 19.293,41.98 19.313,41.994 19.333,42.006 19.353,42.021 19.372,42.033 19.391,42.047 
			19.411,42.057 19.43,42.071 19.451,42.083 19.471,42.096 19.489,42.107 19.509,42.119 19.529,42.131 19.55,42.143 19.569,42.155 
			19.588,42.166 19.608,42.178 19.627,42.189 19.647,42.2 19.668,42.212 19.688,42.223 19.707,42.233 19.727,42.244 19.746,42.254 
			19.764,42.264 19.785,42.275 19.804,42.287 19.825,42.296 19.844,42.307 19.864,42.316 19.884,42.326 19.902,42.335 
			19.923,42.345 19.943,42.354 19.963,42.362 19.981,42.371 20.002,42.38 20.021,42.389 20.041,42.396 20.062,42.406 20.08,42.412 
			20.1,42.42 20.12,42.428 20.14,42.436 20.159,42.443 20.179,42.451 20.199,42.458 20.218,42.465 20.238,42.473 20.258,42.479 
			20.279,42.485 20.297,42.491 20.316,42.497 20.335,42.502 20.356,42.508 20.375,42.512 20.396,42.519 20.415,42.523 
			20.435,42.527 20.455,42.531 20.474,42.536 20.494,42.541 20.513,42.543 20.533,42.547 20.554,42.551 20.573,42.555 
			20.592,42.557 20.613,42.561 20.632,42.563 20.651,42.565 20.672,42.568 20.691,42.569 20.711,42.57 20.731,42.572 20.75,42.574 
			20.77,42.574 20.79,42.576 20.81,42.576 20.829,42.576 20.849,42.576 20.869,42.576 20.888,42.575 20.907,42.574 20.927,42.574 
			20.948,42.572 20.967,42.572 20.986,42.57 21.005,42.566 21.025,42.565 21.045,42.563 21.065,42.56 21.085,42.557 21.105,42.554 
			21.125,42.551 21.145,42.547 21.164,42.543 21.185,42.539 21.203,42.533 21.223,42.529 21.242,42.524 21.263,42.52 21.283,42.514 
			21.303,42.508 21.322,42.502 21.342,42.496 21.361,42.488 21.381,42.481 21.4,42.475 21.42,42.467 21.44,42.458 21.46,42.451 
			21.479,42.441 21.5,42.434 21.52,42.424 21.539,42.416 21.559,42.407 21.578,42.396 21.597,42.387 21.618,42.377 21.638,42.365 
			21.658,42.354 21.677,42.342 21.698,42.332 21.716,42.32 21.736,42.309 21.757,42.296 21.776,42.283 21.796,42.27 21.815,42.257 
			21.835,42.244 21.855,42.229 21.875,42.216 21.895,42.2 21.915,42.186 21.934,42.17 21.954,42.156 21.973,42.141 21.994,42.125 
			22.013,42.107 22.033,42.092 22.052,42.074 22.072,42.059 22.092,42.041 22.113,42.023 22.131,42.006 22.151,41.988 22.17,41.97 
			22.19,41.949 22.211,41.931 22.23,41.91 22.25,41.892 22.271,41.871 22.29,41.853 22.31,41.83 22.33,41.811 22.349,41.789 
			22.369,41.769 22.388,41.746 22.408,41.724 22.428,41.701 22.448,41.68 22.468,41.658 22.488,41.634 22.508,41.61 22.527,41.586 
			22.547,41.562 22.567,41.538 22.587,41.515 22.605,41.488 22.625,41.463 22.646,41.439 22.666,41.414 22.686,41.388 
			22.705,41.361 22.724,41.334 22.745,41.309 22.764,41.28 22.784,41.253 22.804,41.227 22.824,41.199 22.843,41.17 22.864,41.143 
			22.883,41.115 22.903,41.085 22.923,41.056 22.942,41.025 22.961,40.998 22.982,40.967 23.002,40.938 23.022,40.906 
			23.042,40.876 23.062,40.846 23.081,40.814 23.101,40.783 23.12,40.752 23.142,40.72 23.16,40.688 23.18,40.656 23.2,40.623 
			23.221,40.591 23.24,40.558 23.26,40.523 23.28,40.492 23.299,40.457 23.319,40.424 23.338,40.389 23.359,40.355 23.378,40.32 
			23.398,40.285 23.418,40.25 23.438,40.216 23.457,40.182 23.477,40.145 23.497,40.109 23.517,40.074 23.537,40.039 23.557,40.002 
			23.576,39.965 23.597,39.93 23.616,39.893 23.636,39.856 23.655,39.82 23.676,39.781 23.695,39.744 23.717,39.707 23.735,39.668 
			23.755,39.631 23.774,39.593 23.795,39.555 23.815,39.516 23.834,39.479 23.854,39.439 23.874,39.4 23.895,39.362 23.913,39.323 
			23.933,39.284 23.954,39.245 23.973,39.206 23.993,39.166 24.012,39.127 24.032,39.088 24.052,39.048 24.073,39.009 
			24.093,38.967 24.112,38.928 24.132,38.888 24.151,38.847 24.171,38.808 24.191,38.768 24.211,38.726 24.231,38.686 24.25,38.646 
			24.271,38.604 24.292,38.565 24.31,38.525 24.331,38.484 24.349,38.442 24.37,38.402 24.39,38.361 24.41,38.322 24.43,38.28 
			24.449,38.239 24.469,38.199 24.488,38.157 24.509,38.116 24.528,38.076 24.548,38.036 24.569,37.994 24.588,37.953 
			24.609,37.913 24.627,37.871 24.648,37.831 24.667,37.79 24.687,37.75 24.707,37.709 24.727,37.668 24.747,37.627 24.767,37.587 
			24.786,37.546 24.806,37.507 24.826,37.467 24.847,37.427 24.866,37.386 24.885,37.345 24.905,37.306 24.926,37.267 
			24.946,37.227 24.964,37.187 24.985,37.147 25.004,37.108 25.024,37.069 25.043,37.03 25.064,36.991 25.083,36.953 25.104,36.914 
			25.123,36.875 25.143,36.835 25.163,36.797 25.184,36.76 25.203,36.721 25.223,36.684 25.243,36.646 25.263,36.609 25.281,36.572 
			25.302,36.535 25.322,36.497 25.342,36.462 25.361,36.425 25.38,36.388 25.4,36.353 25.421,36.317 25.441,36.281 25.461,36.247 
			25.481,36.212 25.5,36.177 25.52,36.143 25.54,36.107 25.56,36.073 25.579,36.04 25.599,36.006 25.619,35.972 25.64,35.94 
			25.659,35.907 25.68,35.874 25.699,35.842 25.719,35.812 25.739,35.779 25.758,35.749 25.778,35.717 25.798,35.686 25.817,35.658 
			25.837,35.627 25.856,35.597 25.876,35.568 25.896,35.541 25.917,35.511 25.936,35.482 25.955,35.454 25.975,35.427 25.995,35.4 
			26.016,35.374 26.035,35.348 26.055,35.322 26.075,35.296 26.093,35.271 26.114,35.246 26.134,35.223 26.154,35.198 
			26.174,35.175 26.193,35.151 26.213,35.129 26.232,35.106 26.253,35.085 26.272,35.064 26.292,35.042 26.312,35.022 
			26.331,35.004 26.352,34.983 26.371,34.965 26.392,34.946 26.41,34.928 26.43,34.909 26.45,34.891 26.469,34.876 26.49,34.859 
			26.509,34.844 26.529,34.829 26.549,34.813 26.569,34.8 26.589,34.787 26.609,34.774 26.628,34.761 26.647,34.75 26.667,34.738 
			26.688,34.726 26.708,34.716 26.727,34.707 26.747,34.696 26.766,34.688 26.785,34.68 26.805,34.671 26.826,34.665 26.846,34.658 
			26.864,34.652 26.885,34.646 26.905,34.642 26.925,34.637 26.944,34.634 26.964,34.631 26.982,34.627 27.003,34.625 
			27.023,34.625 27.042,34.624 27.062,34.624 27.083,34.624 27.102,34.624 27.121,34.627 27.141,34.629 27.16,34.632 27.181,34.636 
			27.2,34.64 27.219,34.646 27.239,34.649 27.259,34.656 27.279,34.662 27.299,34.669 27.318,34.677 27.338,34.687 27.357,34.695 
			27.377,34.705 27.398,34.715 27.417,34.726 27.436,34.738 27.456,34.75 27.476,34.764 27.495,34.778 27.515,34.792 27.534,34.808 
			27.554,34.823 27.573,34.838 27.595,34.856 27.613,34.874 27.632,34.891 27.652,34.91 27.672,34.93 27.692,34.952 27.711,34.972 
			27.731,34.994 27.751,35.018 27.77,35.041 27.79,35.063 27.809,35.087 27.829,35.112 27.85,35.139 27.868,35.166 27.887,35.192 
			27.907,35.219 27.927,35.249 27.946,35.278 27.967,35.308 27.986,35.338 28.005,35.369 28.025,35.401 28.044,35.434 
			28.064,35.467 28.084,35.501 28.104,35.536 28.125,35.571 28.143,35.607 28.164,35.644 28.182,35.681 28.202,35.719 
			28.221,35.757 28.241,35.797 28.26,35.837 28.28,35.877 28.3,35.919 28.319,35.96 28.338,36.004 28.359,36.048 28.377,36.092 
			28.397,36.135 28.418,36.182 28.437,36.229 28.457,36.275 28.475,36.322 28.495,36.37 28.515,36.419 28.535,36.468 28.554,36.519 
			28.573,36.569 28.593,36.619 28.612,36.672 28.632,36.724 28.652,36.777 28.671,36.831 28.691,36.886 28.71,36.94 28.73,36.998 
			28.75,37.053 28.77,37.11 28.789,37.167 28.808,37.226 28.827,37.285 28.847,37.344 28.866,37.404 28.886,37.466 28.906,37.526 
			28.925,37.588 28.945,37.65 28.963,37.713 28.984,37.776 29.003,37.84 29.023,37.905 29.042,37.971 29.062,38.037 29.081,38.103 
			29.101,38.17 29.121,38.238 29.14,38.306 29.159,38.375 29.179,38.442 29.198,38.513 29.218,38.583 29.238,38.654 29.256,38.725 
			29.276,38.796 29.295,38.868 29.316,38.941 29.334,39.015 29.354,39.09 29.373,39.162 29.393,39.236 29.413,39.312 29.432,39.389 
			29.452,39.465 29.471,39.539 29.48,39.578 29.491,39.617 29.501,39.656 29.51,39.693 29.52,39.733 29.53,39.772 29.539,39.812 
			29.549,39.851 29.559,39.891 29.569,39.93 29.578,39.969 29.588,40.01 29.598,40.049 29.607,40.088 29.617,40.129 29.626,40.168 
			29.637,40.208 29.646,40.248 29.656,40.288 29.667,40.33 29.675,40.369 29.685,40.41 29.694,40.45 29.705,40.492 29.715,40.533 
			29.725,40.573 29.734,40.615 29.743,40.656 29.754,40.697 29.763,40.737 29.773,40.78 29.783,40.82 29.792,40.863 29.802,40.902 
			29.812,40.945 29.821,40.986 29.831,41.029 29.84,41.072 29.851,41.112 29.86,41.154 29.87,41.197 29.88,41.24 29.89,41.283 
			29.899,41.324 29.908,41.367 29.919,41.409 29.928,41.451 29.938,41.496 29.948,41.538 29.957,41.58 29.967,41.623 29.977,41.666 
			29.987,41.709 29.996,41.752 30.006,41.796 30.016,41.84 30.025,41.883 30.035,41.925 30.045,41.97 30.055,42.012 30.065,42.057 
			30.074,42.099 30.083,42.144 30.093,42.186 30.103,42.23 30.113,42.275 30.122,42.318 30.132,42.361 30.143,42.407 30.152,42.449 
			30.161,42.494 30.17,42.539 30.181,42.582 30.19,42.627 30.2,42.671 30.21,42.715 30.22,42.76 30.23,42.803 30.239,42.848 
			30.249,42.891 30.259,42.938 30.27,42.98 30.278,43.024 30.288,43.069 30.298,43.114 30.307,43.159 30.317,43.204 30.326,43.249 
			30.337,43.293 30.346,43.336 30.356,43.381 30.366,43.428 30.375,43.473 30.385,43.516 30.394,43.561 30.405,43.605 30.414,43.65 
			30.424,43.697 30.434,43.741 30.442,43.785 30.453,43.831 30.463,43.876 30.472,43.921 30.483,43.965 30.492,44.01 30.502,44.055 
			30.511,44.102 30.521,44.145 30.531,44.189 30.541,44.234 30.55,44.279 30.56,44.325 30.57,44.369 30.579,44.415 30.589,44.46 
			30.599,44.506 30.608,44.549 30.619,44.594 30.628,44.641 30.638,44.686 30.648,44.729 30.657,44.773 30.667,44.818 
			30.677,44.863 30.686,44.908 30.696,44.951 30.706,44.996 30.716,45.043 30.725,45.088 30.735,45.133 30.745,45.176 
			30.754,45.223 30.764,45.266 30.774,45.311 30.783,45.355 30.794,45.4 30.802,45.445 30.812,45.488 30.822,45.533 30.832,45.578 
			30.842,45.623 30.852,45.668 30.861,45.711 30.87,45.756 30.881,45.799 30.89,45.844 30.901,45.887 30.909,45.932 30.92,45.975 
			30.929,46.02 30.939,46.062 30.948,46.107 30.958,46.15 30.968,46.195 30.978,46.238 30.987,46.281 30.997,46.326 31.007,46.371 
			31.017,46.412 31.026,46.457 31.036,46.5 31.047,46.543 31.055,46.588 31.065,46.629 31.075,46.672 31.084,46.717 31.094,46.758 
			31.104,46.803 31.114,46.846 31.123,46.887 31.133,46.93 31.143,46.971 31.152,47.016 31.163,47.059 31.172,47.1 31.182,47.143 
			31.191,47.186 31.202,47.227 31.211,47.268 31.221,47.311 31.23,47.354 31.24,47.395 31.25,47.436 31.26,47.479 31.269,47.52 
			31.279,47.561 31.289,47.602 31.299,47.643 31.308,47.686 31.317,47.725 31.328,47.766 31.337,47.807 31.348,47.848 
			31.357,47.889 31.367,47.93 31.377,47.969 31.386,48.01 31.396,48.051 31.405,48.09 31.415,48.129 31.425,48.17 31.434,48.211 
			31.444,48.25 31.454,48.289 31.464,48.328 31.473,48.367 31.483,48.406 31.494,48.445 31.503,48.484 31.512,48.523 31.522,48.562 
			31.532,48.6 31.542,48.637 31.551,48.676 31.571,48.754 31.591,48.828 31.61,48.904 31.629,48.979 31.649,49.051 31.667,49.125 
			31.687,49.197 31.708,49.27 31.728,49.34 31.746,49.412 31.766,49.482 31.785,49.551 31.805,49.623 31.825,49.689 31.844,49.758 
			31.864,49.824 31.882,49.891 31.902,49.957 31.921,50.021 31.942,50.084 31.961,50.148 31.98,50.211 32,50.273 32.019,50.334 
			32.039,50.396 32.058,50.453 32.078,50.514 32.097,50.57 32.117,50.627 32.137,50.684 32.157,50.74 32.175,50.795 32.194,50.85 
			32.214,50.902 32.235,50.955 32.253,51.006 32.273,51.057 32.293,51.105 32.312,51.154 32.331,51.203 32.352,51.25 32.371,51.297 
			32.391,51.34 32.41,51.385 32.43,51.428 32.45,51.469 32.469,51.512 32.488,51.553 32.508,51.59 32.528,51.631 32.549,51.668 
			32.567,51.703 32.587,51.74 32.606,51.773 32.626,51.805 32.645,51.838 32.666,51.871 32.684,51.9 32.705,51.93 32.724,51.957 
			32.744,51.984 32.763,52.01 32.783,52.035 32.803,52.059 32.822,52.082 32.842,52.104 32.861,52.123 32.88,52.145 32.901,52.162 
			32.92,52.178 32.94,52.195 32.96,52.211 32.979,52.223 32.998,52.234 33.019,52.246 33.039,52.258 33.058,52.266 33.078,52.275 
			33.098,52.281 33.117,52.287 33.136,52.291 33.156,52.295 33.176,52.297 33.196,52.297 33.215,52.297 33.236,52.297 
			33.254,52.293 33.274,52.289 33.295,52.283 33.314,52.275 33.334,52.27 33.354,52.262 33.373,52.248 33.394,52.238 33.414,52.227 
			33.433,52.213 33.453,52.197 33.472,52.18 33.492,52.164 33.512,52.145 33.532,52.123 33.552,52.104 33.571,52.08 33.59,52.057 
			33.61,52.031 33.631,52.004 33.651,51.977 33.67,51.947 33.689,51.918 33.709,51.887 33.729,51.854 33.749,51.82 33.769,51.785 
			33.789,51.748 33.809,51.709 33.828,51.67 33.849,51.631 33.868,51.588 33.888,51.545 33.907,51.502 33.927,51.455 33.947,51.406 
			33.968,51.359 33.987,51.311 34.008,51.26 34.027,51.207 34.047,51.154 34.066,51.1 34.087,51.045 34.107,50.986 34.126,50.928 
			34.146,50.871 34.167,50.807 34.186,50.746 34.207,50.684 34.227,50.619 34.247,50.553 34.266,50.484 34.285,50.416 
			34.305,50.348 34.325,50.277 34.345,50.203 34.365,50.131 34.386,50.057 34.405,49.98 34.415,49.941 34.426,49.902 34.435,49.863 
			34.445,49.824 34.456,49.785 34.466,49.744 34.474,49.703 34.486,49.664 34.496,49.623 34.505,49.582 34.515,49.539 34.525,49.5 
			34.535,49.455 34.545,49.414 34.555,49.371 34.565,49.33 34.575,49.285 34.585,49.242 34.595,49.197 34.604,49.154 34.615,49.109 
			34.625,49.066 34.636,49.02 34.645,48.977 34.655,48.93 34.665,48.883 34.675,48.838 34.685,48.791 34.694,48.744 34.705,48.697 
			34.715,48.648 34.726,48.602 34.734,48.553 34.745,48.506 34.755,48.457 34.765,48.408 34.775,48.359 34.785,48.311 34.795,48.26 
			34.805,48.211 34.815,48.16 34.825,48.109 34.834,48.059 34.846,48.008 34.856,47.957 34.866,47.906 34.875,47.854 34.885,47.801 
			34.895,47.748 34.905,47.697 34.916,47.643 34.925,47.59 34.934,47.537 34.945,47.482 34.955,47.43 34.965,47.375 34.975,47.32 
			34.985,47.266 34.995,47.211 35.005,47.154 35.016,47.1 35.026,47.043 35.036,46.988 35.046,46.932 35.055,46.875 35.066,46.818 
			35.076,46.762 35.085,46.703 35.096,46.646 35.105,46.588 35.116,46.529 35.126,46.473 35.135,46.412 35.146,46.354 
			35.155,46.295 35.166,46.234 35.176,46.176 35.186,46.115 35.197,46.055 35.206,45.994 35.216,45.934 35.226,45.873 
			35.236,45.812 35.246,45.752 35.256,45.689 35.266,45.629 35.276,45.566 35.287,45.506 35.297,45.441 35.307,45.379 
			35.317,45.316 35.326,45.254 35.337,45.189 35.346,45.127 35.356,45.062 35.367,44.998 35.377,44.934 35.388,44.871 
			35.396,44.805 35.407,44.74 35.418,44.676 35.427,44.609 35.437,44.543 35.447,44.479 35.458,44.412 35.468,44.348 35.478,44.279 
			35.488,44.214 35.498,44.148 35.508,44.08 35.518,44.014 35.527,43.945 35.538,43.879 35.548,43.811 35.559,43.742 35.567,43.674 
			35.578,43.605 35.587,43.537 35.599,43.469 35.608,43.4 35.618,43.33 35.628,43.262 35.638,43.192 35.649,43.123 35.659,43.053 
			35.669,42.982 35.679,42.913 35.689,42.842 35.699,42.773 35.709,42.703 35.719,42.631 35.729,42.56 35.738,42.49 35.749,42.418 
			35.759,42.346 35.77,42.275 35.78,42.201 35.79,42.132 35.8,42.059 35.81,41.986 35.821,41.913 35.83,41.842 35.84,41.769 
			35.851,41.696 35.86,41.623 35.871,41.55 35.881,41.478 35.891,41.403 35.9,41.328 35.91,41.256 35.921,41.182 35.93,41.109 
			35.94,41.034 35.951,40.96 35.961,40.887 35.971,40.811 35.981,40.737 35.991,40.662 36.001,40.588 36.012,40.513 36.021,40.438 
			36.032,40.361 36.042,40.287 36.052,40.211 36.062,40.136 36.072,40.061 36.083,39.984 36.093,39.908 36.102,39.833 
			36.113,39.758 36.122,39.68 36.133,39.605 36.143,39.529 36.152,39.451 36.163,39.375 36.172,39.297 36.183,39.222 36.193,39.145 
			36.204,39.068 36.214,38.991 36.223,38.913 36.234,38.837 36.244,38.76 36.253,38.683 36.265,38.605 36.273,38.527 36.285,38.451 
			36.295,38.373 36.305,38.296 36.315,38.218 36.325,38.14 36.334,38.062 36.344,37.983 36.355,37.907 36.364,37.829 36.375,37.75 
			36.385,37.672 36.395,37.595 36.405,37.515 36.416,37.437 36.425,37.359 36.436,37.281 36.445,37.203 36.456,37.125 
			36.465,37.047 36.476,36.968 36.486,36.889 36.496,36.811 36.507,36.731 36.516,36.653 36.526,36.576 36.537,36.497 
			36.546,36.418 36.557,36.34 36.566,36.261 36.577,36.182 36.587,36.104 36.597,36.024 36.607,35.946 36.616,35.868 36.628,35.789 
			36.636,35.711 36.647,35.631 36.658,35.554 36.668,35.474 36.679,35.396 36.688,35.317 36.698,35.239 36.708,35.16 36.718,35.082 
			36.728,35.004 36.738,34.924 36.748,34.846 36.759,34.767 36.768,34.689 36.778,34.61 36.789,34.532 36.799,34.454 36.809,34.376 
			36.82,34.296 36.83,34.219 36.84,34.141 36.849,34.062 36.86,33.984 36.87,33.906 36.879,33.828 36.89,33.75 36.9,33.673 
			36.909,33.595 36.919,33.517 36.93,33.439 36.94,33.361 36.95,33.284 36.961,33.207 36.971,33.129 36.98,33.051 36.991,32.975 
			37,32.896 37.012,32.82 37.021,32.742 37.031,32.666 37.042,32.588 37.051,32.512 37.062,32.436 37.072,32.36 37.082,32.282 
			37.092,32.205 37.101,32.129 37.112,32.053 37.122,31.977 37.131,31.901 37.142,31.825 37.152,31.749 37.162,31.673 
			37.172,31.598 37.182,31.522 37.193,31.447 37.203,31.372 37.213,31.296 37.223,31.222 37.233,31.146 37.244,31.071 
			37.254,30.997 37.264,30.922 37.274,30.849 37.284,30.774 37.294,30.7 37.304,30.625 37.313,30.552 37.324,30.478 37.334,30.404 
			37.344,30.332 37.354,30.258 37.364,30.185 37.374,30.112 37.384,30.039 37.395,29.967 37.404,29.894 37.415,29.822 37.424,29.75 
			37.434,29.678 37.445,29.606 37.455,29.534 37.466,29.463 37.475,29.392 37.484,29.32 37.495,29.249 37.506,29.179 37.515,29.108 
			37.526,29.038 37.536,28.968 37.546,28.898 37.556,28.828 37.566,28.759 37.576,28.689 37.586,28.62 37.595,28.551 37.606,28.482 
			37.616,28.413 37.627,28.346 37.636,28.277 37.647,28.209 37.656,28.141 37.667,28.074 37.678,28.007 37.687,27.939 
			37.696,27.872 37.707,27.806 37.717,27.739 37.727,27.673 37.737,27.607 37.747,27.541 37.756,27.476 37.768,27.41 37.777,27.346 
			37.787,27.281 37.797,27.216 37.807,27.152 37.818,27.089 37.827,27.024 37.836,26.961 37.847,26.897 37.858,26.834 
			37.868,26.771 37.878,26.709 37.888,26.646 37.897,26.584 37.908,26.522 37.917,26.461 37.927,26.399 37.938,26.339 
			37.949,26.279 37.958,26.218 37.968,26.158 37.978,26.098 37.989,26.039 37.998,25.979 38.008,25.92 38.018,25.861 38.028,25.803 
			38.04,25.744 38.048,25.687 38.058,25.629 38.068,25.572 38.079,25.514 38.088,25.458 38.099,25.402 38.108,25.345 38.119,25.29 
			38.129,25.235 38.139,25.18 38.149,25.125 38.159,25.07 38.168,25.015 38.179,24.961 38.188,24.908 38.199,24.854 38.208,24.801 
			38.219,24.749 38.229,24.696 38.239,24.645 38.248,24.593 38.258,24.541 38.268,24.49 38.278,24.44 38.289,24.389 38.299,24.339 
			38.309,24.289 38.318,24.24 38.33,24.191 38.338,24.142 38.349,24.094 38.359,24.046 38.369,23.999 38.379,23.951 38.389,23.904 
			38.399,23.856 38.409,23.811 38.418,23.765 38.428,23.72 38.439,23.674 38.45,23.63 38.458,23.585 38.469,23.541 38.479,23.497 
			38.488,23.454 38.5,23.411 38.509,23.368 38.519,23.326 38.528,23.284 38.539,23.242 38.55,23.201 38.559,23.161 38.568,23.121 
			38.579,23.08 38.589,23.04 38.598,23.001 38.608,22.962 38.619,22.924 38.628,22.886 38.648,22.811 38.669,22.737 38.688,22.666 
			38.708,22.595 38.728,22.526 38.748,22.459 38.767,22.394 38.789,22.331 38.808,22.269 38.828,22.208 38.848,22.149 
			38.867,22.092 38.888,22.037 38.908,21.982 38.927,21.931 38.946,21.88 38.967,21.832 38.987,21.785 39.007,21.739 39.027,21.696 
			39.046,21.654 39.066,21.614 39.086,21.576 39.105,21.54 39.126,21.506 39.146,21.473 39.165,21.441 39.185,21.412 39.205,21.385 
			39.225,21.359 39.244,21.336 39.265,21.314 39.283,21.294 39.304,21.276 39.324,21.259 39.343,21.245 39.364,21.233 
			39.383,21.222 39.402,21.214 39.422,21.207 39.441,21.201 39.461,21.198 39.482,21.197 39.5,21.198 39.521,21.201 39.54,21.204 
			39.56,21.211 39.58,21.22 39.6,21.23 39.619,21.242 39.639,21.256 39.658,21.272 39.678,21.29 39.697,21.31 39.718,21.332 
			39.737,21.355 39.756,21.381 39.776,21.409 39.795,21.439 39.815,21.47 39.835,21.504 39.854,21.54 39.875,21.577 39.894,21.617 
			39.913,21.657 39.933,21.701 39.953,21.746 39.972,21.793 39.991,21.841 40.011,21.894 40.031,21.947 40.051,22.002 40.07,22.058 
			40.089,22.117 40.108,22.178 40.129,22.24 40.148,22.305 40.168,22.371 40.186,22.44 40.207,22.51 40.225,22.583 40.245,22.656 
			40.266,22.733 40.274,22.771 40.284,22.811 40.294,22.851 40.305,22.891 40.314,22.931 40.323,22.973 40.333,23.015 
			40.343,23.057 40.353,23.099 40.362,23.142 40.372,23.186 40.382,23.229 40.391,23.274 40.401,23.319 40.412,23.365 40.42,23.41 
			40.43,23.456 40.44,23.503 40.449,23.55 40.459,23.597 40.469,23.646 40.479,23.695 40.488,23.744 40.499,23.794 40.507,23.844 
			40.518,23.894 40.528,23.946 40.537,23.997 40.546,24.049 40.556,24.101 40.566,24.154 40.576,24.207 40.586,24.261 
			40.595,24.314 40.605,24.369 40.615,24.425 40.624,24.48 40.634,24.535 40.644,24.592 40.653,24.649 40.663,24.706 40.671,24.764 
			40.682,24.822 40.692,24.881 40.702,24.939 40.711,25 40.72,25.06 40.731,25.119 40.74,25.18 40.75,25.241 40.76,25.303 
			40.77,25.365 40.779,25.428 40.788,25.491 40.798,25.553 40.808,25.618 40.818,25.682 40.827,25.747 40.837,25.812 40.848,25.878 
			40.855,25.943 40.866,26.01 40.875,26.077 40.884,26.144 40.895,26.212 40.903,26.279 40.914,26.348 40.923,26.417 40.934,26.486 
			40.943,26.556 40.953,26.626 40.962,26.696 40.971,26.767 40.981,26.839 40.99,26.911 41.001,26.983 41.01,27.055 41.02,27.128 
			41.03,27.201 41.04,27.275 41.048,27.349 41.059,27.424 41.068,27.498 41.078,27.573 41.086,27.649 41.097,27.726 41.106,27.802 
			41.116,27.878 41.126,27.956 41.135,28.034 41.145,28.112 41.155,28.19 41.164,28.268 41.174,28.348 41.184,28.426 41.194,28.506 
			41.203,28.587 41.212,28.667 41.222,28.749 41.231,28.83 41.24,28.91 41.251,28.993 41.261,29.075 41.27,29.158 41.279,29.241 
			41.29,29.324 41.298,29.408 41.309,29.492 41.318,29.577 41.327,29.661 41.338,29.748 41.347,29.832 41.357,29.918 41.366,30.004 
			41.375,30.09 41.385,30.177 41.395,30.264 41.404,30.352 41.413,30.44 41.424,30.527 41.433,30.616 41.442,30.706 41.453,30.794 
			41.461,30.884 41.471,30.973 41.48,31.063 41.491,31.153 41.5,31.245 41.509,31.335 41.519,31.426 41.529,31.519 41.539,31.609 
			41.548,31.702 41.557,31.794 41.567,31.887 41.576,31.98 41.585,32.073 41.596,32.167 41.604,32.261 41.615,32.355 41.624,32.449 
			41.633,32.544 41.643,32.639 41.653,32.734 41.662,32.83 41.672,32.925 41.682,33.022 41.691,33.118 41.701,33.215 41.71,33.312 
			41.72,33.41 41.73,33.506 41.738,33.603 41.748,33.702 41.758,33.8 41.767,33.898 41.777,33.998 41.787,34.096 41.796,34.195 
			41.805,34.294 41.815,34.394 41.825,34.493 41.835,34.593 41.843,34.694 41.854,34.794 41.863,34.895 41.873,34.996 
			41.882,35.097 41.891,35.198 41.901,35.3 41.911,35.402 41.92,35.504 41.93,35.605 41.938,35.708 41.949,35.812 41.959,35.913 
			41.967,36.017 41.978,36.12 41.986,36.223 41.996,36.327 42.007,36.431 42.015,36.535 42.025,36.638 42.034,36.743 42.044,36.847 
			42.054,36.953 42.063,37.058 42.073,37.162 42.083,37.267 42.092,37.372 42.101,37.478 42.11,37.583 42.121,37.689 42.129,37.795 
			42.14,37.901 42.149,38.008 42.159,38.114 42.168,38.221 42.177,38.327 42.188,38.433 42.196,38.541 42.207,38.647 42.216,38.756 
			42.226,38.862 42.234,38.97 42.244,39.077 42.254,39.186 42.263,39.293 42.272,39.4 42.283,39.509 42.292,39.617 42.302,39.725 
			42.311,39.833 42.321,39.941 42.33,40.049 42.339,40.158 42.349,40.268 42.358,40.375 42.368,40.484 42.377,40.594 42.386,40.703 
			42.396,40.811 42.405,40.921 42.415,41.031 42.426,41.14 42.435,41.25 42.443,41.358 42.454,41.469 42.463,41.577 42.473,41.688 
			42.482,41.797 42.491,41.906 42.5,42.018 42.512,42.126 42.52,42.236 42.529,42.346 42.54,42.455 42.548,42.565 42.559,42.677 
			42.568,42.787 42.577,42.896 42.586,43.007 42.596,43.117 42.605,43.226 42.614,43.336 42.625,43.445 42.635,43.557 
			42.644,43.666 42.653,43.775 42.662,43.889 42.672,43.998 42.682,44.107 42.691,44.218 42.701,44.328 42.711,44.438 
			42.721,44.549 42.729,44.658 42.74,44.77 42.75,44.877 42.757,44.988 42.768,45.098 42.777,45.207 42.787,45.316 42.796,45.428 
			42.805,45.535 42.815,45.646 42.825,45.758 42.834,45.865 42.843,45.975 42.854,46.086 42.863,46.195 42.872,46.303 
			42.882,46.412 42.891,46.523 42.9,46.633 42.91,46.74 42.919,46.85 42.929,46.959 42.939,47.066 42.948,47.176 42.958,47.283 
			42.967,47.393 42.977,47.502 42.986,47.609 42.996,47.717 43.005,47.826 43.015,47.936 43.024,48.045 43.034,48.15 43.043,48.258 
			43.053,48.367 43.062,48.475 43.072,48.58 43.082,48.688 43.091,48.795 43.101,48.902 43.111,49.008 43.119,49.113 43.129,49.223 
			43.138,49.328 43.148,49.436 43.157,49.539 43.167,49.646 43.177,49.754 43.186,49.859 43.196,49.965 43.205,50.07 43.214,50.176 
			43.225,50.279 43.234,50.385 43.244,50.49 43.254,50.594 43.262,50.697 43.272,50.801 43.281,50.906 43.291,51.01 43.301,51.113 
			43.311,51.217 43.32,51.32 43.329,51.422 43.339,51.525 43.348,51.629 43.358,51.73 43.368,51.832 43.377,51.934 43.386,52.035 
			43.395,52.137 43.406,52.238 43.415,52.34 43.425,52.441 43.434,52.541 43.443,52.643 43.454,52.74 43.463,52.842 43.472,52.941 
			43.481,53.039 43.491,53.139 43.501,53.238 43.51,53.336 43.52,53.436 43.53,53.533 43.539,53.631 43.549,53.729 43.559,53.826 
			43.567,53.924 43.576,54.02 43.587,54.115 43.597,54.213 43.606,54.309 43.616,54.404 43.625,54.5 43.635,54.594 43.644,54.689 
			43.654,54.783 43.663,54.879 43.673,54.973 43.684,55.066 43.692,55.158 43.702,55.252 43.712,55.346 43.72,55.438 43.73,55.529 
			43.74,55.621 43.75,55.713 43.759,55.803 43.769,55.893 43.779,55.984 43.788,56.074 43.797,56.166 43.807,56.254 43.817,56.342 
			43.825,56.432 43.835,56.521 43.847,56.609 43.855,56.697 43.864,56.783 43.873,56.871 43.883,56.959 43.893,57.043 
			43.902,57.129 43.912,57.217 43.922,57.301 43.931,57.387 43.941,57.473 43.951,57.557 43.96,57.639 43.97,57.723 43.979,57.805 
			43.99,57.889 43.999,57.971 44.009,58.053 44.018,58.135 44.027,58.215 44.037,58.297 44.047,58.377 44.057,58.455 44.066,58.537 
			44.077,58.615 44.085,58.695 44.094,58.771 44.104,58.85 44.114,58.928 44.124,59.006 44.133,59.082 44.144,59.158 44.152,59.234 
			44.162,59.311 44.172,59.385 44.182,59.459 44.191,59.535 44.201,59.607 44.211,59.682 44.219,59.754 44.229,59.826 44.24,59.898 
			44.249,59.969 44.258,60.041 44.268,60.111 44.277,60.184 44.288,60.252 44.297,60.322 44.307,60.391 44.315,60.459 
			44.326,60.525 44.335,60.594 44.345,60.66 44.355,60.73 44.364,60.793 44.374,60.859 44.384,60.926 44.394,60.99 44.402,61.055 
			44.413,61.119 44.422,61.182 44.432,61.246 44.442,61.309 44.45,61.369 44.461,61.432 44.471,61.492 44.48,61.553 44.49,61.613 
			44.5,61.672 44.509,61.73 44.52,61.789 44.528,61.848 44.538,61.904 44.548,61.961 44.559,62.02 44.568,62.076 44.577,62.131 
			44.586,62.186 44.598,62.24 44.607,62.295 44.616,62.348 44.626,62.4 44.636,62.453 44.645,62.504 44.655,62.557 44.665,62.609 
			44.673,62.658 44.685,62.707 44.693,62.758 44.703,62.807 44.713,62.855 44.722,62.902 44.732,62.949 44.742,62.996 
			44.752,63.043 44.762,63.088 44.772,63.133 44.78,63.178 44.791,63.223 44.8,63.266 44.809,63.309 44.82,63.352 44.83,63.395 
			44.839,63.436 44.849,63.477 44.858,63.516 44.869,63.557 44.878,63.596 44.888,63.635 44.907,63.709 44.927,63.783 
			44.946,63.855 44.966,63.924 44.986,63.99 45.005,64.055 45.024,64.117 45.044,64.178 45.063,64.234 45.083,64.291 45.103,64.344 
			45.122,64.395 45.141,64.443 45.16,64.49 45.18,64.533 45.201,64.574 45.22,64.615 45.239,64.65 45.258,64.686 45.278,64.719 
			45.298,64.748 45.318,64.775 45.338,64.803 45.356,64.822 45.376,64.846 45.397,64.863 45.417,64.879 45.436,64.891 
			45.456,64.902 45.475,64.91 45.495,64.916 45.515,64.922 45.534,64.924 45.555,64.922 45.573,64.918 45.594,64.912 45.612,64.904 
			45.633,64.893 45.653,64.883 45.673,64.865 45.692,64.848 45.712,64.828 45.731,64.807 45.751,64.781 45.771,64.752 
			45.791,64.725 45.81,64.691 45.83,64.656 45.85,64.619 45.871,64.58 45.89,64.539 45.91,64.494 45.93,64.447 45.95,64.398 
			45.97,64.348 45.989,64.293 46.009,64.238 46.029,64.182 46.049,64.119 46.068,64.057 46.089,63.99 46.109,63.922 46.128,63.852 
			46.148,63.781 46.168,63.705 46.179,63.668 46.188,63.627 46.199,63.59 46.208,63.551 46.218,63.508 46.229,63.467 46.238,63.428 
			46.249,63.383 46.259,63.34 46.269,63.299 46.279,63.254 46.289,63.209 46.298,63.164 46.309,63.117 46.318,63.07 46.329,63.025 
			46.339,62.979 46.349,62.93 46.357,62.881 46.369,62.832 46.379,62.783 46.388,62.732 46.399,62.682 46.408,62.631 46.419,62.578 
			46.429,62.525 46.438,62.473 46.449,62.418 46.458,62.363 46.469,62.309 46.479,62.254 46.489,62.199 46.498,62.143 
			46.508,62.088 46.52,62.027 46.528,61.971 46.539,61.91 46.55,61.854 46.559,61.793 46.569,61.734 46.579,61.674 46.589,61.611 
			46.599,61.551 46.61,61.488 46.62,61.426 46.628,61.361 46.639,61.299 46.649,61.234 46.66,61.17 46.669,61.104 46.68,61.039 
			46.69,60.971 46.7,60.904 46.709,60.836 46.72,60.77 46.73,60.699 46.74,60.631 46.75,60.562 46.76,60.492 46.77,60.422 
			46.781,60.35 46.791,60.277 46.8,60.207 46.811,60.135 46.82,60.061 46.831,59.988 46.841,59.914 46.851,59.84 46.861,59.764 
			46.872,59.689 46.881,59.613 46.892,59.537 46.901,59.459 46.911,59.381 46.92,59.303 46.932,59.225 46.941,59.146 46.952,59.066 
			46.962,58.988 46.972,58.908 46.983,58.826 46.992,58.746 47.002,58.664 47.012,58.582 47.022,58.5 47.033,58.416 47.043,58.332 
			47.053,58.248 47.062,58.164 47.073,58.08 47.083,57.994 47.093,57.91 47.104,57.822 47.114,57.736 47.124,57.65 47.133,57.562 
			47.144,57.473 47.155,57.385 47.165,57.295 47.175,57.207 47.185,57.119 47.195,57.027 47.205,56.936 47.215,56.848 
			47.226,56.756 47.234,56.664 47.245,56.57 47.256,56.479 47.265,56.385 47.275,56.291 47.285,56.199 47.296,56.104 47.306,56.01 
			47.316,55.914 47.326,55.818 47.337,55.725 47.347,55.627 47.357,55.531 47.367,55.434 47.377,55.336 47.387,55.238 
			47.399,55.141 47.408,55.041 47.417,54.943 47.428,54.844 47.438,54.746 47.448,54.645 47.458,54.545 47.469,54.445 
			47.479,54.344 47.49,54.242 47.499,54.141 47.509,54.037 47.52,53.936 47.529,53.834 47.54,53.73 47.55,53.627 47.56,53.523 
			47.571,53.42 47.581,53.314 47.591,53.211 47.601,53.105 47.611,53 47.622,52.895 47.632,52.789 47.642,52.682 47.652,52.574 
			47.662,52.469 47.672,52.361 47.682,52.252 47.692,52.145 47.703,52.037 47.713,51.93 47.723,51.82 47.733,51.711 47.745,51.602 
			47.753,51.492 47.764,51.383 47.774,51.271 47.784,51.162 47.794,51.051 47.805,50.939 47.815,50.828 47.825,50.717 
			47.836,50.607 47.845,50.494 47.855,50.381 47.866,50.268 47.876,50.156 47.887,50.043 47.896,49.93 47.907,49.814 47.917,49.703 
			47.927,49.588 47.938,49.475 47.947,49.359 47.958,49.246 47.968,49.129 47.978,49.016 47.988,48.898 47.998,48.785 
			48.009,48.668 48.02,48.553 48.03,48.438 48.039,48.32 48.05,48.203 48.061,48.086 48.07,47.969 48.081,47.854 48.09,47.736 
			48.101,47.615 48.112,47.498 48.121,47.383 48.132,47.264 48.141,47.145 48.152,47.025 48.163,46.908 48.173,46.789 48.183,46.67 
			48.193,46.553 48.204,46.432 48.213,46.312 48.224,46.193 48.234,46.072 48.244,45.953 48.254,45.834 48.264,45.713 
			48.274,45.594 48.285,45.473 48.294,45.354 48.306,45.23 48.315,45.111 48.325,44.99 48.336,44.869 48.346,44.748 48.356,44.625 
			48.367,44.506 48.376,44.385 48.387,44.26 48.397,44.141 48.407,44.02 48.417,43.896 48.428,43.775 48.438,43.652 48.449,43.531 
			48.459,43.408 48.469,43.285 48.48,43.164 48.49,43.041 48.5,42.92 48.51,42.797 48.52,42.674 48.53,42.551 48.54,42.428 
			48.551,42.307 48.561,42.184 48.571,42.061 48.582,41.938 48.593,41.816 48.602,41.691 48.612,41.568 48.622,41.445 
			48.633,41.322 48.643,41.199 48.653,41.076 48.664,40.954 48.674,40.831 48.684,40.708 48.693,40.585 48.704,40.461 
			48.715,40.338 48.726,40.215 48.735,40.092 48.746,39.969 48.755,39.846 48.766,39.723 48.775,39.599 48.786,39.477 
			48.797,39.354 48.807,39.23 48.818,39.107 48.827,38.984 48.836,38.862 48.848,38.739 48.858,38.616 48.869,38.494 48.88,38.372 
			48.889,38.249 48.899,38.125 48.91,38.003 48.919,37.882 48.93,37.758 48.94,37.636 48.951,37.514 48.961,37.391 48.971,37.27 
			48.981,37.147 48.99,37.026 49,36.904 49.012,36.782 49.023,36.66 49.032,36.54 49.042,36.418 49.052,36.296 49.062,36.174 
			49.074,36.054 49.084,35.933 49.094,35.812 49.104,35.691 49.115,35.57 49.125,35.451 49.135,35.33 49.145,35.209 49.155,35.089 
			49.166,34.969 49.175,34.85 49.185,34.729 49.195,34.61 49.207,34.491 49.216,34.372 49.226,34.251 49.237,34.133 49.247,34.015 
			49.257,33.896 49.268,33.777 49.276,33.659 49.288,33.541 49.298,33.423 49.309,33.306 49.318,33.188 49.329,33.07 49.34,32.953 
			49.349,32.836 49.36,32.72 49.371,32.603 49.38,32.487 49.39,32.37 49.4,32.254 49.41,32.139 49.419,32.022 49.432,31.908 
			49.442,31.792 49.451,31.677 49.461,31.562 49.471,31.449 49.481,31.334 49.492,31.22 49.502,31.107 49.513,30.993 49.523,30.879 
			49.534,30.766 49.543,30.654 49.554,30.542 49.564,30.429 49.574,30.317 49.584,30.205 49.594,30.094 49.604,29.982 
			49.614,29.871 49.625,29.761 49.635,29.65 49.645,29.541 49.655,29.431 49.665,29.32 49.676,29.211 49.686,29.103 49.696,28.994 
			49.707,28.885 49.718,28.777 49.727,28.67 49.737,28.562 49.747,28.454 49.757,28.348 49.767,28.24 49.778,28.134 49.788,28.029 
			49.798,27.922 49.808,27.817 49.819,27.712 49.828,27.608 49.839,27.504 49.848,27.399 49.859,27.296 49.87,27.192 49.879,27.089 
			49.89,26.986 49.899,26.884 49.91,26.782 49.92,26.68 49.93,26.58 49.94,26.478 49.95,26.378 49.961,26.278 49.971,26.178 
			49.98,26.078 49.991,25.979 50.002,25.88 50.011,25.782 50.021,25.684 50.033,25.586 50.043,25.489 50.053,25.393 50.062,25.295 
			50.073,25.199 50.083,25.103 50.092,25.009 50.104,24.914 50.113,24.818 50.122,24.725 50.134,24.63 50.144,24.537 50.154,24.443 
			50.164,24.352 50.175,24.26 50.184,24.168 50.195,24.076 50.204,23.985 50.214,23.895 50.226,23.805 50.235,23.716 50.244,23.626 
			50.256,23.538 50.266,23.449 50.274,23.362 50.286,23.273 50.296,23.187 50.306,23.1 50.316,23.014 50.326,22.928 50.336,22.843 
			50.346,22.757 50.356,22.674 50.367,22.59 50.377,22.506 50.387,22.423 50.397,22.341 50.407,22.258 50.417,22.177 50.427,22.096 
			50.438,22.015 50.447,21.935 50.457,21.856 50.467,21.776 50.478,21.697 50.489,21.619 50.498,21.541 50.509,21.463 
			50.518,21.386 50.528,21.31 50.538,21.234 50.548,21.159 50.558,21.083 50.569,21.009 50.578,20.935 50.588,20.862 50.598,20.789 
			50.609,20.716 50.619,20.644 50.629,20.573 50.638,20.501 50.648,20.431 50.659,20.362 50.67,20.292 50.68,20.223 50.689,20.154 
			50.699,20.086 50.71,20.019 50.719,19.952 50.73,19.885 50.74,19.819 50.75,19.754 50.761,19.69 50.769,19.625 50.779,19.561 
			50.79,19.498 50.799,19.435 50.81,19.373 50.821,19.311 50.83,19.25 50.84,19.189 50.851,19.129 50.861,19.07 50.87,19.011 
			50.881,18.953 50.891,18.894 50.899,18.837 50.91,18.78 50.92,18.724 50.93,18.668 50.94,18.613 50.95,18.558 50.96,18.503 
			50.972,18.451 50.98,18.397 50.99,18.346 51,18.293 51.011,18.242 51.022,18.19 51.031,18.141 51.04,18.091 51.051,18.042 
			51.06,17.994 51.071,17.945 51.081,17.898 51.091,17.851 51.101,17.806 51.11,17.76 51.122,17.714 51.131,17.67 51.142,17.625 
			51.151,17.583 51.161,17.539 51.169,17.497 51.18,17.456 51.191,17.415 51.2,17.374 51.211,17.334 51.22,17.294 51.23,17.255 
			51.241,17.218 51.261,17.143 51.28,17.07 51.3,17 51.32,16.932 51.34,16.867 51.36,16.803 51.38,16.743 51.399,16.685 
			51.42,16.628 51.439,16.575 51.46,16.524 51.48,16.475 51.5,16.429 51.519,16.384 51.538,16.342 51.559,16.303 51.578,16.266 
			51.599,16.231 51.617,16.199 51.638,16.17 51.658,16.143 51.678,16.117 51.698,16.095 51.716,16.075 51.737,16.058 51.756,16.042 
			51.777,16.028 51.796,16.017 51.816,16.01 51.835,16.004 51.855,16 51.875,16 51.895,16.001 51.915,16.005 51.934,16.011 
			51.955,16.02 51.974,16.031 51.992,16.044 52.013,16.06 52.033,16.078 52.052,16.099 52.072,16.122 52.093,16.147 52.111,16.174 
			52.13,16.205 52.15,16.237 52.17,16.271 52.189,16.308 52.209,16.348 52.229,16.389 52.248,16.434 52.268,16.479 52.289,16.528 
			52.306,16.579 52.327,16.632 52.347,16.688 52.365,16.745 52.384,16.805 52.405,16.868 52.424,16.932 52.443,17 52.463,17.068 
			52.483,17.14 52.502,17.213 52.522,17.289 52.532,17.328 52.54,17.366 52.55,17.407 52.561,17.447 52.571,17.488 52.58,17.529 
			52.59,17.572 52.598,17.613 52.608,17.656 52.619,17.701 52.628,17.744 52.639,17.789 52.648,17.834 52.658,17.88 52.667,17.926 
			52.676,17.974 52.686,18.02 52.696,18.068 52.706,18.116 52.715,18.165 52.725,18.215 52.735,18.265 52.746,18.315 52.755,18.366 
			52.765,18.418 52.773,18.469 52.783,18.521 52.794,18.574 52.803,18.629 52.813,18.683 52.823,18.737 52.832,18.792 
			52.841,18.848 52.851,18.904 52.861,18.961 52.87,19.017 52.881,19.075 52.888,19.133 52.899,19.192 52.91,19.251 52.919,19.311 
			52.93,19.37 52.938,19.431 52.948,19.492 52.958,19.553 52.968,19.615 52.977,19.678 52.986,19.741 52.997,19.804 53.005,19.868 
			53.017,19.932 53.025,19.998 53.036,20.062 53.044,20.128 53.055,20.194 53.064,20.261 53.073,20.329 53.083,20.396 
			53.093,20.464 53.103,20.533 53.112,20.602 53.121,20.67 53.133,20.741 53.141,20.811 53.151,20.881 53.16,20.953 53.17,21.024 
			53.18,21.097 53.189,21.168 53.199,21.242 53.208,21.315 53.218,21.389 53.228,21.463 53.238,21.539 53.247,21.613 53.256,21.688 
			53.266,21.765 53.277,21.841 53.286,21.917 53.295,21.995 53.303,22.071 53.314,22.149 53.324,22.229 53.333,22.308 
			53.343,22.387 53.353,22.466 53.363,22.547 53.372,22.626 53.381,22.708 53.391,22.789 53.4,22.87 53.411,22.952 53.421,23.035 
			53.429,23.117 53.439,23.201 53.449,23.284 53.458,23.368 53.469,23.452 53.478,23.537 53.487,23.622 53.498,23.707 
			53.506,23.792 53.516,23.879 53.525,23.964 53.536,24.052 53.545,24.139 53.554,24.226 53.565,24.314 53.572,24.401 53.583,24.49 
			53.592,24.579 53.603,24.668 53.612,24.757 53.621,24.847 53.63,24.937 53.64,25.028 53.65,25.119 53.659,25.21 53.669,25.302 
			53.678,25.394 53.688,25.486 53.698,25.579 53.708,25.67 53.716,25.764 53.726,25.857 53.736,25.951 53.745,26.044 53.756,26.139 
			53.765,26.233 53.774,26.328 53.783,26.423 53.793,26.519 53.803,26.614 53.813,26.71 53.821,26.807 53.832,26.904 53.841,27 
			53.85,27.097 53.86,27.194 53.87,27.292 53.879,27.389 53.89,27.488 53.897,27.586 53.908,27.685 53.918,27.784 53.928,27.882 
			53.937,27.982 53.947,28.082 53.956,28.181 53.966,28.281 53.975,28.382 53.984,28.482 53.993,28.583 54.003,28.684 
			54.013,28.786 54.023,28.887 54.033,28.989 54.042,29.09 54.051,29.193 54.061,29.295 54.07,29.397 54.079,29.5 54.089,29.604 
			54.099,29.706 54.108,29.81 54.118,29.914 54.127,30.017 54.137,30.12 54.146,30.225 54.157,30.33 54.166,30.434 54.175,30.539 
			54.185,30.643 54.195,30.749 54.205,30.853 54.213,30.959 54.224,31.065 54.232,31.17 54.242,31.275 54.25,31.382 54.261,31.488 
			54.271,31.594 54.28,31.7 54.29,31.808 54.298,31.913 54.309,32.021 54.318,32.127 54.328,32.235 54.337,32.341 54.346,32.45 
			54.356,32.557 54.366,32.665 54.376,32.772 54.385,32.88 54.394,32.988 54.404,33.096 54.414,33.203 54.422,33.312 54.432,33.421 
			54.441,33.53 54.451,33.638 54.461,33.747 54.471,33.855 54.479,33.964 54.49,34.073 54.499,34.182 54.508,34.292 54.518,34.399 
			54.527,34.511 54.537,34.618 54.547,34.728 54.556,34.838 54.565,34.947 54.576,35.057 54.584,35.167 54.594,35.277 
			54.605,35.386 54.612,35.496 54.623,35.605 54.632,35.715 54.643,35.826 54.651,35.936 54.661,36.044 54.67,36.155 54.68,36.266 
			54.69,36.375 54.699,36.485 54.708,36.595 54.718,36.705 54.728,36.815 54.737,36.925 54.747,37.035 54.755,37.145 54.764,37.256 
			54.775,37.366 54.783,37.475 54.793,37.585 54.805,37.696 54.813,37.806 54.822,37.917 54.833,38.026 54.841,38.137 54.85,38.246 
			54.861,38.357 54.87,38.467 54.879,38.577 54.89,38.686 54.899,38.797 54.907,38.906 54.917,39.016 54.926,39.126 54.937,39.236 
			54.946,39.345 54.956,39.455 54.965,39.563 54.975,39.674 54.984,39.783 54.993,39.893 55.004,40.002 55.013,40.111 55.023,40.22 
			55.033,40.33 55.041,40.438 55.051,40.547 55.06,40.654 55.069,40.764 55.08,40.873 55.089,40.98 55.099,41.089 55.108,41.199 
			55.117,41.307 55.126,41.414 55.137,41.522 55.146,41.631 55.155,41.738 55.164,41.844 55.174,41.953 55.184,42.062 
			55.193,42.167 55.203,42.275 55.212,42.383 55.222,42.488 55.231,42.596 55.24,42.703 55.251,42.809 55.26,42.916 55.27,43.021 
			55.279,43.127 55.288,43.232 55.298,43.34 55.308,43.445 55.318,43.551 55.327,43.656 55.336,43.762 55.347,43.866 55.356,43.973 
			55.365,44.074 55.375,44.18 55.384,44.283 55.393,44.389 55.403,44.492 55.413,44.596 55.423,44.699 55.432,44.803 55.44,44.906 
			55.451,45.008 55.461,45.111 55.47,45.215 55.48,45.316 55.489,45.42 55.498,45.521 55.508,45.623 55.517,45.725 55.526,45.824 
			55.537,45.926 55.546,46.027 55.556,46.129 55.565,46.229 55.576,46.33 55.585,46.43 55.593,46.529 55.604,46.629 55.613,46.729 
			55.622,46.828 55.632,46.926 55.641,47.025 55.65,47.121 55.661,47.221 55.669,47.32 55.679,47.416 55.689,47.514 55.699,47.611 
			55.708,47.707 55.717,47.805 55.727,47.9 55.738,47.996 55.748,48.092 55.756,48.188 55.765,48.283 55.776,48.379 55.784,48.473 
			55.795,48.568 55.804,48.662 55.813,48.756 55.824,48.85 55.833,48.943 55.842,49.035 55.853,49.129 55.861,49.221 55.872,49.312 
			55.881,49.404 55.89,49.496 55.899,49.588 55.91,49.68 55.918,49.77 55.929,49.859 55.938,49.949 55.947,50.037 55.957,50.127 
			55.968,50.219 55.977,50.307 55.986,50.396 55.995,50.482 56.004,50.57 56.015,50.658 56.024,50.744 56.034,50.832 56.044,50.918 
			56.053,51.004 56.062,51.092 56.072,51.176 56.082,51.262 56.09,51.346 56.101,51.432 56.109,51.514 56.12,51.598 56.131,51.682 
			56.14,51.766 56.149,51.848 56.159,51.93 56.168,52.012 56.176,52.094 56.188,52.174 56.197,52.254 56.206,52.336 56.216,52.416 
			56.226,52.496 56.236,52.574 56.246,52.654 56.255,52.734 56.265,52.812 56.273,52.891 56.282,52.967 56.293,53.043 
			56.302,53.121 56.313,53.197 56.322,53.273 56.331,53.35 56.34,53.424 56.35,53.498 56.36,53.572 56.369,53.646 56.38,53.721 
			56.389,53.795 56.398,53.867 56.409,53.941 56.419,54.014 56.428,54.084 56.438,54.154 56.448,54.227 56.456,54.297 
			56.465,54.367 56.476,54.438 56.485,54.506 56.494,54.574 56.504,54.643 56.515,54.713 56.524,54.779 56.534,54.848 
			56.543,54.912 56.552,54.979 56.563,55.045 56.572,55.109 56.583,55.178 56.591,55.24 56.601,55.305 56.61,55.369 56.62,55.432 
			56.63,55.494 56.64,55.557 56.65,55.621 56.659,55.684 56.669,55.74 56.679,55.803 56.688,55.863 56.697,55.924 56.708,55.982 
			56.717,56.043 56.727,56.1 56.737,56.158 56.746,56.217 56.757,56.273 56.766,56.33 56.775,56.387 56.786,56.443 56.794,56.498 
			56.804,56.553 56.815,56.607 56.823,56.662 56.833,56.717 56.844,56.77 56.853,56.822 56.863,56.875 56.872,56.926 56.882,56.977 
			56.892,57.029 56.901,57.08 56.912,57.129 56.92,57.178 56.93,57.227 56.94,57.275 56.95,57.326 56.959,57.373 56.969,57.42 
			56.979,57.467 56.988,57.512 56.999,57.559 57.008,57.604 57.018,57.648 57.028,57.693 57.037,57.736 57.047,57.781 
			57.056,57.824 57.066,57.865 57.076,57.906 57.086,57.949 57.096,57.99 57.105,58.031 57.115,58.072 57.124,58.111 57.133,58.15 
			57.144,58.189 57.164,58.266 57.183,58.34 57.203,58.414 57.222,58.482 57.242,58.551 57.262,58.619 57.28,58.682 57.3,58.744 
			57.32,58.807 57.339,58.865 57.359,58.92 57.378,58.977 57.398,59.029 57.417,59.08 57.438,59.129 57.456,59.178 57.475,59.223 
			57.495,59.266 57.514,59.307 57.534,59.346 57.555,59.381 57.574,59.418 57.593,59.453 57.612,59.484 57.632,59.514 
			57.652,59.541 57.672,59.566 57.691,59.592 57.71,59.611 57.731,59.633 57.75,59.65 57.77,59.666 57.789,59.68 57.809,59.693 
			57.83,59.703 57.85,59.711 57.868,59.719 57.889,59.723 57.908,59.725 57.928,59.727 57.948,59.725 57.968,59.721 57.987,59.715 
			58.007,59.709 58.026,59.701 58.046,59.689 58.066,59.678 58.086,59.662 58.105,59.646 58.125,59.627 58.146,59.609 
			58.165,59.586 58.184,59.562 58.204,59.537 58.223,59.51 58.244,59.48 58.263,59.451 58.283,59.418 58.304,59.383 58.323,59.348 
			58.342,59.307 58.362,59.268 58.383,59.229 58.403,59.184 58.423,59.139 58.443,59.092 58.462,59.043 58.481,58.992 
			58.501,58.941 58.523,58.887 58.542,58.83 58.562,58.775 58.583,58.715 58.601,58.654 58.621,58.594 58.641,58.527 58.661,58.463 
			58.681,58.395 58.702,58.326 58.721,58.258 58.74,58.186 58.761,58.113 58.781,58.035 58.79,57.998 58.8,57.961 58.812,57.922 
			58.821,57.883 58.831,57.844 58.841,57.803 58.85,57.764 58.859,57.723 58.87,57.68 58.88,57.637 58.89,57.596 58.901,57.555 
			58.91,57.512 58.92,57.469 58.931,57.426 58.94,57.383 58.95,57.338 58.959,57.293 58.97,57.248 58.98,57.203 58.99,57.158 
			59,57.113 59.01,57.064 59.02,57.02 59.03,56.973 59.04,56.924 59.051,56.877 59.061,56.828 59.07,56.781 59.081,56.732 
			59.09,56.684 59.101,56.633 59.11,56.584 59.12,56.533 59.129,56.482 59.14,56.432 59.151,56.381 59.16,56.33 59.171,56.279 
			59.18,56.227 59.19,56.174 59.2,56.121 59.21,56.07 59.22,56.016 59.231,55.963 59.241,55.908 59.249,55.854 59.26,55.799 
			59.27,55.744 59.28,55.688 59.291,55.633 59.3,55.576 59.311,55.521 59.321,55.465 59.331,55.408 59.341,55.352 59.351,55.293 
			59.361,55.236 59.371,55.178 59.381,55.119 59.391,55.061 59.401,55.004 59.41,54.945 59.421,54.883 59.431,54.824 59.44,54.766 
			59.451,54.705 59.461,54.645 59.472,54.584 59.481,54.523 59.491,54.461 59.501,54.4 59.511,54.338 59.521,54.275 59.532,54.215 
			59.541,54.152 59.552,54.09 59.562,54.025 59.572,53.963 59.583,53.9 59.592,53.834 59.601,53.771 59.612,53.707 59.622,53.643 
			59.633,53.576 59.643,53.51 59.653,53.447 59.662,53.381 59.672,53.316 59.682,53.25 59.692,53.184 59.703,53.117 59.713,53.051 
			59.721,52.982 59.732,52.916 59.743,52.85 59.753,52.781 59.764,52.713 59.772,52.646 59.783,52.578 59.793,52.51 59.803,52.441 
			59.813,52.371 59.823,52.303 59.833,52.234 59.844,52.164 59.854,52.096 59.864,52.023 59.873,51.955 59.884,51.887 
			59.894,51.814 59.904,51.744 59.914,51.672 59.924,51.602 59.934,51.531 59.944,51.461 59.954,51.389 59.964,51.316 
			59.975,51.244 59.984,51.174 59.995,51.102 60.004,51.029 60.016,50.957 60.023,50.885 60.035,50.811 60.045,50.738 
			60.055,50.664 60.064,50.592 60.075,50.518 60.085,50.445 60.094,50.369 60.105,50.299 60.116,50.223 60.125,50.148 
			60.136,50.074 60.146,50 60.156,49.926 60.166,49.852 60.176,49.777 60.186,49.701 60.195,49.627 60.207,49.551 60.217,49.477 
			60.227,49.402 60.236,49.326 60.246,49.248 60.256,49.174 60.268,49.098 60.277,49.021 60.287,48.945 60.298,48.869 
			60.307,48.793 60.316,48.717 60.329,48.641 60.338,48.564 60.348,48.488 60.357,48.41 60.368,48.334 60.378,48.258 60.389,48.18 
			60.398,48.102 60.408,48.025 60.418,47.949 60.427,47.871 60.438,47.795 60.449,47.715 60.459,47.637 60.469,47.562 
			60.479,47.484 60.489,47.406 60.5,47.328 60.508,47.25 60.52,47.172 60.529,47.094 60.54,47.016 60.55,46.938 60.559,46.861 
			60.57,46.781 60.58,46.703 60.59,46.625 60.6,46.547 60.609,46.469 60.621,46.391 60.63,46.312 60.641,46.234 60.65,46.154 
			60.66,46.076 60.67,46 60.682,45.92 60.691,45.842 60.701,45.762 60.711,45.684 60.721,45.605 60.732,45.527 60.741,45.447 
			60.751,45.369 60.761,45.291 60.771,45.213 60.782,45.135 60.792,45.055 60.803,44.977 60.812,44.898 60.822,44.82 60.833,44.74 
			60.842,44.66 60.854,44.582 60.863,44.506 60.874,44.427 60.882,44.348 60.893,44.27 60.902,44.191 60.913,44.111 60.924,44.033 
			60.934,43.955 60.941,43.876 60.953,43.799 60.963,43.721 60.973,43.643 60.984,43.564 60.994,43.486 61.004,43.408 
			61.014,43.327 61.023,43.25 61.035,43.172 61.045,43.096 61.055,43.016 61.064,42.939 61.075,42.861 61.084,42.782 61.096,42.705 
			61.105,42.627 61.116,42.551 61.125,42.473 61.135,42.396 61.145,42.317 61.154,42.24 61.167,42.162 61.176,42.084 61.186,42.009 
			61.195,41.932 61.206,41.855 61.215,41.778 61.227,41.7 61.236,41.625 61.246,41.547 61.255,41.471 61.268,41.395 61.275,41.318 
			61.288,41.244 61.296,41.167 61.307,41.09 61.316,41.014 61.327,40.938 61.338,40.863 61.348,40.786 61.357,40.711 61.367,40.636 
			61.378,40.561 61.387,40.484 61.398,40.41 61.408,40.336 61.417,40.26 61.428,40.187 61.438,40.111 61.449,40.036 61.459,39.963 
			61.468,39.889 61.479,39.814 61.488,39.74 61.499,39.666 61.509,39.593 61.52,39.52 61.529,39.446 61.539,39.373 61.55,39.3 
			61.559,39.228 61.568,39.152 61.58,39.081 61.59,39.009 61.6,38.937 61.609,38.864 61.62,38.792 61.63,38.72 61.639,38.647 
			61.65,38.576 61.659,38.505 61.67,38.434 61.68,38.363 61.689,38.291 61.701,38.221 61.709,38.15 61.721,38.081 61.73,38.01 
			61.741,37.94 61.75,37.87 61.759,37.799 61.77,37.729 61.781,37.661 61.791,37.592 61.8,37.522 61.811,37.453 61.82,37.384 
			61.832,37.316 61.841,37.248 61.852,37.181 61.861,37.113 61.872,37.044 61.882,36.976 61.891,36.91 61.9,36.842 61.912,36.775 
			61.922,36.709 61.932,36.643 61.941,36.576 61.953,36.51 61.961,36.444 61.973,36.379 61.982,36.314 61.992,36.248 62.002,36.183 
			62.012,36.118 62.021,36.053 62.033,35.989 62.042,35.925 62.053,35.861 62.062,35.796 62.07,35.733 62.083,35.669 62.092,35.607 
			62.102,35.544 62.113,35.481 62.122,35.417 62.131,35.356 62.143,35.294 62.152,35.233 62.162,35.171 62.173,35.109 
			62.182,35.049 62.191,34.988 62.202,34.928 62.213,34.867 62.225,34.808 62.232,34.747 62.244,34.688 62.252,34.627 62.264,34.57 
			62.273,34.511 62.283,34.45 62.294,34.394 62.302,34.334 62.314,34.278 62.325,34.22 62.333,34.162 62.343,34.105 62.354,34.048 
			62.364,33.992 62.374,33.935 62.384,33.879 62.395,33.824 62.402,33.767 62.414,33.713 62.423,33.657 62.434,33.603 
			62.443,33.547 62.454,33.494 62.463,33.439 62.475,33.386 62.482,33.332 62.494,33.279 62.505,33.227 62.514,33.174 
			62.523,33.121 62.534,33.07 62.543,33.018 62.555,32.966 62.564,32.914 62.574,32.864 62.584,32.813 62.594,32.762 62.604,32.712 
			62.614,32.663 62.625,32.613 62.633,32.563 62.643,32.514 62.654,32.465 62.665,32.417 62.674,32.368 62.684,32.321 
			62.693,32.273 62.705,32.226 62.713,32.178 62.725,32.132 62.734,32.086 62.744,32.04 62.754,31.994 62.764,31.948 62.773,31.903 
			62.785,31.857 62.794,31.813 62.805,31.769 62.814,31.725 62.823,31.68 62.833,31.637 62.846,31.595 62.855,31.551 62.864,31.509 
			62.874,31.466 62.884,31.424 62.895,31.382 62.904,31.34 62.915,31.3 62.924,31.259 62.936,31.219 62.943,31.178 62.954,31.138 
			62.964,31.099 62.973,31.059 62.984,31.02 62.995,30.981 63.003,30.943 63.023,30.867 63.044,30.792 63.062,30.719 63.083,30.647 
			63.104,30.576 63.124,30.505 63.145,30.438 63.164,30.371 63.184,30.305 63.203,30.24 63.223,30.176 63.243,30.115 63.264,30.054 
			63.283,29.994 63.302,29.936 63.323,29.879 63.343,29.823 63.363,29.768 63.382,29.716 63.402,29.663 63.421,29.612 
			63.441,29.562 63.463,29.515 63.48,29.468 63.501,29.422 63.521,29.378 63.542,29.335 63.561,29.292 63.581,29.253 63.602,29.213 
			63.619,29.175 63.641,29.139 63.66,29.103 63.68,29.069 63.699,29.036 63.719,29.005 63.739,28.975 63.758,28.945 63.779,28.918 
			63.798,28.892 63.818,28.867 63.838,28.842 63.857,28.82 63.877,28.798 63.896,28.778 63.917,28.76 63.938,28.742 63.957,28.725 
			63.977,28.71 63.996,28.696 64.016,28.684 64.036,28.672 64.055,28.662 64.075,28.653 64.094,28.646 64.114,28.639 64.134,28.634 
			64.154,28.629 64.174,28.628 64.193,28.625 64.213,28.625 64.232,28.626 64.252,28.628 64.271,28.631 64.292,28.635 
			64.312,28.642 64.331,28.648 64.352,28.656 64.37,28.666 64.391,28.676 64.411,28.687 64.432,28.7 64.45,28.713 64.471,28.728 
			64.488,28.744 64.508,28.761 64.527,28.78 64.548,28.798 64.566,28.819 64.586,28.841 64.605,28.864 64.625,28.887 64.646,28.912 
			64.666,28.938 64.686,28.965 64.704,28.993 64.725,29.022 64.745,29.053 64.764,29.085 64.783,29.116 64.805,29.15 64.823,29.185 
			64.842,29.22 64.861,29.256 64.882,29.293 64.9,29.332 64.921,29.372 64.939,29.411 64.959,29.453 64.98,29.495 64.998,29.538 
			65.02,29.582 65.038,29.627 65.059,29.673 65.077,29.72 65.098,29.768 65.116,29.816 65.137,29.867 65.154,29.917 65.175,29.967 
			65.193,30.02 65.215,30.074 65.234,30.126 65.253,30.182 65.273,30.238 65.292,30.294 65.311,30.351 65.331,30.41 65.352,30.469 
			65.37,30.528 65.389,30.588 65.409,30.65 65.428,30.711 65.448,30.774 65.467,30.837 65.486,30.902 65.507,30.966 65.525,31.032 
			65.545,31.099 65.564,31.166 65.586,31.233 65.604,31.301 65.624,31.37 65.643,31.44 65.663,31.51 65.682,31.581 65.701,31.652 
			65.723,31.725 65.742,31.798 65.76,31.871 65.779,31.945 65.799,32.02 65.818,32.094 65.837,32.169 65.855,32.246 65.867,32.284 
			65.877,32.323 65.887,32.361 65.898,32.4 65.906,32.439 65.917,32.477 65.925,32.516 65.936,32.555 65.945,32.594 65.955,32.634 
			65.964,32.674 65.975,32.712 65.982,32.753 65.994,32.793 66.004,32.833 66.014,32.873 66.023,32.913 66.033,32.953 
			66.042,32.993 66.053,33.034 66.062,33.075 66.07,33.116 66.081,33.157 66.091,33.197 66.102,33.238 66.109,33.279 66.121,33.321 
			66.129,33.362 66.141,33.404 66.148,33.445 66.159,33.486 66.169,33.528 66.18,33.57 66.188,33.612 66.198,33.653 66.208,33.696 
			66.218,33.738 66.227,33.78 66.236,33.822 66.247,33.865 66.256,33.908 66.266,33.95 66.275,33.993 66.285,34.035 66.297,34.078 
			66.307,34.121 66.314,34.164 66.325,34.207 66.334,34.25 66.344,34.293 66.354,34.337 66.363,34.379 66.373,34.423 66.383,34.466 
			66.393,34.509 66.4,34.553 66.412,34.596 66.421,34.64 66.432,34.685 66.439,34.727 66.451,34.772 66.46,34.814 66.471,34.859 
			66.479,34.903 66.49,34.947 66.499,34.992 66.509,35.035 66.52,35.08 66.527,35.123 66.538,35.167 66.549,35.213 66.559,35.255 
			66.568,35.3 66.577,35.345 66.587,35.389 66.596,35.433 66.605,35.479 66.617,35.524 66.626,35.568 66.637,35.613 66.645,35.658 
			66.654,35.701 66.663,35.745 66.674,35.791 66.686,35.835 66.693,35.88 66.704,35.925 66.713,35.97 66.725,36.015 66.732,36.06 
			66.743,36.104 66.752,36.149 66.762,36.193 66.771,36.239 66.779,36.283 66.791,36.329 66.801,36.373 66.811,36.419 
			66.818,36.463 66.829,36.509 66.839,36.553 66.85,36.599 66.857,36.643 66.869,36.688 66.877,36.732 66.889,36.779 66.896,36.822 
			66.908,36.867 66.917,36.914 66.928,36.957 66.938,37.002 66.945,37.047 66.957,37.093 66.967,37.138 66.977,37.182 
			66.986,37.227 66.994,37.271 67.004,37.316 67.016,37.361 67.025,37.405 67.033,37.45 67.044,37.495 67.052,37.54 67.062,37.585 
			67.073,37.63 67.083,37.675 67.093,37.72 67.102,37.765 67.111,37.809 67.122,37.852 67.13,37.897 67.141,37.942 67.15,37.987 
			67.161,38.031 67.17,38.075 67.18,38.12 67.189,38.163 67.2,38.208 67.209,38.252 67.218,38.296 67.229,38.341 67.236,38.384 
			67.247,38.429 67.257,38.473 67.268,38.517 67.275,38.561 67.286,38.604 67.297,38.648 67.307,38.693 67.314,38.737 
			67.325,38.779 67.335,38.823 67.344,38.866 67.354,38.911 67.363,38.953 67.375,38.997 67.383,39.041 67.393,39.083 
			67.402,39.127 67.413,39.171 67.424,39.213 67.434,39.257 67.441,39.299 67.452,39.342 67.461,39.385 67.473,39.428 67.48,39.47 
			67.491,39.514 67.5,39.555 67.512,39.598 67.521,39.642 67.529,39.683 67.539,39.725 67.549,39.767 67.559,39.809 67.568,39.852 
			67.578,39.893 67.589,39.935 67.6,39.977 67.609,40.02 67.617,40.061 67.627,40.103 67.639,40.145 67.646,40.184 67.656,40.227 
			67.666,40.268 67.675,40.309 67.686,40.349 67.695,40.391 67.705,40.432 67.714,40.473 67.725,40.513 67.732,40.553 
			67.742,40.594 67.752,40.633 67.764,40.675 67.771,40.714 67.781,40.754 67.792,40.795 67.802,40.834 67.812,40.875 
			67.822,40.914 67.83,40.954 67.841,40.994 67.852,41.031 67.859,41.072 67.87,41.111 67.88,41.15 67.891,41.189 67.898,41.227 
			67.908,41.268 67.919,41.305 67.93,41.343 67.938,41.382 67.958,41.459 67.977,41.535 67.996,41.61 68.016,41.685 68.037,41.76 
			68.055,41.834 68.074,41.908 68.094,41.981 68.111,42.055 68.133,42.126 68.15,42.197 68.172,42.268 68.189,42.34 68.211,42.41 
			68.229,42.479 68.25,42.549 68.271,42.617 68.289,42.686 68.309,42.754 68.328,42.82 68.348,42.887 68.367,42.952 68.387,43.018 
			68.404,43.082 68.425,43.146 68.443,43.21 68.464,43.273 68.484,43.334 68.503,43.396 68.521,43.459 68.542,43.52 68.562,43.579 
			68.581,43.639 68.604,43.697 68.62,43.754 68.641,43.812 68.659,43.87 68.68,43.927 68.698,43.982 68.718,44.037 68.738,44.091 
			68.757,44.146 68.777,44.199 68.796,44.25 68.814,44.303 68.835,44.354 68.855,44.404 68.874,44.454 68.895,44.506 68.913,44.553 
			68.934,44.602 68.953,44.648 68.973,44.693 68.99,44.74 69.012,44.787 69.031,44.83 69.052,44.877 69.07,44.918 69.09,44.963 
			69.109,45.002 69.13,45.045 69.148,45.084 69.169,45.125 69.188,45.164 69.208,45.203 69.227,45.242 69.247,45.277 69.266,45.316 
			69.286,45.352 69.305,45.387 69.325,45.422 69.346,45.455 69.363,45.488 69.384,45.521 69.404,45.553 69.422,45.584 
			69.441,45.615 69.462,45.645 69.482,45.674 69.502,45.703 69.521,45.73 69.54,45.758 69.561,45.785 69.58,45.811 69.6,45.836 
			69.618,45.859 69.641,45.883 69.658,45.906 69.68,45.928 69.697,45.949 69.716,45.971 69.736,45.992 69.757,46.012 69.775,46.029 
			69.797,46.049 69.814,46.066 69.836,46.084 69.855,46.1 69.875,46.117 69.895,46.131 69.915,46.145 69.934,46.16 69.954,46.172 
			69.973,46.184 69.992,46.197 70.014,46.207 70.032,46.219 70.051,46.229 70.072,46.236 70.091,46.246 70.111,46.254 70.13,46.262 
			70.15,46.268 70.17,46.273 70.189,46.279 70.209,46.283 70.229,46.287 70.25,46.291 70.27,46.293 70.288,46.297 70.309,46.297 
			70.327,46.299 70.348,46.299 70.368,46.301 70.387,46.297 70.404,46.297 70.427,46.295 70.445,46.293 70.466,46.289 
			70.484,46.285 70.505,46.281 70.525,46.275 70.545,46.271 70.562,46.266 70.584,46.258 70.604,46.252 70.623,46.242 
			70.645,46.234 70.662,46.225 70.684,46.217 70.702,46.205 70.723,46.197 70.741,46.186 70.762,46.174 70.779,46.16 70.802,46.15 
			70.82,46.135 70.84,46.121 70.859,46.107 70.88,46.094 70.898,46.078 70.919,46.062 70.938,46.047 70.959,46.029 70.979,46.012 
			70.999,45.994 71.02,45.977 71.038,45.959 71.059,45.939 71.077,45.92 71.098,45.9 71.117,45.881 71.137,45.857 71.156,45.838 
			71.177,45.816 71.195,45.793 71.217,45.77 71.236,45.748 71.256,45.725 71.273,45.701 71.296,45.676 71.314,45.652 71.335,45.627 
			71.355,45.602 71.374,45.574 71.393,45.549 71.413,45.521 71.434,45.496 71.453,45.467 71.475,45.439 71.493,45.412 
			71.514,45.383 71.532,45.354 71.553,45.326 71.572,45.297 71.593,45.266 71.611,45.236 71.632,45.205 71.65,45.174 71.671,45.143 
			71.691,45.111 71.711,45.08 71.73,45.047 71.751,45.014 71.771,44.982 71.79,44.949 71.811,44.916 71.83,44.883 71.85,44.85 
			71.869,44.814 71.891,44.781 71.908,44.746 71.93,44.711 71.949,44.678 71.969,44.641 71.986,44.605 72.008,44.568 72.027,44.535 
			72.048,44.498 72.066,44.463 72.086,44.424 72.107,44.389 72.126,44.352 72.146,44.312 72.168,44.277 72.188,44.238 
			72.206,44.201 72.227,44.163 72.245,44.124 72.266,44.088 72.286,44.049 72.307,44.01 72.326,43.973 72.346,43.934 72.363,43.893 
			72.385,43.854 72.404,43.814 72.424,43.775 72.443,43.736 72.464,43.695 72.484,43.656 72.505,43.617 72.523,43.576 
			72.544,43.537 72.562,43.496 72.584,43.456 72.604,43.416 72.623,43.375 72.643,43.336 72.663,43.295 72.684,43.254 
			72.703,43.214 72.725,43.174 72.741,43.133 72.764,43.094 72.781,43.051 72.802,43.012 72.82,42.971 72.84,42.929 72.859,42.887 
			72.881,42.848 72.9,42.807 72.92,42.766 72.939,42.725 72.96,42.684 72.979,42.643 72.999,42.602 73.021,42.561 73.039,42.521 
			73.061,42.48 73.079,42.439 73.1,42.398 73.118,42.357 73.139,42.317 73.157,42.275 73.18,42.236 73.198,42.194 73.218,42.155 
			73.236,42.115 73.258,42.074 73.277,42.035 73.297,41.994 73.314,41.955 73.337,41.914 73.357,41.875 73.377,41.835 
			73.396,41.796 73.416,41.757 73.438,41.717 73.455,41.676 73.477,41.639 73.495,41.6 73.516,41.561 73.535,41.521 73.557,41.484 
			73.574,41.443 73.596,41.406 73.615,41.367 73.634,41.33 73.652,41.292 73.674,41.253 73.693,41.217 73.714,41.178 73.732,41.141 
			73.752,41.104 73.773,41.066 73.793,41.029 73.812,40.994 73.832,40.956 73.852,40.921 73.873,40.885 73.893,40.849 73.91,40.812 
			73.932,40.776 73.952,40.741 73.973,40.707 73.992,40.672 74.01,40.637 74.029,40.602 74.05,40.568 74.07,40.534 74.092,40.498 
			74.111,40.465 74.129,40.433 74.148,40.398 74.17,40.365 74.189,40.332 74.21,40.3 74.229,40.268 74.249,40.234 74.268,40.203 
			74.289,40.171 74.309,40.141 74.328,40.108 74.348,40.078 74.368,40.047 74.387,40.016 74.407,39.985 74.427,39.956 
			74.447,39.926 74.468,39.896 74.484,39.866 74.507,39.838 74.525,39.809 74.546,39.781 74.564,39.752 74.586,39.725 
			74.604,39.697 74.625,39.67 74.646,39.643 74.665,39.614 74.684,39.588 74.705,39.562 74.725,39.535 74.744,39.51 74.764,39.484 
			74.783,39.458 74.805,39.434 74.823,39.408 74.844,39.385 74.861,39.359 74.881,39.336 74.9,39.312 74.923,39.289 74.941,39.267 
			74.962,39.242 74.98,39.221 75.001,39.197 75.02,39.177 75.041,39.154 75.061,39.133 75.079,39.111 75.1,39.092 75.119,39.071 
			75.139,39.051 75.158,39.029 75.182,39.012 75.198,38.992 75.219,38.973 75.238,38.955 75.259,38.936 75.277,38.917 75.299,38.9 
			75.316,38.882 75.337,38.864 75.355,38.848 75.377,38.83 75.396,38.815 75.416,38.798 75.436,38.783 75.456,38.766 75.475,38.752 
			75.495,38.737 75.516,38.723 75.534,38.707 75.555,38.693 75.574,38.68 75.596,38.666 75.613,38.653 75.634,38.64 75.652,38.627 
			75.674,38.615 75.691,38.602 75.713,38.591 75.732,38.58 75.753,38.569 75.771,38.557 75.791,38.546 75.812,38.536 75.831,38.526 
			75.85,38.517 75.87,38.507 75.891,38.498 75.91,38.49 75.93,38.48 75.949,38.472 75.969,38.463 75.988,38.456 76.01,38.448 
			76.027,38.441 76.046,38.434 76.066,38.428 76.086,38.421 76.107,38.415 76.128,38.409 76.146,38.404 76.167,38.398 
			76.186,38.394 76.206,38.389 76.225,38.383 76.246,38.38 76.266,38.376 76.284,38.373 76.305,38.369 76.324,38.365 76.343,38.362 
			76.363,38.359 76.382,38.357 76.402,38.355 76.422,38.353 76.441,38.351 76.462,38.35 76.482,38.349 76.501,38.349 76.521,38.347 
			76.541,38.347 76.561,38.347 76.58,38.347 76.6,38.347 76.619,38.348 76.641,38.348 76.66,38.349 76.68,38.35 76.697,38.351 
			76.718,38.354 76.736,38.355 76.758,38.357 76.777,38.359 76.797,38.362 76.814,38.365 76.836,38.368 76.857,38.372 
			76.877,38.375 76.896,38.378 76.914,38.382 76.936,38.387 76.955,38.39 76.975,38.396 76.995,38.401 77.014,38.404 77.033,38.411 
			77.055,38.417 77.073,38.421 77.092,38.427 77.111,38.433 77.132,38.439 77.15,38.445 77.172,38.451 77.191,38.458 77.21,38.465 
			77.229,38.472 77.25,38.479 77.27,38.486 77.288,38.493 77.311,38.501 77.328,38.51 77.348,38.518 77.368,38.526 77.391,38.533 
			77.409,38.543 77.428,38.551 77.445,38.561 77.466,38.57 77.486,38.578 77.506,38.588 77.523,38.597 77.546,38.607 77.564,38.616 
			77.584,38.627 77.604,38.636 77.624,38.647 77.643,38.658 77.664,38.667 77.684,38.679 77.702,38.689 77.721,38.7 77.742,38.712 
			77.762,38.721 77.779,38.733 77.802,38.745 77.82,38.756 77.839,38.768 77.859,38.779 77.88,38.791 77.898,38.803 77.92,38.815 
			77.938,38.827 77.957,38.841 77.979,38.853 77.998,38.864 78.018,38.877 78.038,38.889 78.057,38.902 78.078,38.916 
			78.098,38.928 78.116,38.939 78.139,38.955 78.152,38.967 78.175,38.981 78.193,38.994 78.215,39.009 78.234,39.021 
			78.253,39.035 78.271,39.049 78.293,39.062 78.312,39.076 78.331,39.09 78.354,39.104 78.371,39.117 78.391,39.132 78.411,39.146 
			78.432,39.16 78.449,39.174 78.471,39.188 78.488,39.203 78.509,39.217 78.527,39.23 78.549,39.246 78.566,39.261 78.589,39.275 
			78.607,39.289 78.627,39.303 78.646,39.318 78.667,39.334 78.686,39.348 78.707,39.362 78.727,39.377 78.745,39.393 
			78.768,39.407 78.785,39.422 78.805,39.436 78.825,39.452 78.842,39.467 78.863,39.482 78.882,39.496 78.902,39.512 
			78.923,39.525 78.941,39.541 78.96,39.555 78.98,39.57 79,39.586 79.02,39.602 79.041,39.615 79.061,39.629 79.078,39.645 
			79.1,39.66 79.119,39.676 79.139,39.689 79.159,39.704 79.178,39.719 79.195,39.734 79.218,39.749 79.236,39.764 79.256,39.778 
			79.277,39.793 79.296,39.809 79.314,39.822 79.336,39.838 79.355,39.852 79.374,39.867 79.393,39.881 79.412,39.896 79.434,39.91 
			79.452,39.924 79.475,39.939 79.492,39.953 79.512,39.968 79.529,39.982 79.552,39.997 79.57,40.012 79.589,40.024 79.609,40.039 
			79.63,40.053 79.65,40.066 79.67,40.081 79.688,40.096 79.71,40.109 79.729,40.123 79.748,40.137 79.77,40.15 79.788,40.165 
			79.807,40.178 79.826,40.191 79.846,40.204 79.866,40.219 79.885,40.231 79.904,40.246 79.925,40.258 79.943,40.271 
			79.966,40.285 79.984,40.298 80.003,40.311 80.021,40.324 80.043,40.336 80.062,40.35 80.084,40.361 80.104,40.375 80.121,40.387 
			80.143,40.399 80.162,40.411 80.182,40.426 80.199,40.436 80.221,40.449 80.238,40.461 80.259,40.473 80.279,40.484 
			80.299,40.496 80.316,40.508 80.339,40.52 80.357,40.531 80.377,40.543 80.398,40.555 80.417,40.566 80.436,40.576 80.455,40.588 
			80.477,40.598 80.495,40.609 80.514,40.621 80.535,40.631 80.555,40.643 80.573,40.652 80.596,40.663 80.613,40.674 
			80.635,40.684 80.652,40.693 80.673,40.703 80.691,40.715 80.71,40.725 80.73,40.735 80.751,40.744 80.771,40.754 80.791,40.764 
			80.811,40.773 80.831,40.782 80.85,40.792 80.869,40.801 80.889,40.811 80.909,40.819 80.928,40.828 80.947,40.838 80.968,40.846 
			80.986,40.854 81.008,40.863 81.027,40.871 81.046,40.879 81.066,40.889 81.084,40.895 81.105,40.904 81.124,40.911 81.145,40.92 
			81.164,40.927 81.186,40.936 81.204,40.941 81.225,40.949 81.242,40.957 81.264,40.965 81.282,40.972 81.302,40.979 
			81.323,40.984 81.342,40.992 81.359,40.999 81.38,41.006 81.4,41.012 81.42,41.02 81.438,41.023 81.46,41.031 81.479,41.037 
			81.498,41.043 81.52,41.049 81.538,41.055 81.557,41.061 81.578,41.064 81.598,41.07 81.616,41.076 81.639,41.082 81.656,41.088 
			81.678,41.092 81.695,41.098 81.716,41.102 81.736,41.107 81.756,41.111 81.773,41.115 81.793,41.121 81.814,41.125 
			81.834,41.129 81.854,41.133 81.871,41.139 81.893,41.141 81.914,41.145 81.934,41.148 81.952,41.154 81.975,41.156 81.992,41.16 
			82.012,41.163 82.032,41.167 82.051,41.17 82.07,41.173 82.089,41.176 82.109,41.18 82.129,41.182 82.148,41.185 82.17,41.188 
			82.188,41.189 82.21,41.193 82.229,41.195 82.247,41.197 82.27,41.199 82.288,41.202 82.307,41.203 82.325,41.205 82.348,41.208 
			82.366,41.209 82.385,41.211 82.406,41.213 82.425,41.214 82.445,41.215 82.465,41.217 82.484,41.219 82.503,41.219 
			82.523,41.221 82.543,41.221 82.564,41.221 82.581,41.223 82.604,41.224 82.624,41.225 82.641,41.225 82.661,41.227 
			82.682,41.227 82.701,41.227 82.721,41.227 82.738,41.227 82.759,41.227 82.779,41.229 82.799,41.227 82.82,41.227 82.839,41.229 
			82.857,41.227 82.879,41.227 82.896,41.227 82.917,41.225 82.938,41.225 82.957,41.225 82.977,41.225 82.997,41.223 
			83.018,41.223 83.035,41.221 83.057,41.221 83.075,41.221 83.094,41.219 83.115,41.217 83.135,41.215 83.152,41.215 
			83.175,41.213 83.193,41.212 83.213,41.211 83.232,41.209 83.253,41.207 83.271,41.207 83.293,41.203 83.312,41.202 
			83.331,41.201 83.35,41.197 83.371,41.196 83.391,41.193 83.411,41.191 83.43,41.19 83.451,41.189 83.471,41.188 83.488,41.184 
			83.508,41.182 83.529,41.18 83.548,41.178 83.566,41.175 83.586,41.172 83.607,41.17 83.626,41.167 83.646,41.164 83.666,41.162 
			83.686,41.158 83.707,41.156 83.727,41.154 83.747,41.15 83.766,41.148 83.785,41.145 83.807,41.143 83.825,41.139 83.844,41.135 
			83.863,41.133 83.884,41.129 83.902,41.125 83.924,41.121 83.943,41.119 83.962,41.115 83.982,41.112 84.002,41.109 
			84.021,41.105 84.04,41.102 84.062,41.1 84.083,41.096 84.102,41.092 84.12,41.089 84.141,41.085 84.161,41.082 84.18,41.078 
			84.201,41.076 84.218,41.07 84.238,41.067 84.258,41.062 84.279,41.061 84.298,41.056 84.316,41.053 84.336,41.049 84.357,41.045 
			84.376,41.04 84.396,41.037 84.416,41.031 84.436,41.028 84.454,41.025 84.477,41.021 84.494,41.018 84.514,41.014 84.534,41.01 
			84.557,41.006 84.574,41.001 84.594,40.996 84.615,40.993 84.634,40.988 84.652,40.984 84.672,40.98 84.693,40.977 84.712,40.973 
			84.73,40.969 84.75,40.963 84.771,40.96 84.792,40.955 84.812,40.951 84.83,40.947 84.85,40.943 84.87,40.938 84.891,40.936 
			84.91,40.93 84.93,40.926 84.948,40.922 84.971,40.918 84.988,40.914 85.008,40.91 85.027,40.905 85.045,40.9 85.066,40.896 
			85.086,40.893 85.105,40.889 85.126,40.885 85.146,40.879 85.166,40.876 85.186,40.873 85.206,40.866 85.225,40.863 
			85.244,40.859 85.264,40.854 85.284,40.852 85.303,40.846 85.324,40.843 85.343,40.838 85.363,40.834 85.381,40.83 85.402,40.826 
			85.421,40.82 85.439,40.816 85.462,40.812 85.48,40.809 85.499,40.805 85.521,40.801 85.539,40.797 85.561,40.792 85.58,40.789 
			85.602,40.783 85.62,40.78 85.639,40.776 85.658,40.771 85.68,40.768 85.698,40.764 85.717,40.76 85.738,40.756 85.76,40.753 
			85.775,40.748 85.797,40.744 85.816,40.74 85.838,40.736 85.855,40.732 85.878,40.729 85.895,40.725 85.916,40.721 85.938,40.717 
			85.953,40.714 85.975,40.711 85.993,40.705 86.014,40.702 86.034,40.699 86.053,40.695 86.07,40.691 86.091,40.687 86.111,40.684 
			86.131,40.681 86.152,40.678 86.171,40.672 86.191,40.669 86.211,40.666 86.232,40.663 86.251,40.66 86.271,40.656 86.289,40.652 
			86.311,40.648 86.329,40.646 86.35,40.642 86.37,40.639 86.389,40.637 86.407,40.633 86.427,40.629 86.447,40.627 86.469,40.621 
			86.484,40.619 86.509,40.617 86.525,40.613 86.547,40.609 86.566,40.606 86.585,40.603 86.605,40.602 86.625,40.598 
			86.645,40.594 86.665,40.592 86.686,40.588 86.703,40.586 86.725,40.582 86.743,40.58 86.764,40.576 86.781,40.574 86.803,40.572 
			86.82,40.568 86.84,40.566 86.861,40.563 86.881,40.562 86.9,40.559 86.921,40.555 86.939,40.553 86.959,40.551 86.979,40.549 
			87.001,40.546 87.02,40.543 87.039,40.54 87.059,40.539 87.079,40.535 87.098,40.534 87.117,40.531 87.139,40.528 87.157,40.527 
			87.176,40.523 87.197,40.522 87.216,40.519 87.234,40.518 87.257,40.516 87.275,40.514 87.297,40.51 87.314,40.51 87.335,40.507 
			87.355,40.506 87.375,40.504 87.395,40.501 87.415,40.5 87.434,40.498 87.453,40.495 87.475,40.494 87.493,40.492 87.512,40.489 
			87.533,40.488 87.55,40.486 87.57,40.484 87.593,40.483 87.611,40.482 87.63,40.48 87.65,40.479 87.67,40.478 87.689,40.477 
			87.711,40.474 87.729,40.472 87.751,40.472 87.768,40.469 87.789,40.468 87.809,40.467 87.829,40.465 87.848,40.465 
			87.866,40.465 87.889,40.462 87.907,40.461 87.926,40.459 87.943,40.457 87.966,40.456 87.984,40.456 88.004,40.455 
			88.025,40.453 88.044,40.453 88.064,40.451 88.082,40.45 88.104,40.45 88.124,40.449 88.145,40.447 88.162,40.447 88.184,40.445 
			88.202,40.445 88.223,40.445 88.243,40.444 88.262,40.443 88.279,40.441 88.3,40.441 88.32,40.441 88.342,40.441 88.361,40.441 
			88.38,40.438 88.398,40.438 88.42,40.438 88.439,40.438 88.46,40.438 88.479,40.436 88.498,40.436 88.52,40.436 88.538,40.435 
			88.559,40.434 88.576,40.434 88.598,40.434 88.616,40.434 88.637,40.434 88.654,40.433 88.676,40.433 88.693,40.433 
			88.713,40.433 88.734,40.433 88.756,40.433 88.771,40.433 		"/>
	</g>
</g>
<g>
	<path fill="none" stroke="#000000" stroke-miterlimit="10" d="M117.5,67.5c0,5.5-4.5,10-10,10h-96c-5.5,0-10-4.5-10-10v-56
		c0-5.5,4.5-10,10-10h96c5.5,0,10,4.5,10,10V67.5z"/>
</g>
<rect x="11.5" y="79.5" fill="none" stroke="#000000" stroke-miterlimit="10" width="20" height="5"/>
<rect x="87.5" y="79.5" fill="none" stroke="#000000" stroke-miterlimit="10" width="20" height="5"/>
<g>
	<path fill="none" stroke="#000000" stroke-miterlimit="10" d="M89.5,67.5c0,1.65-1.35,3-3,3h-75c-1.65,0-3-1.35-3-3v-55
		c0-1.65,1.35-3,3-3h75c1.65,0,3,1.35,3,3V67.5z"/>
</g>
<line fill="none" stroke="#000000" stroke-miterlimit="10" x1="13.5" y1="80" x2="13.5" y2="84"/>
<line fill="none" stroke="#000000" stroke-miterlimit="10" x1="16.5" y1="80" x2="16.5" y2="84"/>
<line fill="none" stroke="#000000" stroke-miterlimit="10" x1="29.5" y1="80" x2="29.5" y2="84"/>
<line fill="none" stroke="#000000" stroke-miterlimit="10" x1="26.5" y1="80" x2="26.5" y2="84"/>
<line fill="none" stroke="#000000" stroke-miterlimit="10" x1="21.5" y1="80" x2="21.5" y2="84"/>
<line fill="none" stroke="#000000" stroke-miterlimit="10" x1="89.5" y1="80" x2="89.5" y2="84"/>
<line fill="none" stroke="#000000" stroke-miterlimit="10" x1="92.5" y1="80" x2="92.5" y2="84"/>
<line fill="none" stroke="#000000" stroke-miterlimit="10" x1="105.5" y1="80" x2="105.5" y2="84"/>
<line fill="none" stroke="#000000" stroke-miterlimit="10" x1="102.5" y1="80" x2="102.5" y2="84"/>
<line fill="none" stroke="#000000" stroke-miterlimit="10" x1="97.5" y1="80" x2="97.5" y2="84"/>
<g>
	<circle fill="none" stroke="#000000" stroke-miterlimit="10" cx="102.5" cy="15.5" r="3.5"/>
	<line fill="none" stroke="#000000" stroke-miterlimit="10" x1="102.5" y1="12" x2="102.5" y2="9"/>
	<circle fill="none" stroke="#000000" stroke-miterlimit="10" cx="102.5" cy="15.5" r="6.5"/>
</g>
<g>
	<circle fill="none" stroke="#000000" stroke-miterlimit="10" cx="102.5" cy="34.5" r="3.5"/>
	<line fill="none" stroke="#000000" stroke-miterlimit="10" x1="105.167" y1="32.233" x2="107.452" y2="30.291"/>
	<circle fill="none" stroke="#000000" stroke-miterlimit="10" cx="102.5" cy="34.5" r="6.5"/>
</g>
<g>
	<circle fill="none" stroke="#000000" stroke-miterlimit="10" cx="102.5" cy="53.5" r="3.5"/>
	<line fill="none" stroke="#000000" stroke-miterlimit="10" x1="100.936" y1="50.369" x2="99.593" y2="47.688"/>
	<circle fill="none" stroke="#000000" stroke-miterlimit="10" cx="102.5" cy="53.5" r="6.5"/>
</g>
<rect x="96.5" y="66.5" fill="#FF1D25" stroke="#FF1D25" stroke-miterlimit="10" width="4" height="4"/>
<rect x="104.5" y="66.5" fill="none" stroke="#000000" stroke-miterlimit="10" width="4" height="4"/>
<circle cx="16.5" cy="15.5" r="0.5"/>
<circle cx="24.5" cy="15.5" r="0.5"/>
<circle cx="32.5" cy="15.5" r="0.5"/>
<circle cx="40.5" cy="15.5" r="0.5"/>
<circle cx="48.5" cy="15.5" r="0.5"/>
<circle cx="56.5" cy="15.5" r="0.5"/>
<circle cx="64.5" cy="15.5" r="0.5"/>
<circle cx="72.5" cy="15.5" r="0.5"/>
<circle cx="80.5" cy="15.5" r="0.5"/>
</svg>
