<?xml version="1.0" encoding="utf-8"?>
<!-- Generator: Adobe Illustrator 16.0.0, SVG Export Plug-In . SVG Version: 6.00 Build 0)  -->
<!DOCTYPE svg PUBLIC "-//W3C//DTD SVG 1.1//EN" "http://www.w3.org/Graphics/SVG/1.1/DTD/svg11.dtd">
<svg version="1.1" id="Layer_1" xmlns="http://www.w3.org/2000/svg" xmlns:xlink="http://www.w3.org/1999/xlink" x="0px" y="0px"
	 width="50px" height="50px" viewBox="0 0 50 50" enable-background="new 0 0 50 50" xml:space="preserve">
<g>
	<path fill="#FFFFFF" d="M50,40.625C50,45.781,45.781,50,40.625,50H9.375C4.219,50,0,45.781,0,40.625V9.375C0,4.219,4.219,0,9.375,0
		h31.25C45.781,0,50,4.219,50,9.375V40.625z"/>
</g>
<path fill="none" stroke="#121212" stroke-miterlimit="10" d="M39.857,21.188c-0.006,1.5-1.549,2.361-2.904,1.592
	c-1.824-1.035-3.76-1.772-5.789-2.276c-3.998-0.993-8.051-1.312-12.142-0.851c-1.64,0.183-3.261,0.553-4.88,0.891
	c-1.089,0.229-2.083-0.271-2.39-1.3c-0.305-1.023,0.251-2.044,1.321-2.37c1.935-0.59,3.922-0.905,5.934-1.083
	c2.337-0.208,4.676-0.209,7.013,0.004c4.477,0.408,8.793,1.388,12.746,3.633C39.538,19.865,39.861,20.404,39.857,21.188z"/>
<path fill="none" stroke="#121212" stroke-miterlimit="10" d="M22,25.657c-2.306-0.011-4.57,0.276-6.788,0.919
	c-1.006,0.291-1.887-0.148-2.145-1.045c-0.259-0.901,0.251-1.74,1.26-2.03c3.219-0.931,6.5-1.231,9.84-0.991
	c3.754,0.271,7.341,1.151,10.712,2.852c0.493,0.25,0.98,0.517,1.443,0.814c0.803,0.518,1.019,1.447,0.545,2.208
	c-0.475,0.759-1.405,0.987-2.223,0.507C30.741,26.587,26.479,25.7,22,25.657z"/>
<path fill="none" stroke="#121212" stroke-miterlimit="10" d="M22.713,28.864c3.654,0.001,7.51,0.866,11.049,2.954
	c0.207,0.123,0.416,0.264,0.576,0.439c0.415,0.46,0.415,1.122,0.033,1.613c-0.385,0.496-1.032,0.638-1.621,0.341
	c-0.827-0.414-1.629-0.89-2.48-1.248c-3.152-1.323-6.458-1.725-9.84-1.413c-1.663,0.154-3.311,0.461-4.961,0.725
	c-0.809,0.127-1.462-0.254-1.624-1.01c-0.146-0.677,0.302-1.334,1.057-1.508C17.332,29.197,19.791,28.868,22.713,28.864z"/>
<circle fill="none" stroke="#121212" stroke-miterlimit="10" cx="25" cy="25" r="19.792"/>
</svg>
