<svg width="50" height="50" viewBox="0 0 50 50" version="1.1" xmlns="http://www.w3.org/2000/svg" xmlns:xlink="http://www.w3.org/1999/xlink">
<title>spotify</title>
<desc>Created using Figma</desc>
<g id="Canvas" transform="translate(-685 -2952)">
<clipPath id="clip-0" clip-rule="evenodd">
<path d="M 685 2952L 735 2952L 735 3002L 685 3002L 685 2952Z" fill="#FFFFFF"/>
</clipPath>
<g id="spotify" clip-path="url(#clip-0)">
<g id="Vector">
<use xlink:href="#path0_stroke" transform="translate(696.669 2967.64)" fill="#FFFFFF"/>
</g>
<g id="Vector">
<use xlink:href="#path1_stroke" transform="translate(698 2974.43)" fill="#FFFFFF"/>
</g>
<g id="Vector">
<use xlink:href="#path2_stroke" transform="translate(698.818 2980.86)" fill="#FFFFFF"/>
</g>
<g id="Vector">
<use xlink:href="#path3_stroke" transform="translate(690.208 2957.21)" fill="#FFFFFF"/>
</g>
</g>
</g>
<defs>
<path id="path0_stroke" d="M 28.1881 5.55288L 27.3881 5.5488L 27.3881 5.54968L 28.1881 5.55288ZM 25.2841 7.14488L 25.6789 6.44912L 25.6789 6.44909L 25.2841 7.14488ZM 19.4951 4.86888L 19.6879 4.09247L 19.6879 4.09247L 19.4951 4.86888ZM 7.35307 4.01788L 7.44179 4.81294L 7.44265 4.81285L 7.35307 4.01788ZM 2.47307 4.90888L 2.30958 4.12576L 2.30844 4.126L 2.47307 4.90888ZM 0.0830715 3.60888L -0.68358 3.83745L -0.683537 3.83759L 0.0830715 3.60888ZM 1.40407 1.23888L 1.63723 2.00415L 1.63739 2.0041L 1.40407 1.23888ZM 7.33807 0.155877L 7.40857 0.952765L 7.40899 0.952727L 7.33807 0.155877ZM 14.3511 0.159877L 14.2785 0.956575L 14.2785 0.956576L 14.3511 0.159877ZM 27.0971 3.79288L 26.702 4.48852L 26.703 4.48907L 27.0971 3.79288ZM 27.3881 5.54968C 27.3847 6.39334 26.5411 6.93841 25.6789 6.44912L 24.8892 7.84064C 26.7371 8.88935 28.9794 7.71241 28.9881 5.55608L 27.3881 5.54968ZM 25.6789 6.44909C 23.7844 5.37407 21.7791 4.61191 19.6879 4.09247L 19.3022 5.64528C 21.269 6.13384 23.1358 6.84569 24.8893 7.84067L 25.6789 6.44909ZM 19.6879 4.09247C 15.6046 3.07827 11.4559 2.75049 7.26349 3.22291L 7.44265 4.81285C 11.4323 4.36327 15.3896 4.67348 19.3022 5.64529L 19.6879 4.09247ZM 7.26435 3.22281C 5.57639 3.41116 3.90659 3.79235 2.30958 4.12576L 2.63656 5.69199C 4.27756 5.3494 5.84975 4.99059 7.44179 4.81294L 7.26435 3.22281ZM 2.30844 4.126C 1.55699 4.28402 1.01834 3.94547 0.84968 3.38016L -0.683537 3.83759C -0.238197 5.33028 1.21116 5.99174 2.6377 5.69176L 2.30844 4.126ZM 0.849723 3.3803C 0.67593 2.79738 0.96942 2.20761 1.63723 2.00415L 1.17091 0.473608C -0.301277 0.922145 -1.11979 2.37437 -0.68358 3.83745L 0.849723 3.3803ZM 1.63739 2.0041C 3.503 1.43526 5.43165 1.12766 7.40857 0.952765L 7.26757 -0.64101C 5.22049 -0.459906 3.17514 -0.1375 1.17075 0.473658L 1.63739 2.0041ZM 7.40899 0.952727C 9.69903 0.748907 11.99 0.747998 14.2785 0.956575L 14.4237 -0.636821C 12.0382 -0.854244 9.65111 -0.853152 7.26715 -0.640973L 7.40899 0.952727ZM 14.2785 0.956576C 18.689 1.35852 22.8822 2.31918 26.702 4.48852L 27.4921 3.09723C 23.4059 0.776575 18.9671 -0.222766 14.4237 -0.636821L 14.2785 0.956576ZM 26.703 4.48907C 27.0094 4.66255 27.1661 4.82193 27.2521 4.96186C 27.3347 5.09612 27.3895 5.27254 27.3881 5.5488L 28.9881 5.55696C 28.9907 5.04922 28.8859 4.56413 28.615 4.12364C 28.3476 3.68882 27.9567 3.36021 27.4912 3.09668L 26.703 4.48907Z"/>
<path id="path1_stroke" d="M 8.99977 3.22603L 9.00745 2.42606L 9.00359 2.42604L 8.99977 3.22603ZM 2.21177 4.14503L 2.43407 4.91352L 2.43452 4.91339L 2.21177 4.14503ZM 0.0667742 3.10003L -0.70209 3.32104L -0.702056 3.32116L 0.0667742 3.10003ZM 1.32677 1.07003L 1.54776 1.8389L 1.54904 1.83853L 1.32677 1.07003ZM 11.1668 0.0790286L 11.2244 -0.718895L 11.2241 -0.718914L 11.1668 0.0790286ZM 21.8788 2.93103L 22.2406 2.21752L 22.2392 2.2168L 21.8788 2.93103ZM 23.3218 3.74503L 23.7554 3.07276L 23.7537 3.07166L 23.3218 3.74503ZM 23.8668 5.95303L 24.5449 6.37743L 24.5458 6.37599L 23.8668 5.95303ZM 21.6438 6.46003L 21.2371 7.14895L 21.2389 7.15001L 21.6438 6.46003ZM 9.00359 2.42604C 6.62782 2.4147 4.28697 2.71049 1.98902 3.37666L 2.43452 4.91339C 4.57258 4.29357 6.75973 4.01535 8.99596 4.02602L 9.00359 2.42604ZM 1.98948 3.37653C 1.64947 3.47489 1.38603 3.43558 1.21103 3.34975C 1.04232 3.26702 0.904263 3.1176 0.835604 2.87889L -0.702056 3.32116C -0.512715 3.97945 -0.0812763 4.49804 0.50652 4.7863C 1.08802 5.07148 1.76808 5.10617 2.43407 4.91352L 1.98948 3.37653ZM 0.835638 2.87901C 0.765862 2.63628 0.803896 2.43517 0.902128 2.27595C 1.00404 2.11075 1.20569 1.93721 1.54776 1.8389L 1.10579 0.301155C 0.438853 0.492841 -0.118997 0.883805 -0.45958 1.43586C -0.803848 1.99388 -0.891313 2.66278 -0.70209 3.32104L 0.835638 2.87901ZM 1.54904 1.83853C 4.67034 0.935789 7.85613 0.643201 11.1094 0.876971L 11.2241 -0.718914C 7.79742 -0.965143 4.42121 -0.657733 1.10451 0.301524L 1.54904 1.83853ZM 11.1092 0.876952C 14.7739 1.14151 18.2553 1.99869 21.5184 3.64525L 22.2392 2.2168C 18.7603 0.461368 15.0677 -0.441449 11.2244 -0.718895L 11.1092 0.876952ZM 21.517 3.64453C 21.9956 3.88723 22.4571 4.1408 22.8898 4.4184L 23.7537 3.07166C 23.2605 2.75526 22.748 2.47483 22.2406 2.21752L 21.517 3.64453ZM 22.8881 4.41729C 23.3463 4.71285 23.417 5.16204 23.1877 5.53007L 24.5458 6.37599C 25.2646 5.22202 24.9033 3.8132 23.7554 3.07277L 22.8881 4.41729ZM 23.1886 5.52863C 22.9523 5.90628 22.508 6.03961 22.0487 5.77005L 21.2389 7.15001C 22.4155 7.84045 23.8313 7.51778 24.5449 6.37743L 23.1886 5.52863ZM 22.0505 5.77111C 17.9976 3.37866 13.589 2.47005 9.00745 2.42606L 8.99209 4.02599C 13.3685 4.06801 17.4839 4.9334 21.2371 7.14895L 22.0505 5.77111Z"/>
<path id="path2_stroke" d="M 8.89547 3.20435e-07L 8.89569 -0.800001L 8.89438 -0.799999L 8.89547 3.20435e-07ZM 19.9445 2.954L 20.3531 2.26625L 20.351 2.26498L 19.9445 2.954ZM 20.5205 3.393L 21.1145 2.8571L 21.1109 2.85318L 20.5205 3.393ZM 20.5535 5.006L 19.9221 4.51476L 19.9215 4.51546L 20.5535 5.006ZM 18.9325 5.347L 19.2927 4.63267L 19.2906 4.63163L 18.9325 5.347ZM 16.4525 4.099L 16.7627 3.3616L 16.7621 3.36135L 16.4525 4.099ZM 6.61247 2.686L 6.53898 1.88938L 6.53871 1.88941L 6.61247 2.686ZM 1.65147 3.411L 1.77554 4.20133L 1.77786 4.20095L 1.65147 3.411ZM 0.0274724 2.401L 0.809715 2.23338L 0.809494 2.23235L 0.0274724 2.401ZM 1.08447 0.893L 0.904819 0.113433L 0.904811 0.113435L 1.08447 0.893ZM 8.89525 0.8C 12.4243 0.800966 16.1367 1.63627 19.538 3.64302L 20.351 2.26498C 16.6743 0.0957291 12.6746 -0.798965 8.89569 -0.8L 8.89525 0.8ZM 19.5358 3.64175C 19.7255 3.75448 19.8517 3.84714 19.9301 3.93282L 21.1109 2.85318C 20.8692 2.58886 20.5774 2.39952 20.3531 2.26625L 19.5358 3.64175ZM 19.9265 3.92888C 20.0615 4.07851 20.0848 4.30554 19.9221 4.51476L 21.1849 5.49724C 21.7861 4.72446 21.8095 3.62749 21.1145 2.85712L 19.9265 3.92888ZM 19.9215 4.51546C 19.7813 4.69616 19.5549 4.76492 19.2927 4.63267L 18.5723 6.06132C 19.488 6.52308 20.5557 6.30784 21.1854 5.49653L 19.9215 4.51546ZM 19.2906 4.63163C 18.5378 4.2548 17.6404 3.73084 16.7627 3.3616L 16.1423 4.83641C 16.9665 5.18317 17.6731 5.6112 18.5744 6.06237L 19.2906 4.63163ZM 16.7621 3.36135C 13.4739 1.98119 10.0341 1.56695 6.53898 1.88938L 6.68596 3.48262C 9.95486 3.18105 13.127 3.57081 16.1429 4.83666L 16.7621 3.36135ZM 6.53871 1.88941C 4.8407 2.04665 3.14783 2.36141 1.52508 2.62105L 1.77786 4.20095C 3.45511 3.93259 5.05824 3.63335 6.68624 3.48259L 6.53871 1.88941ZM 1.5274 2.62068C 1.27441 2.6604 1.10808 2.61197 1.0139 2.55443C 0.928895 2.50251 0.847892 2.41154 0.809714 2.23338L -0.75477 2.56862C -0.630947 3.14646 -0.30445 3.62399 0.179795 3.91982C 0.654863 4.21003 1.21953 4.28861 1.77554 4.20132L 1.5274 2.62068ZM 0.809494 2.23235C 0.768541 2.04245 0.873519 1.76259 1.26413 1.67257L 0.904811 0.113435C -0.214574 0.371412 -1.0056 1.40555 -0.754549 2.56965L 0.809494 2.23235ZM 1.26413 1.67257C 3.64036 1.12496 6.0394 0.803911 8.89657 0.8L 8.89438 -0.799999C 5.90755 -0.79591 3.38858 -0.458957 0.904819 0.113433L 1.26413 1.67257Z"/>
<path id="path3_stroke" d="M 38.784 19.792C 38.784 30.281 30.281 38.784 19.792 38.784L 19.792 40.384C 31.1646 40.384 40.384 31.1646 40.384 19.792L 38.784 19.792ZM 19.792 38.784C 9.30301 38.784 0.8 30.281 0.8 19.792L -0.8 19.792C -0.8 31.1646 8.41935 40.384 19.792 40.384L 19.792 38.784ZM 0.8 19.792C 0.8 9.30301 9.30301 0.8 19.792 0.8L 19.792 -0.8C 8.41935 -0.8 -0.8 8.41935 -0.8 19.792L 0.8 19.792ZM 19.792 0.8C 30.281 0.8 38.784 9.30301 38.784 19.792L 40.384 19.792C 40.384 8.41935 31.1646 -0.8 19.792 -0.8L 19.792 0.8Z"/>
</defs>
</svg>
